<svg width="150" height="80" viewBox="0 0 150 80" fill="none" xmlns="http://www.w3.org/2000/svg">
<g clip-path="url(#clip0)">
<path opacity="0.1" d="M138.5 63.2613C138.333 63.6222 138.166 63.9783 138 64.3296C137.74 64.8753 137.485 65.4104 137.232 65.9349C137.12 66.1673 137.007 66.3954 136.898 66.6235C135.659 69.1599 134.502 71.4032 133.52 73.2481C132.628 74.9198 131.305 76.3205 129.688 77.3034C128.071 78.2863 126.219 78.8152 124.328 78.8349L102.483 79.0731H102.253L100.38 79.0933L98.7784 79.1106L93.8664 79.164H93.6676L91.1669 79.1914H91.0906L75.6774 79.3589L61.9194 79.5033L60.319 79.5206L50.3797 79.6289H50.3682L43.9221 79.6981H43.8529L23.4701 79.919L17.3726 79.9854C16.0714 80.0002 14.7756 79.8142 13.5308 79.434C11.3646 78.7782 9.41788 77.5429 7.89999 75.8611C5.2812 72.9695 3.37257 69.5958 2.09054 65.9349C1.9052 65.4065 1.73234 64.8714 1.57197 64.3296C-2.86615 49.2945 2.54429 29.8968 12.2819 16.916C12.6901 16.3732 13.1049 15.8439 13.5265 15.328L13.5366 15.3165C16.5313 11.6324 19.8891 8.55464 23.4658 6.36614C29.8039 2.48141 36.8263 1.38716 43.7334 4.64826C49.5774 7.40842 55.0339 8.70622 60.3234 9.05845C60.8578 9.0931 61.3922 9.11909 61.9237 9.13496C74.0569 9.51752 85.428 5.13619 98.7813 2.30818C99.3128 2.19558 99.8458 2.08442 100.383 1.97904C109.909 0.0792623 120.476 -0.922596 133.043 1.18362C134.349 1.39737 135.637 1.70615 136.898 2.10752C137.452 2.28653 137.986 2.47901 138.5 2.68496C144.498 5.13042 147.769 9.64889 149.159 15.3107C149.291 15.8362 149.405 16.3708 149.501 16.9145C151.965 30.5335 144.747 49.8517 138.5 63.2613Z" fill="#3D58B0"/>
<g opacity="0.1">
<path opacity="0.1" d="M23.4667 6.36523V79.934L17.3691 80.0004C16.0679 80.0151 14.7721 79.8291 13.5273 79.449V15.3156H13.5374C16.5322 11.6272 19.8899 8.5494 23.4667 6.36523Z" fill="#3D58B0"/>
<path opacity="0.1" d="M149.509 16.9149H12.2832C12.6913 16.3721 13.1062 15.8428 13.5278 15.327V15.3154H149.168C149.299 15.838 149.413 16.3712 149.509 16.9149Z" fill="#3D58B0"/>
<path opacity="0.1" d="M138.5 2.68526V64.327H138C137.741 64.8727 137.485 65.4078 137.233 65.9323C137.12 66.1647 137.008 66.3928 136.898 66.6209V2.10205C137.453 2.28106 137.986 2.47546 138.5 2.68526Z" fill="#3D58B0"/>
<path opacity="0.1" d="M100.383 1.97363V79.098L98.7812 79.1153V2.30277C99.3128 2.19017 99.8458 2.07902 100.383 1.97363Z" fill="#3D58B0"/>
<path opacity="0.1" d="M61.9246 9.12973V79.5168L60.3242 79.5341V9.05322C60.8586 9.08787 61.3931 9.10808 61.9246 9.12973Z" fill="#3D58B0"/>
<path opacity="0.1" d="M138 64.3286C137.741 64.8743 137.485 65.4094 137.232 65.9339H2.09084C1.9055 65.4055 1.73264 64.8704 1.57227 64.3286H138Z" fill="#3D58B0"/>
</g>
<path d="M33.2174 38.375H30.4805V46.6988H33.2174V38.375Z" fill="#3F3D56"/>
<path d="M106.874 37.9419H104.137V46.7479H106.874V37.9419Z" fill="#3F3D56"/>
<path d="M124.327 77.0376V78.9143L102.444 79.1164L102.21 79.1207L93.8931 79.1972L93.6943 79.2001L91.1662 79.2218H91.0913L75.6811 79.3647L50.3848 79.6H50.3632L43.9315 79.6606L43.8623 79.662L15.2832 79.9248V77.7594L22.003 73.7173L35.4859 73.6047L35.774 73.6033L35.8691 73.6018L36.1572 73.5975L42.6307 73.5441L42.9202 73.5426L43.0124 73.5412L43.3005 73.5398L45.3763 73.5224L45.431 73.521L50.5519 73.4777H50.5937L90.5526 73.1399L91.5307 73.1327H91.6286L92.3748 73.1254L97.7982 73.0807L98.0863 73.0764L98.3528 73.0735H98.4911L100.178 73.0605L100.512 73.0562L100.96 73.0533L102.365 73.0403L104.593 73.0215L104.881 73.0186L105.382 73.0157H105.476L116.238 72.9233L124.327 77.0376Z" fill="#65617D"/>
<path opacity="0.2" d="M124.327 77.0376V78.9143L102.444 79.1164L102.21 79.1207L93.8931 79.1972L93.6943 79.2001L91.1662 79.2218H91.0913L75.6811 79.3647L50.3848 79.6H50.3632L43.9315 79.6606L43.8623 79.662L15.2832 79.9248V77.7594L22.003 73.7173L35.4859 73.6047L35.774 73.6033L35.8691 73.6018L36.1572 73.5975L42.6307 73.5441L42.9202 73.5426L43.0124 73.5412L43.3005 73.5398L45.3763 73.5224L45.431 73.521L50.5519 73.4777H50.5937L90.5526 73.1399L91.5307 73.1327H91.6286L92.3748 73.1254L97.7982 73.0807L98.0863 73.0764L98.3528 73.0735H98.4911L100.178 73.0605L100.512 73.0562L100.96 73.0533L102.365 73.0403L104.593 73.0215L104.881 73.0186L105.382 73.0157H105.476L116.238 72.9233L124.327 77.0376Z" fill="black"/>
<path d="M42.6522 69.8213V73.3567C42.6522 73.5241 42.6049 73.6882 42.5157 73.8297C42.4264 73.9713 42.2989 74.0846 42.148 74.1564C42.0356 74.211 41.9128 74.2406 41.7879 74.2431L36.7606 74.3499C36.6263 74.3531 36.4932 74.3249 36.3717 74.2676C36.2181 74.197 36.088 74.0837 35.9968 73.9412C35.9056 73.7986 35.8572 73.6328 35.8574 73.4635V69.8213H42.6522Z" fill="#3F3D56"/>
<path opacity="0.1" d="M42.6522 69.8213V73.3567C42.6522 73.5241 42.6049 73.6882 42.5157 73.8297C42.4264 73.9713 42.2989 74.0846 42.148 74.1564C42.0356 74.211 41.9128 74.2406 41.7879 74.2431L36.7606 74.3499C36.6263 74.3531 36.4932 74.3249 36.3717 74.2676C36.2181 74.197 36.088 74.0837 35.9968 73.9412C35.9056 73.7986 35.8572 73.6328 35.8574 73.4635V69.8213H42.6522Z" fill="black"/>
<path d="M42.9412 69.8213V73.3567C42.9413 73.5241 42.894 73.6882 42.8047 73.8297C42.7155 73.9713 42.588 74.0846 42.4371 74.1564C42.3247 74.211 42.2018 74.2406 42.0769 74.2431L37.0497 74.3499C36.9154 74.3531 36.7822 74.3249 36.6607 74.2676C36.5071 74.197 36.377 74.0837 36.2859 73.9412C36.1947 73.7986 36.1463 73.6328 36.1465 73.4635V69.8213H42.9412Z" fill="#3F3D56"/>
<path d="M104.881 69.8213H98.0859V74.3686H104.881V69.8213Z" fill="#3F3D56"/>
<path opacity="0.1" d="M104.881 69.8213H98.0859V74.3686H104.881V69.8213Z" fill="black"/>
<path d="M104.594 69.8213H97.7988V74.3686H104.594V69.8213Z" fill="#3F3D56"/>
<path opacity="0.1" d="M33.2174 38.3735V39.2007L30.4805 39.13V38.3735H33.2174Z" fill="black"/>
<path d="M51.2316 15.0711L47.943 38.7462C47.9221 38.8974 47.8464 39.0356 47.7303 39.1344C47.6141 39.2332 47.4658 39.2856 47.3135 39.2817L20.9815 38.5975L20.4817 38.5845C20.3947 38.5824 20.309 38.562 20.2304 38.5245C20.1518 38.4871 20.0819 38.4334 20.0254 38.3671C19.9688 38.3007 19.9269 38.2232 19.9023 38.1395C19.8776 38.0558 19.8709 37.9679 19.8824 37.8814L23.5744 13.0977C23.5982 12.9442 23.6786 12.8052 23.7996 12.7082C23.9207 12.6112 24.0737 12.5632 24.2284 12.5737L50.6554 14.3666C50.7407 14.3716 50.824 14.3942 50.9001 14.433C50.9762 14.4719 51.0434 14.5261 51.0976 14.5923C51.1517 14.6585 51.1916 14.7352 51.2146 14.8176C51.2377 14.9 51.2435 14.9864 51.2316 15.0711Z" fill="#65617D"/>
<path d="M25.343 14.3149L22.5586 36.1609L46.7586 36.9304L49.7347 15.8538L25.343 14.3149Z" fill="#3D58B0"/>
<path d="M84.1149 13.9771H56.1682C55.7441 13.9771 55.4004 14.3215 55.4004 14.7465V38.2295C55.4004 38.6545 55.7441 38.999 56.1682 38.999H84.1149C84.5389 38.999 84.8827 38.6545 84.8827 38.2295V14.7465C84.8827 14.3215 84.5389 13.9771 84.1149 13.9771Z" fill="#65617D"/>
<path d="M83.5859 15.6616H56.793V36.4971H83.5859V15.6616Z" fill="#3D58B0"/>
<path opacity="0.1" d="M106.874 37.9409V38.488L104.137 38.5443V37.9409H106.874Z" fill="black"/>
<path d="M119.223 37.4786C119.227 37.5384 119.219 37.5984 119.199 37.6549C119.179 37.7115 119.148 37.7634 119.108 37.8077C119.068 37.8519 119.019 37.8875 118.964 37.9123C118.91 37.9371 118.851 37.9507 118.791 37.9521L91.8253 38.5108C91.7133 38.5131 91.6046 38.4729 91.5209 38.3981C91.4373 38.3234 91.385 38.2198 91.3744 38.108L89.0567 13.9595C89.051 13.8995 89.0575 13.8391 89.0757 13.7818C89.094 13.7244 89.1237 13.6714 89.163 13.6259C89.2024 13.5804 89.2505 13.5434 89.3045 13.5171C89.3585 13.4908 89.4173 13.4758 89.4773 13.473L116.239 12.1391L116.527 12.1246C116.641 12.1186 116.754 12.1574 116.84 12.2328C116.927 12.3082 116.981 12.4144 116.99 12.5288L119.223 37.4786Z" fill="#65617D"/>
<path d="M90.5957 14.892L115.036 13.688L117.101 35.6307L92.8529 36.2082L90.5957 14.892Z" fill="#3D58B0"/>
<path opacity="0.1" d="M119.223 37.4786C119.227 37.5384 119.219 37.5984 119.199 37.655C119.179 37.7115 119.148 37.7635 119.108 37.8077C119.067 37.8519 119.018 37.8875 118.964 37.9123C118.91 37.9371 118.851 37.9507 118.791 37.9521L116.238 12.1391L116.526 12.1246C116.641 12.1186 116.753 12.1574 116.84 12.2328C116.926 12.3082 116.98 12.4144 116.99 12.5288L119.223 37.4786Z" fill="black"/>
<path opacity="0.1" d="M24.2327 12.5725L20.9815 38.5977L20.4817 38.5848C20.3947 38.5827 20.309 38.5623 20.2304 38.5248C20.1518 38.4873 20.0819 38.4337 20.0254 38.3674C19.9688 38.301 19.9269 38.2235 19.9023 38.1398C19.8776 38.0561 19.8709 37.9682 19.8824 37.8817L23.5744 13.098C23.5979 12.9434 23.6788 12.8034 23.8008 12.706C23.9229 12.6086 24.0771 12.5609 24.2327 12.5725Z" fill="black"/>
<path opacity="0.1" d="M33.2174 44.2334H30.4805V46.6991H33.2174V44.2334Z" fill="black"/>
<path opacity="0.1" d="M42.9412 69.8198V70.5373L36.1465 70.7192V69.8198H42.9412Z" fill="black"/>
<path d="M54.9329 45.0922V69.3736C54.9311 69.5218 54.8726 69.6636 54.7693 69.7698C54.6661 69.8759 54.5261 69.9382 54.3783 69.9438L26.7715 70.68H26.7643C26.614 70.6781 26.4703 70.6175 26.364 70.5109C26.2577 70.4044 26.1972 70.2604 26.1953 70.1098V45.0922C26.1972 44.9415 26.2577 44.7976 26.364 44.6911C26.4703 44.5845 26.614 44.5238 26.7643 44.522H54.3639C54.5142 44.5238 54.6579 44.5845 54.7642 44.6911C54.8705 44.7976 54.931 44.9415 54.9329 45.0922Z" fill="#65617D"/>
<path opacity="0.1" d="M26.7715 44.522V70.68H26.7643C26.614 70.6781 26.4703 70.6175 26.364 70.5109C26.2577 70.4044 26.1972 70.2604 26.1953 70.1098V45.0922C26.1972 44.9415 26.2577 44.7976 26.364 44.6911C26.4703 44.5845 26.614 44.5238 26.7643 44.522H26.7715Z" fill="black"/>
<path d="M28.0312 46.0728H53.5998V67.4741L28.0312 68.0516V46.0728Z" fill="#D4DFEC"/>
<path opacity="0.1" d="M106.874 44.2334H104.137V46.7481H106.874V44.2334Z" fill="black"/>
<path opacity="0.1" d="M104.594 69.8198V70.7452L97.7988 70.5633V69.8198H104.594Z" fill="black"/>
<path d="M113.56 45.0922V70.1098C113.558 70.2617 113.496 70.4067 113.388 70.5134C113.281 70.6202 113.135 70.68 112.984 70.68L85.371 69.9438C85.2232 69.9382 85.0832 69.8759 84.9799 69.7698C84.8767 69.6636 84.8182 69.5218 84.8164 69.3736V45.0922C84.8183 44.9415 84.8788 44.7976 84.9851 44.6911C85.0914 44.5845 85.2351 44.5238 85.3854 44.522H112.985C113.136 44.5223 113.281 44.5824 113.389 44.689C113.496 44.7957 113.558 44.9405 113.56 45.0922Z" fill="#65617D"/>
<path opacity="0.1" d="M113.561 45.0922V70.1098C113.559 70.2617 113.497 70.4067 113.389 70.5134C113.281 70.6202 113.136 70.68 112.984 70.68V44.522C113.136 44.522 113.281 44.5818 113.389 44.6885C113.497 44.7953 113.559 44.9403 113.561 45.0922Z" fill="black"/>
<path d="M111.725 46.0728H86.1562V67.4741L111.725 68.0516V46.0728Z" fill="#FFA800"/>
<path d="M84.1028 45.0922V69.3736C84.101 69.5218 84.0425 69.6636 83.9393 69.7698C83.836 69.8759 83.696 69.9382 83.5482 69.9438L55.9414 70.68C55.7899 70.68 55.6444 70.6202 55.5365 70.5134C55.4287 70.4067 55.3671 70.2617 55.3652 70.1098V45.0922C55.3671 44.9415 55.4276 44.7976 55.534 44.6911C55.6403 44.5845 55.7839 44.5238 55.9342 44.522H83.5338C83.6841 44.5238 83.8278 44.5845 83.9341 44.6911C84.0404 44.7976 84.1009 44.9415 84.1028 45.0922Z" fill="#65617D"/>
<path d="M57.2012 46.0728H82.7697V67.4741L57.2012 68.0516V46.0728Z" fill="#D4DFEC"/>
<path opacity="0.1" d="M124.327 77.0376V78.9143L102.444 79.1164L102.21 79.1207L93.8931 79.1972L93.6943 79.2001L91.1662 79.2218H91.0913L75.6811 79.3647L50.3848 79.6H50.3632L43.9315 79.6606L43.8623 79.6621L15.2832 79.9248V77.7594L44.4543 77.5674H44.5235L50.428 77.527H50.4554L91.2325 77.257H91.2743L91.2987 77.2556H91.3665L92.0564 77.2512H92.2668L102.997 77.1791L103.631 77.1762L103.772 77.1747L124.327 77.0376Z" fill="black"/>
<path d="M70.1889 46.6989C74.2725 46.6989 77.5829 43.3813 77.5829 39.2889C77.5829 35.1965 74.2725 31.8789 70.1889 31.8789C66.1053 31.8789 62.7949 35.1965 62.7949 39.2889C62.7949 43.3813 66.1053 46.6989 70.1889 46.6989Z" fill="#FBBEBE"/>
<path d="M77.5838 54.4467C77.5838 54.4467 63.251 56.179 64.6195 54.4467C65.115 53.8201 65.2518 51.9637 65.2245 49.8488C65.2158 49.2064 65.1928 48.5409 65.1596 47.8783C65.0012 44.7024 64.6195 41.5986 64.6195 41.5986C64.6195 41.5986 77.1516 35.6798 75.7111 40.3715C75.135 42.267 75.3237 44.929 75.7616 47.4279C75.8898 48.1569 76.0381 48.8715 76.1937 49.55C76.5734 51.2049 77.0373 52.8393 77.5838 54.4467Z" fill="#FBBEBE"/>
<path opacity="0.1" d="M77.5838 54.4467C77.5838 54.4467 63.251 56.179 64.6195 54.4467C65.115 53.8201 65.2518 51.9637 65.2245 49.8488C67.4097 48.9133 70.1898 49.6106 70.1898 49.6106C73.1168 49.0259 74.9938 49.14 76.1937 49.55C76.5734 51.2049 77.0373 52.8393 77.5838 54.4467Z" fill="black"/>
<path d="M50.3793 79.763V79.6418L75.677 79.366L91.0901 79.2217H91.1334L91.1175 79.4353L91.1391 79.2217H91.1665V79.1971L91.3638 77.2555L91.4387 76.5207L91.4618 76.2912L91.482 76.0992L92.3722 73.1239L93.2624 70.153L94.0114 67.6512L95.1552 63.8286C95.1552 63.8286 94.507 62.3128 94.1468 61.8797C93.7867 61.4466 93.4266 58.4872 93.4266 58.4872C93.4266 58.4872 90.3526 55.5524 89.0087 55.2146C88.4454 55.0702 87.3334 54.8782 86.1522 54.6372C85.71 54.5477 85.2562 54.4524 84.8197 54.3484C84.5734 54.2921 84.3314 54.233 84.0995 54.1738C83.6481 54.0608 83.2033 53.9229 82.7671 53.7609C82.5383 53.6776 82.3206 53.5666 82.1188 53.4303C81.0601 52.6522 78.4067 52.5642 78.3045 52.5642C78.3042 52.5608 78.3042 52.5574 78.3045 52.554V52.5411C78.3082 52.4805 78.3082 52.4197 78.3045 52.3592C78.3045 52.3014 78.3045 52.2336 78.2915 52.1571C78.2915 52.134 78.2915 52.1094 78.2814 52.0849C78.2742 52.0329 78.2656 51.978 78.2526 51.9203C78.2482 51.8945 78.2425 51.869 78.2353 51.8438C78.1936 51.6698 78.1332 51.5009 78.0553 51.34C78.0452 51.3169 78.0322 51.2923 78.0207 51.2692C77.9501 51.1359 77.8681 51.0089 77.7758 50.8896C77.7571 50.865 77.7369 50.839 77.7153 50.8145C77.5973 50.6751 77.4661 50.5474 77.3235 50.4334C77.2846 50.4031 77.2443 50.3713 77.2025 50.3425C77.1792 50.3235 77.1547 50.3061 77.129 50.2905L77.0008 50.2068L76.8813 50.1375C76.7761 50.0797 76.6652 50.0234 76.5442 49.97C76.5067 49.9527 76.4664 49.9368 76.4261 49.9209C76.3857 49.905 76.3224 49.8805 76.2691 49.8603H76.2604L76.1524 49.817C76.0703 49.7895 75.9867 49.765 75.8989 49.7405L75.7649 49.7058L75.6208 49.6726L75.4768 49.6423C75.3328 49.6134 75.1786 49.5874 75.0173 49.5672L74.8531 49.547L74.6845 49.5297L74.5102 49.5153L74.2625 49.5008L73.9744 49.4907C72.7038 49.4906 71.4367 49.6256 70.1946 49.8935C69.3316 49.7011 68.4477 49.6195 67.5643 49.651H67.4389L67.2949 49.6596H67.2027L67.0169 49.677C66.9549 49.677 66.8916 49.6899 66.8296 49.6986C66.7677 49.7073 66.7028 49.7145 66.6409 49.7246L66.5458 49.7405C66.4522 49.7563 66.3571 49.7737 66.2577 49.7939C66.226 49.7997 66.1944 49.8069 66.1627 49.8155C66.0373 49.843 65.912 49.8762 65.7881 49.9137C65.7262 49.931 65.6643 49.9512 65.6023 49.9729C65.5706 49.9816 65.5404 49.9931 65.5101 50.0046L65.4179 50.0379L65.3272 50.0739L65.2192 50.1172C65.1644 50.1403 65.1111 50.1649 65.0578 50.1909C65.0276 50.2039 64.9973 50.2183 64.9685 50.2342C64.9397 50.2501 64.9095 50.2631 64.8821 50.2789C64.5564 50.4476 64.2554 50.6604 63.9875 50.9112L63.9141 50.982L63.8421 51.0556C63.8176 51.0801 63.7945 51.1061 63.7715 51.1321C63.6776 51.2349 63.59 51.3434 63.5093 51.4569C63.4863 51.4872 63.4647 51.5175 63.443 51.5493C63.3516 51.6844 63.2689 51.8252 63.1953 51.9708C63.1766 52.0055 63.1593 52.0416 63.142 52.0762C63.0244 52.3201 62.928 52.5737 62.8539 52.8341C62.827 52.9303 62.8025 53.0266 62.7804 53.1228C62.7804 53.1228 59.7309 54.4711 57.2015 55.447C56.5287 55.7069 55.8949 55.9422 55.3648 56.1197C55.2107 56.1717 55.0667 56.2193 54.9327 56.2641C54.642 56.3694 54.3397 56.4392 54.0324 56.472C53.8875 56.4744 53.7431 56.4879 53.6003 56.5124C52.4378 56.7015 50.4456 57.5229 50.2281 58.3472C50.2104 58.413 50.2055 58.4816 50.2137 58.5493C50.2137 58.5493 50.2137 58.5594 50.2137 58.5652C50.3577 59.5757 49.3494 59.4314 49.3494 59.4314C49.3494 59.4314 48.9893 62.102 48.4851 62.8238C48.1207 63.3435 47.8715 64.5027 47.8398 65.3775C47.8217 65.6501 47.843 65.9239 47.9032 66.1903C47.9032 66.1975 47.9032 66.2047 47.9032 66.2105C47.9608 66.4039 47.8225 66.9323 47.5877 67.6094C47.3327 68.3528 46.9611 69.2767 46.6038 70.1487C46.0651 71.4652 45.5581 72.6605 45.5264 72.9232C45.5134 73.0402 45.476 73.2495 45.4241 73.5195C45.2138 74.6195 44.7471 76.7141 44.5166 77.5615C44.3452 78.1938 44.096 79.06 43.9246 79.6548C43.9246 79.6721 43.9145 79.6894 43.9102 79.7053L50.3678 79.6418V79.763H50.388H50.3793Z" fill="#3D58B0"/>
<path opacity="0.1" d="M52.7363 62.7476C52.7363 62.7476 60.9471 67.0062 63.9 66.5009L52.7363 62.7476Z" fill="black"/>
<path opacity="0.1" d="M69.4453 61.0151C69.4453 61.0151 77.44 63.6136 80.1048 63.9745C82.7697 64.3354 69.4453 61.0151 69.4453 61.0151Z" fill="black"/>
<path opacity="0.1" d="M78.313 52.6537C74.1356 53.4246 66.2706 53.2585 62.8711 53.1416C64.1171 48.6664 70.193 50.188 70.193 50.188C77.7138 48.6838 78.29 51.8048 78.313 52.6537Z" fill="black"/>
<path d="M78.313 52.3651C74.1356 53.136 66.2706 52.97 62.8711 52.853C64.1171 48.3779 70.193 49.8994 70.193 49.8994C77.7138 48.3952 78.29 51.5163 78.313 52.3651Z" fill="#3D58B0"/>
<path d="M100.488 72.0948C100.488 72.0948 105.409 71.3369 105.506 73.5023C105.602 75.6677 102.996 77.1806 102.996 77.1806L100.488 72.0948Z" fill="#FBBEBE"/>
<path opacity="0.1" d="M75.7621 47.4279C75.5504 47.5227 75.3341 47.6065 75.1138 47.6791C73.561 48.2161 71.9952 48.7574 70.3603 48.9538C68.7253 49.1501 67.0097 48.9769 65.5837 48.1598C65.4339 48.075 65.2896 47.981 65.1515 47.8783C64.9931 44.7024 64.6113 41.5986 64.6113 41.5986C64.6113 41.5986 77.1435 35.6798 75.703 40.3715C75.1297 42.267 75.3242 44.929 75.7621 47.4279Z" fill="black"/>
<path d="M68.1606 27.7068C67.955 27.7613 67.7395 27.7668 67.5314 27.7229C67.3233 27.679 67.1284 27.587 66.9621 27.4542L67.2617 27.8714C67.0851 27.8918 66.9062 27.8734 66.7375 27.8172C66.5688 27.7611 66.4144 27.6688 66.285 27.5466C66.2579 27.9201 66.2733 28.2954 66.3311 28.6654C65.8354 28.6894 65.3473 28.5359 64.954 28.2323C64.9464 28.3626 64.9787 28.492 65.0467 28.6033C65.1147 28.7145 65.2151 28.8022 65.3343 28.8545C64.8363 28.7949 64.3337 28.9189 63.9202 29.2034C63.5067 29.4879 63.2106 29.9134 63.0872 30.4006L63.8391 30.4699C63.2482 30.5964 62.7178 30.9207 62.3353 31.3895C62.1048 31.6782 61.929 32.0478 62.0299 32.4C62.1307 32.7522 62.6176 32.9774 62.8826 32.7262C62.5056 33.1772 62.2316 33.7054 62.0798 34.2737C61.928 34.8421 61.9021 35.4368 62.0039 36.0162C62.0723 36.2631 62.0948 36.5205 62.0702 36.7755C62.0227 37.0137 61.8729 37.2202 61.798 37.4526C61.6539 37.8741 61.7908 38.3317 61.919 38.7518L62.5945 40.9779C62.8394 41.782 63.0829 42.5875 63.4026 43.3656C63.6291 43.8575 63.8216 44.3645 63.9788 44.8828C64.1603 45.5815 64.1675 46.3466 64.555 46.9573C64.8206 47.3415 65.1756 47.6552 65.5893 47.8711C67.0139 48.6881 68.7353 48.8614 70.3659 48.665C71.9965 48.4687 73.5609 47.9274 75.1123 47.3903C75.457 47.2863 75.7878 47.1409 76.0976 46.9573C77.1707 46.2528 77.4099 44.8121 77.6101 43.5431C77.8334 42.1284 78.1315 40.7166 78.6602 39.3856C78.9742 38.593 79.3804 37.789 79.3113 36.9401C79.2234 35.8127 78.3332 34.8989 78.1128 33.7902C78.039 33.4196 78.0425 33.0377 78.1229 32.6685C78.1912 32.4485 78.2295 32.2203 78.2367 31.99C78.2122 31.5252 77.8319 31.1672 77.4747 30.8683C76.6997 30.2197 75.8998 29.6066 75.0749 29.0292C75.0331 28.7405 75.4249 28.6163 75.6021 28.3882C75.8527 28.0663 75.5934 27.5553 75.2131 27.4051C74.8328 27.255 74.4065 27.3532 74.0103 27.4528C74.0361 27.2496 73.9958 27.0434 73.8954 26.8651C73.7949 26.6867 73.6397 26.5455 73.4527 26.4627C73.2658 26.3798 73.0572 26.3596 72.8579 26.4051C72.6586 26.4505 72.4793 26.5593 72.3466 26.7151C72.2414 26.4733 72.0733 26.2644 71.86 26.11C71.6466 25.9556 71.3958 25.8614 71.1337 25.8374C70.1787 25.7623 70.1599 26.4942 69.5492 26.897C68.9384 27.2998 68.4342 26.7685 67.9646 26.3816C67.8784 26.6003 67.851 26.8379 67.8854 27.0705C67.9198 27.3032 68.0147 27.5226 68.1606 27.7068Z" fill="#3F3D56"/>
<path d="M104.137 76.4257C104.137 76.4257 104.009 76.7317 103.773 77.1749C103.416 77.8568 102.981 78.4948 102.476 79.0761L102.438 79.118H102.204L93.8869 79.1945H93.6881L93.6636 79.1656L92.0503 77.2471L91.4424 76.5239L91.4179 76.4935L91.3661 76.4329L91.3373 76.3983L91.2998 76.3535L90.1172 74.9474L90.5493 73.1429L91.2854 70.1027L91.3041 70.0291L91.4482 69.4517L91.5505 69.0186L91.8933 67.6067L93.0687 62.749L95.1574 63.8317L97.3599 67.7294L98.5425 69.8227H99.1908C99.3132 69.8227 99.5941 70.0594 99.8764 70.3323C99.9773 70.429 100.078 70.5315 100.165 70.621C100.421 70.8866 100.624 71.1147 100.624 71.1147C100.624 71.1147 101.674 71.1378 101.956 71.9664C101.971 72.0065 101.983 72.0475 101.992 72.0891C102.086 72.4148 102.208 72.7317 102.357 73.0361C102.543 73.4418 102.776 73.9023 103.012 74.3628C103.452 75.2073 103.898 76.0114 104.062 76.303L104.083 76.3391L104.137 76.4257Z" fill="#3D58B0"/>
<path opacity="0.1" d="M91.7627 69.9076L91.7483 70.114V70.1285L91.7238 70.4605L91.5322 73.1326L91.3003 76.3519L91.234 77.2584L91.09 79.1986V79.2232L75.6768 79.3675L50.3834 79.6418V79.7631H50.3633V79.6418V79.6014L50.4281 77.5284L50.552 73.4777L50.6586 70.0433L50.6687 69.7012C50.675 69.4947 50.7232 69.2916 50.8104 69.1044C50.8977 68.9172 51.0221 68.7498 51.176 68.6124C51.33 68.475 51.5102 68.3705 51.7059 68.3053C51.9015 68.2401 52.1083 68.2155 52.3137 68.233C52.9936 68.2908 53.8766 68.3615 54.9325 68.4366L55.3646 68.4683C61.4622 68.8928 72.7311 69.4413 84.1022 68.7571C84.3413 68.7441 84.5819 68.7296 84.8224 68.7123C86.5856 68.6012 88.3473 68.4582 90.0917 68.2792C90.3122 68.2561 90.5351 68.2817 90.7447 68.3542C90.9543 68.4267 91.1455 68.5444 91.3048 68.6989C91.4641 68.8535 91.5877 69.0411 91.6668 69.2487C91.7459 69.4563 91.7786 69.6788 91.7627 69.9004V69.9076Z" fill="black"/>
<path d="M50.3789 79.7632V79.642L75.6766 79.3662L91.0897 79.2219H91.1329V79.1973L91.277 77.2571L91.3389 76.391L91.5752 73.127L91.761 70.543V70.4794C91.7696 70.3604 91.7643 70.2407 91.7451 70.1229C91.7459 70.1181 91.7459 70.1132 91.7451 70.1084C91.7056 69.8648 91.6066 69.6347 91.457 69.4386C91.2984 69.2348 91.0906 69.0748 90.8532 68.9738C90.6158 68.8727 90.3566 68.834 90.1001 68.8612C88.3557 69.0402 86.594 69.1831 84.8308 69.2942C84.5903 69.3116 84.3497 69.326 84.1106 69.339C72.7395 70.016 61.4706 69.4675 55.373 69.0503L54.9409 69.0185C53.885 68.9434 53.002 68.8741 52.3221 68.815C51.9481 68.7833 51.5756 68.8917 51.2766 69.1191C50.9776 69.3465 50.7733 69.6768 50.703 70.0464C50.6885 70.1245 50.6798 70.2037 50.6771 70.2831L50.5791 73.4821L50.4452 77.5343L50.3818 79.6073V79.6477V79.769L50.3789 79.7632Z" fill="#3F3D56"/>
<path opacity="0.1" d="M91.8072 70.9197L91.63 73.1327L91.3664 76.4313L91.3002 77.2571L91.1561 79.1063L91.1475 79.1987V79.2233L91.1259 79.4369L91.1417 79.2233H91.0999L75.6868 79.3676L50.3848 79.6419V79.6015L50.4554 77.5285L50.5994 73.4777L50.6916 70.7854C50.6961 70.6323 50.7388 70.4827 50.8158 70.3503C50.8928 70.2179 51.0016 70.107 51.1324 70.0275C51.2955 69.9273 51.4862 69.8818 51.6769 69.8976C51.9794 69.9221 52.351 69.951 52.7846 69.9828C53.489 70.0347 54.3576 70.0954 55.3688 70.1589C57.2414 70.2773 59.5909 70.4043 62.2831 70.5082C69.7736 70.797 79.8858 70.8937 89.4909 70.0506C89.9231 70.0131 90.3696 69.9712 90.8061 69.9294C90.9788 69.9121 91.1529 69.9452 91.3074 70.0246C91.3511 70.0465 91.3926 70.0726 91.4312 70.1026C91.5566 70.1936 91.656 70.3161 91.7193 70.4577C91.734 70.4859 91.7461 70.5154 91.7553 70.5458C91.7986 70.6654 91.8163 70.7928 91.8072 70.9197Z" fill="black"/>
<path opacity="0.1" d="M42.9412 72.896V73.3565C42.9413 73.5239 42.894 73.688 42.8047 73.8295C42.7155 73.9711 42.588 74.0844 42.4371 74.1562L36.6607 74.2674C36.5071 74.1968 36.377 74.0835 36.2859 73.941C36.1947 73.7984 36.1463 73.6326 36.1465 73.4633V73.0302L42.9412 72.896Z" fill="black"/>
<path d="M43.0128 74.4278L35.4863 74.5722V73.3206L43.0128 73.1763V74.4278Z" fill="#3F3D56"/>
<path opacity="0.1" d="M43.0128 74.4278L35.4863 74.5722V73.3206L43.0128 73.1763V74.4278Z" fill="black"/>
<path d="M43.3019 74.4278L35.7754 74.5722V73.3206L43.3019 73.1763V74.4278Z" fill="#3F3D56"/>
<g opacity="0.1">
<path opacity="0.1" d="M68.2203 27.2335C68.0795 27.0502 67.986 26.835 67.948 26.6069C67.9133 26.8299 67.9341 27.058 68.0085 27.271C68.08 27.2644 68.1508 27.2518 68.2203 27.2335Z" fill="black"/>
<path opacity="0.1" d="M66.3912 28.1918C66.364 28.0149 66.3462 27.8366 66.3379 27.6577C66.3379 27.8353 66.3379 28.0143 66.3379 28.1933L66.3912 28.1918Z" fill="black"/>
<path opacity="0.1" d="M78.131 33.0095C78.139 32.8809 78.1563 32.753 78.1829 32.6269C78.251 32.4074 78.2898 32.1797 78.2981 31.9499C78.2949 31.8983 78.2872 31.8471 78.2751 31.7969C78.2506 31.9297 78.2117 32.0625 78.1829 32.1939C78.1253 32.4617 78.1078 32.7365 78.131 33.0095Z" fill="black"/>
<path opacity="0.1" d="M75.134 28.5488L75.291 28.6628C75.4233 28.5669 75.5472 28.4597 75.6612 28.3424C75.7154 28.2672 75.749 28.1792 75.7586 28.087C75.7682 27.9947 75.7535 27.9016 75.7159 27.8169C75.7016 27.8498 75.6832 27.8809 75.6612 27.9093C75.484 28.1374 75.0922 28.263 75.134 28.5488Z" fill="black"/>
<path opacity="0.1" d="M63.2991 29.9375C63.2466 30.0428 63.2046 30.153 63.1738 30.2666C63.3992 30.1406 63.6419 30.0486 63.8941 29.9938L63.2991 29.9375Z" fill="black"/>
<path opacity="0.1" d="M65.2838 28.3665C65.1891 28.3143 65.0986 28.2549 65.013 28.189C65.0093 28.2461 65.0137 28.3034 65.0259 28.3593C65.1119 28.3552 65.1981 28.3576 65.2838 28.3665Z" fill="black"/>
<path opacity="0.1" d="M79.3681 36.8726C79.3091 37.5727 78.9835 38.2469 78.7199 38.9109C78.1913 40.2419 77.8931 41.6538 77.6698 43.0699C77.4696 44.3389 77.2377 45.7796 76.1573 46.4826C75.8486 46.6674 75.5181 46.8129 75.1735 46.9157C73.6206 47.4541 72.0548 47.9941 70.4199 48.1904C68.7849 48.3867 67.0693 48.2149 65.6432 47.3978C65.2298 47.1816 64.8749 46.8681 64.609 46.484C64.2244 45.8734 64.2172 45.1083 64.0328 44.4096C63.8756 43.8908 63.6831 43.3834 63.4566 42.8909C63.1383 42.1143 62.8934 41.303 62.6499 40.5047C62.4243 39.7626 62.1991 39.0202 61.9744 38.2772C61.9003 38.0537 61.8454 37.8243 61.8101 37.5915C61.754 37.961 61.8634 38.3479 61.9744 38.7103C62.1991 39.4542 62.4243 40.1967 62.6499 40.9377C62.8934 41.7418 63.1383 42.5474 63.4566 43.324C63.6831 43.8164 63.8756 44.3239 64.0328 44.8427C64.2143 45.5414 64.2215 46.3065 64.609 46.9171C64.8749 47.3011 65.2298 47.6147 65.6432 47.8309C67.0693 48.648 68.7893 48.8198 70.4199 48.6235C72.0505 48.4271 73.6149 47.8872 75.1735 47.3488C75.5181 47.246 75.8486 47.1005 76.1573 46.9157C77.2305 46.2127 77.4696 44.7719 77.6698 43.503C77.8931 42.0868 78.1913 40.675 78.7199 39.344C79.0339 38.5529 79.4402 37.7488 79.371 36.8985C79.371 36.8899 79.3681 36.8812 79.3681 36.8726Z" fill="black"/>
<path opacity="0.1" d="M62.1263 36.3136C62.1263 36.3136 62.1263 36.3035 62.1263 36.2977C62.1523 36.0432 62.1298 35.786 62.0601 35.5398C62.0313 35.3814 62.0126 35.2213 62.0039 35.0605C61.9873 35.3658 62.0061 35.672 62.0601 35.9729C62.0831 36.0855 62.109 36.1996 62.1263 36.3136Z" fill="black"/>
<path opacity="0.1" d="M62.5656 32.7824C62.6764 32.5958 62.8021 32.4187 62.9416 32.2526C62.678 32.5052 62.1911 32.28 62.0888 31.9292C62.0511 32.0711 62.0511 32.2204 62.0888 32.3623C62.1243 32.4682 62.1871 32.5629 62.2708 32.6366C62.3545 32.7104 62.4562 32.7607 62.5656 32.7824Z" fill="black"/>
</g>
<path opacity="0.1" d="M98.5428 69.8213C98.5428 69.8213 98.9994 71.4814 98.5428 72.925C98.0862 74.3686 98.5428 69.8213 98.5428 69.8213Z" fill="black"/>
<path opacity="0.1" d="M100.487 71.5146C100.487 71.5146 100.679 73.6223 100.246 73.9962C99.8142 74.3701 100.487 71.5146 100.487 71.5146Z" fill="black"/>
<path d="M28.6641 49.4954L43.3008 49.3511" stroke="#3D58B0" stroke-width="2" stroke-miterlimit="10"/>
<path d="M28.6641 51.2953L43.3008 51.1523" stroke="#3D58B0" stroke-width="2" stroke-miterlimit="10"/>
<path d="M28.6641 53.097L43.3008 52.9526" stroke="#3D58B0" stroke-width="2" stroke-miterlimit="10"/>
</g>
<defs>
<clipPath id="clip0">
<rect width="150" height="80" fill="white"/>
</clipPath>
</defs>
</svg>
