<svg width="665" height="663" viewBox="0 0 665 663" fill="none" xmlns="http://www.w3.org/2000/svg">
<path d="M367.66 134.835C366.056 124.023 356.25 98.7934 356.25 98.7934C356.079 98.0498 355.886 97.3062 355.671 96.5626C348.715 72.619 339.087 70.537 339.087 70.537L304.597 63.1011C304.886 63.282 305.138 63.5168 305.339 63.7926C305.157 63.8095 304.976 63.8368 304.797 63.8744C303.218 62.007 302.174 59.7455 301.776 57.3308C301.709 56.9739 301.65 56.5872 301.605 56.2229C304.082 53.8043 306.015 50.8831 307.272 47.6553C308.53 44.4274 309.083 40.9675 308.896 37.5076C308.709 34.0478 307.786 30.668 306.188 27.595C304.59 24.522 302.354 21.8268 299.631 19.6903C299.267 19.4077 298.888 19.1326 298.525 18.8724C300.15 17.1398 300.202 14.7306 298.985 12.3213C296.268 6.67005 290.359 3.09337 284.286 1.34594C279.647 0.0149128 274.636 -0.416372 270.018 1.04106C267.398 1.87388 265.007 3.27184 262.55 4.51364C257.97 6.80389 252.9 8.61825 249.477 12.3883C248.676 13.2657 247.933 14.3885 248.171 15.5485C248.349 16.4111 249.032 17.0803 249.47 17.8462C250.457 19.5639 250.212 21.7277 249.537 23.6016C248.861 25.4754 247.874 27.2154 247.406 29.1339C246.939 31.0524 247.117 33.3129 248.557 34.6885C249.248 35.2224 249.966 35.7188 250.71 36.1757C251.498 36.8484 252.19 37.6266 252.766 38.4882C254.132 40.3224 255.493 42.1641 256.849 44.0131C258.764 46.4638 260.474 49.0677 261.964 51.7985C262.981 53.8062 263.768 55.9477 265.126 57.7472C265.524 58.2725 265.98 58.7514 266.485 59.1749L266.084 59.0188C266.674 59.6205 267.381 60.0951 268.161 60.4135C268.941 60.7319 269.778 60.8874 270.62 60.8703C270.694 60.8703 270.761 60.8703 270.827 60.8703C271.137 60.8638 271.434 60.7418 271.659 60.5282C271.659 60.7811 271.659 61.0339 271.659 61.2718C271.741 63.9264 271.726 66.7521 271.54 69.4067L271.221 69.2431C270.747 69.0073 270.217 68.9115 269.691 68.9668C269.165 69.0221 268.666 69.2263 268.252 69.5554L236.501 95.0754C236.501 95.0754 229.597 104.534 230.562 120.863L224.995 145.35C224.995 145.35 218.039 166.125 223.391 180.96C228.744 195.795 231.847 204.279 231.847 204.279C231.847 204.279 233.985 221.136 237.199 222.512C240.413 223.887 241.802 224.631 241.802 224.631L242.44 228.661C242.44 228.661 242.655 229.055 243.034 229.717C245.372 233.792 254.036 248.173 259.069 246.634C259.702 250.539 259.976 254.494 259.885 258.45L264.866 291.948C264.866 291.948 268.341 301.057 268.125 305.831C267.91 310.605 272.179 317.409 272.179 317.409C269.585 322.164 268.825 327.707 270.041 332.987C272.075 341.91 274.643 383.016 274.643 383.016L278.355 392.98L278.251 404.662C277.946 406.567 277.153 408.36 275.95 409.867C273.544 412.484 273.723 415.511 267.925 419.087C262.127 422.664 258.453 424.017 258.453 428.754C258.445 429.414 258.386 430.073 258.274 430.724C257.74 434.204 256.701 436.093 267.361 437.104C279.884 438.294 288.236 430.115 288.236 430.115C288.236 430.115 290.077 426.768 298.747 425.415C298.747 425.415 301.717 425.259 301.873 422.634C301.932 421.727 301.917 419.994 301.873 418.083C301.732 414.447 301.383 410.201 300.922 409.993C300.343 409.733 299.334 406.074 298.985 404.751H301.397C301.397 404.751 303.625 387.894 301.397 376.978C299.17 366.062 301.182 358.321 301.182 358.321L300.752 329.492C300.752 329.492 297.782 326.31 300.113 320.688C302.444 315.066 300.113 287.301 300.113 287.301C300.113 287.301 300.974 277.337 303.432 275.002C305.889 272.667 303.55 260.405 303.432 259.766L307.811 274.481C307.811 274.481 309.734 303.734 313.81 309.029L314.983 322.279C314.983 322.279 323.327 334.474 321.723 341.04C320.12 347.606 323.438 371.356 323.438 371.356V395.634C323.438 395.634 319.689 405.383 324.923 408.885L327.15 408.796C326.407 409.487 325.836 410.529 324.967 411.428C323.965 412.462 323.393 416.395 323.074 419.779C322.807 422.642 322.718 425.103 322.718 425.103C322.718 425.103 324.945 428.672 329.139 428.917C333.333 429.163 347.156 439.692 347.156 439.692C347.156 439.692 360.808 439.692 364.341 438.949L364.549 438.896C365.684 438.539 366.638 437.759 367.214 436.718C367.922 435.509 368.15 434.079 367.853 432.71C367.415 430.62 365.759 428.33 362.092 426.382C352.969 421.563 351.61 417.05 351.61 417.05L345.619 408.045H346.473C346.473 408.045 345.946 398.505 352.464 387.797L352.041 340.631C352.041 340.631 354.713 324.413 350.118 315.609C350.118 315.609 349.739 306.285 352.813 303.422C355.886 300.559 348.722 271.626 348.722 271.626C348.722 271.626 347.238 256.092 345.493 241.92C352.716 248.783 360.207 224.073 361.469 219.679H361.654L361.572 219.359C361.624 219.151 361.654 219.047 361.654 219.047C361.654 219.047 360.051 213.336 361.224 214.496C362.396 215.656 365.292 211.313 365.292 211.313C365.292 211.313 364.861 187.675 369.894 175.762C374.927 163.85 367.66 134.835 367.66 134.835ZM346.132 149.878L346.169 149.811C346.911 164.244 346.028 195.044 346.028 195.044C346.028 195.044 345.033 198.992 343.971 203.64L343.229 174.379L342.487 146.814L346.132 149.878ZM253.998 139.929C253.998 139.929 257.636 185.503 253.998 192.077C252.967 193.951 252.098 197.282 251.378 201.082C250.175 197.921 247.629 190.5 248.542 186.567C249.722 181.481 246.189 168.118 246.189 167.806C246.189 167.494 245.87 160.37 248.416 154.927C250.962 149.484 249.292 147.127 249.292 147.127C249.292 147.127 251.43 138.204 253.998 139.929Z" fill="url(#paint0_linear)"/>
<path d="M262.862 242.574C259.692 256.531 247.087 235.428 244.214 230.364C243.843 229.703 243.635 229.316 243.635 229.316L245.001 222.899L252.224 219.924C253.368 220.523 254.451 221.23 255.46 222.036C259.417 225.152 265.304 231.762 262.862 242.574Z" fill="#FBBEBE"/>
<path d="M360.65 219.738C360.65 219.738 360.65 219.842 360.569 220.051C360.569 220.14 360.509 220.259 360.472 220.385C359.232 224.743 351.883 249.274 344.786 242.462C337.021 235.026 340.793 217.835 340.793 217.835H340.844L357.176 216.162L360.413 219.493L360.65 219.738Z" fill="#FBBEBE"/>
<path d="M351.201 340.46L351.617 387.306C345.21 397.94 345.737 407.383 345.737 407.383L324.625 408.216C319.473 404.743 323.14 395.069 323.14 395.069V370.947C323.14 370.947 319.881 347.383 321.455 340.854C323.029 334.325 314.841 322.264 314.841 322.264L313.682 309.11C309.689 303.853 307.796 274.816 307.796 274.816L303.512 260.152C303.631 260.784 305.858 273.024 303.512 275.277C301.166 277.53 300.253 287.479 300.253 287.479C300.253 287.479 302.562 315.052 300.253 320.621C297.945 326.191 300.877 329.358 300.877 329.358L301.3 357.979C301.3 357.979 299.303 365.66 301.508 376.494C303.713 387.329 301.508 404.067 301.508 404.067H278.859L278.963 392.385L275.296 382.495C275.296 382.495 272.772 341.672 270.775 332.831C269.579 327.591 270.323 322.096 272.868 317.364C272.868 317.364 268.674 310.635 268.882 305.898C269.089 301.161 265.645 292.127 265.645 292.127L260.76 258.881C260.895 252.483 260.079 246.1 258.34 239.942C255.504 230.468 251.303 218.05 251.303 218.05L256.046 218.474L279.98 220.608C279.98 220.608 338.173 216.69 340.778 219.946C341.328 221.011 341.699 222.159 341.877 223.345C344.49 235.101 347.942 271.931 347.942 271.931C347.942 271.931 354.979 300.656 351.958 303.496C348.937 306.337 349.308 315.587 349.308 315.587C353.836 324.324 351.201 340.46 351.201 340.46Z" fill="#444053"/>
<path d="M302.005 421.831C301.842 424.441 298.939 424.597 298.939 424.597C290.432 425.936 288.621 429.252 288.621 429.252C288.621 429.252 280.455 437.38 268.139 436.197C257.672 435.186 258.689 433.32 259.231 429.862C259.336 429.218 259.393 428.566 259.402 427.914C259.402 423.177 263.024 421.831 268.696 418.247C274.367 414.663 274.211 411.696 276.572 409.093C278.933 406.491 279.178 401.442 279.178 401.442C281.85 396.78 288.628 402.185 288.628 402.185C288.947 403.836 299.021 403.606 299.021 403.606C299.021 403.606 300.357 408.974 301.047 409.287C301.5 409.495 301.842 413.704 301.975 417.318C302.05 419.214 302.064 420.931 302.005 421.831Z" fill="#B07473"/>
<path opacity="0.1" d="M302.005 421.831C301.842 424.441 298.939 424.597 298.939 424.597C290.432 425.936 288.621 429.252 288.621 429.252C288.621 429.252 280.455 437.38 268.139 436.197C257.672 435.186 258.689 433.32 259.231 429.862C263.908 431.022 272.846 432.643 278.064 429.803C285.317 425.862 290.521 423.11 290.521 423.11L301.983 417.333C302.05 419.214 302.064 420.931 302.005 421.831Z" fill="black"/>
<path d="M366.122 435.877C365.564 436.91 364.627 437.686 363.509 438.041L363.309 438.093C359.842 438.837 346.442 438.837 346.442 438.837C346.442 438.837 332.894 428.345 328.797 428.107C324.699 427.869 322.494 424.315 322.494 424.315C322.494 424.315 322.576 421.876 322.836 419.035C323.155 415.674 323.712 411.77 324.699 410.744C326.51 408.848 326.926 406.283 331.001 407.904C331.001 407.904 336.822 397.627 343.681 405.569L350.778 416.351C350.778 416.351 352.114 420.812 361.104 425.653C364.697 427.586 366.3 429.862 366.753 431.936C367.039 433.283 366.814 434.688 366.122 435.877Z" fill="#B07473"/>
<path opacity="0.1" d="M366.122 435.877C365.32 436.554 364.437 437.283 363.509 438.041L363.309 438.093C359.842 438.837 346.442 438.837 346.442 438.837C346.442 438.837 332.894 428.345 328.797 428.107C324.699 427.869 322.494 424.315 322.494 424.315C322.494 424.315 322.576 421.876 322.836 419.035C327.008 420.284 333.325 422.493 335.018 424.872C337.616 428.494 345.507 433.55 345.507 433.55C345.507 433.55 360.22 432.13 366.753 431.936C367.039 433.283 366.814 434.688 366.122 435.877Z" fill="black"/>
<path d="M308.865 68.7004L289.49 89.216C289.49 89.216 266.009 87.4835 270.107 80.5383C272.193 76.9988 272.52 69.5927 272.334 63.1532C272.163 56.9442 271.525 51.6573 271.525 51.6573C271.525 51.6573 304.456 35.2388 301.961 50.5494C301.424 53.4343 301.394 56.3912 301.872 59.2865C303.275 67.0199 308.865 68.7004 308.865 68.7004Z" fill="#FBBEBE"/>
<path opacity="0.1" d="M301.93 50.5494C301.393 53.4343 301.363 56.3912 301.841 59.2865C299.589 61.5728 296.905 63.3874 293.945 64.6244C290.986 65.8615 287.81 66.4963 284.604 66.4919C280.15 66.4919 275.332 62.826 271.731 60.7068C271.561 54.4904 271.523 51.6573 271.523 51.6573C271.523 51.6573 304.454 35.2388 301.93 50.5494Z" fill="black"/>
<path d="M308.865 40.9199C308.867 46.4274 307.002 51.7723 303.575 56.0792C300.148 60.386 295.362 63.3995 290.002 64.626C284.642 65.8526 279.025 65.2194 274.071 62.8303C269.117 60.4412 265.119 56.4378 262.734 51.4758C260.348 46.5138 259.715 40.8873 260.939 35.518C262.163 30.1487 265.171 25.3548 269.47 21.9216C273.769 18.4884 279.105 16.6193 284.603 16.6206C290.102 16.6219 295.436 18.4934 299.734 21.9287C302.582 24.2047 304.881 27.0937 306.462 30.3813C308.042 33.669 308.864 37.2709 308.865 40.9199Z" fill="#FBBEBE"/>
<path opacity="0.1" d="M341.876 223.345C335.833 237.748 296.964 238.046 296.964 238.046V222.341L294.611 222.185C295.628 226.684 293.185 237.652 293.185 237.652C262.467 241.994 254.977 224.46 254.977 224.46L256.046 218.459L279.979 220.594C279.979 220.594 338.172 216.675 340.777 219.932C341.329 221.001 341.7 222.154 341.876 223.345Z" fill="black"/>
<path d="M296.964 236.149V220.445L294.611 220.296C295.628 224.758 293.185 235.763 293.185 235.763C270.069 239.027 260.106 229.911 256.595 225.196C255.964 224.384 255.421 223.507 254.977 222.579L264.36 169.71L266.587 91.9004L269.95 78.2481L270.729 71.697V71.6227H270.811L273.201 72.6488L287.506 78.8429L303.756 66.5514L303.994 66.3804L304.803 65.7632L306.147 66.8414L309.487 69.5257L320.2 138.821C320.2 138.821 338.758 192.173 342.232 213.708C342.374 214.57 342.485 215.373 342.574 216.124C344.868 235.785 296.964 236.149 296.964 236.149Z" fill="#3D58B0"/>
<path d="M289.244 81.7579C290.007 81.7579 290.625 81.1386 290.625 80.3748C290.625 79.6109 290.007 78.9917 289.244 78.9917C288.481 78.9917 287.863 79.6109 287.863 80.3748C287.863 81.1386 288.481 81.7579 289.244 81.7579Z" fill="#67647E"/>
<path d="M289.883 94.3838C290.645 94.3838 291.264 93.7646 291.264 93.0008C291.264 92.2369 290.645 91.6177 289.883 91.6177C289.12 91.6177 288.502 92.2369 288.502 93.0008C288.502 93.7646 289.12 94.3838 289.883 94.3838Z" fill="#67647E"/>
<path d="M291.264 114.825C292.026 114.825 292.644 114.206 292.644 113.442C292.644 112.678 292.026 112.059 291.264 112.059C290.501 112.059 289.883 112.678 289.883 113.442C289.883 114.206 290.501 114.825 291.264 114.825Z" fill="#67647E"/>
<path d="M293.543 136.843C294.305 136.843 294.924 136.224 294.924 135.46C294.924 134.696 294.305 134.077 293.543 134.077C292.78 134.077 292.162 134.696 292.162 135.46C292.162 136.224 292.78 136.843 293.543 136.843Z" fill="#67647E"/>
<path d="M294.924 157.515C295.686 157.515 296.305 156.895 296.305 156.132C296.305 155.368 295.686 154.749 294.924 154.749C294.161 154.749 293.543 155.368 293.543 156.132C293.543 156.895 294.161 157.515 294.924 157.515Z" fill="#67647E"/>
<path d="M296.305 179.532C297.067 179.532 297.685 178.913 297.685 178.149C297.685 177.385 297.067 176.766 296.305 176.766C295.542 176.766 294.924 177.385 294.924 178.149C294.924 178.913 295.542 179.532 296.305 179.532Z" fill="#67647E"/>
<path d="M295.754 201.312C296.516 201.312 297.135 200.693 297.135 199.929C297.135 199.165 296.516 198.546 295.754 198.546C294.991 198.546 294.373 199.165 294.373 199.929C294.373 200.693 294.991 201.312 295.754 201.312Z" fill="#67647E"/>
<path opacity="0.1" d="M271.651 177.398C271.651 177.398 270.107 197.646 267.271 203.535C264.436 209.425 263.174 225.947 263.174 225.947L256.589 225.204C255.958 224.392 255.415 223.514 254.971 222.586L264.354 169.717L266.581 91.9078L269.951 78.2481L270.731 71.697L270.82 71.6599C271.188 71.4858 271.59 71.3987 271.997 71.4051C272.404 71.4116 272.804 71.5114 273.166 71.697L273.478 71.8606C273.383 72.1283 273.294 72.4034 273.21 72.686C270.642 80.7391 269.684 95.5811 269.684 95.5811C269.684 95.5811 273.396 122.73 273.782 135.356C274.168 147.982 271.651 177.398 271.651 177.398Z" fill="black"/>
<path opacity="0.1" d="M255.46 222.058C255.388 222.228 255.304 222.392 255.208 222.549C252.654 226.869 246.181 229.613 244.214 230.364C243.843 229.703 243.635 229.316 243.635 229.316L245.001 222.899L252.224 219.924C253.369 220.53 254.452 221.245 255.46 222.058Z" fill="black"/>
<path d="M237.963 118.729L231.972 122.306L226.515 146.614C226.515 146.614 219.686 167.233 224.934 181.964C230.183 196.694 233.234 205.127 233.234 205.127C233.234 205.127 235.335 221.857 238.49 223.226C241.645 224.594 243.003 225.33 243.003 225.33L243.634 229.331C243.634 229.331 252.186 226.423 255.207 221.3C258.229 216.176 252.98 203.454 252.98 203.454C252.98 203.454 248.467 192.612 249.625 187.563C250.783 182.514 247.309 169.256 247.309 168.973C247.309 168.691 246.997 161.604 249.536 156.184C252.075 150.763 250.382 148.45 250.382 148.45L248.801 132.984L237.963 118.729Z" fill="#67647E"/>
<path opacity="0.1" d="M342.374 218.794C342.374 218.794 326.51 224.787 321.47 219.537C316.429 214.288 316.949 189.653 316.949 189.653C316.949 189.653 312.123 144.197 309.072 136.731C306.021 129.266 307.588 75.3851 307.588 75.3851C307.588 75.3851 305.539 68.4177 303.75 66.5959C303.637 66.4788 303.51 66.3764 303.371 66.291L303.987 66.4249L306.14 66.8859L309.481 69.5702L320.193 138.865C320.193 138.865 338.752 192.218 342.226 213.752L342.374 218.794Z" fill="black"/>
<path opacity="0.1" d="M360.65 220.37H360.472C358.475 220.63 340.852 222.764 340.778 219.091C340.775 218.666 340.797 218.242 340.844 217.82L357.176 216.146L360.413 219.478C360.472 219.693 360.517 219.879 360.561 220.028L360.65 220.37Z" fill="black"/>
<path d="M343.74 94.3838L355.321 100.437C355.321 100.437 364.972 125.466 366.516 136.196C366.516 136.196 373.665 164.943 368.743 176.766C363.821 188.589 364.229 212.057 364.229 212.057C364.229 212.057 361.394 216.37 360.235 215.217C359.077 214.065 360.659 219.738 360.659 219.738C360.659 219.738 340.86 222.37 340.778 218.474C340.697 214.578 345.322 195.958 345.322 195.958C345.322 195.958 346.584 151.663 344.795 144.717C343.005 137.772 343.74 94.3838 343.74 94.3838Z" fill="#67647E"/>
<path opacity="0.1" d="M309.185 141.564C309.185 141.564 302.667 157.552 300.566 158.608C298.465 159.663 300.989 163.865 300.989 163.865C300.989 163.865 312.859 147.245 309.185 141.564Z" fill="black"/>
<path opacity="0.1" d="M305.294 85.4831C305.369 85.1782 297.522 93.1941 295.421 94.4062C293.32 95.6182 303.089 94.3318 305.294 85.4831Z" fill="black"/>
<path opacity="0.1" d="M283.447 140.3C283.447 140.3 271.473 148.056 273.054 151.127C274.635 154.198 283.447 140.3 283.447 140.3Z" fill="black"/>
<path opacity="0.1" d="M305.189 253.512C305.189 253.512 315.382 260.078 331.239 261.692L305.189 253.512Z" fill="black"/>
<path opacity="0.1" d="M280.715 269.298C280.715 269.298 290.165 281.196 294.478 281.501C298.791 281.806 280.715 269.298 280.715 269.298Z" fill="black"/>
<path opacity="0.1" d="M293.951 315.921C293.528 316.13 288.591 326.651 283.558 326.971C278.525 327.291 293.951 315.921 293.951 315.921Z" fill="black"/>
<path opacity="0.1" d="M337.75 338.973C337.75 338.973 347.118 336.868 349.204 343.598C349.204 343.576 348.573 341.471 337.75 338.973Z" fill="black"/>
<path opacity="0.1" d="M331.447 377.461C331.447 377.461 342.798 375.141 345.21 378.301C347.623 381.462 331.447 377.461 331.447 377.461Z" fill="black"/>
<path opacity="0.1" d="M299.34 382.845C299.34 382.949 287.789 385.165 288.204 386.637C288.62 388.109 300.527 387.901 300.95 385.581C301.026 385.295 301.045 384.998 301.004 384.705C300.964 384.412 300.866 384.13 300.716 383.875C300.567 383.621 300.368 383.399 300.131 383.222C299.895 383.045 299.626 382.917 299.34 382.845Z" fill="black"/>
<path opacity="0.1" d="M327.668 392.824C327.668 392.824 346.65 390.504 345.484 394.504C344.319 398.505 327.668 392.824 327.668 392.824Z" fill="black"/>
<path opacity="0.1" d="M228.297 158.608C228.401 158.92 240.798 160.608 242.476 164.609C242.476 164.609 230.294 158.92 228.371 158.92" fill="black"/>
<path opacity="0.1" d="M245.734 191.118C245.734 191.118 235.437 194.382 236.172 199.297C236.907 204.212 235.126 197.022 245.734 191.118Z" fill="black"/>
<path opacity="0.1" d="M240.939 216.162C240.939 216.162 244.688 211.009 248.259 211.953C251.83 212.897 240.939 216.162 240.939 216.162Z" fill="black"/>
<path opacity="0.1" d="M299.733 21.9286C299.372 22.2791 298.968 22.5815 298.53 22.8284C295.561 24.5609 294.744 27.2304 293.334 30.3089C292.02 33.1271 290.572 36.1089 287.922 37.7076C284.5 39.7748 279.994 39.0163 276.438 40.8158C274.859 41.639 273.563 42.9168 272.716 44.4847C271.87 46.0526 271.511 47.8386 271.687 49.6125C271.913 50.9813 272.251 52.3292 272.697 53.6427C273.505 56.4868 273.871 59.4389 273.78 62.3948C273.788 62.4814 273.788 62.5684 273.78 62.655C270.738 61.1325 268.049 58.9862 265.889 56.3555C263.728 53.7247 262.144 50.6683 261.238 47.3846C260.333 44.1009 260.127 40.6632 260.634 37.2947C261.141 33.9261 262.35 30.702 264.181 27.8314C266.012 24.9609 268.426 22.5081 271.264 20.6323C274.103 18.7564 277.304 17.4994 280.659 16.9428C284.015 16.3862 287.449 16.5424 290.74 17.4013C294.031 18.2603 297.105 19.8027 299.763 21.9286H299.733Z" fill="black"/>
<path d="M299.103 14.6115C296.438 9.00482 290.64 5.45047 284.679 3.71791C280.128 2.40175 275.184 1.97047 270.671 3.42047C268.095 4.23842 265.756 5.65124 263.344 6.86329C258.845 9.13867 253.901 10.9382 250.516 14.6784C249.722 15.5484 249.031 16.6638 249.232 17.8164C249.402 18.6715 250.07 19.3036 250.501 20.0918C251.473 21.802 251.243 23.951 250.568 25.81C249.892 27.6689 248.935 29.3941 248.474 31.3051C248.014 33.2161 248.192 35.4543 249.603 36.8151C250.234 37.4174 251.043 37.7966 251.726 38.3023C252.498 38.9701 253.175 39.7407 253.738 40.5925L257.746 46.0802C259.629 48.5121 261.308 51.0963 262.765 53.8061C263.759 55.7989 264.531 57.9256 265.868 59.7028C267.204 61.48 269.282 62.9076 271.495 62.7143C271.666 62.7187 271.836 62.6826 271.991 62.6089C272.145 62.5353 272.281 62.4262 272.386 62.2905C272.468 62.1165 272.506 61.925 272.497 61.7328C272.595 58.7879 272.237 55.8456 271.435 53.0105C270.988 51.6972 270.651 50.3492 270.426 48.9802C270.255 47.207 270.616 45.423 271.462 43.8561C272.308 42.2892 273.602 41.0106 275.177 40.1835C278.74 38.3841 283.246 39.1425 286.661 37.0828C289.319 35.4766 290.766 32.4948 292.073 29.6469C293.505 26.5684 294.3 23.8989 297.269 22.1664C300.239 20.4338 300.58 17.5635 299.103 14.6115Z" fill="#585268"/>
<path opacity="0.1" d="M288.234 411.889C288.234 411.889 291.946 416.626 290.981 419.325C290.016 422.024 288.234 411.889 288.234 411.889Z" fill="black"/>
<path opacity="0.1" d="M338.455 423.742C338.455 423.742 339.279 417.392 342.583 417.332C345.886 417.273 346.049 416.99 348.573 417.964C351.097 418.938 353.465 420.448 352.708 420.671C351.951 420.894 348.365 417.042 344.683 419.013C342.385 420.272 340.287 421.866 338.455 423.742Z" fill="black"/>
<path opacity="0.1" d="M277.159 86.8064L287.552 79.5118C287.552 79.5118 272.348 70.5144 270.537 71.7785C268.726 73.0426 267.479 84.4195 267.479 84.4195L277.159 86.8064Z" fill="black"/>
<path d="M277.114 86.3383L287.507 78.9024C287.507 78.9024 272.303 69.905 270.492 71.1691C268.681 72.4332 267.434 84.4347 267.434 84.4347L277.114 86.3383Z" fill="#E1E7EF"/>
<path d="M277.114 86.3383L287.507 78.9024C287.507 78.9024 272.303 69.905 270.492 71.1691C268.681 72.4332 267.434 84.4347 267.434 84.4347L277.114 86.3383Z" fill="#3D58B0"/>
<path d="M272.214 71.2286L271.902 71.0724C271.438 70.8356 270.916 70.7383 270.398 70.7924C269.88 70.8465 269.389 71.0497 268.984 71.3773L237.806 96.7114C237.806 96.7114 231.028 106.103 231.971 122.306L250.359 148.398C250.359 148.398 252.46 139.564 254.976 141.245C254.976 141.245 258.547 186.492 254.976 193.014C251.406 199.535 249.832 223.947 249.832 223.947L261.91 225.315C261.91 225.315 263.172 208.793 266.008 202.903C268.843 197.014 270.387 176.766 270.387 176.766C270.387 176.766 272.941 147.35 272.518 134.724C272.095 122.098 268.42 94.9491 268.42 94.9491C268.42 94.9491 269.452 79.0363 272.214 71.2286Z" fill="#67647E"/>
<path opacity="0.1" d="M303.274 82.1965L290.32 77.3929C290.32 77.3929 306.815 59.294 308.879 69.3324L303.274 82.1965Z" fill="black"/>
<path d="M303.274 81.5647L290.32 76.7611C290.32 76.7611 306.815 58.6621 308.879 68.7006L303.274 81.5647Z" fill="#E1E7EF"/>
<path d="M303.274 81.5647L290.32 76.7611C290.32 76.7611 306.815 58.6621 308.879 68.7006L303.274 81.5647Z" fill="#3D58B0"/>
<path opacity="0.1" d="M302.852 66.1647C303.038 66.1347 303.23 66.1772 303.386 66.2836L302.852 66.1647Z" fill="black"/>
<path d="M304.098 64.9081L338.469 72.344C338.469 72.344 347.926 74.4484 354.756 98.2284C361.585 122.008 345.402 151.142 345.402 151.142L341.831 148.101L343.62 217.545C343.62 217.545 327.756 223.538 322.716 218.288C317.675 213.039 318.202 188.381 318.202 188.381C318.202 188.381 313.37 142.933 310.319 135.46C307.267 127.987 308.834 74.1212 308.834 74.1212C308.834 74.1212 306.028 64.4917 304.098 64.9081Z" fill="#67647E"/>
<path opacity="0.1" d="M335.544 109.159C335.062 109.605 334.498 130.619 336.599 146.614C337.883 156.354 339.868 165.989 342.537 175.443L339.42 111.368C339.42 111.368 337.014 107.791 335.544 109.159Z" fill="black"/>
<path opacity="0.1" d="M331.344 91.0601C332.183 91.588 335.865 100.318 334.18 103.894C332.494 107.471 331.344 91.0601 331.344 91.0601Z" fill="black"/>
<path opacity="0.1" d="M298.901 14.6117C297.214 11.2835 294.586 8.52661 291.344 6.68506C293.754 8.41379 295.7 10.7128 297.008 13.3774C298.493 16.3517 298.055 19.3261 295.167 20.9545C292.279 22.583 291.381 25.3566 289.971 28.4351C288.657 31.2533 287.209 34.2351 284.552 35.871C281.137 37.9381 276.631 37.1722 273.067 38.9717C271.493 39.8016 270.2 41.0818 269.354 42.6496C268.508 44.2174 268.147 46.0018 268.316 47.7758C268.545 49.1424 268.885 50.4879 269.333 51.7986C270.142 54.6428 270.507 57.5949 270.417 60.5507C270.424 60.7435 270.383 60.9351 270.298 61.1084C270.196 61.2449 270.062 61.3547 269.908 61.4285C269.755 61.5023 269.585 61.5378 269.415 61.5322C268.524 61.6006 267.631 61.4339 266.824 61.0489C267.408 61.6292 268.105 62.0836 268.871 62.3841C269.637 62.6847 270.456 62.8249 271.278 62.7963C271.412 62.8158 271.549 62.804 271.677 62.7618C271.806 62.7196 271.923 62.6482 272.019 62.5531C272.116 62.458 272.189 62.3419 272.233 62.2138C272.277 62.0857 272.291 61.9492 272.273 61.8148C272.369 58.8592 272.006 55.9066 271.197 53.0627C270.744 51.7507 270.404 50.4024 270.18 49.0325C270.009 47.2593 270.37 45.4753 271.216 43.9084C272.062 42.3415 273.355 41.0629 274.931 40.2358C278.494 38.4363 283 39.1948 286.415 37.1351C289.072 35.5289 290.52 32.5471 291.827 29.6992C293.259 26.6207 294.054 23.9512 297.023 22.2186C299.992 20.4861 300.386 17.5638 298.901 14.6117Z" fill="black"/>
<path d="M422.362 443.67L421.278 464.253L414.367 462.52L412.912 453.962L422.362 443.67Z" fill="#A27772"/>
<path opacity="0.1" d="M422.362 443.67L421.278 464.253L414.367 462.52L412.912 453.962L422.362 443.67Z" fill="black"/>
<path d="M447.729 466.982L458.27 469.168L466.087 462.252V442.763L466.265 440.101V440.019V439.454L467.72 417.793C467.72 417.793 478.269 381.736 479.909 374.814C481.068 369.906 480.585 355.094 480.199 346.907C480.043 343.553 479.909 341.307 479.909 341.307L456.637 335.664L456.147 353.584L454.447 416.373C454.329 420.375 453.523 424.327 452.064 428.055L451.982 428.27C449.958 433.529 448.817 439.087 448.604 444.718L447.818 464.684V465.234L447.729 466.982Z" fill="#FBBEBE"/>
<path opacity="0.1" d="M447.729 466.982L458.27 469.168L466.087 462.252V460.594C466.061 460.961 465.946 461.316 465.75 461.628C465.555 461.939 465.285 462.197 464.966 462.379L464.855 462.446C461.224 464.368 457.11 465.183 453.021 464.788L448.909 464.439C448.534 464.474 448.166 464.564 447.818 464.706V465.257L447.729 466.982Z" fill="black"/>
<path d="M464.855 462.989L464.966 462.929C465.309 462.736 465.595 462.455 465.794 462.116C465.994 461.776 466.1 461.39 466.102 460.996L466.273 440.019C466.273 440.019 468.544 438.391 467.995 445.767C467.445 453.143 467.089 464.163 467.089 464.163C467.089 464.163 467 476.18 455.546 476.18C455.546 476.18 444.091 478.366 444.18 471.807C444.269 465.249 448.909 464.981 448.909 464.981L453.022 465.338C457.111 465.734 461.225 464.917 464.855 462.989Z" fill="#B07473"/>
<path d="M392.824 462.52C393.092 467.257 407.003 464.521 407.003 464.521L416.364 446.318C416.364 446.318 424.181 440.302 420.269 435.022C420.06 434.735 419.869 434.434 419.697 434.123C419.697 434.123 419.697 434.123 419.66 434.078C419.579 433.944 419.504 433.803 419.43 433.654C416.624 428.077 418.005 418.931 418.005 418.931C418.005 418.931 421.635 392.34 422.912 385.328C423.81 380.376 423.439 364.129 423.142 355.042C423.023 351.264 422.912 348.729 422.912 348.729L399.817 342.535C399.817 342.535 399.817 345.42 399.817 349.435C399.765 355.139 399.587 363.117 399.001 368.308C398.006 377.134 401.547 406.364 401.547 406.364L402.772 432.963C402.984 437.469 401.957 441.947 399.802 445.909C396.907 451.218 393.121 458.698 392.861 462.007C392.836 462.177 392.823 462.349 392.824 462.52Z" fill="#FBBEBE"/>
<path opacity="0.1" d="M392.825 462.52C393.092 467.257 407.004 464.52 407.004 464.52L416.365 446.317C416.365 446.317 424.182 440.302 420.27 435.022C420.06 434.735 419.869 434.434 419.698 434.123C419.572 436.881 416.55 443.789 416.55 443.789C416.55 443.789 408.822 459.278 406.365 462.825C403.908 466.372 393.233 462.163 392.832 462.015C392.817 462.183 392.814 462.352 392.825 462.52Z" fill="black"/>
<path d="M419.43 433.632C419.43 433.632 424.003 432.568 422.637 444.496C422.689 445.851 422.382 447.195 421.747 448.393C421.112 449.591 420.172 450.599 419.022 451.314C415.748 453.374 410.7 457.806 408.146 466.424C408.149 468.284 407.522 470.089 406.37 471.547C405.218 473.006 403.607 474.03 401.799 474.455C397.672 475.422 392.527 476.269 389.551 475.436C384.005 473.89 386.462 470.068 386.462 470.068L392.824 462.505C392.824 462.505 403.915 466.878 406.365 463.323C408.815 459.769 416.55 444.295 416.55 444.295C416.55 444.295 420.789 434.636 419.43 433.632Z" fill="#B07473"/>
<path opacity="0.1" d="M456.636 337.872L456.146 355.793C462.345 355.19 466.784 354.35 467.542 353.168C469.182 350.625 475.136 349.554 480.199 349.115C480.043 345.762 479.909 343.516 479.909 343.516L456.636 337.872Z" fill="black"/>
<path opacity="0.1" d="M399.818 351.614C400.411 350.4 401.284 349.344 402.365 348.535C404.814 347.175 404.547 357.28 404.547 357.28C404.547 357.28 412.713 357.354 423.143 357.221C423.024 353.443 422.913 350.9 422.913 350.9L399.818 344.713C399.818 344.713 399.863 347.584 399.818 351.614Z" fill="black"/>
<path d="M397.182 354.008C397.182 354.008 399.913 346.572 402.378 345.249C404.843 343.925 404.561 353.986 404.561 353.986C404.561 353.986 464.557 354.536 467.556 349.889C470.555 345.241 488.008 345.517 488.008 345.517C488.008 345.517 487.466 287.606 486.1 265.759C484.734 243.912 482.559 223.962 477.103 217.954C473.577 214.065 468.559 201.483 465.456 193.095C463.77 188.515 462.649 185.176 462.649 185.176L405.384 188.448L404.917 193.095L398.837 254.01C398.837 254.01 398.02 321.209 395.563 336.504C393.106 351.8 397.182 354.008 397.182 354.008Z" fill="#444053"/>
<g opacity="0.1">
<path opacity="0.1" d="M462.895 349.889C465.864 345.249 483.346 345.517 483.346 345.517C483.346 345.517 482.804 287.606 481.438 265.759C480.073 243.912 477.897 223.962 472.441 217.954C468.9 214.05 463.897 201.483 460.794 193.095C459.376 189.244 458.359 186.277 458.077 185.429L462.531 185.176C462.531 185.176 463.652 188.515 465.344 193.095C468.447 201.483 473.458 214.065 476.984 217.954C482.441 223.962 484.623 243.905 485.982 265.759C487.34 287.613 487.897 345.517 487.897 345.517C487.897 345.517 470.444 345.249 467.438 349.889C464.877 353.852 420.729 354.038 407.916 354.001C424.359 353.964 460.578 353.473 462.895 349.889Z" fill="black"/>
<path opacity="0.1" d="M397.717 345.249C398.823 344.632 399.372 346.342 399.647 348.417C398.655 350.216 397.795 352.085 397.071 354.008C397.071 354.008 395.49 353.153 394.844 348.803C395.749 347.249 396.752 345.784 397.717 345.249Z" fill="black"/>
</g>
<path d="M414.879 45.0614C410.915 50.4747 414.924 58.1709 410.67 63.4355C409.267 65.1755 407.107 66.4099 405.644 68.1201C402.935 71.2878 403.039 75.5932 404.368 79.3111C405.696 83.0291 408.079 86.4198 409.772 90.0486C410.514 91.6175 411.064 93.3799 410.321 94.9414C409.802 96.027 408.725 96.8524 407.886 97.7893C405.154 100.845 405.08 105.091 406.55 108.69C408.02 112.289 410.826 115.383 413.595 118.431C414.686 119.629 416.067 120.952 417.886 120.915C418.842 120.842 419.767 120.539 420.58 120.03C426.878 116.808 431.693 111.277 434.022 104.588C436.35 97.8991 436.014 90.5685 433.082 84.1222C430.78 78.5973 426.942 73.3029 426.905 67.4657C426.905 62.8332 429.281 58.4088 429.704 53.7986C430.216 48.1919 426.905 39.2911 420.15 36.8447C420.595 40.4437 416.891 42.2804 414.879 45.0614Z" fill="#585268"/>
<path opacity="0.1" d="M414.879 45.0614C410.915 50.4747 414.924 58.1709 410.67 63.4355C409.267 65.1755 407.107 66.4099 405.644 68.1201C402.935 71.2878 403.039 75.5932 404.368 79.3111C405.696 83.0291 408.079 86.4198 409.772 90.0486C410.514 91.6175 411.064 93.3799 410.321 94.9414C409.802 96.027 408.725 96.8524 407.886 97.7893C405.154 100.845 405.08 105.091 406.55 108.69C408.02 112.289 410.826 115.383 413.595 118.431C414.686 119.629 416.067 120.952 417.886 120.915C418.842 120.842 419.767 120.539 420.58 120.03C426.878 116.808 431.693 111.277 434.022 104.588C436.35 97.8991 436.014 90.5685 433.082 84.1222C430.78 78.5973 426.942 73.3029 426.905 67.4657C426.905 62.8332 429.281 58.4088 429.704 53.7986C430.216 48.1919 426.905 39.2911 420.15 36.8447C420.595 40.4437 416.891 42.2804 414.879 45.0614Z" fill="black"/>
<path opacity="0.1" d="M458.842 241.972C450.906 242.388 443.438 245.809 436.489 249.675C429.541 253.542 422.815 257.922 415.34 260.666" fill="black"/>
<path opacity="0.1" d="M453.911 260.703C446.061 261.453 438.746 265.017 433.311 270.741C431.381 272.786 429.718 275.076 427.706 277.039C424.627 280.05 420.821 282.209 416.66 283.308" fill="black"/>
<path opacity="0.1" d="M455.539 274.957C449.208 276.717 443.478 280.178 438.97 284.966C437.752 286.282 436.646 287.687 435.429 289.003C428.859 296.068 419.579 299.815 410.619 303.362" fill="black"/>
<path d="M454.863 77.274C455.038 83.6259 455.584 89.9622 456.496 96.2504C457.239 100.712 458.278 104.727 459.77 106.504C464.135 111.71 438.502 118.662 438.502 118.662L423.365 106.913C423.365 106.913 435.362 95.8488 429.772 85.0594C424.182 74.2699 454.863 77.274 454.863 77.274Z" fill="#FBBEBE"/>
<path opacity="0.1" d="M404.902 193.096H465.441C463.756 188.515 462.635 185.176 462.635 185.176L405.37 188.448L404.902 193.096Z" fill="black"/>
<path d="M401.006 192.002H465.731C463.913 185.481 465.731 179.45 468.322 174.81C470.138 171.559 472.422 168.592 475.1 166.006L475.545 165.597L498.142 160.586L499.36 160.318C499.36 160.318 499.545 119.16 484.995 113.509C470.445 107.858 461.723 100.221 461.723 100.221L441.731 106.408L427.003 98.9717C422.274 104.065 409.728 102.065 409.728 102.065C389.187 104.43 389.188 119.911 389.188 119.911C389.188 119.911 401.184 147.952 402.097 147.952C403.01 147.952 401.006 192.002 401.006 192.002Z" fill="#3D58B0"/>
<path opacity="0.1" d="M423.35 165.835C423.35 165.835 410.151 162.906 405.66 157.782L423.35 165.835Z" fill="black"/>
<path opacity="0.1" d="M489.901 150.48L474.594 163.047C474.705 164.047 474.873 165.041 475.099 166.021L475.544 165.612L498.141 160.601L489.901 150.48Z" fill="black"/>
<path opacity="0.1" d="M448.457 187.63C448.457 187.63 451.805 189.519 456.935 192.002H465.732C463.913 185.481 465.732 179.45 468.322 174.81L452.815 169.784C458.093 174.699 448.457 187.63 448.457 187.63Z" fill="black"/>
<path d="M398.274 114.974L389.187 119.889L380.279 142.472C380.279 142.472 371.007 167.234 371.913 173.792C371.913 173.792 368.646 189.274 374.459 192.003L389.603 198.873C389.87 198.992 390.168 199.024 390.455 198.965C390.741 198.906 391.003 198.76 391.202 198.546C391.402 198.332 391.531 198.061 391.57 197.77C391.609 197.48 391.557 197.185 391.422 196.925C389.261 192.828 386.886 186.418 390.679 182.894L386.314 173.792L402.089 147.93L407.36 139.007L398.274 114.974Z" fill="#3D58B0"/>
<path opacity="0.1" d="M418.487 160.668C419.274 163.88 421.932 168.847 430.729 170.699L440.379 178.618L450.646 183.28L454.833 185.176L456.607 172.335L452.576 170.104L447.877 167.531C447.877 167.531 437.276 148.294 420.492 156.377C419.712 156.747 419.085 157.378 418.719 158.161C418.353 158.944 418.271 159.831 418.487 160.668Z" fill="black"/>
<path d="M419.036 159.574C419.823 162.794 422.473 167.754 431.27 169.605L440.921 177.524L451.195 182.187L455.374 184.083L457.148 171.241L453.117 169.01L448.456 166.46C448.456 166.46 437.847 147.223 421.063 155.343C420.291 155.708 419.668 156.327 419.299 157.098C418.93 157.869 418.837 158.743 419.036 159.574Z" fill="#FBBEBE"/>
<path opacity="0.1" d="M437.951 93.9302C450.902 93.9302 461.402 83.4134 461.402 70.4402C461.402 57.467 450.902 46.9502 437.951 46.9502C424.999 46.9502 414.5 57.467 414.5 70.4402C414.5 83.4134 424.999 93.9302 437.951 93.9302Z" fill="black"/>
<path d="M437.951 93.3872C450.902 93.3872 461.402 82.8704 461.402 69.8972C461.402 56.9241 450.902 46.4072 437.951 46.4072C424.999 46.4072 414.5 56.9241 414.5 69.8972C414.5 82.8704 424.999 93.3872 437.951 93.3872Z" fill="#FBBEBE"/>
<path opacity="0.1" d="M452.48 120.09L445.428 106.363C445.428 106.363 455.746 102.184 456.496 97.3434C457.246 92.5027 466.384 103.017 464.41 106.504C462.435 109.992 452.48 120.09 452.48 120.09Z" fill="black"/>
<path d="M452.48 118.996L445.428 105.27C445.428 105.27 455.746 101.091 456.496 96.2501C457.246 91.4093 466.384 101.931 464.41 105.411C462.435 108.891 452.48 118.996 452.48 118.996Z" fill="#3D58B0"/>
<path d="M394.761 154.458L433.727 206.934C433.727 206.934 419.362 214.764 399.579 200.747L391.034 190.545L366.641 149.357L394.761 154.458Z" fill="#F6F8FB"/>
<path d="M387.093 182.99L390.641 182.893C390.641 182.893 412.318 161.82 417.641 172.483C422.963 183.146 404.137 193.11 404.137 193.11L398.414 196.203L390.953 198.434L386.18 192.017L387.093 182.99Z" fill="#FBBEBE"/>
<path opacity="0.1" d="M392.327 194.374C392.653 195.586 392.965 196.925 392.416 198.048C392.284 198.348 392.057 198.596 391.77 198.754C391.534 198.845 391.28 198.881 391.027 198.858C389.15 198.698 387.402 197.832 386.135 196.434C384.891 195.041 383.826 193.497 382.965 191.839C382 190.151 380.998 188.284 381.34 186.366C381.726 184.276 383.567 182.826 385.371 181.651C388.964 179.272 389.082 182.046 389.869 185.109C390.656 188.173 391.503 191.281 392.327 194.374Z" fill="black"/>
<path d="M391.784 194.374C392.103 195.586 392.423 196.925 391.873 198.048C391.742 198.348 391.515 198.596 391.228 198.754C390.991 198.845 390.737 198.88 390.485 198.858C388.606 198.702 386.857 197.835 385.593 196.434C384.344 195.043 383.277 193.499 382.416 191.839C381.451 190.151 380.449 188.284 380.797 186.366C381.176 184.276 383.025 182.826 384.821 181.651C388.421 179.272 388.533 182.046 389.327 185.109C390.121 188.173 390.953 191.281 391.784 194.374Z" fill="#3D58B0"/>
<path opacity="0.1" d="M402.096 147.93L403.907 144.859L402.326 150.562L402.096 147.93Z" fill="black"/>
<path opacity="0.1" d="M451.225 182.187L455.404 184.083L457.178 171.242L453.147 169.011C455.931 172.208 453.496 178.12 451.225 182.187Z" fill="black"/>
<path opacity="0.1" d="M468.002 167.278C468.002 167.278 454.506 168.103 448.775 164.415L468.002 167.278Z" fill="black"/>
<g opacity="0.1">
<path opacity="0.1" d="M466.326 175.903C468.142 172.65 470.425 169.681 473.103 167.092C473.745 166.688 474.412 166.326 475.1 166.006L496.138 161.679L497.356 161.411C497.356 161.411 497.541 120.253 482.999 114.602C474.841 111.495 467.194 107.181 460.312 101.805L461.909 101.314C461.909 101.314 470.631 108.958 485.181 114.602C499.731 120.246 499.538 161.411 499.538 161.411H497.356L475.828 165.538C475.828 165.538 474.9 166.438 474.618 166.698C471.918 169.407 469.602 172.474 467.736 175.814C464.887 181.112 464.239 187.322 465.932 193.095H463.705C461.909 186.574 463.764 180.543 466.326 175.903Z" fill="black"/>
<path opacity="0.1" d="M408.867 103.255C409.216 103.203 409.55 103.15 409.914 103.113C411.39 103.323 412.877 103.445 414.368 103.478C412.531 103.528 410.694 103.454 408.867 103.255Z" fill="black"/>
<path opacity="0.1" d="M439.726 107.501L426.408 100.749C426.672 100.532 426.921 100.296 427.151 100.042L441.047 107.084L439.726 107.501Z" fill="black"/>
</g>
<path d="M490.429 149.357L499.337 160.288L501.156 189.972C501.156 189.972 503.516 205.082 486.249 201.438C468.982 197.795 448.998 186.537 448.998 186.537C448.998 186.537 458.649 173.606 453.363 168.691L478.091 176.707C478.091 176.707 482.27 175.792 478.996 172.156C475.723 168.52 475.144 161.954 475.144 161.954L490.429 149.357Z" fill="#3D58B0"/>
<path opacity="0.1" d="M494.451 180.715L499.358 186.359C498.096 185.97 496.967 185.236 496.1 184.239C495.233 183.241 494.662 182.021 494.451 180.715Z" fill="black"/>
<path opacity="0.1" d="M486.086 179.8L493.725 189.63L489.909 190.545L486.086 179.8Z" fill="black"/>
<path opacity="0.1" d="M409.943 59.1156C409.104 57.0558 409.75 54.6541 410.759 52.7133C411.769 50.7725 413.157 48.9358 413.914 46.8464C415.035 43.7382 414.694 40.221 415.919 37.1797C418.079 31.7887 424.218 29.3794 429.719 27.513C431.345 26.9702 433.074 26.4274 434.737 26.8289C436.964 27.3569 438.412 29.3794 440.23 30.7402C447.699 36.3171 459.843 30.1751 467.067 36.0792C469.828 38.31 471.172 41.961 471.587 45.5079C472.003 49.0548 471.587 52.6538 471.543 56.2305C471.424 62.4915 472.597 69.34 477.274 73.4892C478.684 74.7384 480.347 75.6753 481.728 76.9692C483.109 78.263 484.193 80.07 483.955 81.9438C483.772 82.8043 483.524 83.6495 483.213 84.472C482.285 87.7364 483.673 91.1643 485.365 94.1387C490.413 102.891 499.314 110.104 509.403 110.304C508.727 115.405 503.464 118.365 498.75 120.454C492.811 123.124 486.486 125.741 479.946 125.407C473.406 125.072 466.584 120.878 465.441 114.424C465.047 112.193 465.099 109.509 463.214 108.349C462.056 107.642 460.556 107.821 459.309 107.293C457.505 106.549 456.614 104.519 456.02 102.653C454.803 98.8017 454.151 94.7941 454.083 90.7553C454.001 85.9666 454.632 80.7392 451.923 76.7982C449.413 73.1471 444.959 71.2956 442.064 67.942C439.392 64.8338 436.489 61.0861 432.109 60.5061C426.052 59.651 413.521 67.8974 409.943 59.1156Z" fill="black"/>
<path d="M409.943 58.0223C409.104 55.9626 409.75 53.5608 410.759 51.62C411.769 49.6793 413.157 47.8426 413.914 45.7531C415.035 42.6449 414.694 39.1277 415.919 36.0864C418.079 30.688 424.218 28.2787 429.719 26.4198C431.345 25.8769 433.074 25.3341 434.737 25.7357C436.964 26.2636 438.412 28.2862 440.23 29.6469C447.699 35.2239 459.843 29.0818 467.067 34.9859C469.828 37.2167 471.172 40.8677 471.587 44.4221C472.003 47.9764 471.587 51.5605 471.543 55.1372C471.424 61.3982 472.597 68.2467 477.274 72.3959C478.684 73.6452 480.347 74.5821 481.728 75.8759C483.109 77.1698 484.193 78.9767 483.955 80.8505C483.772 81.711 483.524 82.5562 483.213 83.3787C482.285 86.6431 483.673 90.071 485.365 93.0454C490.428 101.768 499.292 109.003 509.381 109.204C508.705 114.305 503.442 117.264 498.728 119.361C492.789 122.023 486.464 124.641 479.924 124.306C473.384 123.971 466.562 119.777 465.418 113.323C465.025 111.092 465.077 108.408 463.191 107.248C462.033 106.542 460.534 106.72 459.287 106.192C457.483 105.448 456.592 103.418 455.998 101.552C454.781 97.7011 454.128 93.6935 454.061 89.6546C453.979 84.8659 454.61 79.6385 451.9 75.6975C449.391 72.0464 444.937 70.1949 442.042 66.8413C439.369 63.7331 436.467 59.9854 432.087 59.4054C426.052 58.5577 413.521 66.819 409.943 58.0223Z" fill="#585268"/>
<path opacity="0.1" d="M426.587 118.387L440.031 107.456C440.031 107.456 430.826 102.459 429.727 98.1982C428.629 93.9375 421.265 100.221 422.014 104.043C422.764 107.865 426.587 118.387 426.587 118.387Z" fill="black"/>
<path d="M427.113 116.744L440.557 105.82C440.557 105.82 431.352 100.823 430.297 96.5625C429.243 92.3017 421.835 98.5851 422.584 102.407C423.334 106.229 427.113 116.744 427.113 116.744Z" fill="#3D58B0"/>
<path opacity="0.1" d="M441.085 116.037C441.675 116.037 442.154 115.558 442.154 114.966C442.154 114.375 441.675 113.896 441.085 113.896C440.494 113.896 440.016 114.375 440.016 114.966C440.016 115.558 440.494 116.037 441.085 116.037Z" fill="black"/>
<path opacity="0.1" d="M441.085 121.986C441.675 121.986 442.154 121.506 442.154 120.915C442.154 120.324 441.675 119.844 441.085 119.844C440.494 119.844 440.016 120.324 440.016 120.915C440.016 121.506 440.494 121.986 441.085 121.986Z" fill="black"/>
<path opacity="0.1" d="M441.085 127.927C441.675 127.927 442.154 127.448 442.154 126.856C442.154 126.265 441.675 125.786 441.085 125.786C440.494 125.786 440.016 126.265 440.016 126.856C440.016 127.448 440.494 127.927 441.085 127.927Z" fill="black"/>
<g opacity="0.1">
<path opacity="0.1" d="M415.37 42.8381C416.432 39.9157 416.202 36.6365 417.196 33.6919C416.736 34.3429 416.354 35.0469 416.061 35.7888C414.828 38.8598 415.177 42.377 414.049 45.4555L413.975 45.6339C414.525 44.7469 414.992 43.811 415.37 42.8381Z" fill="black"/>
<path opacity="0.1" d="M500.184 116.446C494.245 119.108 487.92 121.725 481.38 121.391C474.84 121.056 468.018 116.862 466.874 110.415C466.481 108.185 466.533 105.493 464.647 104.333C463.489 103.626 461.99 103.805 460.743 103.277C458.939 102.533 458.048 100.503 457.454 98.6368C456.237 94.7859 455.584 90.7782 455.516 86.7394C455.435 81.9581 456.073 76.7307 453.364 72.7822C450.847 69.1312 446.393 67.2871 443.498 63.926C440.825 60.8253 437.923 57.0702 433.543 56.4902C427.537 55.6722 414.984 63.926 411.436 55.1368C410.866 53.476 410.948 51.6603 411.666 50.0581C411.406 50.4968 411.154 50.9355 410.923 51.3817C409.914 53.3596 409.275 55.7317 410.114 57.7914C413.685 66.5658 426.216 58.3194 432.222 59.1448C436.601 59.7396 439.504 63.4948 442.176 66.5807C445.072 69.9417 449.526 71.7858 452.035 75.4443C454.752 79.3853 454.113 84.6127 454.195 89.394C454.262 93.4328 454.915 97.4405 456.133 101.291C456.727 103.165 457.617 105.173 459.421 105.931C460.668 106.459 462.168 106.288 463.326 106.987C465.241 108.147 465.189 110.861 465.553 113.07C466.711 119.517 473.526 123.711 480.059 124.045C486.591 124.38 492.886 121.77 498.862 119.1C503.168 117.182 507.964 114.527 509.255 110.177C507.192 113.003 503.539 114.951 500.184 116.446Z" fill="black"/>
</g>
<path d="M631.379 158.414C615.663 149.357 609.724 147.127 609.694 147.127L609.368 146.896C607.656 145.578 606.297 143.856 605.411 141.884C605.393 141.525 605.393 141.165 605.411 140.806C605.407 140.841 605.407 140.876 605.411 140.91C605.656 136.114 609.063 131.749 612.293 127.942L620.555 118.208C621.494 117.245 622.22 116.095 622.686 114.832C622.852 114.154 622.927 113.456 622.908 112.758C622.908 112.475 622.908 112.193 622.908 111.91C622.864 109.493 622.797 107.069 622.708 104.653C622.634 102.541 622.092 99.8788 619.983 99.4476C618.885 99.2245 617.43 99.6186 616.851 98.704C616.654 98.3158 616.604 97.8695 616.71 97.4473C616.705 97.4819 616.705 97.5168 616.71 97.5514V97.4324C617.118 95.801 617.379 94.1361 617.489 92.4578C617.535 91.6035 617.419 90.7482 617.148 89.937C615.93 86.4347 611.721 84.9922 608.002 84.3304C604.283 83.6686 600.111 83.1034 597.78 80.1886C597.156 79.216 596.477 78.28 595.746 77.3853C594.67 76.4282 593.357 75.7784 591.945 75.504C587.329 74.3648 582.466 74.7884 578.115 76.7086C576.318 77.5117 574.514 78.5973 572.54 78.4783C570.565 78.3593 568.739 76.9317 566.72 76.5896C563.453 76.0319 560.328 78.4337 558.717 81.2817C557.763 82.9703 557.252 84.8738 557.232 86.814V87.1411C557.186 89.2288 557.946 91.2537 559.356 92.7924C560.766 94.2796 562.86 95.2611 563.446 97.187C563.684 97.9678 563.624 98.8155 563.839 99.6111C563.862 99.7098 563.892 99.8067 563.929 99.9011L563.825 100.042C560.455 104.361 558.625 109.686 558.628 115.167C558.665 120.491 560.39 125.666 563.556 129.943C566.721 134.22 571.162 137.379 576.237 138.962C576.237 139.207 576.237 139.453 576.237 139.705C576.237 142.68 575.383 145.781 572.822 148.034L550.559 156.942C550.559 156.942 537.137 155.343 532.297 174.989C531.524 178.25 531.243 181.609 531.466 184.953C531.644 187.927 531.235 193.132 527.754 199.877C522.253 210.674 523.507 235.458 534.762 237.911C545.385 240.231 549.542 239.265 549.98 239.153V239.584C549.802 244.239 548.116 284.349 541.992 289.197C540.299 290.543 540.611 291.428 541.992 292.06C541.992 292.06 541.992 292.32 541.955 292.803C541.769 295.778 540.827 306.931 536.758 313.267C532 320.628 532.497 363.087 532.497 363.087L529.253 388.117C529.253 388.117 531.25 403.576 529.253 406.275C527.464 408.677 525.089 465.866 524.591 478.269H524.383C523.4 478.333 522.447 478.638 521.609 479.157C520.77 479.675 520.071 480.392 519.573 481.244C516.945 485.519 507.74 493.424 507.74 493.424C505.743 496.264 498.357 498.986 494.452 500.265C493.937 500.434 493.439 500.653 492.967 500.919C491.505 501.716 490.331 502.955 489.612 504.459C489.354 504.904 489.19 505.398 489.129 505.909C489.067 506.42 489.11 506.939 489.255 507.433C490.25 509.879 511.014 511.604 516.27 509.143C520.397 507.217 536.758 504.682 543.551 503.685C544.784 503.53 545.931 502.967 546.81 502.087C547.689 501.206 548.251 500.058 548.406 498.822C548.471 498.396 548.449 497.961 548.342 497.543C548.235 497.125 548.044 496.733 547.782 496.391C546.483 494.777 545.823 490.368 545.555 487.468C546.107 487.243 546.622 486.937 547.085 486.56C546.517 477.646 547.78 468.71 550.796 460.304C555.8 447.053 557.299 422.515 556.052 406.565C556.052 406.565 571.307 340.802 583.319 334.667C583.504 334.905 589.332 342.393 590.074 365.586C590.816 389.143 599.324 404.602 599.324 404.602C599.324 404.602 595.568 444.6 599.324 459.568L594.417 483.177C594.053 482.872 593.823 482.634 593.823 482.634C593.823 482.634 593.971 483.289 594.172 484.337L594.068 484.843L594.283 484.887C594.84 487.862 595.664 492.985 595.323 496.041C595.13 497.759 594.647 500.116 594.32 502.429C593.801 506.065 593.66 509.589 595.568 510.363C598.7 511.627 617.096 513.337 620.214 509.292C620.915 508.468 621.372 507.463 621.532 506.392C621.692 505.32 621.549 504.226 621.119 503.232C620.895 502.674 620.589 502.153 620.214 501.685C620.214 501.685 615.329 493.691 616.71 488.055C616.837 487.504 616.851 486.933 616.75 486.377C616.649 485.821 616.436 485.291 616.123 484.82C616.338 482.054 617.452 469.25 620.332 458.378C623.465 446.57 630.065 420.678 625.21 403.658C625.026 402.988 624.819 402.334 624.586 401.694C621.784 392.401 620.848 382.643 621.832 372.984C620.03 364.739 620.03 356.201 621.832 347.955C624.838 334.214 626.939 320.718 626.939 320.718C626.939 320.718 628.595 302.559 627.147 291.428C627.147 291.19 627.08 290.952 627.051 290.684L627.837 290.506C627.837 290.506 623.584 271.611 622.084 259.587C621.728 256.747 621.268 253.155 620.763 249.318C622.146 249.088 623.509 248.748 624.838 248.299C638.342 243.637 642.595 201.453 642.595 201.453V188.069C642.595 188.069 647.139 167.493 631.379 158.414ZM530.745 484.285C530.33 484.077 530.085 483.936 530.085 483.936L530.745 484.285Z" fill="url(#paint1_linear)"/>
<path d="M623.227 401.963C629.084 418.835 622.247 446.221 619.07 458.475C615.893 470.73 614.92 485.378 614.92 485.378C602.471 487.334 593.436 484.888 593.436 484.888L598.566 459.702C594.899 444.786 598.566 404.922 598.566 404.922C598.566 404.922 590.267 389.515 589.532 366.04C588.789 342.936 583.125 335.463 582.947 335.233C571.233 341.345 556.341 406.885 556.341 406.885C557.559 422.776 556.089 447.232 551.212 460.424C548.249 468.808 547.004 477.705 547.552 486.583C545.844 488.07 543.469 488.278 540.871 487.862C533.9 486.732 525.541 480.716 525.541 480.716C525.541 480.716 528.221 409.331 530.181 406.625C532.141 403.918 530.181 388.526 530.181 388.526L533.351 363.586C533.351 363.586 532.861 321.276 537.5 313.944C541.509 307.608 542.429 296.469 542.608 293.547C542.608 293.086 542.608 292.804 542.608 292.804L549.675 284.327C549.675 284.327 618.031 279.188 623.168 284.327C624.422 285.583 625.202 288.454 625.662 292.06C627.072 303.154 625.454 321.246 625.454 321.246C625.454 321.246 623.405 334.697 620.473 348.387C618.715 356.609 618.715 365.112 620.473 373.334C619.53 382.966 620.466 392.689 623.227 401.963Z" fill="#65617D"/>
<path d="M618.952 509.188C615.901 513.226 597.958 511.515 594.9 510.259C593.037 509.515 593.178 505.968 593.683 502.347C594.002 500.049 594.469 497.699 594.662 495.989C595.145 491.587 593.178 482.657 593.178 482.657C593.178 482.657 597.201 486.94 598.174 482.657C598.604 480.783 600.104 479.824 601.663 479.34C603.755 478.706 606.005 478.846 608.003 479.734C611.172 481.117 616.458 484.055 615.515 488.025C614.171 493.639 618.93 501.611 618.93 501.611C619.299 502.076 619.599 502.592 619.821 503.143C620.244 504.133 620.387 505.221 620.234 506.287C620.081 507.354 619.637 508.357 618.952 509.188Z" fill="#A27772"/>
<path opacity="0.1" d="M618.951 509.188C615.9 513.226 597.957 511.516 594.899 510.259C593.036 509.515 593.177 505.968 593.681 502.347C595.612 503.254 598.878 504.005 604.349 503.5C605.625 503.378 606.906 503.339 608.187 503.381C612.073 503.556 615.966 503.476 619.842 503.143C620.262 504.135 620.401 505.224 620.244 506.291C620.087 507.357 619.64 508.36 618.951 509.188Z" fill="black"/>
<path opacity="0.1" d="M556.336 406.855C557.553 422.746 556.083 447.202 551.206 460.394C548.244 468.778 546.999 477.675 547.546 486.553C545.839 488.04 543.463 488.248 540.865 487.832C542.35 477.518 548.615 433.081 552.631 397.969C557.212 357.986 578.614 330.481 578.614 330.481L582.882 335.188C571.227 341.315 556.336 406.855 556.336 406.855Z" fill="black"/>
<path d="M611.624 149.841L608.655 164.512L594.053 189.087L576.051 181.384C576.051 181.384 551.553 155.707 566.957 152.042C568.798 151.645 570.537 150.87 572.065 149.766C575.086 147.483 576.036 144.167 576.051 140.918C575.937 137.282 575.093 133.706 573.571 130.403L605.062 120.499C603.776 124.644 603.028 128.937 602.835 133.273C602.59 141.869 605.804 146.1 608.395 148.145C609.352 148.915 610.448 149.491 611.624 149.841Z" fill="#FBBEBE"/>
<path opacity="0.1" d="M605.033 120.499C603.747 124.644 602.999 128.937 602.806 133.273C602.232 133.959 601.62 134.612 600.972 135.229C597.721 138.339 593.69 140.51 589.306 141.512C584.923 142.513 580.35 142.308 576.074 140.918C575.953 137.28 575.102 133.704 573.572 130.403L605.033 120.499Z" fill="black"/>
<path d="M608.648 116.461C608.649 121.395 607.19 126.219 604.454 130.323C601.718 134.426 597.829 137.625 593.278 139.515C588.727 141.404 583.719 141.899 578.887 140.937C574.056 139.975 569.617 137.6 566.133 134.111C562.649 130.623 560.277 126.178 559.315 121.338C558.353 116.498 558.846 111.482 560.731 106.923C562.616 102.364 565.808 98.4673 569.904 95.7257C574 92.9841 578.816 91.5208 583.742 91.5208C587.016 91.505 590.261 92.1393 593.29 93.387C596.318 94.6347 599.07 96.471 601.385 98.79C603.701 101.109 605.535 103.864 606.782 106.897C608.028 109.931 608.662 113.181 608.648 116.461Z" fill="#FBBEBE"/>
<path opacity="0.1" d="M611.624 149.841L608.655 164.512L594.053 189.087L576.051 181.384C576.051 181.384 551.553 155.708 566.957 152.042C568.798 151.645 570.537 150.87 572.065 149.766C569.288 157.41 580.75 173.316 580.75 173.316C582.086 175.286 585.145 174.059 585.145 174.059C592.531 172.937 606.124 151.663 608.343 148.123C609.313 148.907 610.428 149.49 611.624 149.841Z" fill="black"/>
<path opacity="0.1" d="M625.723 292.075C621.387 293.064 597.402 298.38 588.308 297.049C578.301 295.562 558.844 294.61 558.844 294.61C558.844 294.61 546.454 295.279 542.639 293.532C542.639 293.071 542.639 292.788 542.639 292.788L549.706 284.311C549.706 284.311 618.062 279.173 623.199 284.311C624.483 285.598 625.262 288.468 625.723 292.075Z" fill="black"/>
<path d="M580.743 174.052C580.743 174.052 567.863 156.206 572.718 149.216L550.96 158.139C550.96 158.139 537.865 156.548 533.143 176.127C532.389 179.38 532.116 182.728 532.334 186.061C532.512 189.035 532.111 194.24 528.749 200.933C523.381 211.692 524.599 236.395 535.586 238.856C546.572 241.317 550.47 240.075 550.47 240.075C550.47 240.075 548.985 284.825 542.66 289.963C536.335 295.101 558.843 293.874 558.843 293.874C558.843 293.874 578.3 294.856 588.315 296.32C598.329 297.785 626.397 291.182 626.397 291.182C626.397 291.182 622.248 272.355 620.778 260.375C619.308 248.396 615.886 222.876 615.886 222.876L640.784 189.087C640.784 189.087 645.179 168.668 629.797 159.619C614.416 150.569 608.633 148.354 608.633 148.354C608.633 148.354 593.177 173.561 585.123 174.781C585.138 174.781 582.079 176.015 580.743 174.052Z" fill="#3D58B0"/>
<path opacity="0.1" d="M552.177 181.139C552.177 181.139 551.94 189.214 553.402 192.389C554.864 195.564 560.239 213.21 560.239 213.21H548.027C548.027 213.21 554.619 206.116 554.137 202.688C553.654 199.26 552.177 181.139 552.177 181.139Z" fill="black"/>
<path d="M588.315 242.031C588.315 242.031 561.353 235.428 558.843 229.806C556.334 224.185 549.408 211.596 549.408 211.596L552.251 207.759L565.361 218.065C565.361 218.065 580.951 230.535 588.315 231.762C595.679 232.989 588.315 242.031 588.315 242.031Z" fill="#FBBEBE"/>
<path opacity="0.05" d="M588.315 242.031C588.315 242.031 561.353 235.428 558.843 229.806C556.334 224.185 549.408 211.596 549.408 211.596L552.251 207.759L565.361 218.065C565.361 218.065 580.951 230.535 588.315 231.762C595.679 232.989 588.315 242.031 588.315 242.031Z" fill="black"/>
<path d="M611.626 210.242V224.891H609.28C597.663 224.889 586.237 227.852 576.082 233.502L571.672 235.948L570.492 236.61L562.92 219.507L570.002 213.15H570.366C572.095 213.321 579.586 213.945 582.763 212.875C585.777 211.849 589.518 208.599 598.397 210.867C602.769 211.99 606.511 216.897 610.75 215.366L611.626 210.242Z" fill="#FBBEBE"/>
<path opacity="0.1" d="M635.187 183.563L640.064 189.065V202.398C640.064 202.398 635.915 244.455 622.738 249.103C609.561 253.75 586.021 246.411 586.021 246.411C586.021 246.411 579.941 230.275 582.785 229.308C585.628 228.342 607.913 222.437 607.913 222.437C607.913 222.437 607.601 197.765 612.479 190.426C612.479 190.426 609.309 167.442 620.296 166.951C631.282 166.46 635.187 183.563 635.187 183.563Z" fill="black"/>
<path d="M635.929 183.563L640.814 189.065V202.398C640.814 202.398 636.664 244.455 623.48 249.103C610.296 253.75 586.763 246.411 586.763 246.411C586.763 246.411 580.683 230.275 583.534 229.308C586.385 228.342 608.663 222.437 608.663 222.437C608.663 222.437 608.343 197.765 613.228 190.426C613.228 190.426 610.051 167.442 621.038 166.951C632.024 166.46 635.929 183.563 635.929 183.563Z" fill="#3D58B0"/>
<path opacity="0.1" d="M601.817 127.05C602.028 125.439 601.836 123.802 601.261 122.283C600.57 120.796 598.959 119.673 597.385 120.053C595.299 120.543 594.416 123.265 592.352 123.919C590.623 124.47 588.737 123.243 587.898 121.629C587.059 120.016 587.052 118.119 587.052 116.305C587.052 114.268 587.052 112.223 587.052 110.178C587.052 107.947 586.978 105.553 585.612 103.805C583.912 101.634 579.911 100.682 577.238 100.771C575.46 100.791 573.754 101.479 572.457 102.697C571.032 103.917 569.377 104.809 567.432 104.489C566.621 104.368 565.861 104.019 565.24 103.481C564.62 102.944 564.165 102.242 563.928 101.456V101.381C565.999 98.6228 568.619 96.3251 571.623 94.6335C574.626 92.9418 577.948 91.8931 581.377 91.5536C584.806 91.2141 588.268 91.5912 591.544 92.6611C594.82 93.7311 597.839 95.4705 600.409 97.7693C602.979 100.068 605.045 102.876 606.476 106.016C607.907 109.156 608.672 112.559 608.722 116.011C608.772 119.462 608.106 122.886 606.767 126.066C605.428 129.246 603.444 132.113 600.941 134.486C601.371 132.025 601.663 129.543 601.817 127.05Z" fill="black"/>
<path d="M567.432 103.768C566.62 103.643 565.86 103.292 565.239 102.754C564.618 102.216 564.161 101.513 563.92 100.727C563.72 99.9385 563.772 99.0982 563.542 98.3175C562.97 96.3916 560.921 95.3952 559.548 93.9303C556.801 91.008 556.979 86.2044 558.924 82.6872C560.498 79.8542 563.542 77.4821 566.734 78.0175C568.708 78.3595 570.446 79.7649 572.42 79.8988C574.395 80.0326 576.132 78.9395 577.862 78.1365C582.103 76.2077 586.873 75.7829 591.387 76.9319C592.772 77.2106 594.055 77.8608 595.099 78.8131C595.808 79.7071 596.47 80.6379 597.081 81.6016C599.353 84.5016 603.428 85.0742 607.058 85.7285C610.688 86.3829 614.794 87.8254 615.966 91.3203C616.761 93.6403 615.967 96.1536 615.536 98.5629C615.393 99.0546 615.427 99.581 615.632 100.05C616.204 100.987 617.622 100.593 618.691 100.794C620.747 101.232 621.274 103.887 621.356 105.999C621.44 108.408 621.504 110.82 621.549 113.234C621.608 114.132 621.536 115.034 621.334 115.911C620.888 117.167 620.182 118.315 619.263 119.279L611.201 128.983C607.622 133.281 603.829 138.293 604.519 143.855C602.827 144.599 600.808 143.149 600.258 141.371C599.709 139.594 600.147 137.653 600.526 135.861C601.183 132.711 601.614 129.518 601.817 126.306C602.028 124.698 601.836 123.063 601.261 121.547C600.57 120.06 598.959 118.937 597.385 119.316C595.292 119.807 594.416 122.529 592.352 123.183C590.623 123.733 588.737 122.506 587.898 120.893C587.059 119.279 587.052 117.391 587.052 115.576V109.442C587.052 107.211 586.978 104.816 585.612 103.069C583.912 100.898 579.91 99.946 577.238 100.035C575.463 100.057 573.76 100.744 572.465 101.961C571.032 103.188 569.377 104.088 567.432 103.768Z" fill="#7C5C5C"/>
<path opacity="0.1" d="M573.053 180.529L580.699 211.99C580.699 211.99 586.727 211.953 573.053 180.529Z" fill="black"/>
<path opacity="0.1" d="M599.176 175.271C599.176 175.271 589.169 191.69 593.074 208.674L594.937 208.807C594.937 208.807 591.612 200.948 599.176 175.271Z" fill="black"/>
<path opacity="0.1" d="M605.492 268.198C605.492 268.198 617.786 264.123 618.676 273.574C618.706 273.574 616.39 267.097 605.492 268.198Z" fill="black"/>
<path opacity="0.1" d="M570 213.908C570 213.908 567.558 231.011 571.953 237.874C571.953 237.874 563.044 241.54 550.469 240.811L548.984 213.908H570Z" fill="black"/>
<path opacity="0.1" d="M571.672 235.948L570.492 236.61L562.92 219.508L570.002 213.15H570.366C570.254 213.998 568.28 228.698 571.672 235.948Z" fill="black"/>
<path d="M570.002 213.18C570.002 213.18 567.559 230.282 571.954 237.138C571.954 237.138 563.046 240.812 550.47 240.075L541.926 213.18H570.002Z" fill="#3D58B0"/>
<path d="M548.89 498.778C548.748 499.998 548.205 501.137 547.346 502.015C546.488 502.893 545.362 503.459 544.146 503.626C537.517 504.615 521.549 507.143 517.518 509.069C512.389 511.515 492.13 509.813 491.15 507.359C491.009 506.865 490.967 506.347 491.026 505.837C491.086 505.326 491.247 504.832 491.499 504.384C492.194 502.895 493.339 501.662 494.773 500.86C495.246 500.596 495.743 500.377 496.257 500.205C500.073 498.934 507.281 496.227 509.226 493.387C509.226 493.387 518.216 485.512 520.777 481.259C521.258 480.422 521.938 479.716 522.757 479.205C523.575 478.694 524.507 478.393 525.469 478.329C527.607 478.232 529.99 479.311 530.97 484.003C530.97 484.003 542.676 490.695 545.817 484.828C545.817 484.828 546.307 493.84 548.252 496.309C548.518 496.657 548.711 497.054 548.821 497.479C548.93 497.903 548.954 498.344 548.89 498.778Z" fill="#A27772"/>
<path opacity="0.1" d="M548.89 498.778C548.748 499.998 548.205 501.137 547.346 502.015C546.488 502.893 545.362 503.459 544.146 503.626C537.517 504.615 521.549 507.143 517.518 509.069C512.389 511.515 492.13 509.813 491.15 507.359C491.009 506.865 490.967 506.347 491.026 505.837C491.086 505.326 491.247 504.832 491.499 504.384C492.194 502.895 493.339 501.662 494.773 500.86C498.076 503.091 505.41 505.202 521.542 502.682C536.931 500.272 544.555 497.915 548.266 496.309C548.53 496.658 548.721 497.056 548.828 497.48C548.935 497.904 548.956 498.345 548.89 498.778Z" fill="black"/>
<g opacity="0.1">
<path opacity="0.1" d="M615.498 98.9045V98.7856C615.847 96.9563 616.374 95.0676 616.241 93.231C616.085 94.732 615.837 96.222 615.498 97.6925C615.407 98.0913 615.407 98.5057 615.498 98.9045Z" fill="black"/>
<path opacity="0.1" d="M601.253 121.792C601.642 122.674 601.846 123.625 601.855 124.588C601.964 123.26 601.758 121.925 601.253 120.692C600.57 119.205 598.96 118.082 597.386 118.461C595.292 118.952 594.416 121.673 592.345 122.328C590.623 122.878 588.737 121.651 587.891 120.037C587.045 118.424 587.045 116.528 587.045 114.713C587.045 112.668 587.045 110.631 587.045 108.586C587.045 106.355 586.971 103.961 585.605 102.214C583.897 100.035 579.903 99.0905 577.231 99.1723C575.452 99.1951 573.746 99.8849 572.45 101.106C571.017 102.325 569.369 103.217 567.417 102.898C566.607 102.774 565.848 102.423 565.229 101.887C564.609 101.35 564.153 100.649 563.913 99.8639C563.713 99.0757 563.765 98.228 563.535 97.4472C562.963 95.5287 560.914 94.5249 559.541 93.0674C558.253 91.6366 557.522 89.7886 557.484 87.8623C557.383 88.9923 557.513 90.1312 557.867 91.209C558.221 92.2869 558.79 93.2811 559.541 94.1308C560.914 95.618 562.963 96.5921 563.535 98.5105C563.765 99.2541 563.713 100.139 563.913 100.927C564.153 101.712 564.609 102.413 565.229 102.95C565.848 103.487 566.607 103.837 567.417 103.961C569.369 104.281 571.017 103.388 572.45 102.169C573.746 100.948 575.452 100.258 577.231 100.236C579.903 100.154 583.912 101.098 585.605 103.277C586.971 105.024 587.037 107.426 587.045 109.65C587.045 111.694 587.045 113.732 587.045 115.777C587.045 117.591 587.045 119.495 587.891 121.093C588.737 122.692 590.601 123.941 592.345 123.391C594.394 122.737 595.315 120.015 597.386 119.524C598.96 119.182 600.57 120.357 601.253 121.792Z" fill="black"/>
<path opacity="0.1" d="M621.319 115.063C620.872 116.318 620.164 117.464 619.241 118.424L611.179 128.128C607.786 132.21 604.201 136.939 604.498 142.152C604.743 137.371 608.068 133.021 611.179 129.228L619.241 119.524C620.164 118.564 620.872 117.419 621.319 116.163C621.521 115.284 621.594 114.38 621.535 113.479C621.523 114.013 621.451 114.545 621.319 115.063Z" fill="black"/>
<path opacity="0.1" d="M600.295 140.516C600.163 140.091 600.081 139.651 600.05 139.207C599.983 140.018 600.066 140.835 600.295 141.616C600.844 143.386 602.856 144.851 604.556 144.092C604.508 143.737 604.478 143.38 604.467 143.022C602.775 143.698 600.815 142.256 600.295 140.516Z" fill="black"/>
</g>
<path opacity="0.1" d="M519.15 483.497C519.15 483.497 521.704 487.959 530.954 484.032L519.15 483.497Z" fill="black"/>
<path opacity="0.1" d="M597.328 484.583C597.328 484.583 605.301 493.989 615.352 487.668L597.328 484.583Z" fill="black"/>
<path opacity="0.1" d="M620.533 373.349C620.533 373.349 614.898 376.873 614.72 378.888C614.542 380.904 617.63 377.401 617.63 377.401L620.533 373.349Z" fill="black"/>
<path opacity="0.1" d="M622.76 400.386C620.801 402.019 618.365 402.971 615.819 403.1C611.603 403.286 611.959 408.788 614.713 407.137C617.467 405.487 622.76 400.386 622.76 400.386Z" fill="black"/>
<path opacity="0.1" d="M623.829 403.918C623.829 403.918 621.127 417.221 618.93 414.655L623.829 403.918Z" fill="black"/>
<g clip-path="url(#clip0)">
<g opacity="0.5">
<path opacity="0.5" d="M238.51 293.012L198.168 560.761L391.686 589.999L432.028 322.25L238.51 293.012Z" fill="url(#paint2_linear)"/>
</g>
<path d="M240.679 295.357L201.229 557.188L389.823 585.681L429.273 323.851L240.679 295.357Z" fill="#F5F5F5"/>
<path d="M384.8 433.265L248.684 412.7L247.439 420.962L383.555 441.527L384.8 433.265Z" fill="#E0E0E0"/>
<path d="M381.689 453.915L245.572 433.35L244.327 441.611L380.444 462.177L381.689 453.915Z" fill="#E0E0E0"/>
<path d="M394.755 367.177L324.633 356.583L323.388 364.844L393.51 375.439L394.755 367.177Z" fill="#E0E0E0"/>
<path d="M385.46 386.897L327.711 378.172L326.466 386.434L384.215 395.159L385.46 386.897Z" fill="#3D58B0"/>
<path d="M362.077 472.076L242.457 454.003L241.212 462.265L360.832 480.338L362.077 472.076Z" fill="#E0E0E0"/>
<path d="M342.463 490.236L239.344 474.656L238.099 482.918L341.218 498.497L342.463 490.236Z" fill="#E0E0E0"/>
<path d="M326.978 509.018L236.232 495.308L234.988 503.569L325.733 517.28L326.978 509.018Z" fill="#E0E0E0"/>
<path d="M348.614 533.41L233.121 515.96L231.876 524.222L347.369 541.672L348.614 533.41Z" fill="#E0E0E0"/>
<path d="M275.384 543.466L230.014 536.611L228.769 544.873L274.139 551.727L275.384 543.466Z" fill="#3D58B0"/>
<g opacity="0.5">
<path opacity="0.5" d="M311.341 367.946C312.057 363.187 311.531 358.322 309.813 353.827C308.095 349.332 305.245 345.358 301.538 342.293C297.832 339.228 293.397 337.176 288.664 336.337C283.931 335.498 279.061 335.9 274.529 337.504C269.998 339.109 265.958 341.86 262.803 345.492C259.648 349.123 257.486 353.511 256.527 358.227C255.568 362.944 255.844 367.829 257.329 372.406C258.815 376.984 261.458 381.099 265.003 384.35C265.003 384.39 265.003 384.434 265.003 384.474C265.77 385.477 266.729 386.318 267.823 386.947L267.878 386.828C268.999 388.129 274.162 390.722 280.401 391.647H280.539C284.491 392.25 288.883 392.196 292.959 390.722C292.959 390.722 293.003 390.652 293.077 390.524C294.101 390.218 295.069 389.749 295.943 389.134L296.032 388.827C300.082 386.849 303.591 383.915 306.258 380.277C308.925 376.64 310.669 372.408 311.341 367.946Z" fill="url(#paint3_linear)"/>
</g>
<path d="M310.393 366.806C312.619 352.037 302.466 338.257 287.717 336.029C272.968 333.801 259.208 343.967 256.982 358.736C254.757 373.506 264.91 387.285 279.659 389.513C294.408 391.742 308.168 381.575 310.393 366.806Z" fill="#F5F5F5"/>
<path d="M271.377 371.681C271.377 371.681 264.955 371.241 264.871 383.103C265.617 384.073 266.547 384.885 267.608 385.493L273.012 373.902L271.377 371.681Z" fill="#FDA57D"/>
<path d="M292.027 374.802C292.027 374.802 298.311 376.286 294.882 387.639C293.885 388.349 292.756 388.854 291.562 389.124L289.809 376.455L292.027 374.802Z" fill="#FDA57D"/>
<path d="M274.518 352.705C274.518 352.705 270.161 361.07 268.635 359.991C268.635 359.991 282.497 376.183 298.646 364.523C297.39 361.371 295.761 358.382 293.795 355.618L274.518 352.705Z" fill="#333333"/>
<path d="M296.719 355.219C297.706 348.673 293.206 342.566 286.669 341.578C280.132 340.591 274.034 345.097 273.048 351.642C272.061 358.188 276.561 364.295 283.098 365.283C289.635 366.271 295.733 361.765 296.719 355.219Z" fill="#333333"/>
<path opacity="0.1" d="M291.903 374.783L271.253 371.666L268.082 379.645C268.082 379.645 266.372 383.301 267.528 385.201C268.684 387.1 281.257 392.913 291.735 389.158C292.91 387.08 293.372 384.673 293.049 382.307C292.53 378.28 292.817 381.99 292.817 381.99L291.903 374.783Z" fill="black"/>
<path opacity="0.1" d="M292.179 374.827L271.529 371.71L268.363 379.685C268.363 379.685 266.653 383.341 267.809 385.24C268.965 387.14 281.538 392.953 292.016 389.198C293.191 387.12 293.653 384.713 293.33 382.346C292.811 378.32 293.098 382.03 293.098 382.03L292.179 374.827Z" fill="black"/>
<path d="M292.026 374.802L271.376 371.686L268.205 379.665C268.205 379.665 266.495 383.321 267.651 385.22C268.807 387.12 281.38 392.933 291.858 389.178C293.033 387.1 293.495 384.693 293.172 382.326C292.653 378.3 292.94 382.01 292.94 382.01L292.026 374.802Z" fill="#FDD835"/>
<path opacity="0.1" d="M278.737 365.801L286.998 367.049L285.873 374.514C285.741 375.387 285.269 376.172 284.559 376.696C283.85 377.22 282.961 377.441 282.089 377.309L280.399 377.054C279.527 376.922 278.743 376.449 278.22 375.738C277.696 375.028 277.476 374.138 277.608 373.265L278.732 365.8L278.737 365.801Z" fill="black"/>
<path d="M278.777 365.495L287.038 366.743L285.913 374.207C285.781 375.08 285.309 375.865 284.599 376.389C283.89 376.914 283.001 377.134 282.129 377.002L280.444 376.748C279.572 376.616 278.788 376.143 278.265 375.432C277.741 374.722 277.521 373.832 277.653 372.959L278.777 365.495Z" fill="#FDA57D"/>
<path opacity="0.1" d="M278.623 366.665C281.134 368.063 284.063 368.514 286.878 367.936L287.031 366.922L278.771 365.675L278.623 366.665Z" fill="black"/>
<path d="M296.333 357.79C297.319 351.244 292.819 345.137 286.283 344.15C279.746 343.162 273.647 347.668 272.661 354.214C271.675 360.759 276.174 366.867 282.711 367.854C289.248 368.842 295.346 364.336 296.333 357.79Z" fill="#FDA57D"/>
<path d="M273.832 349.781L296.408 353.189C296.408 353.189 295.855 343.79 287.235 343.063C278.614 342.336 273.832 349.781 273.832 349.781Z" fill="#333333"/>
<path d="M274.076 353.907C274.249 352.764 273.896 351.763 273.289 351.671C272.682 351.58 272.05 352.432 271.878 353.574C271.706 354.717 272.058 355.718 272.665 355.81C273.272 355.901 273.904 355.049 274.076 353.907Z" fill="#FDA57D"/>
<path d="M297.203 357.403C297.375 356.26 297.023 355.259 296.416 355.167C295.809 355.076 295.177 355.928 295.005 357.071C294.833 358.213 295.185 359.214 295.792 359.306C296.399 359.397 297.031 358.545 297.203 357.403Z" fill="#FDA57D"/>
<path opacity="0.1" d="M273.797 350.087L296.373 353.496C296.373 353.496 295.82 344.097 287.199 343.369C278.579 342.642 273.797 350.087 273.797 350.087Z" fill="black"/>
<g opacity="0.5">
<path opacity="0.5" d="M193.913 331.483L0.162109 362.839L43.4274 630.911L237.179 599.554L193.913 331.483Z" fill="url(#paint4_linear)"/>
</g>
<path d="M191 333.048L2.7832 363.945L45.5617 625.251L233.778 594.353L191 333.048Z" fill="#F5F5F5"/>
<path d="M182.275 450.828L46.4316 473.128L47.7815 481.374L183.625 459.074L182.275 450.828Z" fill="#E0E0E0"/>
<path d="M185.65 471.44L49.8066 493.74L51.1565 501.986L187 479.685L185.65 471.44Z" fill="#E0E0E0"/>
<path d="M171.483 384.875L101.502 396.363L102.852 404.608L172.833 393.12L171.483 384.875Z" fill="#E0E0E0"/>
<path d="M168.68 406.5L111.047 415.961L112.397 424.207L170.03 414.746L168.68 406.5Z" fill="#3D58B0"/>
<path d="M172.56 494.754L53.1797 514.352L54.5295 522.597L173.91 502.999L172.56 494.754Z" fill="#E0E0E0"/>
<path d="M159.465 518.063L56.5527 534.958L57.9026 543.203L160.815 526.309L159.465 518.063Z" fill="#E0E0E0"/>
<path d="M150.492 540.705L59.9277 555.572L61.2776 563.818L151.842 548.951L150.492 540.705Z" fill="#E0E0E0"/>
<path d="M178.564 557.257L63.3027 576.179L64.6526 584.424L179.914 565.503L178.564 557.257Z" fill="#E0E0E0"/>
<path d="M111.959 589.359L66.6797 596.792L68.0295 605.038L113.309 597.605L111.959 589.359Z" fill="#3D58B0"/>
<g opacity="0.5">
<path opacity="0.5" d="M94.8706 409.48C94.0705 404.597 92.0217 400.005 88.9236 396.15C85.8255 392.295 81.7836 389.309 77.1912 387.483C72.5989 385.656 67.6125 385.051 62.7174 385.727C57.8224 386.402 53.1853 388.335 49.2575 391.338C45.3297 394.34 42.2451 398.31 40.3037 402.86C38.3623 407.41 37.6303 412.386 38.179 417.304C38.7277 422.221 40.5383 426.913 43.4347 430.922C46.3311 434.931 50.2146 438.12 54.7073 440.181L54.7468 440.304C55.8143 441.038 57.0166 441.553 58.2839 441.818V441.685C59.7907 442.605 65.6596 443.51 72.057 442.441H72.1954C76.2512 441.784 80.5294 440.339 84.0517 437.608C84.0517 437.608 84.0517 437.529 84.1011 437.381C85.0066 436.758 85.8056 435.993 86.4674 435.115C86.4674 435.003 86.4674 434.894 86.4674 434.789C89.8137 431.569 92.3273 427.583 93.7914 423.174C95.2554 418.765 95.6258 414.065 94.8706 409.48Z" fill="url(#paint5_linear)"/>
</g>
<path d="M71.123 441.543C86.2544 439.059 96.5099 424.762 94.0294 409.61C91.5488 394.458 77.2714 384.188 62.14 386.672C47.0086 389.156 36.7531 403.453 39.2337 418.605C41.7142 433.758 55.9916 444.027 71.123 441.543Z" fill="#F5F5F5"/>
<path d="M56.5245 426.79C56.5245 426.79 50.1023 428.397 53.758 440.023C54.793 440.74 55.9601 441.245 57.1914 441.507L58.8266 428.457L56.5245 426.79Z" fill="#4D8AF0"/>
<path d="M77.7077 423.312C77.7077 423.312 84.3225 422.772 84.5448 434.972C83.7895 435.971 82.8443 436.812 81.7635 437.445L76.0527 425.602L77.7077 423.312Z" fill="#4D8AF0"/>
<path d="M65.9535 416.812C72.6603 415.711 77.206 409.374 76.1065 402.658C75.007 395.942 68.6787 391.39 61.9719 392.491C55.2651 393.592 50.7194 399.929 51.8189 406.645C52.9184 413.361 59.2467 417.913 65.9535 416.812Z" fill="#333333"/>
<path d="M77.5838 423.332L56.4005 426.794L55.8126 435.605C55.8126 435.605 55.3186 439.726 57.023 441.215C58.7273 442.704 72.8907 444.42 81.9262 437.415C82.4207 435.011 82.1135 432.51 81.0518 430.297C79.2733 426.522 80.7208 430.059 80.7208 430.059L77.5838 423.332Z" fill="#4D8AF0"/>
<path d="M77.867 423.287L56.6837 426.75L56.0958 435.56C56.0958 435.56 55.6018 439.681 57.3062 441.17C59.0105 442.659 73.1739 444.376 82.2094 437.371C82.7039 434.966 82.3967 432.465 81.335 430.252C79.5565 426.478 81.004 430.015 81.004 430.015L77.867 423.287Z" fill="#4D8AF0"/>
<path d="M77.7088 423.312L56.5255 426.775L55.9376 435.6C55.9376 435.6 55.4436 439.721 57.148 441.21C58.8523 442.699 73.0157 444.416 82.0512 437.411C82.5457 435.006 82.2386 432.505 81.1768 430.292C79.3983 426.518 80.8458 430.055 80.8458 430.055L77.7088 423.312Z" fill="#4D8AF0"/>
<path opacity="0.1" d="M61.876 418.678L70.3488 417.287L71.6171 425.034C71.7598 425.906 71.5509 426.798 71.0365 427.515C70.5221 428.232 69.7442 428.716 68.8741 428.858L66.9582 429.173C66.088 429.316 65.1969 429.107 64.4807 428.591C63.7645 428.076 63.2821 427.297 63.1394 426.426L61.8711 418.679L61.876 418.678Z" fill="black"/>
<path d="M61.8271 418.363L70.3 416.973L71.5683 424.72C71.711 425.591 71.5021 426.484 70.9877 427.201C70.4733 427.918 69.6954 428.401 68.8253 428.544L66.9094 428.858C66.0392 429.001 65.148 428.792 64.4319 428.277C63.7157 427.762 63.2332 426.983 63.0906 426.112L61.8223 418.364L61.8271 418.363Z" fill="#FDA57D"/>
<path opacity="0.1" d="M62.0332 419.587C64.9311 420.162 67.9387 419.677 70.5105 418.222L70.3376 417.178L61.8652 418.573L62.0332 419.587Z" fill="black"/>
<path d="M66.389 419.452C73.0958 418.351 77.6415 412.014 76.542 405.298C75.4425 398.582 69.1143 394.03 62.4074 395.131C55.7006 396.232 51.155 402.569 52.2545 409.285C53.354 416.001 59.6822 420.553 66.389 419.452Z" fill="#FDA57D"/>
<path opacity="0.1" d="M52.0742 404.894L75.2385 401.095C75.2385 401.095 71.7261 392.052 63.071 394.09C54.4158 396.128 52.0742 404.894 52.0742 404.894Z" fill="black"/>
<path d="M52.0195 404.583L75.2036 400.779C75.2036 400.779 71.6911 391.736 63.036 393.774C54.3809 395.812 52.0195 404.583 52.0195 404.583Z" fill="#333333"/>
<path d="M52.9102 411.577C53.5368 411.476 53.8909 410.44 53.701 409.263C53.5111 408.087 52.8492 407.215 52.2225 407.316C51.5959 407.418 51.2418 408.454 51.4317 409.63C51.6216 410.807 52.2835 411.679 52.9102 411.577Z" fill="#FDA57D"/>
<path d="M76.4884 406.952C77.1131 406.849 77.4638 405.815 77.2718 404.642C77.0798 403.47 76.4178 402.602 75.7931 402.704C75.1685 402.807 74.8178 403.841 75.0098 405.014C75.2018 406.187 75.8638 407.054 76.4884 406.952Z" fill="#FDA57D"/>
<g opacity="0.5">
<path opacity="0.5" d="M335.331 374.857H139.623V645.637H335.331V374.857Z" fill="url(#paint6_linear)"/>
</g>
<path d="M332.842 376.85H142.113V641.644H332.842V376.85Z" fill="white"/>
<g opacity="0.5">
<path opacity="0.5" d="M167.584 437.435C167.585 432.376 168.893 427.403 171.382 423C173.871 418.598 177.456 414.915 181.788 412.312C186.12 409.708 191.052 408.272 196.102 408.142C201.153 408.013 206.151 409.196 210.61 411.575C215.069 413.953 218.837 417.448 221.547 421.718C224.258 425.987 225.818 430.887 226.076 435.94C226.335 440.992 225.282 446.026 223.022 450.551C220.761 455.075 217.369 458.937 213.176 461.759V461.888C212.221 462.807 211.092 463.526 209.857 464.005L209.817 463.877C208.449 465.054 202.679 466.939 196.049 466.919H195.906C191.707 466.919 187.152 466.177 183.14 464.005C183.14 464.005 183.106 463.926 183.052 463.783C182.035 463.304 181.103 462.664 180.29 461.888L180.246 461.556C176.34 458.865 173.147 455.263 170.941 451.061C168.735 446.859 167.583 442.183 167.584 437.435Z" fill="url(#paint7_linear)"/>
</g>
<path d="M196.845 465.86C212.522 465.86 225.231 453.134 225.231 437.435C225.231 421.737 212.522 409.01 196.845 409.01C181.168 409.01 168.459 421.737 168.459 437.435C168.459 453.134 181.168 465.86 196.845 465.86Z" fill="#F5F5F5"/>
<path d="M185.709 448.264C185.709 448.264 178.946 448.813 180.735 461.181C181.662 462.071 182.757 462.769 183.956 463.234L187.76 450.337L185.709 448.264Z" fill="#BE7C5E"/>
<path d="M207.658 448.264C207.658 448.264 214.421 448.813 212.633 461.181C211.706 462.071 210.611 462.769 209.412 463.234L205.623 450.297L207.658 448.264Z" fill="#BE7C5E"/>
<path d="M186.002 428.036C186.002 428.036 185.483 429.555 184.742 431.311C183.132 435.15 184.969 449.902 188.823 451.475C193.145 453.241 198.831 454.369 204.735 452.212C209.868 450.337 211.448 433.547 207.822 429.456C207.398 428.961 206.953 428.501 206.489 428.036H186.002Z" fill="#333333"/>
<path d="M196.864 439.76C203.813 439.76 209.446 434.119 209.446 427.16C209.446 420.202 203.813 414.561 196.864 414.561C189.915 414.561 184.281 420.202 184.281 427.16C184.281 434.119 189.915 439.76 196.864 439.76Z" fill="#333333"/>
<path opacity="0.1" d="M207.53 448.264H185.581L183.531 457.055C183.531 457.055 182.326 461.126 183.823 462.917C185.319 464.708 199.3 468.779 209.575 463.209C210.471 460.864 210.573 458.291 209.867 455.882C208.696 451.781 209.575 455.591 209.575 455.591L207.53 448.264Z" fill="black"/>
<path opacity="0.1" d="M207.821 448.264H185.862L183.812 457.055C183.812 457.055 182.607 461.126 184.104 462.917C185.601 464.708 199.581 468.779 209.857 463.209C210.752 460.864 210.854 458.291 210.148 455.882C208.977 451.781 209.857 455.591 209.857 455.591L207.821 448.264Z" fill="black"/>
<path d="M207.659 448.264H185.71L183.66 457.055C183.66 457.055 182.455 461.126 183.951 462.917C185.448 464.708 199.429 468.779 209.704 463.209C210.6 460.864 210.702 458.291 209.996 455.882C208.825 451.781 209.704 455.591 209.704 455.591L207.659 448.264Z" fill="#3AD29F"/>
<path opacity="0.1" d="M192.442 440.967H201.221V449.07C201.221 449.953 200.871 450.8 200.247 451.425C199.624 452.049 198.778 452.4 197.896 452.4H195.762C194.88 452.4 194.035 452.049 193.411 451.425C192.788 450.8 192.438 449.953 192.438 449.07V440.967H192.442Z" fill="black"/>
<path d="M192.442 440.641H201.221V448.744C201.221 449.627 200.871 450.474 200.247 451.098C199.624 451.723 198.778 452.073 197.896 452.073H195.762C194.88 452.073 194.035 451.723 193.411 451.098C192.788 450.474 192.438 449.627 192.438 448.744V440.641H192.442Z" fill="#BE7C5E"/>
<path opacity="0.1" d="M192.457 441.888C195.289 442.938 198.403 442.938 201.236 441.888V440.809H192.457V441.888Z" fill="black"/>
<path d="M196.864 442.496C203.813 442.496 209.446 436.855 209.446 429.896C209.446 422.938 203.813 417.296 196.864 417.296C189.915 417.296 184.281 422.938 184.281 429.896C184.281 436.855 189.915 442.496 196.864 442.496Z" fill="#BE7C5E"/>
<path d="M184.83 425.112H208.829C208.829 425.112 206.779 415.406 197.709 416.03C188.639 416.653 184.83 425.112 184.83 425.112Z" fill="#333333"/>
<path d="M184.544 431.558C185.19 431.558 185.715 430.575 185.715 429.362C185.715 428.149 185.19 427.166 184.544 427.166C183.897 427.166 183.373 428.149 183.373 429.362C183.373 430.575 183.897 431.558 184.544 431.558Z" fill="#BE7C5E"/>
<path d="M209.126 431.558C209.773 431.558 210.297 430.575 210.297 429.362C210.297 428.149 209.773 427.166 209.126 427.166C208.479 427.166 207.955 428.149 207.955 429.362C207.955 430.575 208.479 431.558 209.126 431.558Z" fill="#BE7C5E"/>
<path opacity="0.1" d="M184.83 425.434H208.829C208.829 425.434 206.779 415.728 197.709 416.352C188.639 416.975 184.83 425.434 184.83 425.434Z" fill="black"/>
<path d="M305.202 491.668H167.545V500.024H305.202V491.668Z" fill="#E0E0E0"/>
<path d="M305.202 512.554H167.545V520.91H305.202V512.554Z" fill="#E0E0E0"/>
<path d="M305.207 424.835H234.291V433.191H305.207V424.835Z" fill="#E0E0E0"/>
<path d="M298.947 445.721H240.545V454.077H298.947V445.721Z" fill="#3D58B0"/>
<path d="M288.519 533.44H167.545V541.795H288.519V533.44Z" fill="#E0E0E0"/>
<path d="M271.831 554.326H167.545V562.682H271.831V554.326Z" fill="#E0E0E0"/>
<path d="M259.318 575.217H167.545V583.572H259.318V575.217Z" fill="#E0E0E0"/>
<path d="M284.345 596.103H167.545V604.458H284.345V596.103Z" fill="#E0E0E0"/>
<path d="M213.429 616.989H167.545V625.344H213.429V616.989Z" fill="#3D58B0"/>
<g opacity="0.5">
<path opacity="0.5" d="M322.131 663.005C345.156 663.005 363.821 644.314 363.821 621.258C363.821 598.202 345.156 579.511 322.131 579.511C299.107 579.511 280.441 598.202 280.441 621.258C280.441 644.314 299.107 663.005 322.131 663.005Z" fill="url(#paint8_linear)"/>
</g>
<path d="M322.131 660.546C343.8 660.546 361.366 642.956 361.366 621.258C361.366 599.559 343.8 581.969 322.131 581.969C300.462 581.969 282.896 599.559 282.896 621.258C282.896 642.956 300.462 660.546 322.131 660.546Z" fill="#69F0AE"/>
<path d="M305.103 616.014L319.815 629.519L340.658 598.829L348.018 604.968L319.815 641.798L298.973 618.473L305.103 616.014Z" fill="white"/>
</g>
<defs>
<linearGradient id="paint0_linear" x1="296.52" y1="439.692" x2="296.52" y2="0.163626" gradientUnits="userSpaceOnUse">
<stop stop-color="#808080" stop-opacity="0.25"/>
<stop offset="0.54" stop-color="#808080" stop-opacity="0.12"/>
<stop offset="1" stop-color="#808080" stop-opacity="0.1"/>
</linearGradient>
<linearGradient id="paint1_linear" x1="135490" y1="361566" x2="135490" y2="104829" gradientUnits="userSpaceOnUse">
<stop stop-color="#808080" stop-opacity="0.25"/>
<stop offset="0.54" stop-color="#808080" stop-opacity="0.12"/>
<stop offset="1" stop-color="#808080" stop-opacity="0.1"/>
</linearGradient>
<linearGradient id="paint2_linear" x1="294.927" y1="575.38" x2="335.378" y2="307.647" gradientUnits="userSpaceOnUse">
<stop stop-color="#808080" stop-opacity="0.25"/>
<stop offset="0.54" stop-color="#808080" stop-opacity="0.12"/>
<stop offset="1" stop-color="#808080" stop-opacity="0.1"/>
</linearGradient>
<linearGradient id="paint3_linear" x1="32630.1" y1="41307.8" x2="33577.6" y2="35036.8" gradientUnits="userSpaceOnUse">
<stop stop-color="#808080" stop-opacity="0.25"/>
<stop offset="0.54" stop-color="#808080" stop-opacity="0.12"/>
<stop offset="1" stop-color="#808080" stop-opacity="0.1"/>
</linearGradient>
<linearGradient id="paint4_linear" x1="108701" y1="88692.9" x2="84955.5" y2="-58031.3" gradientUnits="userSpaceOnUse">
<stop stop-color="#808080" stop-opacity="0.25"/>
<stop offset="0.54" stop-color="#808080" stop-opacity="0.12"/>
<stop offset="1" stop-color="#808080" stop-opacity="0.1"/>
</linearGradient>
<linearGradient id="paint5_linear" x1="22425.9" y1="-1918.79" x2="21343.8" y2="-8510.24" gradientUnits="userSpaceOnUse">
<stop stop-color="#808080" stop-opacity="0.25"/>
<stop offset="0.54" stop-color="#808080" stop-opacity="0.12"/>
<stop offset="1" stop-color="#808080" stop-opacity="0.1"/>
</linearGradient>
<linearGradient id="paint6_linear" x1="94218.6" y1="193397" x2="94218.6" y2="45180.8" gradientUnits="userSpaceOnUse">
<stop stop-color="#808080" stop-opacity="0.25"/>
<stop offset="0.54" stop-color="#808080" stop-opacity="0.12"/>
<stop offset="1" stop-color="#808080" stop-opacity="0.1"/>
</linearGradient>
<linearGradient id="paint7_linear" x1="29734.4" y1="25545.2" x2="29734.4" y2="18558.4" gradientUnits="userSpaceOnUse">
<stop stop-color="#808080" stop-opacity="0.25"/>
<stop offset="0.54" stop-color="#808080" stop-opacity="0.12"/>
<stop offset="1" stop-color="#808080" stop-opacity="0.1"/>
</linearGradient>
<linearGradient id="paint8_linear" x1="54649.8" y1="63028.1" x2="54649.8" y2="48936.8" gradientUnits="userSpaceOnUse">
<stop stop-color="#808080" stop-opacity="0.25"/>
<stop offset="0.54" stop-color="#808080" stop-opacity="0.12"/>
<stop offset="1" stop-color="#808080" stop-opacity="0.1"/>
</linearGradient>
<clipPath id="clip0">
<rect y="293" width="432" height="370" fill="white"/>
</clipPath>
</defs>
</svg>
