<svg width="100" height="121" viewBox="0 0 100 121" fill="none" xmlns="http://www.w3.org/2000/svg">
<path d="M84.4828 60.345V89.6554H89.6552V84.483H100V29.3105H0V84.483H10.3448V89.6554H15.5172V60.345H84.4828Z" fill="#C7CAC7"/>
<path d="M100 60.345V29.3105H0V60.345H15.5172H84.4828H100Z" fill="#3D58B0"/>
<path d="M89.6561 60.3447H10.3457V89.6551H89.6561V60.3447Z" fill="#7383BF"/>
<path d="M84 17V21.9412V29H16V17H84Z" fill="#EDEADA"/>
<path d="M84 60V121H16V60" fill="#FFA800"/>
<path d="M72 88V93H28V88" fill="white"/>
<path d="M64 96V101H36V96" fill="white"/>
<path d="M64 110V113H36V110" fill="white"/>
<path d="M84.4825 51.7243C88.2913 51.7243 91.379 48.6366 91.379 44.8277C91.379 41.0188 88.2913 37.9312 84.4825 37.9312C80.6736 37.9312 77.5859 41.0188 77.5859 44.8277C77.5859 48.6366 80.6736 51.7243 84.4825 51.7243Z" fill="#A4E869"/>
<path d="M31 60C31 62.4951 31.4915 64.9658 32.4463 67.271C33.4011 69.5762 34.8007 71.6707 36.565 73.435C38.3293 75.1993 40.4238 76.5989 42.729 77.5537C45.0342 78.5085 47.5049 79 50 79C52.4951 79 54.9658 78.5085 57.271 77.5537C59.5762 76.5989 61.6707 75.1993 63.435 73.435C65.1993 71.6707 66.5989 69.5762 67.5537 67.271C68.5086 64.9658 69 62.4951 69 60L50 60L31 60Z" fill="white"/>
</svg>
