<svg width="101" height="122" viewBox="0 0 101 122" fill="none" xmlns="http://www.w3.org/2000/svg">
<g clip-path="url(#clip0)">
<path d="M84.9828 60.5074V89.8177H90.1552V84.6453H100.5V29.4729H0.5V84.6453H10.8448V89.8177H16.0172V60.5074H84.9828Z" fill="#C7CAC7"/>
<path d="M100.5 60.5074V29.4729H0.5V60.5074H16.0172H84.9828H100.5Z" fill="#3D58B0"/>
<path d="M90.1551 60.5073H10.8447V89.8177H90.1551V60.5073Z" fill="#7383BF"/>
<path d="M84.5 17.1626V22.1038V29.1626H16.5V17.1626H84.5Z" fill="#EDEADA"/>
<path d="M84.5 60.1626V121.163H16.5V60.1626" fill="#FFA800"/>
<path d="M72.5 88.1626V93.1626H28.5V88.1626" fill="white"/>
<path d="M64.5 96.1626V101.163H36.5V96.1626" fill="white"/>
<path d="M64.5 110.163V113.163H36.5V110.163" fill="white"/>
<path d="M84.9825 51.8869C88.7913 51.8869 91.879 48.7992 91.879 44.9903C91.879 41.1814 88.7913 38.0938 84.9825 38.0938C81.1736 38.0938 78.0859 41.1814 78.0859 44.9903C78.0859 48.7992 81.1736 51.8869 84.9825 51.8869Z" fill="#A4E869"/>
<path d="M31.5 60.1626C31.5 62.6577 31.9915 65.1284 32.9463 67.4336C33.9011 69.7388 35.3007 71.8333 37.065 73.5976C38.8293 75.3619 40.9238 76.7615 43.229 77.7163C45.5342 78.6711 48.0049 79.1626 50.5 79.1626C52.9951 79.1626 55.4658 78.6711 57.771 77.7163C60.0762 76.7615 62.1707 75.3619 63.935 73.5976C65.6993 71.8333 67.0989 69.7388 68.0537 67.4336C69.0086 65.1284 69.5 62.6577 69.5 60.1626L50.5 60.1626L31.5 60.1626Z" fill="white"/>
</g>
<defs>
<clipPath id="clip0">
<rect width="100" height="121" fill="white" transform="translate(0.5 0.162598)"/>
</clipPath>
</defs>
</svg>
