<svg width="151" height="81" viewBox="0 0 151 81" fill="none" xmlns="http://www.w3.org/2000/svg">
<g clip-path="url(#clip0)">
<path opacity="0.1" d="M139 63.4237C138.833 63.7846 138.666 64.1407 138.5 64.4919C138.24 65.0376 137.985 65.5727 137.732 66.0972C137.62 66.3296 137.507 66.5577 137.398 66.7858C136.159 69.3222 135.002 71.5656 134.02 73.4105C133.128 75.0822 131.805 76.4828 130.188 77.4657C128.571 78.4486 126.719 78.9776 124.828 78.9972L102.983 79.2354H102.753L100.88 79.2556L99.2784 79.2729L94.3664 79.3264H94.1676L91.6669 79.3538H91.5906L76.1774 79.5213L62.4194 79.6656L60.819 79.6829L50.8797 79.7912H50.8682L44.4221 79.8605H44.3529L23.9701 80.0814L17.8726 80.1478C16.5714 80.1625 15.2756 79.9765 14.0308 79.5963C11.8646 78.9406 9.91788 77.7053 8.39999 76.0234C5.7812 73.1319 3.87257 69.7582 2.59054 66.0972C2.4052 65.5689 2.23234 65.0338 2.07197 64.4919C-2.36615 49.4568 3.04429 30.0592 12.7819 17.0783C13.1901 16.5355 13.6049 16.0062 14.0265 15.4904L14.0366 15.4788C17.0313 11.7947 20.3891 8.71699 23.9658 6.52849C30.3039 2.64377 37.3263 1.54952 44.2334 4.81061C50.0774 7.57078 55.5339 8.86857 60.8234 9.22081C61.3578 9.25545 61.8922 9.28144 62.4237 9.29732C74.5569 9.67987 85.928 5.29855 99.2813 2.47053C99.8128 2.35793 100.346 2.24678 100.883 2.14139C110.409 0.241616 120.976 -0.760242 133.543 1.34597C134.849 1.55972 136.137 1.8685 137.398 2.26987C137.952 2.44888 138.486 2.64136 139 2.84731C144.998 5.29277 148.269 9.81124 149.659 15.473C149.791 15.9985 149.905 16.5331 150.001 17.0769C152.465 30.6958 145.247 50.0141 139 63.4237Z" fill="#3D58B0"/>
<g opacity="0.1">
<path opacity="0.1" d="M23.9647 6.52734V80.0961L17.8671 80.1625C16.5659 80.1773 15.2702 79.9913 14.0254 79.6111V15.4777H14.0355C17.0302 11.7893 20.388 8.71151 23.9647 6.52734Z" fill="#3D58B0"/>
<path opacity="0.1" d="M150.007 17.0773H12.7812C13.1894 16.5345 13.6042 16.0052 14.0258 15.4893V15.4778H149.666C149.797 16.0004 149.911 16.5335 150.007 17.0773Z" fill="#3D58B0"/>
<path opacity="0.1" d="M138.998 2.84786V64.4896H138.498C138.239 65.0353 137.983 65.5704 137.731 66.0949C137.618 66.3273 137.506 66.5554 137.396 66.7835V2.26465C137.951 2.44365 138.485 2.63806 138.998 2.84786Z" fill="#3D58B0"/>
<path opacity="0.1" d="M100.883 2.13599V79.2603L99.2812 79.2777V2.46513C99.8128 2.35253 100.346 2.24137 100.883 2.13599Z" fill="#3D58B0"/>
<path opacity="0.1" d="M62.4226 9.29184V79.6789L60.8223 79.6962V9.21533C61.3567 9.24998 61.8911 9.27019 62.4226 9.29184Z" fill="#3D58B0"/>
<path opacity="0.1" d="M138.499 64.491C138.24 65.0366 137.984 65.5717 137.731 66.0962H2.58986C2.40452 65.5679 2.23166 65.0328 2.07129 64.491H138.499Z" fill="#3D58B0"/>
</g>
<path d="M33.7174 38.5378H30.9805V46.8616H33.7174V38.5378Z" fill="#3F3D56"/>
<path d="M107.374 38.1047H104.637V46.9107H107.374V38.1047Z" fill="#3F3D56"/>
<path d="M124.827 77.2004V79.0771L102.944 79.2792L102.71 79.2835L94.3931 79.36L94.1943 79.3629L91.6662 79.3846H91.5913L76.1811 79.5275L50.8848 79.7628H50.8632L44.4315 79.8234L44.3623 79.8249L15.7832 80.0876V77.9222L22.503 73.8802L35.9859 73.7676L36.274 73.7661L36.3691 73.7647L36.6572 73.7603L43.1307 73.7069L43.4202 73.7055L43.5124 73.704L43.8005 73.7026L45.8763 73.6853L45.931 73.6838L51.0519 73.6405H51.0937L91.0526 73.3027L92.0307 73.2955H92.1286L92.8748 73.2883L98.2982 73.2435L98.5863 73.2392L98.8528 73.2363H98.9911L100.678 73.2233L101.012 73.219L101.46 73.2161L102.865 73.2031L105.093 73.1843L105.381 73.1815L105.882 73.1786H105.976L116.738 73.0862L124.827 77.2004Z" fill="#65617D"/>
<path opacity="0.2" d="M124.827 77.2004V79.0771L102.944 79.2792L102.71 79.2835L94.3931 79.36L94.1943 79.3629L91.6662 79.3846H91.5913L76.1811 79.5275L50.8848 79.7628H50.8632L44.4315 79.8234L44.3623 79.8249L15.7832 80.0876V77.9222L22.503 73.8802L35.9859 73.7676L36.274 73.7661L36.3691 73.7647L36.6572 73.7603L43.1307 73.7069L43.4202 73.7055L43.5124 73.704L43.8005 73.7026L45.8763 73.6853L45.931 73.6838L51.0519 73.6405H51.0937L91.0526 73.3027L92.0307 73.2955H92.1286L92.8748 73.2883L98.2982 73.2435L98.5863 73.2392L98.8528 73.2363H98.9911L100.678 73.2233L101.012 73.219L101.46 73.2161L102.865 73.2031L105.093 73.1843L105.381 73.1815L105.882 73.1786H105.976L116.738 73.0862L124.827 77.2004Z" fill="black"/>
<path d="M43.1531 69.9839V73.5193C43.1532 73.6867 43.1059 73.8508 43.0166 73.9923C42.9274 74.1339 42.7999 74.2472 42.649 74.319C42.5366 74.3736 42.4137 74.4032 42.2889 74.4057L37.2616 74.5125C37.1273 74.5157 36.9942 74.4875 36.8727 74.4302C36.7191 74.3596 36.5889 74.2463 36.4978 74.1038C36.4066 73.9612 36.3582 73.7954 36.3584 73.6261V69.9839H43.1531Z" fill="#3F3D56"/>
<path opacity="0.1" d="M43.1531 69.9839V73.5193C43.1532 73.6867 43.1059 73.8508 43.0166 73.9923C42.9274 74.1339 42.7999 74.2472 42.649 74.319C42.5366 74.3736 42.4137 74.4032 42.2889 74.4057L37.2616 74.5125C37.1273 74.5157 36.9942 74.4875 36.8727 74.4302C36.7191 74.3596 36.5889 74.2463 36.4978 74.1038C36.4066 73.9612 36.3582 73.7954 36.3584 73.6261V69.9839H43.1531Z" fill="black"/>
<path d="M43.4412 69.9839V73.5193C43.4413 73.6867 43.394 73.8508 43.3047 73.9923C43.2155 74.1339 43.088 74.2472 42.9371 74.319C42.8247 74.3736 42.7018 74.4032 42.5769 74.4057L37.5497 74.5125C37.4154 74.5157 37.2822 74.4875 37.1607 74.4302C37.0071 74.3596 36.877 74.2463 36.7859 74.1038C36.6947 73.9612 36.6463 73.7954 36.6465 73.6261V69.9839H43.4412Z" fill="#3F3D56"/>
<path d="M105.382 69.9839H98.5869V74.5312H105.382V69.9839Z" fill="#3F3D56"/>
<path opacity="0.1" d="M105.382 69.9839H98.5869V74.5312H105.382V69.9839Z" fill="black"/>
<path d="M105.094 69.9839H98.2988V74.5312H105.094V69.9839Z" fill="#3F3D56"/>
<path opacity="0.1" d="M33.7174 38.5364V39.3636L30.9805 39.2928V38.5364H33.7174Z" fill="black"/>
<path d="M51.7316 15.234L48.443 38.909C48.4221 39.0602 48.3464 39.1984 48.2303 39.2972C48.1141 39.396 47.9658 39.4485 47.8135 39.4446L21.4815 38.7603L20.9817 38.7473C20.8947 38.7452 20.809 38.7248 20.7304 38.6874C20.6518 38.6499 20.5819 38.5963 20.5254 38.5299C20.4688 38.4636 20.4269 38.386 20.4023 38.3024C20.3776 38.2187 20.3709 38.1307 20.3824 38.0443L24.0744 13.2606C24.0982 13.107 24.1786 12.968 24.2996 12.871C24.4207 12.774 24.5737 12.726 24.7284 12.7365L51.1554 14.5295C51.2407 14.5344 51.324 14.557 51.4001 14.5959C51.4762 14.6347 51.5434 14.689 51.5976 14.7552C51.6517 14.8213 51.6916 14.8981 51.7146 14.9805C51.7377 15.0629 51.7435 15.1492 51.7316 15.234Z" fill="#65617D"/>
<path d="M25.843 14.4775L23.0586 36.3235L47.2586 37.093L50.2347 16.0164L25.843 14.4775Z" fill="#3D58B0"/>
<path d="M84.6159 14.1394H56.6691C56.2451 14.1394 55.9014 14.4839 55.9014 14.9088V38.3919C55.9014 38.8168 56.2451 39.1613 56.6691 39.1613H84.6159C85.0399 39.1613 85.3836 38.8168 85.3836 38.3919V14.9088C85.3836 14.4839 85.0399 14.1394 84.6159 14.1394Z" fill="#65617D"/>
<path d="M84.0859 15.8242H57.293V36.6597H84.0859V15.8242Z" fill="#3D58B0"/>
<path opacity="0.1" d="M107.374 38.1033V38.6504L104.637 38.7067V38.1033H107.374Z" fill="black"/>
<path d="M119.723 37.6412C119.727 37.701 119.719 37.761 119.699 37.8175C119.679 37.8741 119.648 37.926 119.608 37.9703C119.568 38.0145 119.519 38.0501 119.464 38.0749C119.41 38.0997 119.351 38.1133 119.291 38.1147L92.3253 38.6734C92.2133 38.6757 92.1046 38.6354 92.0209 38.5607C91.9373 38.486 91.885 38.3824 91.8744 38.2706L89.5567 14.1221C89.551 14.0621 89.5575 14.0017 89.5757 13.9444C89.594 13.887 89.6237 13.834 89.663 13.7885C89.7024 13.743 89.7505 13.706 89.8045 13.6797C89.8585 13.6534 89.9173 13.6384 89.9773 13.6356L116.739 12.3017L117.027 12.2872C117.141 12.2812 117.254 12.32 117.34 12.3954C117.427 12.4708 117.481 12.5769 117.49 12.6914L119.723 37.6412Z" fill="#65617D"/>
<path d="M91.0967 15.0548L115.537 13.8508L117.602 35.7936L93.3539 36.371L91.0967 15.0548Z" fill="#3D58B0"/>
<path opacity="0.1" d="M119.722 37.6412C119.726 37.701 119.718 37.761 119.698 37.8176C119.678 37.8741 119.647 37.9261 119.607 37.9703C119.566 38.0145 119.517 38.0501 119.463 38.0749C119.409 38.0997 119.35 38.1133 119.29 38.1147L116.737 12.3017L117.025 12.2872C117.14 12.2812 117.252 12.32 117.339 12.3954C117.425 12.4708 117.479 12.5769 117.489 12.6914L119.722 37.6412Z" fill="black"/>
<path opacity="0.1" d="M24.7327 12.7349L21.4815 38.7601L20.9817 38.7471C20.8947 38.745 20.809 38.7246 20.7304 38.6872C20.6518 38.6497 20.5819 38.5961 20.5254 38.5297C20.4688 38.4634 20.4269 38.3858 20.4023 38.3022C20.3776 38.2185 20.3709 38.1305 20.3824 38.0441L24.0744 13.2603C24.0979 13.1058 24.1788 12.9658 24.3008 12.8684C24.4229 12.7709 24.5771 12.7233 24.7327 12.7349Z" fill="black"/>
<path opacity="0.1" d="M33.7174 44.396H30.9805V46.8617H33.7174V44.396Z" fill="black"/>
<path opacity="0.1" d="M43.4412 69.9824V70.6999L36.6465 70.8818V69.9824H43.4412Z" fill="black"/>
<path d="M55.4329 45.255V69.5364C55.4311 69.6846 55.3726 69.8265 55.2693 69.9326C55.1661 70.0388 55.0261 70.1011 54.8783 70.1066L27.2715 70.8429H27.2643C27.114 70.841 26.9703 70.7803 26.864 70.6738C26.7577 70.5672 26.6972 70.4233 26.6953 70.2726V45.255C26.6972 45.1044 26.7577 44.9604 26.864 44.8539C26.9703 44.7474 27.114 44.6867 27.2643 44.6848H54.8639C55.0142 44.6867 55.1579 44.7474 55.2642 44.8539C55.3705 44.9604 55.431 45.1044 55.4329 45.255Z" fill="#65617D"/>
<path opacity="0.1" d="M27.2715 44.6848V70.8429H27.2643C27.114 70.841 26.9703 70.7803 26.864 70.6738C26.7577 70.5672 26.6972 70.4233 26.6953 70.2726V45.255C26.6972 45.1044 26.7577 44.9604 26.864 44.8539C26.9703 44.7474 27.114 44.6867 27.2643 44.6848H27.2715Z" fill="black"/>
<path d="M28.5322 46.2351H54.1007V67.6365L28.5322 68.2139V46.2351Z" fill="#D4DFEC"/>
<path opacity="0.1" d="M107.374 44.396H104.637V46.9107H107.374V44.396Z" fill="black"/>
<path opacity="0.1" d="M105.094 69.9824V70.9078L98.2988 70.7259V69.9824H105.094Z" fill="black"/>
<path d="M114.061 45.255V70.2726C114.059 70.4245 113.997 70.5695 113.889 70.6763C113.782 70.783 113.636 70.8429 113.485 70.8429L85.872 70.1066C85.7242 70.1011 85.5841 70.0388 85.4809 69.9326C85.3777 69.8265 85.3191 69.6846 85.3174 69.5364V45.255C85.3193 45.1044 85.3798 44.9604 85.4861 44.8539C85.5924 44.7474 85.736 44.6867 85.8864 44.6848H113.486C113.637 44.6852 113.782 44.7452 113.89 44.8519C113.997 44.9586 114.059 45.1034 114.061 45.255Z" fill="#65617D"/>
<path opacity="0.1" d="M114.061 45.255V70.2726C114.059 70.4245 113.997 70.5695 113.889 70.6763C113.781 70.783 113.636 70.8429 113.484 70.8429V44.6848C113.636 44.6848 113.781 44.7446 113.889 44.8514C113.997 44.9581 114.059 45.1031 114.061 45.255Z" fill="black"/>
<path d="M112.224 46.2351H86.6553V67.6365L112.224 68.2139V46.2351Z" fill="#FFA800"/>
<path d="M84.6028 45.255V69.5364C84.601 69.6846 84.5425 69.8265 84.4393 69.9326C84.336 70.0388 84.196 70.1011 84.0482 70.1066L56.4414 70.8429C56.2899 70.8429 56.1444 70.783 56.0365 70.6763C55.9287 70.5695 55.8671 70.4245 55.8652 70.2726V45.255C55.8671 45.1044 55.9276 44.9604 56.034 44.8539C56.1403 44.7474 56.2839 44.6867 56.4342 44.6848H84.0338C84.1841 44.6867 84.3278 44.7474 84.4341 44.8539C84.5404 44.9604 84.6009 45.1044 84.6028 45.255Z" fill="#65617D"/>
<path d="M57.7021 46.2351H83.2707V67.6365L57.7021 68.2139V46.2351Z" fill="#D4DFEC"/>
<path opacity="0.1" d="M124.827 77.2004V79.0771L102.944 79.2792L102.71 79.2836L94.3931 79.3601L94.1943 79.3629L91.6662 79.3846H91.5913L76.1811 79.5275L50.8848 79.7628H50.8632L44.4315 79.8235L44.3623 79.8249L15.7832 80.0876V77.9222L44.9543 77.7302H45.0235L50.928 77.6898H50.9554L91.7325 77.4199H91.7743L91.7987 77.4184H91.8665L92.5564 77.4141H92.7668L103.497 77.3419L104.131 77.339L104.272 77.3376L124.827 77.2004Z" fill="black"/>
<path d="M70.6889 46.8615C74.7725 46.8615 78.0829 43.5439 78.0829 39.4515C78.0829 35.3591 74.7725 32.0415 70.6889 32.0415C66.6053 32.0415 63.2949 35.3591 63.2949 39.4515C63.2949 43.5439 66.6053 46.8615 70.6889 46.8615Z" fill="#FBBEBE"/>
<path d="M78.0838 54.6095C78.0838 54.6095 63.751 56.3418 65.1195 54.6095C65.615 53.983 65.7518 52.1265 65.7245 50.0116C65.7158 49.3692 65.6928 48.7037 65.6596 48.0411C65.5012 44.8652 65.1195 41.7615 65.1195 41.7615C65.1195 41.7615 77.6516 35.8427 76.2111 40.5344C75.635 42.4298 75.8237 45.0918 76.2616 47.5907C76.3898 48.3197 76.5381 49.0343 76.6937 49.7128C77.0734 51.3677 77.5373 53.0021 78.0838 54.6095Z" fill="#FBBEBE"/>
<path opacity="0.1" d="M78.0838 54.6093C78.0838 54.6093 63.751 56.3416 65.1195 54.6093C65.615 53.9827 65.7518 52.1263 65.7245 50.0114C67.9097 49.0759 70.6898 49.7732 70.6898 49.7732C73.6168 49.1885 75.4938 49.3026 76.6937 49.7126C77.0734 51.3675 77.5373 53.0019 78.0838 54.6093Z" fill="black"/>
<path d="M50.8793 79.9259V79.8046L76.177 79.5289L91.5901 79.3845H91.6334L91.6175 79.5982L91.6391 79.3845H91.6665V79.36L91.8638 77.4183L91.9387 76.6835L91.9618 76.454L91.982 76.262L92.8722 73.2868L93.7624 70.3158L94.5114 67.8141L95.6552 63.9914C95.6552 63.9914 95.007 62.4756 94.6468 62.0425C94.2867 61.6095 93.9266 58.6501 93.9266 58.6501C93.9266 58.6501 90.8526 55.7152 89.5087 55.3774C88.9454 55.2331 87.8334 55.0411 86.6522 54.8C86.21 54.7105 85.7562 54.6152 85.3197 54.5113C85.0734 54.455 84.8314 54.3958 84.5995 54.3366C84.1481 54.2236 83.7033 54.0858 83.2671 53.9237C83.0383 53.8405 82.8206 53.7294 82.6188 53.5932C81.5601 52.8151 78.9067 52.727 78.8045 52.727C78.8042 52.7236 78.8042 52.7203 78.8045 52.7169V52.7039C78.8082 52.6433 78.8082 52.5826 78.8045 52.522C78.8045 52.4643 78.8045 52.3964 78.7915 52.3199C78.7915 52.2968 78.7915 52.2723 78.7814 52.2477C78.7742 52.1957 78.7656 52.1409 78.7526 52.0831C78.7482 52.0573 78.7425 52.0318 78.7353 52.0066C78.6936 51.8327 78.6332 51.6638 78.5553 51.5028C78.5452 51.4797 78.5322 51.4552 78.5207 51.4321C78.4501 51.2987 78.3681 51.1717 78.2758 51.0524C78.2571 51.0279 78.2369 51.0019 78.2153 50.9773C78.0973 50.8379 77.9661 50.7103 77.8235 50.5962C77.7846 50.5659 77.7443 50.5342 77.7025 50.5053C77.6792 50.4863 77.6547 50.469 77.629 50.4533L77.5008 50.3696L77.3813 50.3003C77.2761 50.2426 77.1652 50.1863 77.0442 50.1328C77.0067 50.1155 76.9664 50.0996 76.9261 50.0838C76.8857 50.0679 76.8224 50.0433 76.7691 50.0231H76.7604L76.6524 49.9798C76.5703 49.9524 76.4867 49.9278 76.3989 49.9033L76.2649 49.8687L76.1208 49.8355L75.9768 49.8051C75.8328 49.7763 75.6786 49.7503 75.5173 49.7301L75.3531 49.7099L75.1845 49.6925L75.0102 49.6781L74.7625 49.6637L74.4744 49.6536C73.2038 49.6534 71.9367 49.7885 70.6946 50.0563C69.8316 49.8639 68.9477 49.7824 68.0643 49.8138H67.9389L67.7949 49.8225H67.7027L67.5169 49.8398C67.4549 49.8398 67.3916 49.8528 67.3296 49.8614C67.2677 49.8701 67.2028 49.8773 67.1409 49.8874L67.0458 49.9033C66.9522 49.9192 66.8571 49.9365 66.7577 49.9567C66.726 49.9625 66.6944 49.9697 66.6627 49.9784C66.5373 50.0058 66.412 50.039 66.2881 50.0765C66.2262 50.0939 66.1643 50.1141 66.1023 50.1357C66.0706 50.1444 66.0404 50.1559 66.0101 50.1675L65.9179 50.2007L65.8272 50.2368L65.7192 50.2801C65.6644 50.3032 65.6111 50.3277 65.5578 50.3537C65.5276 50.3667 65.4973 50.3811 65.4685 50.397C65.4397 50.4129 65.4095 50.4259 65.3821 50.4418C65.0564 50.6104 64.7554 50.8232 64.4875 51.0741L64.4141 51.1448L64.3421 51.2184C64.3176 51.243 64.2945 51.269 64.2715 51.2949C64.1776 51.3978 64.09 51.5063 64.0093 51.6197C63.9863 51.6501 63.9647 51.6804 63.943 51.7121C63.8516 51.8472 63.7689 51.988 63.6953 52.1337C63.6766 52.1683 63.6593 52.2044 63.642 52.2391C63.5244 52.4829 63.428 52.7365 63.3539 52.9969C63.327 53.0932 63.3025 53.1894 63.2804 53.2857C63.2804 53.2857 60.2309 54.634 57.7015 55.6099C57.0287 55.8697 56.3949 56.105 55.8648 56.2826C55.7107 56.3345 55.5667 56.3822 55.4327 56.4269C55.142 56.5322 54.8397 56.602 54.5324 56.6348C54.3875 56.6372 54.2431 56.6507 54.1003 56.6752C52.9378 56.8644 50.9456 57.6858 50.7281 58.5101C50.7104 58.5759 50.7055 58.6445 50.7137 58.7122C50.7137 58.7122 50.7137 58.7223 50.7137 58.728C50.8577 59.7386 49.8494 59.5942 49.8494 59.5942C49.8494 59.5942 49.4893 62.2649 48.9851 62.9867C48.6207 63.5064 48.3715 64.6656 48.3398 65.5404C48.3217 65.8129 48.343 66.0867 48.4032 66.3531C48.4032 66.3604 48.4032 66.3676 48.4032 66.3733C48.4608 66.5668 48.3225 67.0951 48.0877 67.7722C47.8327 68.5156 47.4611 69.4396 47.1038 70.3115C46.5651 71.6281 46.0581 72.8234 46.0264 73.0861C46.0134 73.203 45.976 73.4123 45.9241 73.6823C45.7138 74.7823 45.2471 76.877 45.0166 77.7244C44.8452 78.3567 44.596 79.2228 44.4246 79.8176C44.4246 79.8349 44.4145 79.8522 44.4102 79.8681L50.8678 79.8046V79.9259H50.888H50.8793Z" fill="#3D58B0"/>
<path opacity="0.1" d="M53.2363 62.9102C53.2363 62.9102 61.4471 67.1688 64.4 66.6635L53.2363 62.9102Z" fill="black"/>
<path opacity="0.1" d="M69.9463 61.178C69.9463 61.178 77.9409 63.7765 80.6058 64.1374C83.2707 64.4983 69.9463 61.178 69.9463 61.178Z" fill="black"/>
<path opacity="0.1" d="M78.813 52.8165C74.6356 53.5874 66.7706 53.4214 63.3711 53.3045C64.6171 48.8293 70.693 50.3508 70.693 50.3508C78.2138 48.8466 78.79 51.9677 78.813 52.8165Z" fill="black"/>
<path d="M78.813 52.5277C74.6356 53.2986 66.7706 53.1326 63.3711 53.0156C64.6171 48.5405 70.693 50.062 70.693 50.062C78.2138 48.5578 78.79 51.6789 78.813 52.5277Z" fill="#3D58B0"/>
<path d="M100.988 72.2574C100.988 72.2574 105.909 71.4995 106.006 73.6649C106.102 75.8303 103.496 77.3432 103.496 77.3432L100.988 72.2574Z" fill="#FBBEBE"/>
<path opacity="0.1" d="M76.2621 47.5907C76.0504 47.6855 75.8341 47.7693 75.6138 47.8419C74.061 48.3789 72.4952 48.9203 70.8603 49.1166C69.2253 49.3129 67.5097 49.1397 66.0837 48.3226C65.9339 48.2379 65.7896 48.1438 65.6515 48.0411C65.4931 44.8652 65.1113 41.7615 65.1113 41.7615C65.1113 41.7615 77.6435 35.8427 76.203 40.5344C75.6297 42.4298 75.8242 45.0918 76.2621 47.5907Z" fill="black"/>
<path d="M68.6606 27.8697C68.455 27.9241 68.2395 27.9296 68.0314 27.8857C67.8233 27.8419 67.6284 27.7499 67.4621 27.6171L67.7617 28.0343C67.5851 28.0547 67.4062 28.0362 67.2375 27.9801C67.0688 27.924 66.9144 27.8316 66.785 27.7095C66.7579 28.0829 66.7733 28.4583 66.8311 28.8282C66.3354 28.8522 65.8473 28.6987 65.454 28.3952C65.4464 28.5254 65.4787 28.6549 65.5467 28.7661C65.6147 28.8774 65.7151 28.965 65.8343 29.0174C65.3363 28.9577 64.8337 29.0817 64.4202 29.3662C64.0067 29.6507 63.7106 30.0763 63.5872 30.5634L64.3391 30.6327C63.7482 30.7592 63.2178 31.0835 62.8353 31.5523C62.6048 31.841 62.429 32.2106 62.5299 32.5628C62.6307 32.9151 63.1176 33.1403 63.3826 32.8891C63.0056 33.3401 62.7316 33.8682 62.5798 34.4366C62.428 35.0049 62.4021 35.5996 62.5039 36.1791C62.5723 36.426 62.5948 36.6833 62.5702 36.9384C62.5227 37.1766 62.3729 37.383 62.298 37.6154C62.1539 38.037 62.2908 38.4946 62.419 38.9147L63.0945 41.1407C63.3394 41.9448 63.5829 42.7503 63.9026 43.5284C64.1291 44.0204 64.3216 44.5273 64.4788 45.0457C64.6603 45.7444 64.6675 46.5095 65.055 47.1201C65.3206 47.5044 65.6756 47.818 66.0893 48.0339C67.5139 48.851 69.2353 49.0242 70.8659 48.8279C72.4965 48.6316 74.0609 48.0902 75.6123 47.5532C75.957 47.4491 76.2878 47.3037 76.5976 47.1201C77.6707 46.4156 77.9099 44.9749 78.1101 43.706C78.3334 42.2913 78.6315 40.8794 79.1602 39.5484C79.4742 38.7559 79.8804 37.9518 79.8113 37.103C79.7234 35.9755 78.8332 35.0617 78.6128 33.953C78.539 33.5824 78.5425 33.2005 78.6229 32.8313C78.6912 32.6114 78.7295 32.3831 78.7367 32.1529C78.7122 31.688 78.3319 31.33 77.9747 31.0312C77.1997 30.3825 76.3998 29.7695 75.5749 29.192C75.5331 28.9033 75.9249 28.7792 76.1021 28.5511C76.3527 28.2291 76.0934 27.7181 75.7131 27.568C75.3328 27.4178 74.9065 27.516 74.5103 27.6156C74.5361 27.4124 74.4958 27.2063 74.3954 27.0279C74.2949 26.8495 74.1397 26.7084 73.9527 26.6255C73.7658 26.5426 73.5572 26.5224 73.3579 26.5679C73.1586 26.6134 72.9793 26.7221 72.8466 26.8779C72.7414 26.6362 72.5733 26.4272 72.36 26.2728C72.1466 26.1184 71.8958 26.0243 71.6337 26.0002C70.6787 25.9252 70.6599 26.6571 70.0492 27.0598C69.4384 27.4626 68.9342 26.9314 68.4646 26.5445C68.3784 26.7632 68.351 27.0008 68.3854 27.2334C68.4198 27.466 68.5147 27.6855 68.6606 27.8697Z" fill="#3F3D56"/>
<path d="M104.636 76.5883C104.636 76.5883 104.508 76.8943 104.272 77.3375C103.915 78.0194 103.48 78.6574 102.976 79.2387L102.937 79.2806H102.703L94.3859 79.3571H94.1872L94.1627 79.3282L92.5493 77.4097L91.9415 76.6865L91.917 76.6561L91.8651 76.5955L91.8363 76.5609L91.7988 76.5161L90.6162 75.11L91.0484 73.3055L91.7844 70.2653L91.8032 70.1917L91.9472 69.6143L92.0495 69.1812L92.3923 67.7693L93.5678 62.9116L95.6564 63.9943L97.8589 67.892L99.0416 69.9853H99.6898C99.8122 69.9853 100.093 70.222 100.375 70.4949C100.476 70.5916 100.577 70.6941 100.664 70.7836C100.92 71.0492 101.123 71.2773 101.123 71.2773C101.123 71.2773 102.173 71.3004 102.456 72.129C102.47 72.1691 102.482 72.2101 102.492 72.2517C102.585 72.5774 102.707 72.8943 102.856 73.1987C103.042 73.6044 103.275 74.0649 103.511 74.5254C103.951 75.3699 104.397 76.174 104.561 76.4656L104.582 76.5017L104.636 76.5883Z" fill="#3D58B0"/>
<path opacity="0.1" d="M92.2627 70.0705L92.2483 70.2769V70.2913L92.2238 70.6234L92.0322 73.2955L91.8003 76.5147L91.734 77.4213L91.59 79.3615V79.386L76.1768 79.5304L50.8834 79.8047V79.9259H50.8633V79.8047V79.7643L50.9281 77.6912L51.052 73.6405L51.1586 70.2062L51.1687 69.864C51.175 69.6575 51.2232 69.4545 51.3104 69.2673C51.3977 69.0801 51.5221 68.9127 51.676 68.7753C51.83 68.6379 52.0102 68.5334 52.2059 68.4681C52.4015 68.4029 52.6083 68.3783 52.8137 68.3959C53.4936 68.4536 54.3766 68.5244 55.4325 68.5994L55.8646 68.6312C61.9622 69.0556 73.2311 69.6042 84.6022 68.9199C84.8413 68.9069 85.0819 68.8925 85.3224 68.8752C87.0856 68.764 88.8473 68.6211 90.5917 68.4421C90.8122 68.4189 91.0351 68.4445 91.2447 68.517C91.4543 68.5895 91.6455 68.7072 91.8048 68.8618C91.9641 69.0163 92.0877 69.204 92.1668 69.4116C92.2459 69.6192 92.2786 69.8416 92.2627 70.0632V70.0705Z" fill="black"/>
<path d="M50.8789 79.9258V79.8046L76.1766 79.5288L91.5897 79.3845H91.6329V79.3599L91.777 77.4197L91.8389 76.5536L92.0752 73.2896L92.261 70.7056V70.642C92.2696 70.523 92.2643 70.4033 92.2451 70.2855C92.2459 70.2807 92.2459 70.2758 92.2451 70.271C92.2056 70.0274 92.1066 69.7973 91.957 69.6012C91.7984 69.3974 91.5906 69.2374 91.3532 69.1364C91.1158 69.0353 90.8566 68.9966 90.6001 69.0238C88.8557 69.2028 87.094 69.3457 85.3308 69.4568C85.0903 69.4742 84.8497 69.4886 84.6106 69.5016C73.2395 70.1786 61.9706 69.6301 55.873 69.2129L55.4409 69.1811C54.385 69.106 53.502 69.0367 52.8221 68.9776C52.4481 68.9459 52.0756 69.0543 51.7766 69.2817C51.4776 69.5091 51.2733 69.8394 51.203 70.209C51.1885 70.2871 51.1798 70.3663 51.1771 70.4457L51.0791 73.6447L50.9452 77.6969L50.8818 79.7699V79.8103V79.9316L50.8789 79.9258Z" fill="#3F3D56"/>
<path opacity="0.1" d="M92.3062 71.0825L92.129 73.2955L91.8654 76.5942L91.7992 77.4199L91.6551 79.2692L91.6465 79.3616V79.3861L91.6249 79.5997L91.6407 79.3861H91.5989L76.1858 79.5305L50.8838 79.8047V79.7643L50.9544 77.6913L51.0984 73.6406L51.1906 70.9482C51.1951 70.7951 51.2379 70.6455 51.3148 70.5131C51.3918 70.3808 51.5007 70.2698 51.6314 70.1904C51.7945 70.0902 51.9852 70.0447 52.1759 70.0604C52.4784 70.085 52.85 70.1138 53.2836 70.1456C53.988 70.1976 54.8566 70.2582 55.8678 70.3217C57.7405 70.4401 60.0899 70.5671 62.7822 70.6711C70.2726 70.9598 80.3848 71.0565 89.9899 70.2135C90.4221 70.1759 90.8686 70.1341 91.3051 70.0922C91.4778 70.0749 91.6519 70.108 91.8064 70.1875C91.8501 70.2093 91.8916 70.2354 91.9303 70.2654C92.0557 70.3565 92.155 70.4789 92.2184 70.6205C92.233 70.6487 92.2451 70.6782 92.2544 70.7086C92.2976 70.8282 92.3153 70.9556 92.3062 71.0825Z" fill="black"/>
<path opacity="0.1" d="M43.4412 73.0586V73.5191C43.4413 73.6865 43.394 73.8506 43.3047 73.9921C43.2155 74.1337 43.088 74.247 42.9371 74.3188L37.1607 74.43C37.0071 74.3594 36.877 74.2461 36.7859 74.1036C36.6947 73.961 36.6463 73.7952 36.6465 73.6259V73.1928L43.4412 73.0586Z" fill="black"/>
<path d="M43.5128 74.5904L35.9863 74.7348V73.4832L43.5128 73.3389V74.5904Z" fill="#3F3D56"/>
<path opacity="0.1" d="M43.5128 74.5904L35.9863 74.7348V73.4832L43.5128 73.3389V74.5904Z" fill="black"/>
<path d="M43.8009 74.5904L36.2744 74.7348V73.4832L43.8009 73.3389V74.5904Z" fill="#3F3D56"/>
<g opacity="0.1">
<path opacity="0.1" d="M68.7193 27.3961C68.5785 27.2128 68.485 26.9976 68.447 26.7695C68.4123 26.9925 68.4331 27.2206 68.5075 27.4336C68.579 27.427 68.6498 27.4144 68.7193 27.3961Z" fill="black"/>
<path opacity="0.1" d="M66.8902 28.3547C66.863 28.1777 66.8453 27.9994 66.8369 27.8206C66.8369 27.9981 66.8369 28.1771 66.8369 28.3561L66.8902 28.3547Z" fill="black"/>
<path opacity="0.1" d="M78.63 33.1719C78.638 33.0432 78.6553 32.9154 78.6819 32.7893C78.75 32.5697 78.7888 32.342 78.7971 32.1122C78.7939 32.0607 78.7862 32.0095 78.7741 31.9592C78.7496 32.092 78.7107 32.2249 78.6819 32.3562C78.6244 32.624 78.6069 32.8989 78.63 33.1719Z" fill="black"/>
<path opacity="0.1" d="M75.634 28.7112L75.791 28.8252C75.9233 28.7292 76.0472 28.622 76.1612 28.5047C76.2154 28.4296 76.249 28.3415 76.2586 28.2493C76.2682 28.1571 76.2535 28.064 76.2159 27.9792C76.2016 28.0122 76.1832 28.0432 76.1612 28.0716C75.984 28.2997 75.5922 28.4253 75.634 28.7112Z" fill="black"/>
<path opacity="0.1" d="M63.7972 30.0999C63.7447 30.2051 63.7027 30.3154 63.6719 30.429C63.8972 30.3029 64.1399 30.211 64.3921 30.1562L63.7972 30.0999Z" fill="black"/>
<path opacity="0.1" d="M65.7838 28.5294C65.6891 28.4771 65.5986 28.4178 65.513 28.3518C65.5093 28.4089 65.5137 28.4663 65.5259 28.5222C65.6119 28.518 65.6981 28.5205 65.7838 28.5294Z" fill="black"/>
<path opacity="0.1" d="M79.8672 37.0352C79.8081 37.7353 79.4825 38.4095 79.2189 39.0735C78.6903 40.4045 78.3921 41.8164 78.1688 43.2325C77.9686 44.5015 77.7367 45.9422 76.6563 46.6452C76.3476 46.83 76.0171 46.9755 75.6725 47.0783C74.1196 47.6167 72.5538 48.1567 70.9189 48.353C69.284 48.5493 67.5683 48.3775 66.1423 47.5604C65.7288 47.3442 65.3739 47.0307 65.108 46.6466C64.7234 46.036 64.7162 45.2709 64.5318 44.5722C64.3746 44.0534 64.1821 43.546 63.9556 43.0535C63.6373 42.2769 63.3924 41.4656 63.149 40.6673C62.9233 39.9252 62.6981 39.1828 62.4734 38.4398C62.3994 38.2163 62.3444 37.9869 62.3092 37.7541C62.253 38.1236 62.3625 38.5105 62.4734 38.8729C62.6981 39.6168 62.9233 40.3593 63.149 41.1003C63.3924 41.9044 63.6373 42.7099 63.9556 43.4866C64.1821 43.979 64.3746 44.4865 64.5318 45.0053C64.7133 45.704 64.7205 46.4691 65.108 47.0797C65.3739 47.4637 65.7288 47.7773 66.1423 47.9935C67.5683 48.8106 69.2883 48.9824 70.9189 48.7861C72.5495 48.5897 74.1139 48.0498 75.6725 47.5114C76.0171 47.4086 76.3476 47.2631 76.6563 47.0783C77.7295 46.3752 77.9686 44.9345 78.1688 43.6656C78.3921 42.2494 78.6903 40.8376 79.2189 39.5066C79.533 38.7155 79.9392 37.9114 79.87 37.0611C79.87 37.0525 79.8672 37.0438 79.8672 37.0352Z" fill="black"/>
<path opacity="0.1" d="M62.6263 36.4762C62.6263 36.4762 62.6263 36.4661 62.6263 36.4603C62.6523 36.2058 62.6298 35.9486 62.5601 35.7024C62.5313 35.544 62.5126 35.3839 62.5039 35.2231C62.4873 35.5284 62.5061 35.8346 62.5601 36.1355C62.5831 36.2481 62.609 36.3621 62.6263 36.4762Z" fill="black"/>
<path opacity="0.1" d="M63.0656 32.9452C63.1764 32.7587 63.3021 32.5815 63.4416 32.4154C63.178 32.668 62.6911 32.4428 62.5888 32.092C62.5511 32.2339 62.5511 32.3832 62.5888 32.5251C62.6243 32.6311 62.6871 32.7257 62.7708 32.7995C62.8545 32.8732 62.9562 32.9235 63.0656 32.9452Z" fill="black"/>
</g>
<path opacity="0.1" d="M99.0428 69.9839C99.0428 69.9839 99.4994 71.644 99.0428 73.0876C98.5862 74.5312 99.0428 69.9839 99.0428 69.9839Z" fill="black"/>
<path opacity="0.1" d="M100.988 71.6772C100.988 71.6772 101.179 73.7849 100.747 74.1588C100.315 74.5327 100.988 71.6772 100.988 71.6772Z" fill="black"/>
<path d="M29.1641 49.658L43.8008 49.5137" stroke="#3D58B0" stroke-width="2" stroke-miterlimit="10"/>
<path d="M29.1641 51.4579L43.8008 51.3149" stroke="#3D58B0" stroke-width="2" stroke-miterlimit="10"/>
<path d="M29.1641 53.2596L43.8008 53.1152" stroke="#3D58B0" stroke-width="2" stroke-miterlimit="10"/>
</g>
<defs>
<clipPath id="clip0">
<rect width="150" height="80" fill="white" transform="translate(0.5 0.162598)"/>
</clipPath>
</defs>
</svg>
