<svg width="1045" height="820" viewBox="0 0 1045 820" fill="none" xmlns="http://www.w3.org/2000/svg">
<g clip-path="url(#clip0)">
<path d="M867.252 682.525C879.918 689.829 894.051 694.224 908.625 695.391C923.2 696.559 937.852 694.469 951.519 689.275C965.187 684.08 977.528 675.91 987.648 665.357C997.768 654.804 1005.41 642.131 1010.03 628.258C1014.65 614.385 1016.12 599.659 1014.34 585.146C1012.57 570.633 1007.58 556.697 999.756 544.347C991.928 531.998 981.451 521.545 969.084 513.745C956.717 505.945 942.769 500.994 928.252 499.25C928.393 499.221 928.533 499.186 928.675 499.157C917.647 497.847 906.478 498.407 895.637 500.815C895.604 500.822 895.572 500.83 895.539 500.837C894.665 501.031 893.792 501.23 892.923 501.448C880.282 504.552 868.383 510.136 857.917 517.876C847.452 525.616 838.628 535.358 831.958 546.536L676.934 453.186L671.789 462.099L776.247 520.003L775.591 536.814L780.462 537.004L781.022 522.65L830.064 549.835C817.702 572.427 814.672 598.96 821.621 623.757C828.571 648.555 844.949 669.648 867.252 682.525Z" fill="#E6E6E6"/>
<path d="M541.945 763.863C540.996 767.527 540.873 771.356 541.586 775.073C542.299 778.791 543.83 782.303 546.068 785.355C548.306 788.407 551.195 790.924 554.526 792.722C557.856 794.52 561.545 795.554 565.325 795.751C569.105 795.947 572.881 795.3 576.38 793.856C579.879 792.413 583.013 790.209 585.555 787.405C588.097 784.6 589.983 781.266 591.077 777.642C592.171 774.019 592.446 770.198 591.88 766.455C591.898 766.488 591.916 766.521 591.933 766.554C591.5 763.712 590.59 760.964 589.243 758.424C589.239 758.417 589.234 758.409 589.23 758.402C589.122 758.197 589.012 757.993 588.897 757.791C587.252 754.851 585.039 752.266 582.386 750.188C579.734 748.11 576.695 746.58 573.446 745.686L586.057 700.571L583.478 699.901L576.228 729.956L571.988 730.951L572.276 732.179L575.896 731.33L572.492 745.44C566.003 743.912 559.174 744.985 553.465 748.428C547.756 751.87 543.622 757.411 541.945 763.863Z" fill="#E6E6E6"/>
<path d="M142.065 530.091C126.407 541.711 113.53 556.67 104.367 573.882C95.2037 591.094 89.9842 610.129 89.0864 629.607C88.1886 649.086 91.635 668.52 99.1759 686.503C106.717 704.485 118.163 720.564 132.686 733.576C147.209 746.588 164.445 756.206 183.144 761.734C201.843 767.262 221.538 768.561 240.801 765.537C260.065 762.513 278.414 755.242 294.52 744.25C310.626 733.259 324.086 718.822 333.923 701.986C333.885 702.175 333.852 702.364 333.813 702.552C341.269 689.756 346.511 675.793 349.319 661.252C349.327 661.209 349.335 661.165 349.343 661.121C349.569 659.948 349.789 658.774 349.983 657.596C352.895 640.482 352.378 622.961 348.463 606.049C344.547 589.137 337.311 573.171 327.174 559.079L523.655 418.953L515.482 407.927L389.203 504.999L368.983 495.275L366.165 501.134L383.43 509.437L324.143 555.011C303.063 527.896 272.209 510.108 238.182 505.451C204.154 500.794 169.656 509.638 142.065 530.091Z" fill="#E6E6E6"/>
<path d="M799.912 265.294C847.395 265.294 885.888 226.801 885.888 179.318C885.888 131.835 847.395 93.3425 799.912 93.3425C752.429 93.3425 713.937 131.835 713.937 179.318C713.937 226.801 752.429 265.294 799.912 265.294Z" fill="#FF2F2F"/>
<path d="M207.402 392C302.567 392 379.713 314.853 379.713 219.688C379.713 124.523 302.567 47.3766 207.402 47.3766C112.236 47.3766 35.0898 124.523 35.0898 219.688C35.0898 314.853 112.236 392 207.402 392Z" fill="#6C63FF"/>
<path opacity="0.2" d="M80.1719 104.598C64.0991 142.195 61.9187 184.282 74.0204 223.339C86.122 262.396 111.717 295.877 146.232 317.8C180.747 339.722 221.933 348.658 262.429 343.01C302.926 337.361 340.095 317.497 367.294 286.967C357.476 309.938 342.781 330.499 324.227 347.226C305.673 363.953 283.705 376.446 259.843 383.841C235.982 391.235 210.798 393.352 186.037 390.047C161.276 386.742 137.529 378.094 116.443 364.7C95.3559 351.306 77.4332 333.489 63.9163 312.481C50.3993 291.473 41.6114 267.777 38.1612 243.036C34.7111 218.295 36.6813 193.099 43.9353 169.195C51.1894 145.29 63.5538 123.249 80.1719 104.598Z" fill="black"/>
<path d="M273.938 552.574L245.454 567.57L249.424 575.109L277.907 560.113L273.938 552.574Z" fill="#3F3D56"/>
<path d="M449.743 189.695L462.538 179.462C452.598 178.365 448.514 183.786 446.843 188.077C439.078 184.852 430.624 189.078 430.624 189.078L456.224 198.372C454.933 194.922 452.684 191.912 449.743 189.695Z" fill="#3F3D56"/>
<path d="M644.327 293.936L657.122 283.703C647.182 282.606 643.098 288.027 641.427 292.318C633.661 289.093 625.208 293.319 625.208 293.319L650.808 302.613C649.517 299.163 647.269 296.154 644.327 293.936Z" fill="#3F3D56"/>
<path d="M434.454 382.889L447.249 372.655C437.309 371.559 433.225 376.98 431.554 381.27C423.788 378.046 415.335 382.272 415.335 382.272L440.935 391.566C439.644 388.116 437.395 385.106 434.454 382.889Z" fill="#3F3D56"/>
</g>
<defs>
<clipPath id="clip0">
<rect width="1044" height="820" fill="white" transform="translate(0.5)"/>
</clipPath>
</defs>
</svg>
