<svg width="929" height="698" viewBox="0 0 929 698" fill="none" xmlns="http://www.w3.org/2000/svg">
<path d="M790.008 265.729H560.575V261H456.542V265.729H226.164C222.048 265.729 218.101 267.364 215.19 270.274C212.28 273.185 210.645 277.132 210.645 281.248V595.411C210.645 599.527 212.28 603.475 215.19 606.385C218.101 609.296 222.048 610.931 226.164 610.931H790.008C792.046 610.931 794.064 610.529 795.947 609.75C797.83 608.97 799.54 607.826 800.982 606.385C802.423 604.944 803.566 603.233 804.346 601.35C805.126 599.468 805.527 597.449 805.527 595.411V281.248C805.527 279.21 805.126 277.192 804.346 275.309C803.566 273.426 802.423 271.715 800.982 270.274C799.54 268.833 797.83 267.69 795.947 266.91C794.064 266.13 792.046 265.729 790.008 265.729Z" fill="#3F3D56"/>
<path opacity="0.1" d="M784.72 293.156H231.451V605.256H784.72V293.156Z" fill="black"/>
<path d="M507.612 284.644C510.746 284.644 513.287 282.103 513.287 278.969C513.287 275.835 510.746 273.295 507.612 273.295C504.478 273.295 501.938 275.835 501.938 278.969C501.938 282.103 504.478 284.644 507.612 284.644Z" fill="#6C63FF"/>
<path d="M782.154 293H232.379V604.985H782.154V293Z" fill="#E6E6E6"/>
<path d="M766.435 309H248.102V580.005H766.435V309Z" fill="#3D58B0"/>
<path d="M821.061 599.582H767.066V595.691C767.066 595.59 767.046 595.49 767.007 595.396C766.968 595.303 766.911 595.218 766.84 595.146C766.768 595.074 766.683 595.018 766.589 594.979C766.496 594.94 766.396 594.92 766.294 594.92H747.781C747.68 594.92 747.58 594.94 747.486 594.979C747.393 595.018 747.308 595.074 747.236 595.146C747.164 595.218 747.108 595.303 747.069 595.396C747.03 595.49 747.01 595.59 747.01 595.691V599.582H735.44V595.691C735.44 595.59 735.42 595.49 735.381 595.396C735.342 595.303 735.285 595.218 735.214 595.146C735.142 595.074 735.057 595.018 734.964 594.979C734.87 594.94 734.77 594.92 734.668 594.92H716.156C716.054 594.92 715.954 594.94 715.86 594.979C715.767 595.018 715.682 595.074 715.61 595.146C715.538 595.218 715.482 595.303 715.443 595.396C715.404 595.49 715.384 595.59 715.384 595.691V599.582H703.814V595.691C703.814 595.59 703.794 595.49 703.755 595.396C703.716 595.303 703.659 595.218 703.588 595.146C703.516 595.074 703.431 595.018 703.338 594.979C703.244 594.94 703.144 594.92 703.042 594.92H684.53C684.428 594.92 684.328 594.94 684.234 594.979C684.141 595.018 684.056 595.074 683.984 595.146C683.913 595.218 683.856 595.303 683.817 595.396C683.778 595.49 683.758 595.59 683.758 595.691V599.582H672.188V595.691C672.188 595.59 672.168 595.49 672.129 595.396C672.09 595.303 672.034 595.218 671.962 595.146C671.89 595.074 671.805 595.018 671.712 594.979C671.618 594.94 671.518 594.92 671.416 594.92H652.904C652.802 594.92 652.702 594.94 652.609 594.979C652.515 595.018 652.43 595.074 652.358 595.146C652.287 595.218 652.23 595.303 652.191 595.396C652.152 595.49 652.132 595.59 652.132 595.691V599.582H640.562V595.691C640.562 595.59 640.542 595.49 640.503 595.396C640.464 595.303 640.408 595.218 640.336 595.146C640.264 595.074 640.179 595.018 640.086 594.979C639.992 594.94 639.892 594.92 639.791 594.92H621.278C621.177 594.92 621.076 594.94 620.983 594.979C620.889 595.018 620.804 595.074 620.732 595.146C620.661 595.218 620.604 595.303 620.565 595.396C620.526 595.49 620.506 595.59 620.506 595.691V599.582H608.936V595.691C608.936 595.59 608.916 595.49 608.877 595.396C608.839 595.303 608.782 595.218 608.71 595.146C608.638 595.074 608.553 595.018 608.46 594.979C608.366 594.94 608.266 594.92 608.165 594.92H589.652C589.551 594.92 589.45 594.94 589.357 594.979C589.263 595.018 589.178 595.074 589.106 595.146C589.035 595.218 588.978 595.303 588.939 595.396C588.9 595.49 588.881 595.59 588.881 595.691V599.582H577.31V595.691C577.31 595.59 577.29 595.49 577.251 595.396C577.213 595.303 577.156 595.218 577.084 595.146C577.013 595.074 576.927 595.018 576.834 594.979C576.74 594.94 576.64 594.92 576.539 594.92H431.522C431.318 594.92 431.122 595.001 430.977 595.146C430.832 595.291 430.751 595.487 430.751 595.691V599.582H419.18V595.691C419.18 595.59 419.161 595.49 419.122 595.396C419.083 595.303 419.026 595.218 418.955 595.146C418.883 595.074 418.798 595.018 418.704 594.979C418.611 594.94 418.51 594.92 418.409 594.92H399.896C399.692 594.92 399.496 595.001 399.351 595.146C399.206 595.291 399.125 595.487 399.125 595.691V599.582H387.555V595.691C387.555 595.59 387.535 595.49 387.496 595.396C387.457 595.303 387.4 595.218 387.329 595.146C387.257 595.074 387.172 595.018 387.078 594.979C386.985 594.94 386.885 594.92 386.783 594.92H368.271C368.066 594.92 367.87 595.001 367.725 595.146C367.58 595.291 367.499 595.487 367.499 595.691V599.582H355.929V595.691C355.929 595.59 355.909 595.49 355.87 595.396C355.831 595.303 355.774 595.218 355.703 595.146C355.631 595.074 355.546 595.018 355.453 594.979C355.359 594.94 355.259 594.92 355.157 594.92H336.645C336.44 594.92 336.244 595.001 336.099 595.146C335.954 595.291 335.873 595.487 335.873 595.691V599.582H324.303V595.691C324.303 595.59 324.283 595.49 324.244 595.396C324.205 595.303 324.148 595.218 324.077 595.146C324.005 595.074 323.92 595.018 323.827 594.979C323.733 594.94 323.633 594.92 323.531 594.92H305.019C304.814 594.92 304.618 595.001 304.473 595.146C304.329 595.291 304.247 595.487 304.247 595.691V599.582H292.677V595.691C292.677 595.59 292.657 595.49 292.618 595.396C292.579 595.303 292.523 595.218 292.451 595.146C292.379 595.074 292.294 595.018 292.201 594.979C292.107 594.94 292.007 594.92 291.906 594.92H273.393C273.188 594.92 272.992 595.001 272.847 595.146C272.703 595.291 272.621 595.487 272.621 595.691V599.582H261.051V595.691C261.051 595.59 261.031 595.49 260.992 595.396C260.953 595.303 260.897 595.218 260.825 595.146C260.753 595.074 260.668 595.018 260.575 594.979C260.481 594.94 260.381 594.92 260.28 594.92H241.767C241.562 594.92 241.366 595.001 241.221 595.146C241.077 595.291 240.995 595.487 240.995 595.691V599.582H205.513C200.603 599.582 195.894 601.532 192.422 605.004C188.95 608.476 187 613.185 187 618.095V626.466C187 631.375 188.95 636.084 192.422 639.556C195.894 643.028 200.603 644.978 205.513 644.978H821.061C825.971 644.978 830.68 643.028 834.151 639.556C837.623 636.084 839.574 631.375 839.574 626.466V618.095C839.574 613.185 837.623 608.476 834.151 605.004C830.68 601.532 825.971 599.582 821.061 599.582Z" fill="#3F3D56"/>
<path d="M632.829 541.879H282.105V543.124H632.829V541.879Z" fill="#3F3D56"/>
<path d="M663.812 321H262V516.73H663.812V321Z" fill="#3F3D56"/>
<path opacity="0.1" d="M663.812 336.056V330.679H651.457V321H646.085V330.679H279.727V321H274.355V330.679H262V336.056H274.355V501.674H262V507.051H274.355V516.73H279.727V507.051H646.085V516.73H651.457V507.051H663.812V501.674H651.457V336.056H663.812ZM646.085 501.674H279.727V336.056H646.085L646.085 501.674Z" fill="black"/>
<path d="M502.956 346.811H439.6V407.137H502.956V346.811Z" fill="#D0CDE1"/>
<path d="M495.758 354.017H446.801V391.492H495.758V354.017Z" fill="#6C63FF"/>
<path d="M474.735 360.176H457.572V377.356H474.735V360.176Z" fill="#F2F2F2"/>
<path d="M464.143 364.472V385.334H484.983V364.472H464.143ZM484.079 384.429H465.047V365.377H484.079V384.429Z" fill="#3F3D56"/>
<path d="M473.379 395.212H446.75V396.615H473.379V395.212Z" fill="#F2F2F2"/>
<path d="M471.278 353.124C472.826 353.124 474.081 351.867 474.081 350.318C474.081 348.768 472.826 347.512 471.278 347.512C469.73 347.512 468.475 348.768 468.475 350.318C468.475 351.867 469.73 353.124 471.278 353.124Z" fill="#3F3D56"/>
<path d="M526.85 433.819H463.494V494.145H526.85V433.819Z" fill="#D0CDE1"/>
<path d="M519.652 441.026H470.695V478.501H519.652V441.026Z" fill="#6C63FF"/>
<path d="M497.274 482.922H470.645V484.325H497.274V482.922Z" fill="#F2F2F2"/>
<path d="M497.274 487.131H470.645V488.534H497.274V487.131Z" fill="#F2F2F2"/>
<path d="M479.405 465.385C482.501 465.385 485.011 462.873 485.011 459.773C485.011 456.674 482.501 454.162 479.405 454.162C476.309 454.162 473.799 456.674 473.799 459.773C473.799 462.873 476.309 465.385 479.405 465.385Z" fill="#3F3D56"/>
<path d="M495.173 465.385C498.269 465.385 500.779 462.873 500.779 459.773C500.779 456.674 498.269 454.162 495.173 454.162C492.076 454.162 489.566 456.674 489.566 459.773C489.566 462.873 492.076 465.385 495.173 465.385Z" fill="#F2F2F2"/>
<path d="M510.94 465.385C514.036 465.385 516.546 462.873 516.546 459.773C516.546 456.674 514.036 454.162 510.94 454.162C507.844 454.162 505.334 456.674 505.334 459.773C505.334 462.873 507.844 465.385 510.94 465.385Z" fill="#FF6584"/>
<path d="M495.172 440.132C496.72 440.132 497.975 438.876 497.975 437.327C497.975 435.777 496.72 434.521 495.172 434.521C493.624 434.521 492.369 435.777 492.369 437.327C492.369 438.876 493.624 440.132 495.172 440.132Z" fill="#3F3D56"/>
<path d="M429.887 414.97H366.531V475.297H429.887V414.97Z" fill="#D0CDE1"/>
<path d="M422.687 422.177H373.73V459.652H422.687V422.177Z" fill="#6C63FF"/>
<path d="M394.95 457.192C401.515 457.192 406.836 451.865 406.836 445.294C406.836 438.723 401.515 433.396 394.95 433.396C388.386 433.396 383.064 438.723 383.064 445.294C383.064 451.865 388.386 457.192 394.95 457.192Z" fill="#F2F2F2"/>
<path d="M398.453 454.471C395.506 454.471 392.624 453.596 390.174 451.957C387.723 450.318 385.813 447.988 384.685 445.263C383.557 442.537 383.262 439.538 383.837 436.644C384.412 433.75 385.831 431.092 387.916 429.006C390 426.92 392.655 425.499 395.546 424.924C398.436 424.348 401.433 424.643 404.156 425.772C406.879 426.901 409.206 428.813 410.844 431.267C412.481 433.72 413.355 436.604 413.355 439.554C413.351 443.509 411.779 447.301 408.986 450.097C406.192 452.894 402.404 454.467 398.453 454.471ZM398.453 425.179C395.613 425.179 392.836 426.022 390.475 427.602C388.113 429.181 386.273 431.426 385.186 434.053C384.099 436.68 383.815 439.57 384.369 442.358C384.923 445.147 386.29 447.708 388.299 449.719C390.307 451.729 392.866 453.098 395.651 453.653C398.437 454.207 401.324 453.923 403.949 452.835C406.573 451.747 408.815 449.904 410.393 447.54C411.971 445.176 412.813 442.397 412.813 439.554C412.809 435.743 411.295 432.089 408.603 429.394C405.91 426.7 402.26 425.184 398.453 425.179Z" fill="#3F3D56"/>
<path d="M400.313 467.58H373.684V468.983H400.313V467.58Z" fill="#F2F2F2"/>
<path d="M410.824 463.372H373.684V464.775H410.824V463.372Z" fill="#F2F2F2"/>
<path d="M398.209 421.283C399.757 421.283 401.012 420.027 401.012 418.478C401.012 416.928 399.757 415.672 398.209 415.672C396.661 415.672 395.406 416.928 395.406 418.478C395.406 420.027 396.661 421.283 398.209 421.283Z" fill="#3F3D56"/>
<path d="M360.254 345.735H296.898V406.061H360.254V345.735Z" fill="#D0CDE1"/>
<path d="M353.055 352.942H304.098V390.417H353.055V352.942Z" fill="#6C63FF"/>
<path d="M333.841 382.279H323.309V385.403H333.841V382.279Z" fill="#3F3D56"/>
<path d="M346.575 357.955H310.578V359.294H346.575V357.955Z" fill="#3F3D56"/>
<path d="M346.575 362.195H310.578V363.534H346.575V362.195Z" fill="#3F3D56"/>
<path d="M346.575 366.435H310.578V367.774H346.575V366.435Z" fill="#3F3D56"/>
<path d="M346.575 370.675H310.578V372.014H346.575V370.675Z" fill="#3F3D56"/>
<path d="M346.575 374.915H310.578V376.254H346.575V374.915Z" fill="#3F3D56"/>
<path d="M330.678 394.136H304.049V395.539H330.678V394.136Z" fill="#F2F2F2"/>
<path d="M341.19 397.644H304.049V399.047H341.19V397.644Z" fill="#F2F2F2"/>
<path d="M328.577 352.048C330.125 352.048 331.38 350.792 331.38 349.242C331.38 347.693 330.125 346.437 328.577 346.437C327.028 346.437 325.773 347.693 325.773 349.242C325.773 350.792 327.028 352.048 328.577 352.048Z" fill="#3F3D56"/>
<path d="M554.379 385.145L600.263 388.519L613.239 389.474L612.433 388.667L614.87 423.951L616.089 441.593C616.138 442.306 616.188 443.019 616.236 443.732C616.276 444.324 616.439 444.895 615.738 445.042C614.343 445.333 612.891 445.454 611.478 445.632C608.607 445.995 605.728 446.3 602.844 446.548C591.302 447.54 579.7 447.612 568.147 446.766C565.26 446.554 562.379 446.285 559.502 445.958C558.432 445.836 557.104 445.791 556.713 444.59C556.31 443.351 556.241 441.944 556.059 440.659C555.248 434.935 554.695 429.182 554.401 423.4C553.801 411.876 554.209 400.321 555.62 388.868C555.793 387.465 555.982 386.065 556.186 384.667C556.334 383.651 554.782 383.213 554.632 384.238C552.9 396.073 552.234 408.041 552.642 419.996C552.85 425.977 553.328 431.94 554.076 437.886C554.266 439.388 554.471 440.887 554.693 442.385C554.87 443.576 554.914 444.982 555.622 446.005C556.306 446.993 557.453 447.31 558.581 447.461C560.017 447.652 561.462 447.79 562.904 447.93C574.87 449.098 586.913 449.277 598.908 448.463C601.928 448.259 604.942 447.991 607.951 447.661C609.433 447.499 610.913 447.321 612.392 447.128C613.116 447.033 613.839 446.936 614.562 446.835C615.237 446.787 615.905 446.67 616.556 446.487C617.914 445.997 617.914 444.686 617.829 443.464L617.515 438.92L616.888 429.832L614.359 393.211L614.045 388.667C614.039 388.455 613.952 388.253 613.802 388.103C613.652 387.953 613.451 387.866 613.239 387.86L567.355 384.486L554.379 383.531C553.345 383.455 553.349 385.069 554.379 385.145V385.145Z" fill="#D0CDE1"/>
<path d="M574.042 404.189C574.274 403.573 573.691 404.899 573.984 404.313C574.062 404.157 574.134 403.999 574.217 403.845C574.381 403.54 574.563 403.244 574.762 402.96C574.959 402.676 575.26 402.567 574.675 403.06C574.796 402.936 574.909 402.804 575.014 402.666C575.287 402.367 575.578 402.084 575.886 401.82C576.107 401.631 576.525 401.469 575.777 401.889C575.925 401.806 576.062 401.682 576.203 401.587C576.493 401.392 576.792 401.211 577.1 401.045C577.254 400.962 577.41 400.883 577.568 400.807C577.836 400.679 578.282 400.635 577.438 400.851C577.801 400.758 578.151 400.587 578.513 400.484C578.821 400.396 579.132 400.323 579.447 400.263C579.728 400.21 580.238 400.25 579.278 400.272C579.45 400.268 579.625 400.235 579.797 400.224C580.143 400.2 580.49 400.195 580.837 400.208C581.01 400.215 581.182 400.232 581.355 400.242C581.93 400.277 580.486 400.082 581.355 400.248C581.696 400.313 582.033 400.398 582.364 400.503C582.524 400.572 582.689 400.63 582.858 400.676L582.412 400.484C582.521 400.532 582.629 400.581 582.737 400.633C583.056 400.788 583.367 400.962 583.666 401.153C583.815 401.249 583.957 401.352 584.103 401.452C584.562 401.764 583.488 400.926 584.139 401.497C584.36 401.691 584.571 401.894 584.774 402.107C584.896 402.235 585.014 402.366 585.129 402.5C585.322 402.725 585.47 403.137 585.067 402.399C585.436 403.075 585.898 403.687 586.245 404.384C586.542 404.978 585.975 403.646 586.2 404.271C586.261 404.44 586.326 404.607 586.384 404.777C586.498 405.116 586.597 405.461 586.68 405.811C586.764 406.161 586.804 406.518 586.881 406.868C586.67 405.904 586.824 406.462 586.845 406.724C586.864 406.962 586.876 407.201 586.88 407.44C586.884 407.738 586.877 408.037 586.858 408.335C586.847 408.51 586.807 408.695 586.81 408.87C586.798 407.964 586.875 408.415 586.819 408.719C586.754 409.071 586.67 409.419 586.569 409.763C586.518 409.934 586.462 410.105 586.402 410.274C586.348 410.423 586.292 410.572 586.232 410.72C586.405 410.316 586.419 410.277 586.274 410.605C585.384 412.386 584.275 414.048 583.399 415.836C581.228 420.294 580.497 425.319 581.31 430.211C581.533 431.023 582.065 431.715 582.791 432.14C583.544 432.571 584.436 432.688 585.274 432.465C587.091 431.876 587.805 430.289 587.526 428.496C587.427 427.865 587.577 429.059 587.513 428.423C587.485 428.151 587.457 427.878 587.438 427.605C587.4 427.058 587.384 426.511 587.391 425.963C587.397 425.493 587.42 425.024 587.459 424.556C587.46 424.281 587.488 424.007 587.544 423.738C587.543 423.74 587.44 424.387 587.51 424.014C587.539 423.861 587.56 423.705 587.587 423.551C587.772 422.51 588.04 421.486 588.387 420.488C588.465 420.266 588.549 420.047 588.631 419.827C588.846 419.245 588.407 420.293 588.667 419.731C588.899 419.229 589.139 418.734 589.403 418.248C590.513 416.207 591.768 414.296 592.576 412.101C593.193 410.38 593.437 408.547 593.291 406.724C592.992 402.961 591.399 399.143 588.428 396.707C586.893 395.428 585.078 394.529 583.131 394.085C581.183 393.641 579.159 393.664 577.222 394.151C575.096 394.665 573.128 395.693 571.491 397.143C569.853 398.594 568.595 400.424 567.826 402.474C567.231 404.056 568.487 406.08 570.078 406.442C571.911 406.86 573.405 405.883 574.042 404.189V404.189Z" fill="#D0CDE1"/>
<path d="M585.304 442.628C585.834 442.628 586.352 442.47 586.793 442.176C587.233 441.881 587.577 441.462 587.779 440.972C587.982 440.482 588.035 439.943 587.932 439.423C587.828 438.903 587.573 438.425 587.199 438.05C586.824 437.675 586.347 437.419 585.827 437.316C585.307 437.212 584.768 437.265 584.279 437.468C583.789 437.671 583.371 438.015 583.077 438.456C582.782 438.897 582.625 439.416 582.625 439.946C582.633 440.655 582.918 441.332 583.418 441.834C583.919 442.335 584.596 442.62 585.304 442.628Z" fill="#D0CDE1"/>
<path d="M294.809 536.435H279.768V551.491H294.809V536.435Z" fill="#6C63FF"/>
<path d="M303.94 542.887H285.676V524.605H303.94V542.887ZM286.47 542.093H303.146V525.4H286.47V542.093Z" fill="#3F3D56"/>
<path d="M638.602 372.631L635.73 381.257C635.73 381.257 617.777 402.104 630.703 404.979C643.629 407.854 645.065 382.695 645.065 382.695L648.656 375.507L638.602 372.631Z" fill="#FFB8B8"/>
<path d="M658.709 268.4C658.709 268.4 654.4 267.681 652.964 284.933C651.528 302.185 650.81 332.376 650.81 332.376L634.293 374.788L655.118 381.257L665.172 333.095L658.709 268.4Z" fill="#575A89"/>
<path d="M649.373 525.025L647.219 538.683H666.608L665.89 525.025H649.373Z" fill="#FFB8B8"/>
<path d="M711.851 540.121L710.414 558.81L723.34 560.248V538.683L711.851 540.121Z" fill="#FFB8B8"/>
<path d="M657.275 346.753L640.758 441.64L645.067 527.9H667.328V449.547L688.872 409.292L706.107 459.611L710.416 543.715L734.832 539.402L729.087 457.454C729.087 457.454 724.778 348.191 720.469 346.753C716.161 345.315 657.275 346.753 657.275 346.753Z" fill="#2F2E41"/>
<path d="M651.528 534.37C651.528 534.37 651.528 527.181 645.783 531.494C640.038 535.807 632.857 543.715 632.857 543.715C632.857 543.715 605.569 558.81 624.958 560.967C644.347 563.123 656.555 550.903 656.555 550.903L658.709 553.06C658.709 553.06 670.199 550.903 670.199 548.028C670.116 545.618 669.876 543.217 669.481 540.839C669.481 540.839 667.971 528.646 666.213 531.149C664.454 533.651 654.401 538.683 651.528 534.37Z" fill="#2F2E41"/>
<path d="M724.059 554.497C724.059 554.497 711.133 548.028 708.261 553.778C705.388 559.529 703.234 571.031 703.234 571.031C703.234 571.031 693.898 589.001 710.415 587.564C726.932 586.126 726.214 576.781 726.214 574.625C726.214 572.468 725.496 567.436 726.214 565.28C726.932 563.123 724.059 554.497 724.059 554.497Z" fill="#2F2E41"/>
<path d="M695.693 240.006C706.798 240.006 715.801 230.994 715.801 219.878C715.801 208.762 706.798 199.751 695.693 199.751C684.588 199.751 675.586 208.762 675.586 219.878C675.586 230.994 684.588 240.006 695.693 240.006Z" fill="#FFB8B8"/>
<path d="M682.408 229.582L681.689 255.46L707.542 253.304V229.582H682.408Z" fill="#FFB8B8"/>
<path d="M708.977 240.365C708.977 240.365 696.769 248.272 693.179 249.71C689.588 251.148 681.689 243.959 681.689 243.959C681.689 243.959 679.534 245.397 679.534 246.835C679.534 248.272 678.098 254.023 678.098 254.023L660.863 310.811L662.3 351.066C662.3 351.066 714.722 356.098 720.467 349.628C726.212 343.159 717.595 250.429 717.595 250.429L708.977 240.365Z" fill="#D0CDE1"/>
<path opacity="0.1" d="M705.388 255.461C705.388 255.461 685.998 262.649 679.535 256.179C679.535 256.179 688.871 258.336 705.388 255.461Z" fill="black"/>
<path d="M756.374 411.448C748.475 416.48 722.623 422.95 722.623 422.95C722.623 422.95 719.8 362.1 709.696 352.504C699.65 342.95 683.248 274.079 697.998 262.103C698.064 262.041 698.134 261.983 698.206 261.93L707.542 240.365C707.542 240.365 708.978 238.208 711.851 241.084C714.174 243.576 716.333 246.218 718.314 248.991L718.723 249.156L738.421 256.898L730.522 292.121C730.522 292.121 764.274 406.417 756.374 411.448Z" fill="#575A89"/>
<path opacity="0.1" d="M718.723 249.156L713.287 269.119L697.998 262.103C698.064 262.041 698.133 261.983 698.206 261.93L707.542 240.365C707.542 240.365 708.978 238.208 711.851 241.084C714.174 243.576 716.333 246.218 718.314 248.991L718.723 249.156Z" fill="black"/>
<path d="M681.331 243.6L679.176 268.04L679.062 269.154L662.66 425.466C662.66 425.466 648.297 420.434 643.27 414.683C638.244 408.933 654.76 344.956 654.76 344.956L656.197 264.446C656.197 264.446 668.936 255.468 674.142 250.537C675.363 249.386 676.168 248.459 676.304 247.913C677.022 245.037 681.331 243.6 681.331 243.6Z" fill="#575A89"/>
<path opacity="0.1" d="M681.331 243.6L679.176 268.04L679.062 269.154L668.764 267.681L674.142 250.537C675.363 249.386 676.168 248.459 676.304 247.913C677.022 245.037 681.331 243.6 681.331 243.6Z" fill="black"/>
<path d="M719.751 364.724L711.852 371.912C711.852 371.912 715.442 387.008 719.751 387.727C719.751 387.727 722.623 383.414 723.342 379.82C724.06 376.225 730.523 372.631 730.523 372.631L719.751 364.724Z" fill="#FFB8B8"/>
<path d="M729.086 255.461L738.421 256.898C738.421 256.898 769.301 309.373 765.71 328.063C762.119 346.753 733.394 379.101 733.394 379.101L715.441 364.724L742.012 328.782L728.368 285.652L729.086 255.461Z" fill="#575A89"/>
<path d="M675.539 222.139C675.539 222.139 675.539 204.389 679.848 200.354H685.019C685.019 200.354 691.052 191.479 698.809 194.707C706.565 197.934 719.493 203.582 718.631 212.457C717.769 221.332 715.081 227.067 715.081 227.067C715.081 227.067 713.645 227.067 710.444 222.242C706.166 215.795 716.045 217.804 703.118 215.384C690.19 212.963 682.434 209.736 680.71 212.963C678.987 216.191 675.539 222.139 675.539 222.139Z" fill="#2F2E41"/>
<path d="M684.936 201.559C684.936 201.559 685.624 196.371 688.459 195.254L684.936 201.559Z" fill="#2F2E41"/>
<path d="M684.924 202.626C684.924 202.626 683.485 197.595 685.639 195.437L684.924 202.626Z" fill="#2F2E41"/>
<path d="M228.983 215.887C221.642 220.305 208.563 225.842 195.197 220.152L186.557 216.474L203.871 196.996C190.054 181.708 182.411 161.801 182.432 141.162C182.453 120.523 190.137 100.632 203.985 85.3722C217.832 70.1124 236.849 60.579 257.323 58.6327C277.798 56.6863 298.26 62.4668 314.717 74.8459C331.173 87.2249 342.442 105.314 346.324 125.582C350.206 145.85 346.423 166.843 335.713 184.463C325.003 202.083 308.134 215.065 288.4 220.875C268.665 226.685 247.482 224.907 228.983 215.887ZM195.81 141.115C195.772 150.63 197.696 160.049 201.461 168.781C205.226 177.513 210.751 185.368 217.688 191.853L222.464 196.357L211.569 208.614C217.244 207.458 222.187 204.377 224.693 202.588L228.132 200.132L231.831 202.172C242.055 207.789 253.523 210.733 265.179 210.732C303.43 210.732 334.549 179.502 334.549 141.115C334.549 102.729 303.43 71.499 265.179 71.499C226.929 71.499 195.81 102.729 195.81 141.115V141.115Z" fill="#3F3D56"/>
<path d="M189.084 141.116C189.084 98.9397 223.153 64.7495 265.179 64.7495C307.205 64.7495 341.274 98.9397 341.274 141.116C341.274 183.291 307.205 217.481 265.179 217.481C252.389 217.5 239.802 214.269 228.592 208.087C223.332 211.843 210.5 219.335 197.823 213.938L213.082 196.772C205.497 189.639 199.452 181.019 195.324 171.445C191.196 161.871 189.072 151.547 189.084 141.116Z" fill="#3D58B0"/>
<path opacity="0.1" d="M328.311 141.281C328.311 101.38 297.817 68.6327 258.941 65.2153C261.158 65.0204 263.4 64.915 265.667 64.915C307.693 64.915 341.762 99.1052 341.762 141.281C341.762 183.457 307.693 217.647 265.667 217.647C263.403 217.647 261.165 217.54 258.952 217.346C297.822 213.923 328.311 181.178 328.311 141.281Z" fill="black"/>
<path d="M89.8268 321.975C70.813 321.984 52.3739 315.434 37.5997 303.423C22.8254 291.412 12.6138 274.67 8.67631 256.002C4.73876 237.334 7.31453 217.875 15.9719 200.887C24.6293 183.898 38.8423 170.412 56.2288 162.688C73.6153 154.965 93.1189 153.473 111.471 158.463C129.823 163.454 145.908 174.623 157.031 190.099C168.153 205.575 173.638 224.417 172.564 243.468C171.491 262.519 163.925 280.621 151.135 294.74L168.449 314.218L159.809 317.896C146.443 323.586 133.364 318.05 126.022 313.631C114.74 319.12 102.365 321.973 89.8268 321.975ZM89.8268 169.243C51.5764 169.243 20.4573 200.473 20.4573 238.86C20.4573 277.247 51.5764 308.476 89.8268 308.476C101.483 308.477 112.951 305.534 123.175 299.916L126.874 297.876L130.313 300.332C132.819 302.121 137.762 305.202 143.437 306.358L132.542 294.102L137.318 289.598C144.255 283.113 149.78 275.257 153.545 266.525C157.31 257.793 159.234 248.374 159.196 238.86C159.196 200.473 128.077 169.243 89.8268 169.243Z" fill="#3F3D56"/>
<path d="M165.922 238.86C165.922 196.684 131.853 162.494 89.8274 162.494C47.8013 162.494 13.7324 196.684 13.7324 238.86C13.7324 281.036 47.8013 315.226 89.8274 315.226C102.618 315.244 115.205 312.013 126.415 305.832C131.675 309.588 144.507 317.079 157.184 311.683L141.924 294.516C149.51 287.384 155.554 278.763 159.682 269.189C163.81 259.615 165.934 249.292 165.922 238.86Z" fill="#3D58B0"/>
<path opacity="0.1" d="M27.1836 238.474C27.1836 198.573 57.6778 165.826 96.553 162.408C94.3364 162.214 92.0943 162.108 89.8274 162.108C47.8013 162.108 13.7324 196.298 13.7324 238.474C13.7324 280.65 47.8013 314.84 89.8274 314.84C92.0909 314.84 94.3291 314.733 96.5423 314.539C57.6723 311.116 27.1836 278.371 27.1836 238.474Z" fill="black"/>
<path d="M283.043 116.854C278.065 108.412 268.214 108.018 268.214 108.018C268.214 108.018 258.616 106.786 252.459 119.644C246.72 131.629 238.799 143.201 251.184 146.006L253.421 139.019L254.806 146.527C256.569 146.654 258.338 146.684 260.105 146.617C273.368 146.188 285.999 146.743 285.592 141.967C285.051 135.618 287.834 124.977 283.043 116.854Z" fill="#2F2E41"/>
<path d="M250.477 190.789C250.331 191.718 250.119 192.635 249.842 193.533C249.531 194.412 249.05 195.225 248.765 196.114C247.857 198.945 249.116 202.102 251.126 204.287C252.87 206.175 255.12 207.516 257.606 208.149C259.436 208.542 261.303 208.739 263.175 208.736C268.35 208.912 273.659 209.07 278.563 207.401C280.113 206.86 281.61 206.178 283.034 205.362C283.484 205.147 283.881 204.834 284.195 204.446C284.523 203.877 284.669 203.22 284.613 202.565C284.602 200.363 284.157 198.172 284.263 195.973C284.321 194.755 284.549 193.537 284.437 192.323C284.282 190.944 283.706 189.646 282.788 188.608C281.87 187.569 280.655 186.841 279.309 186.523C277.918 186.223 276.475 186.386 275.058 186.523C271.382 186.877 267.689 187.043 263.996 187.019C260.222 186.995 256.472 186.417 252.716 186.357C251.606 186.339 251.628 186.682 251.275 187.761C250.949 188.754 250.683 189.765 250.477 190.789Z" fill="#2F2E41"/>
<path d="M261.186 136.418C261.005 137.371 260.809 138.359 260.238 139.142C259.581 140.043 258.511 140.558 257.805 141.421C256.741 142.718 256.68 144.545 256.676 146.225C256.672 147.773 256.703 149.424 257.563 150.709C258.176 151.507 258.935 152.179 259.801 152.688C263.026 154.87 266.512 157.09 270.401 157.162C272.012 157.192 273.74 156.774 274.8 155.556C275.258 154.984 275.618 154.34 275.865 153.649C276.859 151.19 277.462 148.588 277.651 145.94C277.794 144.695 277.679 143.434 277.311 142.237C276.839 140.915 275.883 139.827 275.252 138.574C274.506 137.084 274.233 135.4 274.47 133.749C274.502 133.633 274.492 133.509 274.443 133.399C274.391 133.34 274.326 133.294 274.253 133.265C274.181 133.235 274.102 133.223 274.024 133.229L266.313 132.672C265.595 132.636 264.88 132.554 264.173 132.426C263.757 132.341 262.659 131.749 262.263 131.906C261.529 132.198 261.336 135.628 261.186 136.418Z" fill="#A0616A"/>
<path opacity="0.1" d="M261.186 136.66C261.005 137.613 260.809 138.601 260.238 139.384C259.581 140.285 258.511 140.8 257.805 141.662C256.741 142.96 256.68 144.786 256.676 146.467C256.672 148.014 256.703 149.665 257.563 150.95C258.176 151.748 258.935 152.42 259.801 152.93C263.026 155.111 266.512 157.332 270.401 157.404C272.012 157.434 273.74 157.016 274.8 155.798C275.258 155.226 275.618 154.581 275.865 153.891C276.859 151.431 277.462 148.83 277.651 146.182C277.794 144.937 277.679 143.676 277.311 142.478C276.839 141.157 275.883 140.069 275.252 138.816C274.506 137.325 274.233 135.641 274.47 133.99C274.502 133.874 274.492 133.751 274.443 133.641C274.391 133.582 274.326 133.536 274.253 133.506C274.181 133.477 274.102 133.465 274.024 133.471L266.313 132.914C265.595 132.878 264.88 132.796 264.173 132.668C263.757 132.583 262.659 131.99 262.263 132.148C261.529 132.44 261.336 135.87 261.186 136.66Z" fill="black"/>
<path d="M268.561 137.456C274.809 137.456 279.874 132.373 279.874 126.103C279.874 119.833 274.809 114.75 268.561 114.75C262.313 114.75 257.248 119.833 257.248 126.103C257.248 132.373 262.313 137.456 268.561 137.456Z" fill="#FBBEBE"/>
<path d="M262.773 151.531C263.332 152.181 264.006 152.721 264.76 153.125C265.547 153.451 266.392 153.612 267.243 153.599C269.282 153.657 271.493 153.282 272.911 151.81C274.74 149.914 274.68 146.855 276.113 144.642C276.229 144.442 276.386 144.269 276.575 144.135C276.815 144.004 277.087 143.941 277.361 143.954C279.171 143.937 280.748 145.115 282.171 146.238C282.841 146.701 283.416 147.288 283.864 147.969C284.146 148.52 284.338 149.112 284.435 149.724C285.141 153.184 285.37 156.721 285.597 160.246C285.722 162.192 285.848 164.141 285.839 166.092C285.808 172.518 284.319 178.837 282.839 185.09C282.649 185.896 282.387 186.796 281.657 187.182C281.332 187.329 280.982 187.415 280.626 187.435C276.387 187.935 272.138 188.435 267.87 188.501C266.204 188.527 264.54 188.486 262.875 188.379C262.589 188.376 262.305 188.326 262.034 188.232C261.666 188.055 261.35 187.786 261.117 187.451C258.808 184.531 258.672 180.494 258.686 176.767C258.723 167.654 259.047 158.549 259.66 149.451C259.71 148.7 259.721 147.788 259.182 147.197C260.232 148.758 261.435 150.211 262.773 151.531Z" fill="white"/>
<path d="M260.377 138.422C259.995 139.117 257.178 140.84 256.634 141.415C253.596 144.63 248.05 144.509 245.271 147.952C244.293 149.163 243.785 150.685 243.412 152.198C242.883 154.338 242.601 156.672 243.486 158.689C244.338 160.631 246.131 161.973 247.348 163.707C248.685 165.612 249.286 167.924 249.862 170.18C250.287 171.846 250.716 173.554 250.55 175.265C250.362 177.212 249.423 178.994 248.869 180.868C248.315 182.743 248.219 184.976 249.501 186.449C250.442 187.531 251.918 187.961 253.329 188.202C255.137 188.474 256.959 188.634 258.786 188.679C260.4 188.75 262.178 188.764 263.418 187.726C264.396 186.907 264.822 185.579 264.877 184.301C264.932 183.024 264.667 181.758 264.501 180.49C264.329 179.176 264.263 177.85 264.208 176.526C263.959 170.584 263.926 164.638 264.106 158.689C264.197 157.452 264.136 156.209 263.926 154.987C263.58 153.396 262.723 151.973 262.008 150.511C260.578 147.757 259.931 144.661 260.136 141.563C260.353 138.378 261.737 135.952 260.377 138.422Z" fill="white"/>
<path d="M276.264 138.664C276.846 139.264 278.823 139.462 279.563 139.849C280.26 140.172 280.986 140.424 281.733 140.602C284.433 141.384 287.002 142.567 289.353 144.112C289.842 144.399 290.274 144.774 290.628 145.217C291 145.826 291.241 146.507 291.332 147.215C291.695 149.017 292.059 150.841 291.978 152.677C291.891 154.627 291.306 156.515 290.726 158.377L288.557 165.336C286.938 170.531 285.308 175.776 284.853 181.2C284.601 184.206 284.713 187.231 285.186 190.21C285.231 190.355 285.244 190.507 285.225 190.658C285.207 190.808 285.156 190.953 285.077 191.082C284.934 191.224 284.746 191.311 284.546 191.328C283.499 191.492 282.486 190.956 281.537 190.482C278.638 189.034 275.545 188.019 272.354 187.467C273.6 185.658 274.563 183.668 275.206 181.565C275.571 180.23 275.859 178.875 276.068 177.507L277.077 171.65C277.487 169.51 277.776 167.347 277.942 165.174C278.019 164.358 277.971 163.536 277.802 162.734C277.569 161.972 277.261 161.234 276.88 160.534C275.218 157.063 274.437 153.101 275.092 149.306C275.378 147.645 275.934 145.982 275.702 144.313C275.479 142.708 275.711 141.46 275.301 139.872C273.616 133.35 275.169 137.535 276.264 138.664Z" fill="white"/>
<path d="M245.241 153.44C244.483 155.019 243.216 156.364 242.785 158.062C242.617 158.856 242.545 159.667 242.57 160.478C242.496 161.7 242.616 162.926 242.927 164.11C243.168 164.859 243.56 165.549 243.842 166.284C244.235 167.309 244.411 168.406 244.357 169.504C244.28 171.025 243.766 172.501 243.725 174.023C243.662 176.417 244.765 178.667 245.842 180.804C246.113 180.13 246.527 179.525 247.056 179.029C247.584 178.533 248.214 178.159 248.902 177.933C249.59 177.707 250.318 177.635 251.037 177.721C251.755 177.807 252.446 178.05 253.062 178.432C253.308 178.128 253.425 177.739 253.387 177.349C253.467 174.572 253.543 171.794 253.617 169.017C253.734 164.722 253.845 160.37 252.86 156.188C252.416 154.3 251.724 152.42 250.456 150.955C249.789 150.184 247.522 148.153 246.426 149.017C245.933 149.405 246.048 150.463 245.97 150.998C245.853 151.845 245.607 152.668 245.241 153.44Z" fill="white"/>
<path d="M292.2 148.89C292.505 150.029 292.635 151.207 292.587 152.385C292.601 154.786 292.57 157.186 292.492 159.586C292.504 160.817 292.347 162.044 292.026 163.232C291.781 164.004 291.403 164.729 291.15 165.499C290.393 167.806 290.807 170.309 290.871 172.738C290.917 173.524 290.851 174.313 290.673 175.08C290.273 176.586 289.198 177.802 288.448 179.166C287.736 180.462 287.306 181.915 286.455 183.123C285.605 184.332 284.132 185.29 282.704 184.919C281.623 184.638 280.854 183.677 280.323 182.691C279.163 180.522 278.766 178.024 279.197 175.601C279.73 172.654 281.456 170.038 282.078 167.108C282.933 163.084 281.634 158.932 281.673 154.818C281.655 154.173 281.742 153.529 281.931 152.912C282.257 151.973 282.958 151.222 283.606 150.468C284.415 149.527 285.167 148.536 285.857 147.504C286.32 146.81 286.95 145.025 287.772 144.877C289.607 144.545 291.744 147.468 292.2 148.89Z" fill="white"/>
<path d="M235.72 189C234.705 188.744 233.659 188.632 232.614 188.668C231.515 188.729 230.442 189.024 229.465 189.534C228.489 190.043 227.632 190.755 226.951 191.623C226.27 192.491 225.781 193.494 225.517 194.566C225.252 195.638 225.218 196.754 225.416 197.84C225.67 199.017 226.084 200.153 226.647 201.215C227.471 202.893 228.459 204.567 229.984 205.642C230.903 206.233 231.892 206.706 232.929 207.049L240.96 210.085C242.142 210.532 243.324 210.979 244.517 211.393C250.512 213.472 256.762 214.719 263.093 215.099C265.02 215.28 266.963 215.181 268.861 214.806C269.32 214.746 269.741 214.518 270.043 214.165C270.196 213.898 270.286 213.598 270.306 213.29L270.801 209.818C270.911 209.335 270.897 208.831 270.759 208.354C270.532 207.771 269.965 207.404 269.424 207.092C264.143 204.048 257.978 202.369 253.533 198.192C252.487 197.208 251.611 195.65 250.34 194.982C248.898 194.224 247.201 193.792 245.711 193.094C242.453 191.568 239.25 189.814 235.72 189Z" fill="#2F2E41"/>
<path opacity="0.1" d="M243.737 193.681C246.576 194.574 258.562 200.759 260.616 202.918C260.341 203.018 250.998 197.763 250.717 197.678C248.148 196.97 245.631 196.08 243.186 195.015C242.699 194.789 240.023 193.727 240.145 193.11C240.281 192.415 243.233 193.522 243.737 193.681Z" fill="black"/>
<path d="M279.155 216.9C279.316 216.912 279.476 216.865 279.605 216.767C279.661 216.694 279.703 216.611 279.727 216.521C279.751 216.432 279.757 216.339 279.745 216.247L279.732 211.517C278.377 210.869 276.861 210.661 275.372 210.461L268.428 209.53C268.588 209.551 267.343 212.531 267.534 212.929C267.87 213.63 270.442 214.252 271.168 214.583C273.691 215.734 276.313 216.999 279.155 216.9Z" fill="#FBBEBE"/>
<path d="M257.369 211.5C256.058 211.71 254.595 211.895 253.746 212.919C252.669 214.218 253.127 216.154 253.641 217.764C253.672 217.971 253.745 218.17 253.854 218.349C253.964 218.529 254.108 218.684 254.278 218.806C254.448 218.928 254.641 219.015 254.845 219.061C255.049 219.107 255.261 219.111 255.467 219.074C256.662 219.15 257.935 219.21 258.98 218.621C259.453 218.307 259.908 217.967 260.344 217.603C261.115 217.089 261.961 216.7 262.853 216.452C264.492 215.934 266.18 215.586 267.889 215.41C268.563 215.38 269.23 215.262 269.873 215.059C270.195 214.955 270.488 214.779 270.73 214.542C270.972 214.306 271.157 214.017 271.27 213.698C271.512 212.838 271.014 211.962 270.537 211.208C269.987 210.221 269.273 209.335 268.425 208.589C267.131 207.58 266.491 208.354 265.188 209C262.721 210.222 260.086 211.064 257.369 211.5Z" fill="#FBBEBE"/>
<path d="M253.942 212.686L245.617 210.216C244.619 209.867 243.576 209.664 242.52 209.614C241.991 209.592 241.463 209.684 240.973 209.883C240.482 210.082 240.04 210.384 239.675 210.768C239.029 211.529 238.844 212.568 238.683 213.554L238.339 215.662C238.109 216.725 238.044 217.818 238.146 218.9C238.202 219.442 238.379 219.964 238.666 220.426C238.953 220.888 239.34 221.279 239.8 221.568C240.952 222.199 242.364 221.891 243.65 221.627C246.247 221.094 248.888 220.81 251.539 220.778C252.535 220.766 253.58 220.779 254.461 220.31C254.972 220.006 255.401 219.581 255.711 219.073C256.022 218.565 256.203 217.988 256.241 217.393C256.405 215.591 255.807 213.239 253.942 212.686Z" fill="#2F2E41"/>
<path d="M282.427 210.534C283.506 210.344 284.458 209.728 285.493 209.365C286.948 208.854 288.525 208.854 290.068 208.859C290.635 208.807 291.204 208.922 291.708 209.189C292.387 209.643 292.561 210.551 292.677 211.362L293.374 216.253C293.56 217.166 293.579 218.105 293.43 219.024C293.226 219.931 292.61 220.805 291.714 221.039C290.626 221.323 289.558 220.625 288.531 220.166C285.962 219.02 282.975 219.313 280.297 218.457C280.041 218.405 279.798 218.3 279.586 218.147C279.374 217.995 279.196 217.799 279.064 217.573C278.973 217.301 278.94 217.013 278.969 216.727C279.014 215.155 278.684 213.008 279.156 211.505C279.58 210.154 281.222 210.534 282.427 210.534Z" fill="#2F2E41"/>
<path d="M300.045 187.031C301.708 186.612 303.432 186.494 305.137 186.682C306.499 186.832 307.901 187.213 308.895 188.158C310.105 189.309 310.494 191.089 310.526 192.762C310.579 196.094 309.478 199.34 307.411 201.948C306.906 202.607 306.306 203.187 305.63 203.668C304.901 204.126 304.124 204.502 303.313 204.789L285.326 211.909C280.594 213.782 275.845 215.66 270.91 216.895C270.775 216.96 270.628 216.998 270.479 217.006C270.329 217.013 270.179 216.991 270.038 216.94C269.897 216.888 269.768 216.809 269.658 216.707C269.548 216.605 269.46 216.482 269.398 216.345C267.822 214.086 266.5 211.659 265.456 209.108C265.406 209.047 265.372 208.976 265.356 208.899C265.34 208.822 265.343 208.743 265.364 208.667C265.385 208.592 265.424 208.523 265.477 208.466C265.53 208.408 265.597 208.365 265.67 208.339L278.393 201.003C279.326 200.515 280.195 199.913 280.982 199.213C281.532 198.678 281.982 198.049 282.312 197.355C282.575 196.802 282.6 195.498 282.937 195.089C283.267 194.689 284.395 194.657 284.916 194.5C285.651 194.274 286.37 194.001 287.07 193.683C289.916 192.405 292.45 190.549 295.179 189.053C296.709 188.175 298.344 187.495 300.045 187.031Z" fill="#2F2E41"/>
<path opacity="0.1" d="M292.833 192.509C290.647 194.157 287.817 195.671 285.651 197.362C284.911 197.939 272.586 204.893 272.412 205.817C274.433 206.159 287.307 197.12 289.149 196.218C290.991 195.316 292.624 194.044 294.242 192.782C294.654 192.46 296.402 191.493 295.218 191.133C294.551 190.931 293.325 192.18 292.833 192.509Z" fill="black"/>
<path d="M277.793 138.823H258.607C257.827 138.823 257.08 139.134 256.528 139.687C255.977 140.241 255.667 140.991 255.667 141.773V142.853H255.459V145.269H255.667V146.96H255.459V148.409H255.667V166.232C255.667 167.015 255.977 167.765 256.528 168.318C257.08 168.871 257.827 169.182 258.607 169.182H277.793C278.573 169.182 279.32 168.871 279.872 168.318C280.423 167.765 280.732 167.015 280.732 166.232V141.773C280.732 140.991 280.423 140.241 279.872 139.687C279.32 139.134 278.573 138.823 277.793 138.823Z" fill="#D0CDE1"/>
<path d="M280.843 116.04L271.112 110.925L257.673 113.018L254.893 125.341L261.814 125.074L263.747 120.547V125L266.941 124.876L268.794 117.668L269.953 125.341L281.306 125.109L280.843 116.04Z" fill="#2F2E41"/>
<path d="M247.788 185.435C248.229 186.186 248.854 186.81 249.605 187.248C250.097 187.474 250.635 187.584 251.176 187.569C251.717 187.555 252.248 187.416 252.727 187.164C253.685 186.649 254.47 185.86 254.981 184.897C256.038 183.023 256.257 180.78 256.125 178.63C255.994 176.48 255.536 174.363 255.334 172.219C255.186 170.66 255.175 169.092 255.163 167.527C255.126 167.197 255.195 166.865 255.359 166.578C255.642 166.295 256.008 166.112 256.402 166.055C258.537 165.418 259.954 163.411 260.969 161.422C261.648 160.094 262.238 158.643 262.107 157.156C261.976 155.67 260.911 154.173 259.432 154.021C258.213 153.896 257.087 154.673 256.207 155.53C253.988 157.705 252.562 160.565 252.158 163.651C251.965 165.162 252.02 166.715 251.611 168.182C250.736 171.315 248 173.235 246.636 176.054C245.133 179.16 245.963 182.687 247.788 185.435Z" fill="#FBBEBE"/>
<path d="M288.055 173.467C287.744 174.193 287.291 174.85 286.722 175.398C286.154 175.946 285.482 176.374 284.747 176.657C283.832 177.025 282.823 177.087 281.871 176.834C281.398 176.702 280.962 176.463 280.597 176.135C280.232 175.807 279.947 175.399 279.764 174.942C279.618 174.483 279.538 174.004 279.527 173.522C279.39 171.409 279.443 169.232 280.207 167.259C280.502 166.498 280.9 165.777 281.133 164.994C281.361 164.091 281.478 163.162 281.481 162.23L281.732 156.466C281.774 156.047 281.745 155.625 281.647 155.216C281.396 154.382 280.62 153.84 279.907 153.342C278.186 152.141 276.485 150.74 275.651 148.809C275.364 148.228 275.262 147.573 275.357 146.932C275.592 145.787 276.743 145.046 277.881 144.796C278.625 144.633 279.395 144.623 280.143 144.766C280.891 144.909 281.603 145.203 282.236 145.629C282.868 146.056 283.408 146.606 283.823 147.248C284.237 147.889 284.518 148.608 284.649 149.362C284.761 150.012 284.76 150.677 284.825 151.334C284.965 152.727 285.406 154.07 285.682 155.443C286.361 158.825 286.009 162.321 286.681 165.702C287.242 168.529 289.36 170.373 288.055 173.467Z" fill="#FBBEBE"/>
<path d="M268.456 151.791C269.785 151.791 270.863 150.709 270.863 149.375C270.863 148.041 269.785 146.96 268.456 146.96C267.126 146.96 266.049 148.041 266.049 149.375C266.049 150.709 267.126 151.791 268.456 151.791Z" fill="#3D58B0"/>
<path d="M7.10034 236.191C11.0217 236.191 14.2007 233.001 14.2007 229.066C14.2007 225.13 11.0217 221.94 7.10034 221.94C3.17893 221.94 0 225.13 0 229.066C0 233.001 3.17893 236.191 7.10034 236.191Z" fill="#2F2E41"/>
<path d="M32.8378 250.22L29.2615 246.731L22.0801 248.969L22.7698 257.314L37.5358 256.626L32.9997 250.44L32.8378 250.22Z" fill="#FBBEBE"/>
<path d="M25.0164 250.148C31.3562 250.148 36.4957 244.99 36.4957 238.628C36.4957 232.265 31.3562 227.107 25.0164 227.107C18.6766 227.107 13.5371 232.265 13.5371 238.628C13.5371 244.99 18.6766 250.148 25.0164 250.148Z" fill="#FBBEBE"/>
<path d="M96.2813 265.006C96.2813 265.006 110.384 289.328 113.74 292.979C115.336 294.776 117.037 296.477 118.833 298.072C118.833 298.072 117.254 303.325 114.742 303.137C113.309 303.051 111.905 302.703 110.596 302.112C110.596 302.112 109.475 299.194 107.518 297.914C105.562 296.635 89.5782 280.854 89.9518 275.81C90.3253 270.767 96.2813 265.006 96.2813 265.006Z" fill="#2F2E41"/>
<path d="M46.0586 299.714C46.0586 299.714 61.0951 311.426 81.5302 300.421L83.2912 299.12C83.2912 299.12 80.3193 305.83 80.0435 307.649C79.7238 309.758 71.9863 322.114 70.7236 322.706C69.4609 323.297 69.1827 323.844 69.1827 323.844L74.541 329.762L76.5222 328.299C76.5222 328.299 84.2474 317.315 86.5068 315.306C88.7663 313.297 99.5314 292.575 99.5314 292.575C99.5314 292.575 103.647 284.768 93.3754 284.18C83.1036 283.593 78.3769 286.403 78.3769 286.403L60.147 289.309L46.0586 299.714Z" fill="#2F2E41"/>
<path d="M119.007 296.922L126.612 302.203C126.612 302.203 136.315 305.254 130.338 307.284C124.361 309.314 108.611 310.049 108.254 307.247C107.896 304.446 108.875 300.037 109.661 300.278C110.446 300.52 115.9 301.941 119.007 296.922Z" fill="#2F2E41"/>
<path d="M77.1949 326.485L78.6025 334.243C78.6025 334.243 82.6052 341.925 77.7993 339.541C72.9934 337.158 63.0919 328.103 64.554 326.205C66.0161 324.307 69.2432 322.248 69.5709 322.867C69.8987 323.485 72.3242 327.627 77.1949 326.485Z" fill="#2F2E41"/>
<path d="M62.6933 291.856C62.6933 291.856 52.4719 303.832 46.2663 300.923C40.0608 298.013 14.6725 264.318 17.5714 258.09C20.4704 251.862 21.4423 253.188 21.4423 253.188L34.5511 254.404L30.7794 248.335C30.7794 248.335 32.5404 247.035 34.2185 248.86C35.8967 250.686 42.634 255.246 44.9811 261.686C47.3281 268.126 54.2189 267.805 54.2189 267.805L62.6933 291.856Z" fill="white"/>
<path d="M103.97 267.161L86.2512 286.036L70.3789 257.912L85.4681 239.617L103.97 267.161Z" fill="#3F3D56"/>
<path d="M102.631 266.956L86.6284 283.543L72.127 257.983L85.426 241.18L102.631 266.956Z" fill="white"/>
<path d="M85.3841 285.315L86.2522 286.036L85.6955 287.128L60.9198 294.528L60.6855 293.676L61.8127 292.506L85.3841 285.315Z" fill="#B3B3B3"/>
<path d="M86.4714 285.873L60.8154 293.923L45.1758 264.266L70.3791 257.912L86.4714 285.873Z" fill="#D0CDE1"/>
<path d="M84.5398 281.851L83.4391 282.663L71.2227 261.376L72.4852 260.784L84.5398 281.851Z" fill="#3F3D56"/>
<path d="M82.0132 283.034L71.1602 286.282L58.8398 264.391L69.5767 261.91L82.0132 283.034Z" fill="#3F3D56"/>
<path d="M51.4395 266.792L53.6865 266.154C53.6865 266.154 66.2178 264.732 66.4007 268.684C66.5837 272.635 52.0045 270.802 52.0045 270.802L50.0605 268.151L51.4395 266.792Z" fill="#FBBEBE"/>
<path d="M62.4306 284.557L65.5582 283.269C65.5582 283.269 74.9991 279.021 72.2908 276.253C69.5825 273.485 61.2299 278.292 61.2299 278.292L59.6309 279.814L62.4306 284.557Z" fill="#FBBEBE"/>
<path d="M59.6423 278.442C59.6423 278.442 64.7348 283.536 63.576 284.732C62.4172 285.928 43.4154 301.665 38.705 296.63C33.9946 291.595 11.0449 266.314 19.975 264.147C28.9051 261.979 31.2646 267.047 31.2646 267.047L43.0533 287.288L59.6423 278.442Z" fill="white"/>
<path d="M44.3939 262.97L52.7592 265.816L52.6225 271.877L43.7754 270.919L44.3939 262.97Z" fill="white"/>
<path opacity="0.2" d="M51.9335 281.581L42.9206 286.876L32.623 270.982L42.5631 284.074L51.9335 281.581Z" fill="black"/>
<path d="M19.9783 249.003C27.5258 249.003 33.6442 242.862 33.6442 235.288C33.6442 227.714 27.5258 221.574 19.9783 221.574C12.4309 221.574 6.3125 227.714 6.3125 235.288C6.3125 242.862 12.4309 249.003 19.9783 249.003Z" fill="#2F2E41"/>
<path d="M93.8188 268.357L84.25 254.31L88.3063 249.27L98.2491 263.723L93.8188 268.357Z" fill="#3D58B0"/>
<path d="M93.548 274.005L78.9805 252.752L79.699 251.881L94.1984 273.184L93.548 274.005Z" fill="#E6E6E6"/>
<path d="M91.6711 276.073L77.1035 254.819L77.822 253.948L92.3215 275.252L91.6711 276.073Z" fill="#E6E6E6"/>
<path d="M90.0715 277.594L75.5039 256.341L76.2224 255.47L90.7218 276.774L90.0715 277.594Z" fill="#E6E6E6"/>
<path d="M26.0293 226.132H30.2568C32.3973 226.132 34.4501 226.985 35.9636 228.504C37.4772 230.023 38.3275 232.083 38.3275 234.231H26.0293V226.132Z" fill="#2F2E41"/>
<path d="M84.2632 220.978L83.4968 220.921C83.467 221.32 83.4458 221.723 83.4205 222.124L79.9805 222.008L83.5889 228.794L87.6415 222.266L84.1889 222.15C84.2136 221.759 84.2342 221.367 84.2632 220.978Z" fill="#3F3D56"/>
<path d="M104.439 165.664L105.05 166.132C105.967 164.927 106.924 163.725 107.896 162.557L107.306 162.063C106.327 163.239 105.363 164.45 104.439 165.664Z" fill="#3F3D56"/>
<path d="M110.328 158.592L110.896 159.113C111.915 157.992 112.974 156.879 114.042 155.804L113.498 155.259C112.422 156.342 111.355 157.463 110.328 158.592Z" fill="#3F3D56"/>
<path d="M116.811 152.07L117.33 152.638C118.446 151.61 119.597 150.595 120.753 149.621L120.258 149.03C119.094 150.012 117.934 151.035 116.811 152.07Z" fill="#3F3D56"/>
<path d="M99.1934 173.231L99.843 173.643C100.651 172.36 101.499 171.077 102.364 169.829L101.733 169.389C100.862 170.646 100.007 171.939 99.1934 173.231Z" fill="#3F3D56"/>
<path d="M123.834 146.146L124.302 146.758C125.503 145.833 126.739 144.923 127.974 144.056L127.534 143.424C126.289 144.298 125.044 145.214 123.834 146.146Z" fill="#3F3D56"/>
<path d="M94.6328 181.238L95.3163 181.59C96.0087 180.239 96.741 178.885 97.4925 177.566L96.8252 177.183C96.068 178.512 95.3303 179.876 94.6328 181.238Z" fill="#3F3D56"/>
<path d="M87.2191 202.95L86.4749 202.758C86.0951 204.238 85.7434 205.747 85.4297 207.244L86.1818 207.403C86.4933 205.917 86.8423 204.419 87.2191 202.95Z" fill="#3F3D56"/>
<path d="M131.35 140.868L131.762 141.519C133.036 140.705 134.346 139.909 135.655 139.153L135.272 138.484C133.953 139.247 132.633 140.049 131.35 140.868Z" fill="#3F3D56"/>
<path d="M85.3422 211.897L84.5837 211.772C84.3369 213.278 84.1202 214.812 83.9395 216.333L84.7028 216.424C84.882 214.915 85.0973 213.392 85.3422 211.897Z" fill="#3F3D56"/>
<path d="M90.7969 189.623L91.5088 189.913C92.0787 188.505 92.6884 187.091 93.3208 185.709L92.6224 185.387C91.9851 186.779 91.3709 188.205 90.7969 189.623Z" fill="#3F3D56"/>
<path d="M87.7168 198.323L88.452 198.548C88.8953 197.093 89.377 195.628 89.8838 194.196L89.1595 193.938C88.6489 195.381 88.1634 196.856 87.7168 198.323Z" fill="#3F3D56"/>
<path d="M183.343 125.493C184.85 125.441 186.384 125.42 187.902 125.434L187.908 124.663C186.38 124.649 184.834 124.67 183.316 124.722L183.343 125.493Z" fill="#3F3D56"/>
<path d="M139.293 136.278L139.647 136.963C140.989 136.265 142.363 135.588 143.731 134.952L143.408 134.253C142.03 134.893 140.645 135.575 139.293 136.278Z" fill="#3F3D56"/>
<path d="M201.531 126.455C203.031 126.668 204.544 126.917 206.029 127.196L206.17 126.438C204.674 126.157 203.15 125.906 201.639 125.691L201.531 126.455Z" fill="#3F3D56"/>
<path d="M210.49 128.137C211.962 128.482 213.448 128.866 214.905 129.277L215.113 128.534C213.645 128.12 212.148 127.734 210.665 127.386L210.49 128.137Z" fill="#3F3D56"/>
<path d="M219.264 130.613C220.699 131.088 222.144 131.602 223.559 132.142L223.832 131.421C222.407 130.877 220.951 130.359 219.505 129.88L219.264 130.613Z" fill="#3F3D56"/>
<path d="M192.459 125.575C193.973 125.654 195.502 125.769 197.005 125.914L197.079 125.147C195.565 125 194.024 124.884 192.5 124.804L192.459 125.575Z" fill="#3F3D56"/>
<path d="M174.166 125.444L174.26 126.21C175.758 126.025 177.283 125.871 178.793 125.752L178.733 124.982C177.211 125.102 175.675 125.258 174.166 125.444Z" fill="#3F3D56"/>
<path d="M156.236 129.303L156.464 130.04C157.908 129.591 159.382 129.169 160.845 128.785L160.651 128.039C159.177 128.425 157.692 128.851 156.236 129.303Z" fill="#3F3D56"/>
<path d="M147.607 132.413L147.899 133.127C149.297 132.552 150.724 132.001 152.142 131.489L151.882 130.764C150.454 131.278 149.015 131.834 147.607 132.413Z" fill="#3F3D56"/>
<path d="M165.115 126.973L165.276 127.727C166.753 127.41 168.258 127.12 169.751 126.868L169.624 126.107C168.12 126.362 166.603 126.653 165.115 126.973Z" fill="#3F3D56"/>
<path d="M235.026 136.911L230.73 130.541L229.22 133.661C228.855 133.497 228.491 133.33 228.126 133.171L227.82 133.879C228.177 134.034 228.53 134.196 228.884 134.355L227.381 137.46L235.026 136.911Z" fill="#3F3D56"/>
</svg>
