<svg xmlns="http://www.w3.org/2000/svg" xmlns:xlink="http://www.w3.org/1999/xlink" viewBox="0 0 511.87 512.02"><defs><style>.cls-1{fill:none;}.cls-2{clip-path:url(#clip-path);}.cls-3{fill:#4959a1;}.cls-3,.cls-4{fill-rule:evenodd;}.cls-4{fill:#fff;}</style><clipPath id="clip-path" transform="translate(-0.06)"><rect class="cls-1" y="0.01" width="512" height="512"/></clipPath></defs><title>logo</title><g id="Слой_2" data-name="Слой 2"><g id="Слой_1-2" data-name="Слой 1"><g class="cls-2"><path class="cls-3" d="M373.35,0h-277A38.13,38.13,0,0,0,58.83,31.17L2.64,333.72C-14.57,426.43,56.58,512,150.88,512H413.21a38.13,38.13,0,0,0,37.49-31.17l58.87-317C525.39,78.65,460,0,373.35,0" transform="translate(-0.06)"/><path class="cls-4" d="M353.28,225.34a82.12,82.12,0,0,1-17.49,37.8,80.74,80.74,0,0,1-33.42,24.05l31.86,78.72h-50.6L255.2,294.06H228L215.53,365.9a42,42,0,0,1-41.33-49.22L204,147.25h84.34q31.24,0,50.92,23.74,19.68,23.43,14.06,54.35" transform="translate(-0.06)"/><path class="cls-3" d="M283.82,190.19H249.46l-10,56.23h37.48a27,27,0,0,0,19.37-7.81,36.31,36.31,0,0,0,10.62-20.3q2.19-12.18-4.37-20-6.25-8.12-18.74-8.12" transform="translate(-0.06)"/></g></g></g></svg>