<svg width="137" height="42" viewBox="0 0 137 42" fill="none" xmlns="http://www.w3.org/2000/svg">
<path d="M5.2475 38.1697H122.555L131.753 3.79749H14.4447L5.2475 38.1697ZM125.77 41.9672H0L11.2299 0H137L125.77 41.9672Z" fill="#3D58B0"/>
<path d="M20.4399 20.2067H24.332C25.9159 20.2067 26.9487 19.5214 27.3631 17.8767C27.7603 16.3005 27.073 15.6152 25.4891 15.6152H21.597L20.4399 20.2067ZM18.7469 12.8284H27.4584C30.3549 12.8284 31.6756 14.8612 31.0537 17.3286C30.5702 19.2473 29.4381 20.6867 27.4667 21.4173L27.4551 21.4632C29.082 21.9201 29.1484 23.6332 28.8468 25.2779C28.6557 26.3063 28.1497 28.2253 28.5531 29.1387H25.0004C24.8295 28.1106 25.2719 26.5344 25.419 25.2325C25.6018 23.5194 25.1354 22.7651 23.3479 22.7651H19.7956L18.1894 29.1387H14.6367L18.7469 12.8284Z" fill="#3D58B0"/>
<path d="M46.2415 22.9711C45.1304 27.3801 42.0097 29.5273 37.6878 29.5273C33.3433 29.5273 31.3444 27.403 32.461 22.9711L35.0168 12.8284H38.5692L36.0137 22.9711C35.5646 24.7527 35.5737 26.512 38.4479 26.512C40.9818 26.512 42.0789 25.393 42.6888 22.9711L45.2446 12.8284H48.797L46.2415 22.9711Z" fill="#3D58B0"/>
<path d="M55.2523 29.1387H51.2472L50.1074 12.8284H53.7731L54.4812 24.296H54.5266L61.0591 12.8284H64.7251L55.2523 29.1387Z" fill="#3D58B0"/>
<path d="M66.106 12.8284H78.1892L77.4294 15.8439H68.8988L68.0181 19.3389H75.8473L75.1453 22.1257H67.3158L66.3086 26.1232H75.0204L74.2606 29.1387H61.9961L66.106 12.8284Z" fill="#3D58B0"/>
<path d="M80.7678 12.8284H84.2979L88.2838 23.7707H88.3289L91.0864 12.8284H94.4124L90.3025 29.1387H86.7499L82.7813 18.2195H82.7359L79.9845 29.1387H76.6582L80.7678 12.8284Z" fill="#3D58B0"/>
<path d="M100.35 15.8439H95.5078L96.2676 12.8284H109.505L108.745 15.8439H103.903L100.553 29.1387H97L100.35 15.8439Z" fill="#3D58B0"/>
<path d="M111.035 23.725C110.488 25.8952 111.95 26.7402 113.851 26.7402C115.095 26.7402 117.088 26.3749 117.508 24.7075C117.951 22.9484 115.605 22.6515 113.39 22.0116C111.153 21.3722 108.968 20.4354 109.739 17.3742C110.58 14.0392 114.105 12.4402 117.024 12.4402C120.395 12.4402 123.121 13.9249 122.172 17.6942H118.732C119.114 15.7295 117.861 15.2267 116.164 15.2267C115.032 15.2267 113.599 15.7067 113.253 17.0773C112.937 18.3338 113.666 18.4935 117.451 19.5444C118.553 19.8413 121.984 20.5953 121.052 24.2962C120.297 27.2887 117.402 29.5274 113.012 29.5274C109.437 29.5274 106.537 27.7455 107.596 23.725H111.035Z" fill="#3D58B0"/>
</svg>
