<?xml version="1.0" encoding="UTF-8"?> <svg xmlns="http://www.w3.org/2000/svg" id="Layer_1" data-name="Layer 1" viewBox="0 0 781.33 107.25"> <defs> <style>.cls-1{fill:#54b3aa;fill-rule:evenodd;}</style> </defs> <title>logo Biosmart</title> <path d="M172.49,55.28a13,13,0,0,0-2.67-2.45q-1.6-1.12-3.34-2.18a23.12,23.12,0,0,0,4.81-5.36,15.23,15.23,0,0,0,2.27-8.66V21.69a25.15,25.15,0,0,0-1.67-9.52,15,15,0,0,0-5.14-6.61h.13A32.86,32.86,0,0,0,159.47,2,23.36,23.36,0,0,0,152.06.66H113.35a10.75,10.75,0,0,0-5.94,1.59q-2.47,1.59-2.47,6.35v91.79q0,6.35,7.88,6.35a10.84,10.84,0,0,0,5.41-1.39,4.39,4.39,0,0,0,2.47-4L120.83,14h27.9q4.94,0,7,2.78a10,10,0,0,1,2.07,6.08V36.24q0,1.46-.13,2.91a5.59,5.59,0,0,1-.87,2.58,5.74,5.74,0,0,1-2.34,1.92,11.64,11.64,0,0,1-4.54.93,19.92,19.92,0,0,0-4.21-3.17A9.54,9.54,0,0,0,141,40.07a10.89,10.89,0,0,0-10.95,11A10.89,10.89,0,0,0,141,62a11.41,11.41,0,0,0,9.08-4.5q5.74.4,8,3.24a9.35,9.35,0,0,1,2.27,5.89v16.8a10.37,10.37,0,0,1-2,6.22q-2,2.78-6.94,2.78H133.11q-5.61,0-5.61,6.61a8.5,8.5,0,0,0,1.27,4.89,4,4,0,0,0,3.54,1.85h19.76a22.87,22.87,0,0,0,7.54-1.32,41.08,41.08,0,0,0,8.08-4q8.54-5.16,8.54-16V65.6a16,16,0,0,0-1-6A13.79,13.79,0,0,0,172.49,55.28ZM205.4,0q-7.88,0-7.88,6.35v93.77q0,6.35,7.88,6.35t8-6.35V6.35Q213.41,0,205.4,0Zm94.42,5.82h.13a40,40,0,0,0-7.21-3.7A19.85,19.85,0,0,0,285.53.66h-29.1a19.84,19.84,0,0,0-7.21,1.46A39.86,39.86,0,0,0,242,5.82h.13a16.47,16.47,0,0,0-5.34,6.55,22,22,0,0,0-1.87,9.32V84.51A21.73,21.73,0,0,0,236.81,94a17.76,17.76,0,0,0,5.34,6.55,30.64,30.64,0,0,0,7.14,3.9,20.13,20.13,0,0,0,7.14,1.39h29.1a20.15,20.15,0,0,0,7.14-1.39,30.72,30.72,0,0,0,7.14-3.9q7.21-5.29,7.21-16V21.69a22,22,0,0,0-1.87-9.32A16.5,16.5,0,0,0,299.82,5.82Zm-8.68,77.64a10.37,10.37,0,0,1-2,6.22q-2,2.78-6.94,2.78H259.77q-4.94,0-6.94-2.78a10.37,10.37,0,0,1-2-6.22V22.88a10.18,10.18,0,0,1,2-6.08q2-2.78,6.94-2.78H282.2q4.94,0,6.94,2.78a10.18,10.18,0,0,1,2,6.08ZM392,5.82h.13a40,40,0,0,0-7.21-3.7A19.86,19.86,0,0,0,377.71.66h-29.1a19.84,19.84,0,0,0-7.21,1.46,39.85,39.85,0,0,0-7.21,3.7h.13A16.46,16.46,0,0,0,329,12.37a22,22,0,0,0-1.87,9.32V37.43q0,10.45,7.21,16,7.34,5,14.28,5h25.76q4.94,0,6.94,2.84a10.48,10.48,0,0,1,2,6.15v16a10.37,10.37,0,0,1-2,6.22q-2,2.78-6.94,2.78H351.95q-4.94,0-6.94-2.78a10.37,10.37,0,0,1-2-6.22V75.78q0-6.22-8-6.22t-7.88,6.22v8.73q0,10.71,7.21,16a30.64,30.64,0,0,0,7.14,3.9,20.13,20.13,0,0,0,7.14,1.39h29.1a20.15,20.15,0,0,0,7.14-1.39,30.74,30.74,0,0,0,7.14-3.9q7.21-5.29,7.21-16V66.39A22.44,22.44,0,0,0,397.33,57,15.45,15.45,0,0,0,392,50.52h.13a35.65,35.65,0,0,0-7.21-3.84,19.86,19.86,0,0,0-7.21-1.45H351.95q-4.94,0-6.94-2.71a10.08,10.08,0,0,1-2-6.15V22.88a10.18,10.18,0,0,1,2-6.08Q347,14,351.95,14h22.43q4.94,0,6.94,2.78a10.18,10.18,0,0,1,2,6.08v6.61q0,6.22,7.88,6.22t8-6.22v-7.8a22,22,0,0,0-1.87-9.32A16.51,16.51,0,0,0,392,5.82ZM511.92,2a25.84,25.84,0,0,0-9.34-2,16.47,16.47,0,0,0-4.07.53A17.75,17.75,0,0,0,494.57,2a14.1,14.1,0,0,0-3.34,2.45A10.48,10.48,0,0,0,489,7.8q-2.27,7.94-4.87,17.13t-5.27,18.58q-2.67,9.39-5.21,18.52T468.8,79l-21-70.76a10.86,10.86,0,0,0-2.27-3.5,13.3,13.3,0,0,0-3.34-2.51,17.52,17.52,0,0,0-4-1.52A17.27,17.27,0,0,0,434.1.13,23.53,23.53,0,0,0,424.62,2a7.06,7.06,0,0,0-4.67,7v91.13q0,6.35,7.88,6.35t7.88-6.35V31.74l3.87-.53q3.47,11.51,6.41,21t5.87,18.58l9.61,30.82A5.91,5.91,0,0,0,464,105a8.91,8.91,0,0,0,4.4,1.32q5.74.13,7.21-4.5l16-52.9L497,31.74l3.87.4v68q0,6.35,7.88,6.35t7.88-6.35V9A6.92,6.92,0,0,0,511.92,2Zm57.93,61.77a9.73,9.73,0,0,0-7.21,3,10.31,10.31,0,0,0,0,14.42,9.73,9.73,0,0,0,7.21,3,10,10,0,0,0,7.28-3,10.15,10.15,0,0,0,0-14.42A10,10,0,0,0,569.85,63.75Zm29.57-11.84q-7.68-23.08-15.15-45.83a14.31,14.31,0,0,0-2.74-3.44,6.79,6.79,0,0,0-3.67-2Q575.59.4,573.46.2T570.12,0q-1.2,0-3.34.2t-4.41.6a7.11,7.11,0,0,0-3.94,1.72,7.73,7.73,0,0,0-2.34,3.57L525.67,97.74q-2,6.08,5.61,8.46h-.13q1.07.26,2.07.46a10.58,10.58,0,0,0,2.07.2,4.92,4.92,0,0,0,3.4-1.26,8.57,8.57,0,0,0,2.2-3.24v.13l29.23-88.88,29.37,88.88v-.13a6.94,6.94,0,0,0,2.2,3.24,5.24,5.24,0,0,0,3.4,1.26,8.69,8.69,0,0,0,1.94-.2l1.94-.46q7.48-2.38,5.61-8.46Q607.09,75,599.42,51.91Zm104,43.84L682.05,60.84q1.73-.92,3.4-1.85a30.92,30.92,0,0,0,3.14-2q7.21-5.29,7.21-16V21.69a22,22,0,0,0-1.87-9.32,16.5,16.5,0,0,0-5.34-6.55h.13a40,40,0,0,0-7.21-3.7A19.86,19.86,0,0,0,674.31.66H635.46a10.75,10.75,0,0,0-5.94,1.59q-2.47,1.59-2.47,6.35v91.66q0,6.35,7.88,6.35t7.88-6.35V14H671q4.94,0,6.94,2.78a10.18,10.18,0,0,1,2,6.08V39.94a10.18,10.18,0,0,1-2,6.08q-2,2.78-6.94,2.78H655.35q-5.61,0-5.61,6.75A8.18,8.18,0,0,0,651,60.38a4.09,4.09,0,0,0,3.54,1.79h10.28l25.23,41.93-.13-.13a5.61,5.61,0,0,0,4.94,3,10.67,10.67,0,0,0,5.21-1.85v.13q4.54-2.91,4.54-6.08a5.14,5.14,0,0,0-.4-1.72A10.82,10.82,0,0,0,703.41,95.75ZM776.51.66h-62.6q-5.08,0-5.07,6.61Q709.1,14,713.91,14h23.36v86.36q0,6.35,7.88,6.35t8-6.35V14h23.36q4.81,0,4.81-6.74Q781.59.66,776.51.66Z"></path> <path class="cls-1" d="M22,.25H5a5,5,0,0,0-5,5v97a5,5,0,0,0,5,5H22a5,5,0,0,0,5-5v-97A5,5,0,0,0,22,.25Zm52,22H57a5,5,0,0,0-5,5v52a5,5,0,0,0,5,5H74a5,5,0,0,0,5-5v-52A5,5,0,0,0,74,22.25Z"></path> </svg> 