<svg width="444" height="126" viewBox="0 0 444 126" fill="none" xmlns="http://www.w3.org/2000/svg">
<path fill-rule="evenodd" clip-rule="evenodd" d="M409.136 0.234741H16.0713L0.863261 82.1316C-3.36173 104.884 14.1004 125.887 37.2413 125.887H426.698L442.565 40.4424C446.447 19.5352 430.401 0.234741 409.136 0.234741ZM368.418 86.9928C371.916 89.3246 376.427 90.4905 381.953 90.4905C387.782 90.4905 392.598 89.1725 396.4 86.5365C400.202 83.9005 402.534 80.1747 403.395 75.3589C404.257 70.3911 403.117 66.3357 399.974 63.1928C398.554 61.8242 396.501 60.5822 393.815 59.467C392.953 59.0614 391.381 58.4531 389.1 57.6421C385.704 56.3747 383.397 55.2849 382.181 54.3724C381.015 53.46 380.584 52.294 380.888 50.8747C381.496 48.188 383.626 46.8446 387.275 46.8446C391.128 46.8446 394.017 48.8216 395.944 52.7756L406.589 47.1488C405.22 43.3469 402.939 40.4067 399.746 38.3284C396.552 36.1993 392.75 35.1348 388.34 35.1348C383.423 35.1348 379.089 36.4021 375.337 38.9367C371.637 41.4206 369.356 45.1718 368.494 50.1903C367.683 54.854 368.494 58.5292 370.927 61.2158C373.462 63.8011 377.213 65.9302 382.181 67.603C385.78 68.8703 388.188 69.9349 389.404 70.7966C390.672 71.6584 391.153 72.8243 390.849 74.2944C390.292 77.2852 387.681 78.7806 383.017 78.7806C377.492 78.7806 374.095 76.3981 372.828 71.6331L361.727 77.3359C362.69 81.442 364.92 84.6609 368.418 86.9928ZM78.9919 55.2088C78.3329 58.7066 76.9135 61.7735 74.7337 64.4094C72.554 67.0454 69.842 68.9971 66.5977 70.2644L74.3536 89.426H62.0354L55.1159 71.9372H48.5006L45.4591 89.426C39.1106 89.426 34.2998 83.6961 35.3985 77.4435L42.6457 36.1993H63.1759C68.2452 36.1993 72.3766 38.1256 75.5702 41.9782C78.7638 45.7801 79.9043 50.1903 78.9919 55.2088ZM61.199 47.605H52.8348L50.4015 61.2919H59.5261C61.351 61.2919 62.9225 60.6582 64.2405 59.3909C65.6092 58.0729 66.4709 56.4254 66.8258 54.4484C67.1806 52.4715 66.8258 50.8493 65.7612 49.582C64.7474 48.264 63.2266 47.605 61.199 47.605ZM109.662 90.4905C103.224 90.4905 98.2816 88.7923 94.8345 85.396C91.3875 81.9489 90.1455 77.564 91.1087 72.2414L97.4959 36.1993H109.662L103.503 71.1768C102.641 76.1447 104.998 78.6286 110.574 78.6286C116.151 78.6286 119.369 76.1447 120.231 71.1768L124.281 48.181C125.501 41.2518 131.521 36.1993 138.556 36.1993L132.169 72.2414C131.105 78.1723 128.57 82.7093 124.565 85.8522C120.611 88.9444 115.644 90.4905 109.662 90.4905ZM158.678 89.426H174.19L200.119 36.1993H186.204L168.335 75.3589L164.153 36.1993H151.454L158.678 89.426ZM246.856 36.1993L244.802 47.9092H223.892L222.295 56.8056H241.381L239.328 68.2113H220.318L218.645 77.7161H239.936L237.883 89.426H204.426L213.779 36.1993H246.856ZM253.872 89.426H266.038L271.361 59.543L286.568 89.426H295.693L305.045 36.1993H292.879L287.633 66.0823L272.349 36.1993H263.225L253.872 89.426ZM319.487 36.1993H347.138C353.343 36.1993 358.045 41.7979 356.974 47.9092H343.287L335.987 89.426H323.821L331.121 47.9092H317.434L319.487 36.1993Z" fill="#3D58B0"/>
</svg>
