<svg width="386" height="541" viewBox="0 0 386 541" fill="none" xmlns="http://www.w3.org/2000/svg">
<path opacity="0.2" d="M1.80863 540.031C24.6584 508.624 49.6232 443.339 70.5251 362.589C91.4391 281.793 108.321 185.371 114.942 91.5857L112.947 91.4449C106.336 185.099 89.4747 281.401 68.5889 362.088C47.691 442.822 22.7995 507.78 0.191374 538.854L1.80863 540.031ZM1.33234 328.137C9.7636 325.166 18.2884 317.559 26.9994 305.811C35.7267 294.042 44.7242 278.001 54.0623 257.981C72.7397 217.939 92.8429 161.84 114.898 91.8157L112.99 91.2149C90.9415 161.219 70.8698 217.217 52.2498 257.136C42.9391 277.097 34.0072 293.003 25.3929 304.62C16.7624 316.259 8.53357 323.479 0.667661 326.251L1.33234 328.137ZM0.503403 118.571C24.0044 132.016 44.6768 128.134 63.3459 119.576C72.6528 115.31 81.4992 109.866 89.9393 104.839C98.4094 99.7942 106.457 95.1781 114.273 92.4598L113.616 90.5708C105.581 93.3654 97.3677 98.0868 88.9158 103.121C80.4339 108.172 71.6977 113.548 62.5125 117.758C44.1973 126.153 24.2474 129.851 1.4966 116.835L0.503403 118.571ZM114.731 92.1323C137.122 63.5721 176.309 33.8287 223.986 24.2563C271.605 14.6957 327.803 25.2321 384.365 77.4007L385.721 75.9305C328.716 23.3534 271.876 12.6014 223.593 22.2954C175.368 31.9777 135.788 62.032 113.157 90.8983L114.731 92.1323Z" fill="#404040"/>
<circle cx="236.948" cy="20.0905" r="18.1818" fill="white" stroke="#F3F3F3" stroke-width="2"/>
<path d="M232.871 11.9343L241.027 20.0905L232.871 28.2466" stroke="#404040" stroke-width="2"/>
</svg>
