<svg width="545" height="503" viewBox="0 0 545 503" fill="none" xmlns="http://www.w3.org/2000/svg">
<path opacity="0.2" d="M295.845 52.7949C265.458 44.6527 233.568 43.8708 202.819 50.514C172.069 57.1572 143.346 71.0341 119.03 90.9943C94.7144 110.955 75.5066 136.423 62.999 165.289C50.4914 194.154 45.0443 225.586 47.1093 256.977C49.1743 288.368 58.6918 318.815 74.873 345.793C91.0542 372.772 113.433 395.504 140.154 412.107C166.875 428.71 197.168 438.705 228.523 441.263C259.878 443.821 251.726 343.696 280.784 331.643C295.845 243.117 371.077 165.289 510.702 243.117" stroke="#404040" stroke-width="2"/>
<circle cx="107.211" cy="102.363" r="18.1818" transform="rotate(125.008 107.211 102.363)" fill="white" stroke="#F3F3F3" stroke-width="2"/>
<path d="M116.231 103.702L104.871 105.703L102.87 94.3437" stroke="#404040" stroke-width="2"/>
<circle cx="116.231" cy="395.242" r="18.1818" transform="rotate(30 116.231 395.242)" fill="white" stroke="#F3F3F3" stroke-width="2"/>
<path d="M116.778 386.139L119.763 397.281L108.622 400.266" stroke="#404040" stroke-width="2"/>
<circle cx="365.304" cy="217.612" r="18.1818" transform="rotate(-15.6546 365.304 217.612)" fill="white" stroke="#F3F3F3" stroke-width="2"/>
<path d="M359.177 210.859L369.231 216.512L363.578 226.566" stroke="#404040" stroke-width="2"/>
</svg>
