<svg width="84" height="84" viewBox="0 0 84 84" fill="none" xmlns="http://www.w3.org/2000/svg">
<path d="M3.40625 75.417H8.59375V80.6045H37.125V75.417H81.2188V2.79199H3.40625V75.417ZM34.5312 78.0107H11.1875V58.5576C11.1926 56.955 11.7924 55.4113 12.8705 54.2256C13.9487 53.0399 15.4285 52.2965 17.0234 52.1394L22.8594 60.892L28.6953 52.1355C30.2909 52.2926 31.7713 53.0366 32.8495 54.2231C33.9278 55.4097 34.5271 56.9543 34.5312 58.5576V78.0107ZM20.0944 52.0732H25.6243L22.8594 56.2232L20.0944 52.0732ZM78.625 72.8232H37.125V58.5576C37.1223 56.1508 36.1649 53.8433 34.463 52.1414C32.7612 50.4396 30.4537 49.4822 28.0469 49.4795H17.6719C15.265 49.4822 12.9576 50.4396 11.2557 52.1414C9.55382 53.8433 8.5965 56.1508 8.59375 58.5576V72.8232H6V15.7607H78.625V72.8232ZM6 5.38574H78.625V13.167H6V5.38574Z" fill="#3D58B0"/>
<path d="M9.3974 8.08333C9.23868 8.146 9.09342 8.23844 8.96943 8.35568C8.72832 8.60152 8.59326 8.93212 8.59326 9.27646C8.59326 9.6208 8.72832 9.9514 8.96943 10.1972C9.09342 10.3145 9.23868 10.4069 9.3974 10.4696C9.55331 10.536 9.72074 10.5713 9.89021 10.5733C10.1478 10.5748 10.4 10.4996 10.6147 10.3572C10.8293 10.2148 10.9967 10.0117 11.0955 9.77378C11.1943 9.53588 11.22 9.27395 11.1693 9.02139C11.1186 8.76882 10.9939 8.53707 10.811 8.35568C10.6286 8.17572 10.397 8.05382 10.1455 8.00535C9.89387 7.95688 9.63357 7.98402 9.3974 8.08333Z" fill="#3D58B0"/>
<path d="M15.9989 8.35575C15.7481 8.12434 15.4194 7.99585 15.0781 7.99585C14.7369 7.99585 14.4081 8.12434 14.1573 8.35575C14.0429 8.48189 13.9508 8.62662 13.885 8.78372C13.8185 8.93963 13.7833 9.10706 13.7812 9.27653C13.7841 9.36347 13.7928 9.45012 13.8072 9.53591C13.8213 9.61717 13.8475 9.69586 13.885 9.76934C13.9133 9.852 13.9526 9.93051 14.0017 10.0028C14.0496 10.0707 14.1016 10.1357 14.1573 10.1973C14.3387 10.3802 14.5705 10.5049 14.8231 10.5556C15.0756 10.6063 15.3375 10.5806 15.5755 10.4818C15.8134 10.383 16.0165 10.2156 16.1589 10.001C16.3012 9.78632 16.3765 9.53412 16.375 9.27653C16.373 9.10706 16.3377 8.93963 16.2712 8.78372C16.2055 8.62662 16.1134 8.48189 15.9989 8.35575Z" fill="#3D58B0"/>
<path d="M21.1863 8.3556C21.0311 8.20831 20.8433 8.0998 20.6382 8.03895C20.4331 7.97809 20.2165 7.96661 20.0061 8.00544C19.9249 8.01956 19.8462 8.04579 19.7727 8.08326C19.6897 8.11184 19.6108 8.15108 19.538 8.19997L19.3447 8.3556C19.2275 8.47959 19.1351 8.62485 19.0724 8.78357C18.9997 8.93745 18.9642 9.10625 18.9686 9.27638C18.973 9.61983 19.1074 9.94885 19.3447 10.1972L19.538 10.3528C19.6108 10.4017 19.6897 10.4409 19.7727 10.4695C19.8462 10.507 19.9249 10.5332 20.0061 10.5473C20.0918 10.5624 20.1785 10.571 20.2655 10.5733C20.4363 10.575 20.6057 10.5426 20.7639 10.4781C20.922 10.4135 21.0656 10.318 21.1864 10.1973C21.3072 10.0765 21.4026 9.93284 21.4672 9.77472C21.5318 9.61659 21.5641 9.44717 21.5624 9.27638C21.5662 9.10631 21.5307 8.93766 21.4586 8.78357C21.396 8.62485 21.3035 8.47959 21.1863 8.3556Z" fill="#3D58B0"/>
<path d="M39.7185 42.9951C39.7206 44.7142 40.4044 46.3624 41.62 47.578C42.8357 48.7936 44.4838 49.4774 46.2029 49.4795H69.5467C71.2658 49.4774 72.9139 48.7936 74.1295 47.578C75.3451 46.3624 76.029 44.7142 76.031 42.9951V24.8389C76.029 23.1197 75.3451 21.4716 74.1295 20.256C72.9139 19.0404 71.2658 18.3566 69.5467 18.3545H46.2029C44.4838 18.3566 42.8357 19.0404 41.62 20.256C40.4044 21.4716 39.7206 23.1197 39.7185 24.8389V32.0832L35.291 36.5107L39.7185 40.9383V42.9951ZM38.9586 36.5107L42.3123 33.157V24.8389C42.3123 23.807 42.7222 22.8174 43.4518 22.0878C44.1815 21.3581 45.1711 20.9482 46.2029 20.9482H69.5467C70.5785 20.9482 71.5681 21.3581 72.2977 22.0878C73.0274 22.8174 73.4373 23.807 73.4373 24.8389V42.9951C73.4373 44.027 73.0274 45.0166 72.2977 45.7462C71.5681 46.4758 70.5785 46.8857 69.5467 46.8857H46.2029C45.1711 46.8857 44.1815 46.4758 43.4518 45.7462C42.7222 45.0166 42.3123 44.027 42.3123 42.9951V39.8645L38.9586 36.5107Z" fill="#3D58B0"/>
<path d="M22.8594 48.1826C25.2662 48.1799 27.5737 47.2225 29.2755 45.5207C30.9774 43.8188 31.9348 41.5113 31.9375 39.1045V30.0264H22.8594C20.4517 30.0264 18.1427 30.9828 16.4402 32.6853C14.7377 34.3878 13.7813 36.6968 13.7812 39.1045C13.7813 41.5122 14.7377 43.8212 16.4402 45.5237C18.1427 47.2262 20.4517 48.1826 22.8594 48.1826ZM22.8594 45.5889C21.5773 45.587 20.3245 45.2055 19.2589 44.4926C18.1933 43.7796 17.3627 42.7672 16.8717 41.5828C17.9658 40.3975 19.2925 39.4505 20.769 38.801C22.2455 38.1514 23.8401 37.8133 25.4531 37.8076H29.3438V39.1045C29.3417 40.8236 28.6579 42.4718 27.4422 43.6874C26.2266 44.903 24.5785 45.5868 22.8594 45.5889ZM22.8594 32.6201H29.3438V35.2139H25.4531C22.1692 35.2236 18.9882 36.3609 16.4424 38.4353C16.6043 36.8444 17.3496 35.3697 18.5346 34.2959C19.7196 33.222 21.2602 32.625 22.8594 32.6201Z" fill="#3D58B0"/>
<path d="M23.3522 63.8487C23.1975 63.7782 23.0294 63.7417 22.8594 63.7417C22.6893 63.7417 22.5213 63.7782 22.3666 63.8487C22.2079 63.9114 22.0626 64.0039 21.9386 64.1211C21.7583 64.3029 21.6358 64.534 21.5866 64.7853C21.5375 65.0365 21.5638 65.2967 21.6622 65.5331C21.7607 65.7694 21.9269 65.9714 22.14 66.1134C22.353 66.2554 22.6033 66.3312 22.8594 66.3312C23.1154 66.3312 23.3657 66.2554 23.5788 66.1134C23.7918 65.9714 23.958 65.7694 24.0565 65.5331C24.155 65.2967 24.1813 65.0365 24.1321 64.7853C24.0829 64.534 23.9605 64.3029 23.7802 64.1211C23.6538 64.0069 23.5091 63.9148 23.3522 63.8487Z" fill="#3D58B0"/>
<path d="M21.9386 70.6055C21.7583 70.7873 21.6358 71.0184 21.5866 71.2697C21.5375 71.521 21.5638 71.7812 21.6622 72.0175C21.7607 72.2539 21.9269 72.4558 22.14 72.5978C22.353 72.7399 22.6033 72.8156 22.8594 72.8156C23.1154 72.8156 23.3657 72.7399 23.5788 72.5978C23.7918 72.4558 23.958 72.2539 24.0565 72.0175C24.155 71.7812 24.1813 71.521 24.1321 71.2697C24.0829 71.0184 23.9605 70.7873 23.7802 70.6055C23.5294 70.3741 23.2006 70.2456 22.8594 70.2456C22.5181 70.2456 22.1894 70.3741 21.9386 70.6055Z" fill="#3D58B0"/>
<path d="M52.6875 41.6982H64.3594C66.0785 41.6962 67.7266 41.0124 68.9422 39.7967C70.1579 38.5811 70.8417 36.933 70.8438 35.2139V32.6201C70.8438 31.5883 70.4338 30.5987 69.7042 29.869C68.9746 29.1394 67.985 28.7295 66.9531 28.7295H63.0625V27.4326C63.0625 26.4008 62.6526 25.4112 61.923 24.6815C61.1933 23.9519 60.2037 23.542 59.1719 23.542C58.14 23.542 57.1504 23.9519 56.4208 24.6815C55.6912 25.4112 55.2812 26.4008 55.2812 27.4326V28.7295H52.6875V26.1357H44.9062V44.292H52.6875V41.6982ZM57.875 31.3232V27.4326C57.875 27.0887 58.0116 26.7588 58.2548 26.5156C58.4981 26.2724 58.8279 26.1357 59.1719 26.1357C59.5158 26.1357 59.8457 26.2724 60.0889 26.5156C60.3321 26.7588 60.4688 27.0887 60.4688 27.4326V31.3232H66.9531C67.2971 31.3232 67.6269 31.4599 67.8702 31.7031C68.1134 31.9463 68.25 32.2762 68.25 32.6201V35.2139C68.25 36.2457 67.8401 37.2353 67.1105 37.965C66.3808 38.6946 65.3912 39.1045 64.3594 39.1045H52.6875V31.3232H57.875ZM47.5 41.6982V28.7295H50.0938V41.6982H47.5Z" fill="#3D58B0"/>
</svg>
