<svg width="84" height="84" viewBox="0 0 84 84" fill="none" xmlns="http://www.w3.org/2000/svg">
<path d="M67.647 54.7892C65.7191 54.7883 63.8153 55.2176 62.0744 56.0457C60.3334 56.8738 58.7991 58.0798 57.5832 59.5759C55.1694 58.4992 52.435 58.3873 49.9413 59.2632C47.4476 60.1392 45.3838 61.9365 44.1735 64.2862C43.0972 63.9182 41.9527 63.7933 40.8223 63.9205C39.6919 64.0476 38.6037 64.4236 37.636 65.0215C36.5068 63.127 34.8014 61.6433 32.7688 60.7872C30.7363 59.9311 28.4832 59.7475 26.3389 60.2633C25.1501 58.5658 23.5681 57.1812 21.728 56.228C19.8879 55.2747 17.8443 54.781 15.772 54.7892C12.3324 54.7892 9.03379 56.1555 6.60168 58.5876C4.16957 61.0197 2.80322 64.3184 2.80322 67.7579C2.80322 71.1974 4.16957 74.4961 6.60168 76.9282C9.03379 79.3603 12.3324 80.7267 15.772 80.7267H67.647C71.0865 80.7267 74.3852 79.3603 76.8173 76.9282C79.2494 74.4961 80.6157 71.1974 80.6157 67.7579C80.6157 64.3184 79.2494 61.0197 76.8173 58.5876C74.3852 56.1555 71.0865 54.7892 67.647 54.7892ZM67.647 78.1329H15.772C13.9566 78.1351 12.1725 77.6609 10.5978 76.7577C9.02308 75.8545 7.71291 74.5539 6.79815 72.9859C5.8834 71.4179 5.39607 69.6373 5.38486 67.822C5.37364 66.0067 5.83893 64.2202 6.73425 62.641C7.62956 61.0618 8.92356 59.7452 10.487 58.8226C12.0504 57.9 13.8286 57.4038 15.6438 57.3836C17.459 57.3633 19.2478 57.8197 20.8314 58.7071C22.4151 59.5945 23.7382 60.8819 24.6685 62.4407L25.208 63.3485L26.204 63.0049C28.0975 62.3449 30.173 62.4443 31.9946 63.2822C33.8163 64.1201 35.2424 65.6314 35.9734 67.4985L36.6919 69.3142L38.086 67.9498C38.8797 67.1665 39.9073 66.6636 41.0128 66.5176C42.1183 66.3715 43.2413 66.5903 44.2111 67.1406L45.5469 67.8824L46.0657 66.4429C46.4481 65.3644 47.0643 64.384 47.8702 63.5717C48.676 62.7594 49.6516 62.1354 50.727 61.7445C51.8024 61.3536 52.9509 61.2053 54.0903 61.3105C55.2297 61.4156 56.3317 61.7714 57.3174 62.3525L58.3678 62.9698L59.0487 61.9596C60.0496 60.4745 61.4178 59.2738 63.0203 58.4742C64.6229 57.6747 66.405 57.3036 68.1935 57.397C69.9819 57.4905 71.7157 58.0453 73.2262 59.0074C74.7367 59.9696 75.9724 61.3064 76.813 62.8877C77.6537 64.469 78.0708 66.241 78.0236 68.0313C77.9764 69.8215 77.4666 71.5691 76.5438 73.1039C75.621 74.6388 74.3166 75.9086 72.7575 76.7898C71.1985 77.6711 69.4379 78.1338 67.647 78.1329Z" fill="#3D58B0"/>
<path d="M36.522 50.8984C36.5169 52.714 36.872 54.5126 37.5668 56.1899C38.2615 57.8673 39.2822 59.3902 40.5696 60.6704L41.7095 61.8103L42.8495 60.6704C44.1369 59.3902 45.1575 57.8673 45.8523 56.1899C46.5471 54.5126 46.9022 52.714 46.897 50.8984C46.897 49.5226 46.3505 48.2032 45.3776 47.2303C44.4048 46.2575 43.0853 45.7109 41.7095 45.7109C40.3337 45.7109 39.0143 46.2575 38.0414 47.2303C37.0686 48.2032 36.522 49.5226 36.522 50.8984ZM44.3033 50.8984C44.3108 53.5219 43.3923 56.0639 41.7095 58.0766C40.0268 56.0639 39.1083 53.5219 39.1158 50.8984C39.1158 50.2105 39.389 49.5508 39.8755 49.0644C40.3619 48.578 41.0216 48.3047 41.7095 48.3047C42.3974 48.3047 43.0572 48.578 43.5436 49.0644C44.03 49.5508 44.3033 50.2105 44.3033 50.8984Z" fill="#3D58B0"/>
<path d="M42.2204 3.01922L41.7095 2.80005L41.1985 3.01922C38.2695 4.27204 35.7732 6.35777 34.0195 9.01731C32.2658 11.6769 31.3322 14.793 31.3345 17.9787V22.7693C29.0282 23.7319 27.0586 25.3558 25.6738 27.4361C24.289 29.5165 23.5512 31.9603 23.5532 34.4594V37.9298H24.8501V43.1173H32.6314V37.9298H36.522V43.1173H46.897V37.9298H50.7876V43.1173H58.5688V37.9298H59.8657V34.4594C59.8678 31.9603 59.1299 29.5165 57.7452 27.4361C56.3604 25.3558 54.3907 23.7319 52.0845 22.7693V17.9787C52.0868 14.793 51.1531 11.6769 49.3995 9.01731C47.6458 6.35777 45.1494 4.27204 42.2204 3.01922ZM26.147 34.4594C26.1451 32.6601 26.6252 30.8931 27.5375 29.3422C28.4498 27.7913 29.7609 26.5132 31.3345 25.6406V35.3361H26.147V34.4594ZM30.0376 40.5236H27.4439V37.9298H30.0376V40.5236ZM44.3032 40.5236H39.1157V37.9298H44.3032V40.5236ZM49.4907 35.3361H33.9282V17.9787C33.9268 15.3966 34.657 12.867 36.0341 10.6828C37.4113 8.49868 39.379 6.74939 41.7095 5.63761C44.0403 6.74958 46.0084 8.49927 47.3855 10.6839C48.7627 12.8686 49.4926 15.3988 49.4907 17.9813V35.3361ZM55.9751 40.5236H53.3813V37.9298H55.9751V40.5236ZM57.272 34.4594V35.3361H52.0845V25.6432C53.6577 26.5155 54.9685 27.7933 55.8808 29.3437C56.793 30.8941 57.2734 32.6605 57.272 34.4594Z" fill="#3D58B0"/>
<path d="M24.8501 49.6016C24.8558 51.605 25.6512 53.5254 27.0639 54.946L28.7407 56.6228L30.4176 54.946C31.8302 53.5254 32.6257 51.605 32.6313 49.6016C32.6313 48.5697 32.2214 47.5801 31.4918 46.8505C30.7622 46.1208 29.7726 45.7109 28.7407 45.7109C27.7089 45.7109 26.7193 46.1208 25.9896 46.8505C25.26 47.5801 24.8501 48.5697 24.8501 49.6016ZM30.0376 49.6016C30.0343 50.8389 29.5722 52.0311 28.7407 52.9475C27.9093 52.0311 27.4472 50.8389 27.4438 49.6016C27.4438 49.2576 27.5805 48.9277 27.8237 48.6845C28.0669 48.4413 28.3968 48.3047 28.7407 48.3047C29.0847 48.3047 29.4145 48.4413 29.6578 48.6845C29.901 48.9277 30.0376 49.2576 30.0376 49.6016Z" fill="#3D58B0"/>
<path d="M50.7876 49.6016C50.7933 51.605 51.5887 53.5254 53.0014 54.946L54.6782 56.6228L56.3551 54.946C57.7677 53.5254 58.5632 51.605 58.5688 49.6016C58.5688 48.5697 58.1589 47.5801 57.4293 46.8505C56.6997 46.1208 55.7101 45.7109 54.6782 45.7109C53.6464 45.7109 52.6568 46.1208 51.9271 46.8505C51.1975 47.5801 50.7876 48.5697 50.7876 49.6016ZM55.9751 49.6016C55.9718 50.8389 55.5097 52.0311 54.6782 52.9475C53.8468 52.0311 53.3847 50.8389 53.3813 49.6016C53.3813 49.2576 53.518 48.9277 53.7612 48.6845C54.0044 48.4413 54.3343 48.3047 54.6782 48.3047C55.0222 48.3047 55.352 48.4413 55.5953 48.6845C55.8385 48.9277 55.9751 49.2576 55.9751 49.6016Z" fill="#3D58B0"/>
<path d="M41.7095 13.2891C40.6835 13.2891 39.6805 13.5933 38.8275 14.1633C37.9744 14.7333 37.3095 15.5435 36.9169 16.4914C36.5242 17.4393 36.4215 18.4823 36.6217 19.4886C36.8218 20.4949 37.3159 21.4192 38.0414 22.1447C38.7668 22.8702 39.6912 23.3642 40.6974 23.5644C41.7037 23.7645 42.7468 23.6618 43.6947 23.2692C44.6425 22.8766 45.4527 22.2117 46.0227 21.3586C46.5927 20.5055 46.897 19.5026 46.897 18.4766C46.897 17.1008 46.3504 15.7813 45.3776 14.8084C44.4048 13.8356 43.0853 13.2891 41.7095 13.2891ZM41.7095 21.0703C41.1965 21.0703 40.695 20.9182 40.2685 20.6332C39.8419 20.3482 39.5095 19.9431 39.3132 19.4691C39.1168 18.9952 39.0655 18.4737 39.1656 17.9705C39.2656 17.4674 39.5127 17.0052 39.8754 16.6425C40.2382 16.2798 40.7003 16.0327 41.2035 15.9327C41.7066 15.8326 42.2281 15.8839 42.7021 16.0803C43.176 16.2766 43.5811 16.609 43.8661 17.0356C44.1511 17.4621 44.3032 17.9636 44.3032 18.4766C44.3032 19.1645 44.03 19.8242 43.5435 20.3106C43.0571 20.797 42.3974 21.0703 41.7095 21.0703Z" fill="#3D58B0"/>
</svg>
