<svg width="84" height="84" viewBox="0 0 84 84" fill="none" xmlns="http://www.w3.org/2000/svg">
<path d="M23.4434 20.9482C25.2388 20.9482 26.994 20.4158 28.4869 19.4183C29.9798 18.4208 31.1434 17.003 31.8305 15.3442C32.5176 13.6854 32.6973 11.86 32.347 10.0991C31.9968 8.33808 31.1322 6.72052 29.8626 5.45092C28.593 4.18132 26.9754 3.31671 25.2144 2.96643C23.4534 2.61615 21.6281 2.79593 19.9693 3.48303C18.3105 4.17013 16.8927 5.33369 15.8952 6.82658C14.8977 8.31947 14.3652 10.0746 14.3652 11.8701C14.368 14.2769 15.3253 16.5844 17.0272 18.2863C18.7291 19.9882 21.0365 20.9455 23.4434 20.9482ZM23.4434 5.38575C24.7258 5.38575 25.9795 5.76605 27.0459 6.47856C28.1122 7.19107 28.9434 8.20379 29.4341 9.38866C29.9249 10.5735 30.0533 11.8773 29.8031 13.1352C29.5529 14.393 28.9354 15.5484 28.0285 16.4553C27.1216 17.3621 25.9662 17.9797 24.7084 18.2299C23.4506 18.4801 22.1468 18.3517 20.9619 17.8609C19.777 17.3701 18.7643 16.539 18.0518 15.4726C17.3393 14.4063 16.959 13.1526 16.959 11.8701C16.961 10.151 17.6449 8.50286 18.8605 7.28725C20.0761 6.07164 21.7242 5.3878 23.4434 5.38575Z" fill="#3D58B0"/>
<path d="M13.4756 18.0264L12.4913 18.5879C10.7005 19.6081 9.21104 21.0833 8.1737 22.8642C7.13636 24.6451 6.58795 26.6685 6.58398 28.7295V36.5107C6.58398 37.5426 6.99389 38.5322 7.72352 39.2618C8.45316 39.9914 9.44275 40.4014 10.4746 40.4014H36.4121C37.444 40.4014 38.4336 39.9914 39.1632 39.2618C39.8928 38.5322 40.3027 37.5426 40.3027 36.5107V28.7295C40.2988 26.6685 39.7504 24.6451 38.713 22.8642C37.6757 21.0833 36.1862 19.6081 34.3955 18.5879L33.4111 18.0264L32.7225 18.9342C31.6374 20.3679 30.2349 21.5307 28.625 22.3314C27.015 23.132 25.2414 23.5486 23.4434 23.5486C21.6453 23.5486 19.8717 23.132 18.2618 22.3314C16.6518 21.5307 15.2493 20.3679 14.1642 18.9342L13.4756 18.0264ZM23.4434 26.1357C25.4379 26.1415 27.411 25.7251 29.2331 24.914C31.0552 24.1028 32.685 22.9153 34.0155 21.4294C35.1584 22.2733 36.0877 23.3731 36.7291 24.6408C37.3705 25.9085 37.7061 27.3088 37.709 28.7295V36.5107C37.709 36.8547 37.5724 37.1845 37.3291 37.4278C37.0859 37.671 36.7561 37.8076 36.4121 37.8076H10.4746C10.1307 37.8076 9.80079 37.671 9.55758 37.4278C9.31437 37.1845 9.17773 36.8547 9.17773 36.5107V28.7295C9.18062 27.3088 9.5162 25.9085 10.1576 24.6408C10.799 23.3731 11.7283 22.2733 12.8712 21.4294C14.2017 22.9153 15.8315 24.1028 17.6536 24.914C19.4757 25.7251 21.4489 26.1415 23.4434 26.1357Z" fill="#3D58B0"/>
<path d="M39.0059 71.5264C39.0086 73.9332 39.9659 76.2407 41.6678 77.9425C43.3697 79.6444 45.6772 80.6017 48.084 80.6045H67.5371C69.9439 80.6017 72.2514 79.6444 73.9533 77.9425C75.6552 76.2407 76.6125 73.9332 76.6152 71.5264V52.0732C76.6125 49.6664 75.6552 47.359 73.9533 45.6571C72.2514 43.9552 69.9439 42.9979 67.5371 42.9951H48.084C45.6772 42.9979 43.3697 43.9552 41.6678 45.6571C39.9659 47.359 39.0086 49.6664 39.0059 52.0732V71.5264ZM74.0215 71.5264C74.0194 73.2455 73.3356 74.8936 72.12 76.1092C70.9044 77.3248 69.2562 78.0087 67.5371 78.0107H48.084C46.3649 78.0087 44.7167 77.3248 43.5011 76.1092C42.2855 74.8936 41.6017 73.2455 41.5996 71.5264V55.9639H74.0215V71.5264ZM41.5996 52.0732C41.6017 50.3541 42.2855 48.706 43.5011 47.4904C44.7167 46.2748 46.3649 45.5909 48.084 45.5889H67.5371C69.2562 45.5909 70.9044 46.2748 72.12 47.4904C73.3356 48.706 74.0194 50.3541 74.0215 52.0732V53.3701H41.5996V52.0732Z" fill="#3D58B0"/>
<path d="M47.7077 48.5587C47.5259 48.3784 47.2948 48.2559 47.0435 48.2068C46.7923 48.1576 46.532 48.1839 46.2957 48.2824C46.0593 48.3808 45.8574 48.5471 45.7154 48.7601C45.5734 48.9731 45.4976 49.2234 45.4976 49.4795C45.4976 49.7355 45.5734 49.9859 45.7154 50.1989C45.8574 50.4119 46.0593 50.5782 46.2957 50.6766C46.532 50.7751 46.7923 50.8014 47.0435 50.7522C47.2948 50.703 47.5259 50.5806 47.7077 50.4003C47.8249 50.2763 47.9174 50.131 47.98 49.9723C48.0485 49.817 48.0838 49.6492 48.0838 49.4795C48.0838 49.3098 48.0485 49.142 47.98 48.9867C47.9205 48.8264 47.8277 48.6805 47.7077 48.5587Z" fill="#3D58B0"/>
<path d="M51.7148 48.2086C51.6336 48.2228 51.5549 48.249 51.4814 48.2864C51.3984 48.315 51.3195 48.3543 51.2466 48.4032C51.1794 48.4514 51.1149 48.5033 51.0534 48.5588C50.8123 48.8046 50.6772 49.1352 50.6772 49.4796C50.6772 49.8239 50.8123 50.1545 51.0534 50.4004L51.2466 50.556C51.3195 50.6049 51.3984 50.6441 51.4814 50.6727C51.5549 50.7102 51.6336 50.7364 51.7148 50.7505C51.8006 50.765 51.8873 50.7737 51.9742 50.7765C52.2318 50.778 52.484 50.7027 52.6987 50.5603C52.9133 50.4179 53.0807 50.2148 53.1795 49.9769C53.2783 49.739 53.304 49.4771 53.2533 49.2245C53.2026 48.9719 53.0779 48.7402 52.895 48.5588C52.7403 48.4108 52.5525 48.3018 52.3473 48.2409C52.142 48.18 51.9252 48.1689 51.7148 48.2086Z" fill="#3D58B0"/>
<path d="M56.6689 48.2865C56.5102 48.3491 56.3649 48.4416 56.2409 48.5588C55.9998 48.8046 55.8647 49.1352 55.8647 49.4796C55.8647 49.8239 55.9998 50.1545 56.2409 50.4004C56.3649 50.5176 56.5102 50.61 56.6689 50.6727C56.8248 50.7392 56.9922 50.7744 57.1617 50.7765C57.4193 50.778 57.6715 50.7027 57.8862 50.5603C58.1008 50.4179 58.2682 50.2148 58.367 49.9769C58.4658 49.739 58.4915 49.4771 58.4408 49.2245C58.3901 48.9719 58.2654 48.7402 58.0825 48.5588C57.9001 48.3789 57.6685 48.2569 57.4169 48.2085C57.1654 48.16 56.9051 48.1871 56.6689 48.2865Z" fill="#3D58B0"/>
<path d="M58.9349 35.0453L63.6465 39.1045L67.7057 34.3929L67.4295 30.6748L64.4246 34.1543C63.2802 28.5994 60.2567 23.6086 55.8631 20.0221C51.4695 16.4357 45.9743 14.4727 40.3027 14.4639V17.0576C45.2557 17.0647 50.0624 18.737 53.9502 21.8056C57.838 24.8742 60.5812 29.1609 61.7388 33.9767L58.6587 31.3232L58.9349 35.0453Z" fill="#3D58B0"/>
<path d="M16.4832 48.3512L11.7716 44.292L7.7124 49.0035L7.98864 52.7217L10.9935 49.2422C12.1379 54.797 15.1614 59.7879 19.555 63.3744C23.9486 66.9608 29.4439 68.9237 35.1154 68.9326V66.3389C30.1624 66.3317 25.3558 64.6595 21.4679 61.5909C17.5801 58.5223 14.8369 54.2356 13.6793 49.4198L16.7594 52.0732L16.4832 48.3512Z" fill="#3D58B0"/>
</svg>
