<svg width="80" height="81" viewBox="0 0 80 81" fill="none" xmlns="http://www.w3.org/2000/svg">
<g clip-path="url(#clip0)">
<path d="M73.4375 28.3999H51.4618C51.5314 27.629 51.5692 26.8484 51.5692 26.0592C51.5692 11.8417 40.0018 0.274902 25.7843 0.274902C21.2555 0.274902 16.8005 1.46631 12.901 3.71973C12.1539 4.15125 11.8982 5.10706 12.3297 5.85413C12.7618 6.60181 13.7177 6.85693 14.4647 6.42542C17.8894 4.44604 21.8036 3.3999 25.7843 3.3999C38.2788 3.3999 48.4442 13.5647 48.4442 26.0592C48.4442 38.5537 38.2788 48.7191 25.7843 48.7191C20.5542 48.7191 15.6409 46.9863 11.5753 43.7087C11.1676 43.3804 10.6274 43.2821 10.1355 43.4329L5.98816 44.5175L7.61292 40.9469C7.84668 40.4342 7.78564 39.8361 7.45422 39.3801C4.62219 35.4904 3.125 30.884 3.125 26.0592C3.125 22.0681 4.17664 18.1442 6.16638 14.7122C6.59912 13.9651 6.3446 13.0093 5.59814 12.5765C4.85168 12.1438 3.89587 12.3977 3.46252 13.1448C1.19751 17.0522 0 21.5182 0 26.0592C0 31.2405 1.51794 36.202 4.3988 40.4653L1.78284 46.213C1.53259 46.7617 1.62109 47.405 2.00928 47.8665C2.39746 48.3279 3.01636 48.5244 3.59985 48.3718L10.2448 46.6348C14.6991 49.9996 20.1855 51.8441 25.7843 51.8441C27.0032 51.8441 28.2013 51.7568 29.375 51.5927V65.2749C29.375 68.8931 32.3187 71.8374 35.9369 71.8374H58.0359L67.9169 79.9215C68.2013 80.1547 68.5522 80.2743 68.9062 80.2743C69.1339 80.2743 69.3622 80.2249 69.5752 80.1241C70.1208 79.8654 70.4688 79.316 70.4688 78.7118V71.8374H73.4375C77.0563 71.8374 80 68.8931 80 65.2749V34.9624C80 31.3436 77.0563 28.3999 73.4375 28.3999ZM76.875 65.2749C76.875 67.17 75.3333 68.7124 73.4375 68.7124H68.9062C68.0432 68.7124 67.3438 69.4119 67.3438 70.2749V75.4147L59.6265 69.1006C59.201 68.7124 58.8287 68.7124 57.9919 68.7124H35.9369C34.0417 68.7124 32.5 67.17 32.5 65.2749V50.9548C41.7426 48.4591 48.9435 40.9432 50.9839 31.5249H73.4375C75.3333 31.5249 76.875 33.0667 76.875 34.9624V65.2749Z" fill="#3D58B0"/>
<path d="M62.4622 54.7444C62.9919 54.4947 63.3594 53.957 63.3594 53.332C63.3594 52.4696 62.6599 51.7695 61.7969 51.7695H61.1572L56.1182 40.2852C55.8685 39.7169 55.307 39.3501 54.6869 39.3501C54.0668 39.3501 53.5052 39.7169 53.2562 40.2852L48.2171 51.7695H47.5775C46.7145 51.7695 46.015 52.4696 46.015 53.332C46.015 53.957 46.3824 54.4947 46.9122 54.7444L45.0354 59.0217C44.6887 59.8121 45.0482 60.7338 45.838 61.0804C46.6284 61.4271 47.55 61.0676 47.8967 60.2772L50.2588 54.8945H59.1156L61.4777 60.2772C61.7346 60.8632 62.3077 61.2123 62.9095 61.2123C63.1189 61.2123 63.3319 61.1702 63.5364 61.0804C64.3262 60.7338 64.6863 59.8121 64.339 59.0217L62.4622 54.7444ZM51.6296 51.7695L54.6869 44.8018L57.7441 51.7695H51.6296Z" fill="#3D58B0"/>
<path d="M8.65723 10.4934C9.06799 10.4934 9.47083 10.3262 9.76196 10.0356C10.0525 9.74512 10.2197 9.34229 10.2197 8.93091C10.2197 8.52014 10.0525 8.11731 9.76196 7.82617C9.47083 7.53564 9.06799 7.36841 8.65723 7.36841C8.24463 7.36841 7.84302 7.53564 7.55249 7.82617C7.26196 8.11731 7.09473 8.52014 7.09473 8.93091C7.09473 9.34229 7.26196 9.74512 7.55249 10.0356C7.84302 10.3268 8.24585 10.4934 8.65723 10.4934Z" fill="#3D58B0"/>
<path d="M16.4582 35.5684C15.7014 35.9834 15.4243 36.9331 15.8393 37.6899C16.1237 38.2081 16.659 38.5017 17.2108 38.5017C17.4647 38.5017 17.7222 38.4395 17.9609 38.3088C21.4454 36.3978 24.126 33.4254 25.694 29.9202C27.2626 33.4254 29.9427 36.3978 33.4272 38.3088C33.6658 38.4395 33.9234 38.5017 34.1773 38.5017C34.7291 38.5017 35.2644 38.2081 35.5488 37.6899C35.9638 36.9331 35.6867 35.9834 34.9299 35.5684C30.8509 33.3314 28.1055 29.3336 27.4238 24.8164H34.361C35.2241 24.8164 35.9235 24.1169 35.9235 23.2539C35.9235 22.3909 35.2241 21.6914 34.361 21.6914H27.2565V15.1802C27.2565 14.3171 26.5571 13.6177 25.694 13.6177C24.831 13.6177 24.1315 14.3171 24.1315 15.1802V21.6914H18.487C17.624 21.6914 16.9245 22.3909 16.9245 23.2539C16.9245 24.1169 17.624 24.8164 18.487 24.8164H23.9643C23.2825 29.3336 20.5372 33.332 16.4582 35.5684Z" fill="#3D58B0"/>
</g>
<defs>
<clipPath id="clip0">
<rect width="80" height="80" fill="white" transform="translate(0 0.274902)"/>
</clipPath>
</defs>
</svg>
