<svg width="81" height="81" viewBox="0 0 81 81" fill="none" xmlns="http://www.w3.org/2000/svg">
<g clip-path="url(#clip0)">
<path d="M80.0951 40.2749C80.0951 39.6925 79.771 39.1584 79.2543 38.8895L64.1894 31.0509L79.2543 23.2122C79.771 22.9433 80.0951 22.4092 80.0951 21.8268C80.0951 21.2445 79.771 20.7104 79.2543 20.4414L66.2785 13.6898C65.5128 13.2917 64.5703 13.5892 64.1722 14.3543C63.7741 15.1194 64.0715 16.0625 64.8367 16.4606L75.1499 21.8267L40.1149 40.0562L5.07997 21.8267L40.1149 3.59712L52.3693 9.97334C53.135 10.3714 54.0775 10.0738 54.4756 9.30882C54.8737 8.54373 54.5762 7.60061 53.8111 7.20252L40.8358 0.451182C40.3837 0.216142 39.846 0.216142 39.394 0.451182L0.975599 20.4413C0.458824 20.71 0.134766 21.2442 0.134766 21.8267C0.134766 22.4092 0.458824 22.9432 0.975599 23.2121L16.0405 31.0507L0.975599 38.8895C0.458824 39.1584 0.134766 39.6925 0.134766 40.2749C0.134766 40.8573 0.458824 41.3914 0.975599 41.6603L16.0405 49.4989L0.975599 57.3377C0.458824 57.6066 0.134766 58.1407 0.134766 58.7231C0.134766 59.3055 0.458824 59.8396 0.975599 60.1085L39.394 80.0986C39.62 80.216 39.8674 80.2749 40.1149 80.2749C40.3625 80.2749 40.6098 80.2162 40.8358 80.0986L79.2543 60.1085C79.771 59.8396 80.0951 59.3055 80.0951 58.7231C80.0951 58.1407 79.771 57.6066 79.2543 57.3377L64.1894 49.4989L79.2543 41.6603C79.771 41.3914 80.0951 40.8573 80.0951 40.2749ZM40.8358 43.2022L60.8058 32.8112L65.4619 35.2339L30.4827 53.4926L24.2511 50.2501L38.5951 42.7866L39.3939 43.2022C39.6199 43.3196 39.8672 43.3785 40.1148 43.3785C40.3623 43.3785 40.6098 43.3196 40.8358 43.2022ZM35.2116 41.0259L20.8675 48.4894L14.6655 45.2624L29.0097 37.7989L35.2116 41.0259ZM19.4241 32.8112L25.626 36.0384L11.2819 43.5019L5.07981 40.2747L19.4241 32.8112ZM75.1499 58.7231L40.1149 76.9526L5.07997 58.7231L19.4241 51.2596L39.394 61.6505C39.62 61.768 39.8674 61.8269 40.1149 61.8269C40.3625 61.8269 40.6098 61.7681 40.8358 61.6505L60.8058 51.2596L75.1499 58.7231ZM40.1149 58.5044L33.8629 55.2514L68.8422 36.9929L75.1499 40.2749L40.1149 58.5044Z" fill="#3D58B0"/>
<path d="M59.3234 13.3935C59.7342 13.3935 60.1371 13.2264 60.4274 12.9359C60.7179 12.6454 60.8852 12.2425 60.8852 11.8317C60.8852 11.421 60.7181 11.0181 60.4274 10.7276C60.1371 10.4371 59.7342 10.27 59.3234 10.27C58.9127 10.27 58.5098 10.4371 58.2193 10.7276C57.9288 11.0181 57.7617 11.421 57.7617 11.8317C57.7617 12.2425 57.9287 12.6454 58.2193 12.9359C58.5099 13.2264 58.9127 13.3935 59.3234 13.3935Z" fill="#3D58B0"/>
</g>
<defs>
<clipPath id="clip0">
<rect width="80" height="80" fill="white" transform="translate(0.115234 0.274902)"/>
</clipPath>
</defs>
</svg>
