<svg width="83" height="84" viewBox="0 0 83 84" fill="none" xmlns="http://www.w3.org/2000/svg">
<path d="M6.86053 7.18095C6.7433 7.30494 6.65085 7.4502 6.58818 7.60891C6.51973 7.76419 6.48438 7.93203 6.48438 8.10173C6.48438 8.27142 6.51973 8.43926 6.58818 8.59454C6.64771 8.75484 6.74053 8.9007 6.86053 9.02251C7.10637 9.26361 7.43697 9.39867 7.78131 9.39867C8.12565 9.39867 8.45625 9.26361 8.70209 9.02251C8.9432 8.77667 9.07826 8.44607 9.07826 8.10173C9.07826 7.75739 8.9432 7.42679 8.70209 7.18095C8.45129 6.94954 8.12256 6.82104 7.78131 6.82104C7.44006 6.82104 7.11133 6.94954 6.86053 7.18095Z" fill="#3D58B0"/>
<path d="M11.1791 6.90831C11.0188 6.96783 10.873 7.06065 10.7512 7.18065C10.5101 7.42649 10.375 7.75709 10.375 8.10143C10.375 8.44577 10.5101 8.77637 10.7512 9.02221C10.9326 9.20511 11.1643 9.32984 11.4169 9.38051C11.6694 9.43118 11.9314 9.40549 12.1693 9.30671C12.4072 9.20793 12.6103 9.04054 12.7527 8.82588C12.8951 8.61123 12.9703 8.35902 12.9688 8.10143C12.9638 7.75811 12.8295 7.42932 12.5927 7.18065C12.4088 7.00318 12.1773 6.88296 11.9264 6.83461C11.6754 6.78626 11.4158 6.81186 11.1791 6.90831Z" fill="#3D58B0"/>
<path d="M15.0698 6.90837C14.911 6.97104 14.7658 7.06348 14.6418 7.18071C14.4007 7.42655 14.2656 7.75715 14.2656 8.10149C14.2656 8.44583 14.4007 8.77643 14.6418 9.02227C14.7679 9.13673 14.9127 9.22883 15.0698 9.29462C15.2257 9.36107 15.3931 9.39632 15.5626 9.39837C15.7334 9.4001 15.9028 9.36774 16.0609 9.30318C16.219 9.23862 16.3627 9.14316 16.4835 9.02239C16.6042 8.90161 16.6997 8.75796 16.7643 8.59983C16.8288 8.4417 16.8612 8.27228 16.8594 8.10149C16.8544 7.75818 16.7201 7.42938 16.4834 7.18071C16.2978 7.00603 16.0663 6.88769 15.8161 6.83947C15.5658 6.79125 15.307 6.81515 15.0698 6.90837Z" fill="#3D58B0"/>
<path d="M37.6094 24.9609H19.4531V27.5547H37.6094V24.9609Z" fill="#3D58B0"/>
<path d="M37.6094 32.7422H19.4531V35.3359H37.6094V32.7422Z" fill="#3D58B0"/>
<path d="M44.0938 40.5234H19.4531V43.1172H44.0938V40.5234Z" fill="#3D58B0"/>
<path d="M36.3125 48.3047H19.4531V50.8984H36.3125V48.3047Z" fill="#3D58B0"/>
<path d="M29.8281 56.0859H19.4531V58.6797H29.8281V56.0859Z" fill="#3D58B0"/>
<path d="M27.2344 63.8672H19.4531V66.4609H27.2344V63.8672Z" fill="#3D58B0"/>
<path d="M75.4405 18.4766C74.7882 18.4747 74.1419 18.6023 73.5393 18.8521C72.9367 19.1019 72.3896 19.4688 71.9299 19.9317L67.4375 24.424V6.80469C67.4375 5.77283 67.0276 4.78323 66.298 4.0536C65.5683 3.32397 64.5787 2.91406 63.5469 2.91406H6.48438C5.45252 2.91406 4.46292 3.32397 3.73329 4.0536C3.00365 4.78323 2.59375 5.77283 2.59375 6.80469V76.8359C2.59375 77.8678 3.00365 78.8574 3.73329 79.587C4.46292 80.3167 5.45252 80.7266 6.48438 80.7266H63.5469C64.5787 80.7266 65.5683 80.3167 66.298 79.587C67.0276 78.8574 67.4375 77.8678 67.4375 76.8359V38.4666L78.9512 26.9529C79.646 26.2587 80.1193 25.374 80.3111 24.4107C80.503 23.4474 80.4048 22.4488 80.0289 21.5414C79.6531 20.6339 79.0165 19.8583 78.1997 19.3128C77.383 18.7672 76.4227 18.4762 75.4405 18.4766ZM5.1875 6.80469C5.1875 6.46073 5.32413 6.13087 5.56735 5.88766C5.81056 5.64445 6.14042 5.50781 6.48438 5.50781H63.5469C63.8908 5.50781 64.2207 5.64445 64.4639 5.88766C64.7071 6.13087 64.8438 6.46073 64.8438 6.80469V10.6953H5.1875V6.80469ZM64.8438 76.8359C64.8438 77.1799 64.7071 77.5098 64.4639 77.753C64.2207 77.9962 63.8908 78.1328 63.5469 78.1328H6.48438C6.14042 78.1328 5.81056 77.9962 5.56735 77.753C5.32413 77.5098 5.1875 77.1799 5.1875 76.8359V13.2891H64.8438V27.0178L57.0625 34.799V30.9084L43.3338 17.1797H12.9688V74.2422H57.0625V48.8416L64.8438 41.0603V76.8359ZM33.8822 57.9794L30.3715 68.5113L40.9034 65.0007L44.6307 61.2734L54.4688 51.4353V71.6484H15.5625V19.7734H41.5V32.7422H54.4688V37.3928L37.6094 54.2522L33.8822 57.9794ZM37.6094 57.9197L40.9631 61.2734L39.5028 62.7337L34.4722 64.4106L36.1491 59.38L37.6094 57.9197ZM44.0938 21.6072L52.635 30.1484H44.0938V21.6072ZM42.7969 59.4397L39.4432 56.0859L70.0312 25.4978L73.385 28.8516L42.7969 59.4397ZM77.1174 25.1192L75.2188 27.0178L71.865 23.6641L73.7637 21.7654C73.9821 21.5374 74.2439 21.3553 74.5336 21.2298C74.8234 21.1042 75.1353 21.0378 75.4511 21.0344C75.7668 21.031 76.0801 21.0907 76.3725 21.21C76.6649 21.3293 76.9305 21.5057 77.1538 21.729C77.3771 21.9523 77.5535 22.2179 77.6728 22.5103C77.7921 22.8027 77.8518 23.116 77.8484 23.4317C77.845 23.7475 77.7786 24.0594 77.6531 24.3492C77.5275 24.6389 77.3454 24.9007 77.1174 25.1192Z" fill="#3D58B0"/>
</svg>
