<svg width="85" height="84" viewBox="0 0 85 84" fill="none" xmlns="http://www.w3.org/2000/svg">
<path d="M75.2095 2.91406H51.5845C49.8446 2.91612 48.1766 3.59996 46.9464 4.81557C45.7161 6.03118 45.0241 7.67931 45.022 9.39844V30.1484H39.772V28.8516H37.147V30.1484H33.2095C31.4696 30.1505 29.8016 30.8343 28.5714 32.0499C27.3411 33.2656 26.6491 34.9137 26.647 36.6328H25.4841V39.2266H26.647V44.4141H8.27197V80.7266H76.522V44.4141H63.397V39.2266H75.2095C76.9493 39.2245 78.6173 38.5407 79.8476 37.3251C81.0778 36.1095 81.7699 34.4613 81.772 32.7422V9.39844C81.7699 7.67931 81.0778 6.03118 79.8476 4.81557C78.6173 3.59996 76.9493 2.91612 75.2095 2.91406ZM33.2095 32.7422H56.8345C57.8788 32.7422 58.8803 33.1521 59.6187 33.8817C60.3571 34.6114 60.772 35.601 60.772 36.6328V46.4709L54.2095 39.9865L41.0845 52.9553L34.522 46.4709L29.272 51.6584V36.6328C29.272 35.601 29.6868 34.6114 30.4252 33.8817C31.1637 33.1521 32.1652 32.7422 33.2095 32.7422ZM46.3345 57.3828H45.5653L42.9403 54.7891L54.2095 43.6541L60.772 50.1385V59.9766C60.772 61.0084 60.3571 61.998 59.6187 62.7276C58.8803 63.4573 57.8788 63.8672 56.8345 63.8672H52.897C52.8949 62.1481 52.2028 60.4999 50.9726 59.2843C49.7423 58.0687 48.0743 57.3849 46.3345 57.3828ZM37.147 67.7578C36.7989 67.7578 36.465 67.6212 36.2189 67.378C35.9728 67.1348 35.8345 66.8049 35.8345 66.4609C35.8345 66.117 35.9728 65.7871 36.2189 65.5439C36.465 65.3007 36.7989 65.1641 37.147 65.1641H39.772V63.8672C39.772 62.8353 40.1868 61.8457 40.9252 61.1161C41.6637 60.3865 42.6652 59.9766 43.7095 59.9766H46.3345C47.3788 59.9766 48.3803 60.3865 49.1187 61.1161C49.8571 61.8457 50.272 62.8353 50.272 63.8672V71.6484C50.272 71.9924 50.1337 72.3223 49.8876 72.5655C49.6414 72.8087 49.3076 72.9453 48.9595 72.9453H41.0845C40.7364 72.9453 40.4025 72.8087 40.1564 72.5655C39.9103 72.3223 39.772 71.9924 39.772 71.6484V67.7578H37.147ZM34.2332 63.8672H33.2095C32.1652 63.8672 31.1637 63.4573 30.4252 62.7276C29.6868 61.998 29.272 61.0084 29.272 59.9766V55.326L34.522 50.1385L42.082 57.6098C40.8917 57.9095 39.8104 58.5334 38.9612 59.4103C38.1119 60.2873 37.5288 61.3821 37.2782 62.5703H37.147C36.5963 62.572 36.0522 62.6884 35.5502 62.9119C35.0481 63.1353 34.5994 63.4608 34.2332 63.8672ZM10.897 47.0078H26.647V52.1953H10.897V47.0078ZM73.897 78.1328H10.897V54.7891H26.647V59.9766C26.6491 61.6957 27.3411 63.3438 28.5714 64.5594C29.8016 65.775 31.4696 66.4589 33.2095 66.4609C33.2095 67.4928 33.6243 68.4824 34.3627 69.212C35.1012 69.9417 36.1027 70.3516 37.147 70.3516V71.6484C37.147 72.6803 37.5618 73.6699 38.3002 74.3995C39.0387 75.1292 40.0402 75.5391 41.0845 75.5391H48.9595C50.0038 75.5391 51.0053 75.1292 51.7437 74.3995C52.4821 73.6699 52.897 72.6803 52.897 71.6484V66.4609H56.8345C58.5743 66.4589 60.2423 65.775 61.4726 64.5594C62.7028 63.3438 63.3949 61.6957 63.397 59.9766V54.7891H73.897V78.1328ZM73.897 47.0078V52.1953H63.397V47.0078H73.897ZM79.147 32.7422C79.147 33.774 78.7321 34.7636 77.9937 35.4933C77.2553 36.2229 76.2538 36.6328 75.2095 36.6328H63.397C63.3962 35.7394 63.2066 34.856 62.8405 34.0391H67.3345V31.4453H64.7095V10.6953H71.272V13.2891H73.897V8.10156H52.897V13.2891H55.522V10.6953H62.0845V31.4453H60.7313C59.6086 30.6077 58.2412 30.1526 56.8345 30.1484H47.647V9.39844C47.647 8.36658 48.0618 7.37698 48.8002 6.64735C49.5387 5.91772 50.5402 5.50781 51.5845 5.50781H75.2095C76.2538 5.50781 77.2553 5.91772 77.9937 6.64735C78.7321 7.37698 79.147 8.36658 79.147 9.39844V32.7422Z" fill="#3D58B0"/>
<path d="M12.5901 48.6808C12.3505 48.9294 12.2146 49.2582 12.2095 49.6015C12.2121 49.9454 12.3483 50.275 12.5901 50.5223C12.8418 50.7591 13.1745 50.8934 13.522 50.8984C13.61 50.8962 13.6977 50.8875 13.7845 50.8725C13.8667 50.8584 13.9464 50.8321 14.0207 50.7947C14.1014 50.7689 14.1769 50.7294 14.2438 50.678C14.3226 50.6261 14.3882 50.5742 14.4538 50.5223C14.6956 50.275 14.8319 49.9454 14.8345 49.6015C14.836 49.3439 14.7598 49.0917 14.6157 48.8771C14.4716 48.6624 14.2661 48.495 14.0253 48.3963C13.7845 48.2975 13.5194 48.2718 13.2638 48.3225C13.0082 48.3731 12.7737 48.4979 12.5901 48.6808Z" fill="#3D58B0"/>
<path d="M16.9607 48.4085C16.8017 48.4743 16.6553 48.5664 16.5276 48.6809C16.288 48.9295 16.1521 49.2583 16.147 49.6016C16.1496 49.9455 16.2858 50.2751 16.5276 50.5224C16.6553 50.6369 16.8017 50.729 16.9607 50.7948C17.1165 50.8675 17.2873 50.903 17.4595 50.8985C17.8069 50.8935 18.1397 50.7592 18.3913 50.5224C18.6331 50.2751 18.7694 49.9455 18.772 49.6016C18.7669 49.2583 18.631 48.9295 18.3913 48.6809C18.2068 48.5009 17.9724 48.379 17.7178 48.3305C17.4632 48.2821 17.1997 48.3092 16.9607 48.4085Z" fill="#3D58B0"/>
<path d="M22.3289 48.6808C22.1453 48.4979 21.9107 48.3731 21.6551 48.3225C21.3995 48.2718 21.1344 48.2975 20.8937 48.3963C20.6529 48.495 20.4474 48.6624 20.3032 48.8771C20.1591 49.0917 20.083 49.3439 20.0845 49.6015C20.0871 49.9454 20.2234 50.275 20.4651 50.5223C20.7139 50.7634 21.0485 50.8985 21.397 50.8985C21.7455 50.8985 22.0801 50.7634 22.3289 50.5223C22.3853 50.4607 22.4379 50.3957 22.4864 50.3278C22.5361 50.2555 22.5758 50.177 22.6045 50.0944C22.6424 50.0209 22.669 49.9422 22.6832 49.8609C22.6985 49.7752 22.7073 49.6885 22.7095 49.6015C22.7044 49.2582 22.5685 48.9294 22.3289 48.6808Z" fill="#3D58B0"/>
<path d="M35.8345 43.1172C36.6132 43.1172 37.3745 42.889 38.022 42.4615C38.6695 42.034 39.1742 41.4264 39.4722 40.7154C39.7703 40.0045 39.8482 39.2223 39.6963 38.4675C39.5444 37.7128 39.1694 37.0196 38.6187 36.4755C38.068 35.9314 37.3664 35.5608 36.6026 35.4107C35.8388 35.2606 35.0471 35.3376 34.3277 35.6321C33.6082 35.9266 32.9932 36.4252 32.5606 37.0651C32.1279 37.7049 31.897 38.4571 31.897 39.2266C31.897 40.2584 32.3118 41.248 33.0502 41.9777C33.7887 42.7073 34.7902 43.1172 35.8345 43.1172ZM35.8345 37.9297C36.0941 37.9297 36.3478 38.0058 36.5637 38.1483C36.7795 38.2908 36.9477 38.4933 37.0471 38.7303C37.1464 38.9672 37.1724 39.228 37.1218 39.4796C37.0711 39.7311 36.9461 39.9622 36.7625 40.1436C36.579 40.325 36.3451 40.4485 36.0905 40.4985C35.8359 40.5486 35.572 40.5229 35.3322 40.4247C35.0924 40.3266 34.8874 40.1603 34.7432 39.9471C34.5989 39.7338 34.522 39.4831 34.522 39.2266C34.522 38.8826 34.6603 38.5527 34.9064 38.3095C35.1525 38.0663 35.4864 37.9297 35.8345 37.9297Z" fill="#3D58B0"/>
<path d="M33.2097 2.91406H29.2275V5.50781H33.27L33.2097 2.91406Z" fill="#3D58B0"/>
<path d="M35.9497 6.60499C36.6754 7.29638 37.1041 8.23723 37.1467 9.23246L39.7717 9.12352C39.7018 7.46403 38.9873 5.89501 37.7767 4.74268L35.9497 6.60499Z" fill="#3D58B0"/>
<path d="M21.5007 36.6328H17.5186V39.2266H21.5007V36.6328Z" fill="#3D58B0"/>
<path d="M5.64697 9.38281L3.02197 9.39838V13.3175H5.64697V9.38281Z" fill="#3D58B0"/>
<path d="M25.2438 2.91406H21.2617V5.50781H25.2438V2.91406Z" fill="#3D58B0"/>
<path d="M17.28 2.91406H13.2979V5.50781H17.28V2.91406Z" fill="#3D58B0"/>
<path d="M39.772 13.1125H37.147V17.0473H39.772V13.1125Z" fill="#3D58B0"/>
<path d="M39.772 20.9822H37.147V24.9169H39.772V20.9822Z" fill="#3D58B0"/>
<path d="M9.24826 2.92334C7.57055 3.00445 5.9891 3.72166 4.83301 4.92571L6.73351 6.7141C7.42608 5.99057 8.37422 5.55861 9.38082 5.50801L9.24826 2.92334Z" fill="#3D58B0"/>
<path d="M9.5542 36.6328L9.58439 39.2266H13.5363V36.6328L9.66576 36.6354L9.5542 36.6328Z" fill="#3D58B0"/>
<path d="M3.02979 33.0548C3.10763 34.7131 3.82918 36.2779 5.04447 37.424L6.86097 35.5513C6.12989 34.8652 5.69498 33.9268 5.64691 32.9316L3.02979 33.0548Z" fill="#3D58B0"/>
<path d="M5.64697 25.123H3.02197V29.0578H5.64697V25.123Z" fill="#3D58B0"/>
<path d="M5.64697 17.2537H3.02197V21.1897H5.64697V17.2537Z" fill="#3D58B0"/>
</svg>
