<svg width="81" height="81" viewBox="0 0 81 81" fill="none" xmlns="http://www.w3.org/2000/svg">
<g clip-path="url(#clip0)">
<path d="M40.0664 8.0686C40.9294 8.0686 41.6289 7.36905 41.6289 6.5061C41.6289 5.64316 40.9294 4.9436 40.0664 4.9436C39.2035 4.9436 38.5039 5.64316 38.5039 6.5061C38.5039 7.36905 39.2035 8.0686 40.0664 8.0686Z" fill="#3D58B0"/>
<path d="M78.5527 41.6624H76.0527V15.0999C76.0527 12.5152 73.9499 10.4124 71.3652 10.4124C70.2182 10.4124 69.1666 10.8272 68.3512 11.5136L65.8324 5.8686C65.5809 5.30767 65.0215 4.9436 64.4043 4.9436H47.0965C46.2355 4.9436 45.534 5.64517 45.534 6.5061C45.534 7.3686 46.2355 8.0686 47.0965 8.0686H63.3918L66.6777 15.4313V41.6624H59.8027C58.9398 41.6624 58.2402 42.362 58.2402 43.2249V48.3811H48.2688L43.6309 42.8155V35.5897C43.9346 35.8877 44.3295 36.0374 44.7246 36.0374C45.1245 36.0374 45.5245 35.8847 45.8295 35.5797C46.4396 34.9695 46.4396 33.9802 45.8295 33.3699L43.6309 31.1714V27.7561C43.6309 26.8933 42.9313 26.1936 42.0684 26.1936C41.2054 26.1936 40.5059 26.8933 40.5059 27.7561V28.0464L38.1727 25.7133C38.4662 25.1013 38.6309 24.4163 38.6309 23.6934C38.6309 21.1088 36.528 19.0059 33.9434 19.0059C31.3587 19.0059 29.2559 21.1088 29.2559 23.6934C29.2559 26.2781 31.3587 28.3809 33.9434 28.3809C34.6662 28.3809 35.351 28.2163 35.963 27.9228L40.5059 32.4656V42.8153L35.8679 48.3809H21.9902V43.2247C21.9902 42.3619 21.2907 41.6622 20.4277 41.6622H13.5527V15.4327L16.8387 8.0686H33.034C33.8965 8.0686 34.5965 7.36704 34.5965 6.5061C34.5965 5.64517 33.8965 4.9436 33.034 4.9436H15.8246C15.209 4.9436 14.6496 5.30767 14.398 5.8686L11.8793 11.5136C11.0637 10.827 10.0123 10.4124 8.86523 10.4124C6.28055 10.4124 4.17773 12.5152 4.17773 15.0999V41.6624H1.67773C0.814766 41.6624 0.115234 42.362 0.115234 43.2249V74.4749C0.115234 75.3377 0.814766 76.0374 1.67773 76.0374H78.5527C79.4157 76.0374 80.1152 75.3377 80.1152 74.4749V43.2249C80.1152 42.362 79.4157 41.6624 78.5527 41.6624ZM32.3809 23.6936C32.3809 22.832 33.0818 22.1311 33.9434 22.1311C34.8049 22.1311 35.5059 22.832 35.5059 23.6936C35.5059 24.5552 34.8049 25.2561 33.9434 25.2561C33.0818 25.2561 32.3809 24.5552 32.3809 23.6936ZM69.8027 15.0999C69.8027 14.2383 70.5037 13.5374 71.3652 13.5374C72.2268 13.5374 72.9277 14.2383 72.9277 15.0999V41.6624H69.8027V15.0999ZM41.6777 59.7769L47.6626 65.3342L41.6777 70.8916V59.7769ZM38.5527 70.8916L32.5679 65.3342L38.5527 59.7769V70.8916ZM44.0943 57.7561H55.8237L49.959 63.2019L44.0943 57.7561ZM30.2715 63.2019L24.4068 57.7561H36.1362L30.2715 63.2019ZM21.9902 59.7769L27.9751 65.3342L21.9902 70.8916V59.7769ZM30.2715 67.4666L36.1362 72.9124H24.4068L30.2715 67.4666ZM49.959 67.4666L55.8237 72.9124H44.0943L49.959 67.4666ZM52.2554 65.3342L58.2402 59.7769V70.8917L52.2554 65.3342ZM42.0684 45.8217L44.2012 48.3811H39.9355L42.0684 45.8217ZM58.2402 51.5061V54.6311H21.9902V51.5061H58.2402ZM7.30273 15.0999C7.30273 14.2383 8.00367 13.5374 8.86523 13.5374C9.7268 13.5374 10.4277 14.2383 10.4277 15.0999V41.6624H7.30273V15.0999ZM3.24023 44.7874H18.8652V72.9124H3.24023V44.7874ZM76.9902 72.9124H61.3652V44.7874H76.9902V72.9124Z" fill="#3D58B0"/>
<path d="M69.1777 47.9124C66.593 47.9124 64.4902 50.0152 64.4902 52.5999C64.4902 55.1845 66.593 57.2874 69.1777 57.2874C71.7624 57.2874 73.8652 55.1845 73.8652 52.5999C73.8652 50.0152 71.7624 47.9124 69.1777 47.9124ZM69.1777 54.1624C68.3162 54.1624 67.6152 53.4614 67.6152 52.5999C67.6152 51.7383 68.3162 51.0374 69.1777 51.0374C70.0393 51.0374 70.7402 51.7383 70.7402 52.5999C70.7402 53.4614 70.0393 54.1624 69.1777 54.1624Z" fill="#3D58B0"/>
<path d="M69.1777 60.4124C66.593 60.4124 64.4902 62.5152 64.4902 65.0999C64.4902 67.6845 66.593 69.7874 69.1777 69.7874C71.7624 69.7874 73.8652 67.6845 73.8652 65.0999C73.8652 62.5152 71.7624 60.4124 69.1777 60.4124ZM69.1777 66.6624C68.3162 66.6624 67.6152 65.9614 67.6152 65.0999C67.6152 64.2383 68.3162 63.5374 69.1777 63.5374C70.0393 63.5374 70.7402 64.2383 70.7402 65.0999C70.7402 65.9614 70.0393 66.6624 69.1777 66.6624Z" fill="#3D58B0"/>
<path d="M11.0527 47.9124C8.46805 47.9124 6.36523 50.0152 6.36523 52.5999C6.36523 55.1845 8.46805 57.2874 11.0527 57.2874C13.6374 57.2874 15.7402 55.1845 15.7402 52.5999C15.7402 50.0152 13.6374 47.9124 11.0527 47.9124ZM11.0527 54.1624C10.1912 54.1624 9.49023 53.4614 9.49023 52.5999C9.49023 51.7383 10.1912 51.0374 11.0527 51.0374C11.9143 51.0374 12.6152 51.7383 12.6152 52.5999C12.6152 53.4614 11.9143 54.1624 11.0527 54.1624Z" fill="#3D58B0"/>
<path d="M11.0527 60.4124C8.46805 60.4124 6.36523 62.5152 6.36523 65.0999C6.36523 67.6845 8.46805 69.7874 11.0527 69.7874C13.6374 69.7874 15.7402 67.6845 15.7402 65.0999C15.7402 62.5152 13.6374 60.4124 11.0527 60.4124ZM11.0527 66.6624C10.1912 66.6624 9.49023 65.9614 9.49023 65.0999C9.49023 64.2383 10.1912 63.5374 11.0527 63.5374C11.9143 63.5374 12.6152 64.2383 12.6152 65.0999C12.6152 65.9614 11.9143 66.6624 11.0527 66.6624Z" fill="#3D58B0"/>
</g>
<defs>
<clipPath id="clip0">
<rect width="80" height="80" fill="white" transform="translate(0.115234 0.490479)"/>
</clipPath>
</defs>
</svg>
