<svg width="84" height="84" viewBox="0 0 84 84" fill="none" xmlns="http://www.w3.org/2000/svg">
<path d="M62.7446 57.9016L59.8344 59.5875C59.0771 58.9934 58.2408 58.5076 57.3496 58.1441V54.7891H49.5684V58.1441C48.6774 58.5064 47.8411 58.9909 47.0835 59.5836L46.9746 59.5214V52.1953C46.9746 48.6315 39.5824 47.0078 32.709 47.0078C25.8355 47.0078 18.4434 48.6315 18.4434 52.1953V75.5391C18.4434 79.1029 25.8355 80.7266 32.709 80.7266C39.2517 80.7266 46.2548 79.2507 46.9098 76.0319L47.0835 75.932C47.8411 76.5247 48.6774 77.0092 49.5684 77.3715V80.7266H57.3496V77.3715C58.2406 77.0092 59.0769 76.5247 59.8344 75.932L62.7446 77.618L66.6352 70.8742L63.7289 69.196C63.869 68.2441 63.869 67.2767 63.7289 66.3248L66.6352 64.6453L62.7446 57.9016ZM44.1734 57.9016L42.2527 61.228C39.1646 62.1872 35.9418 62.6405 32.709 62.5703C25.121 62.5703 21.2316 60.6769 21.0371 59.9766V55.3506C21.0553 55.3597 21.0773 55.3662 21.0955 55.3752C21.4076 55.5291 21.7417 55.674 22.098 55.8097C22.1926 55.846 22.2964 55.8784 22.3949 55.9148C22.6699 56.0133 22.9526 56.108 23.247 56.1962C23.387 56.2377 23.5284 56.2766 23.6724 56.3155C23.9533 56.3933 24.2417 56.4664 24.5374 56.5347C24.6787 56.5684 24.8188 56.6021 24.9627 56.6319C25.3328 56.7115 25.7106 56.7841 26.0962 56.8498L26.3141 56.89C26.7758 56.9652 27.247 57.0318 27.7277 57.0897L28.1427 57.1338C28.4941 57.1727 28.8469 57.2077 29.2048 57.2363C29.3721 57.2505 29.5394 57.2635 29.708 57.2752C30.0569 57.2985 30.407 57.3193 30.7585 57.3348L31.2189 57.3556C31.7169 57.3724 32.2136 57.3828 32.709 57.3828C33.2044 57.3828 33.7011 57.3724 34.1991 57.3556L34.6595 57.3348C35.0109 57.3193 35.3611 57.2985 35.71 57.2752C35.8785 57.2635 36.0458 57.2505 36.2131 57.2363C36.5711 57.2077 36.9238 57.1727 37.2753 57.1338L37.6903 57.0897C38.1701 57.0309 38.6413 56.9644 39.1039 56.89L39.3217 56.8498C39.7082 56.7832 40.086 56.7106 40.4552 56.6319C40.5992 56.6021 40.7392 56.5684 40.8806 56.5347C41.1763 56.4664 41.4646 56.3933 41.7456 56.3155C41.8896 56.2766 42.0309 56.2377 42.171 56.1962C42.4654 56.108 42.7481 56.0133 43.023 55.9148C43.1216 55.8784 43.2253 55.846 43.32 55.8097C43.6754 55.6748 44.0095 55.53 44.3225 55.3752C44.3407 55.3662 44.3627 55.3597 44.3809 55.3506V58.0235L44.1734 57.9016ZM32.709 49.6016C33.181 49.6016 33.6388 49.6093 34.0837 49.6223C34.2406 49.6223 34.3858 49.6379 34.5402 49.6444C34.819 49.656 35.1004 49.6664 35.3676 49.6833C35.5867 49.6975 35.7917 49.717 36.003 49.7338C36.1911 49.7494 36.3921 49.7624 36.5672 49.7792C36.8266 49.8039 37.0626 49.8337 37.3051 49.8622C37.4283 49.8778 37.5645 49.8895 37.6773 49.905C37.9963 49.9465 38.2985 49.9932 38.5942 50.0347L38.698 50.049C42.2981 50.6468 44.1889 51.6805 44.3744 52.1849C44.3649 52.2074 44.3537 52.2291 44.3407 52.2498C44.3265 52.2779 44.31 52.3048 44.2914 52.3302C44.2719 52.3535 44.2434 52.3782 44.22 52.4028C44.1967 52.4275 44.1591 52.4677 44.1176 52.5027C44.0761 52.5377 44.0515 52.552 44.019 52.5766C43.9866 52.6012 43.9205 52.6518 43.8595 52.692C43.8219 52.7167 43.7739 52.7426 43.7298 52.7685C43.6611 52.81 43.6001 52.8515 43.5145 52.8982C43.4666 52.9242 43.4082 52.9501 43.3576 52.976C43.2694 53.0214 43.1838 53.0655 43.084 53.1057L42.9011 53.1835C42.7935 53.2289 42.6884 53.2756 42.5691 53.3223C42.503 53.3482 42.4265 53.3742 42.3564 53.4001C42.2267 53.4468 42.1061 53.4935 41.9674 53.5389C41.887 53.5661 41.7962 53.592 41.708 53.6193C41.5666 53.6634 41.4292 53.7088 41.2774 53.749C41.1802 53.7775 41.0725 53.8034 40.9714 53.8307C40.8183 53.8722 40.6679 53.9137 40.5045 53.9539C40.3891 53.9824 40.262 54.0083 40.1414 54.0356C39.9793 54.0732 39.821 54.1108 39.6499 54.1458C39.5111 54.1743 39.3607 54.199 39.2154 54.2262C39.0468 54.2573 38.8821 54.2911 38.7057 54.3196C38.5294 54.3481 38.366 54.3702 38.1961 54.3961C38.0262 54.422 37.8589 54.4493 37.6773 54.4726C37.4957 54.496 37.2882 54.518 37.0885 54.5401C36.9122 54.5595 36.7423 54.5816 36.5607 54.5997C36.3402 54.6205 36.1055 54.636 35.8759 54.6542C35.7035 54.6672 35.5388 54.684 35.3572 54.6957C35.068 54.7138 34.7645 54.7255 34.4611 54.7372C34.3314 54.7372 34.2017 54.7515 34.072 54.7566C33.6272 54.7696 33.1642 54.7774 32.6973 54.7774C31.7493 54.7774 30.8583 54.7476 30.0257 54.6944C24.2157 54.3235 21.2187 52.8074 21.0293 52.1901C21.2744 51.4755 25.1599 49.6016 32.709 49.6016ZM21.0371 63.1241C23.7956 64.5156 28.3541 65.1641 32.709 65.1641C35.2923 65.1813 37.8708 64.9362 40.4046 64.4326L40.2827 64.644L43.189 66.3222C43.1197 66.7976 43.0846 67.2774 43.084 67.7578C43.084 68.0496 43.1216 68.3492 43.1488 68.6462C39.8188 69.9102 36.2682 70.4902 32.709 70.3516C25.121 70.3516 21.2316 68.4581 21.0371 67.7578V63.1241ZM21.0371 75.5391V70.9131C23.7982 72.2969 28.3593 72.9453 32.709 72.9453C35.4893 72.9679 38.2632 72.676 40.9779 72.0751L43.4134 76.2964C41.8169 77.1213 38.2557 78.1328 32.709 78.1328C25.121 78.1328 21.2316 76.2394 21.0371 75.5391ZM61.0211 65.9565C61.3133 67.1396 61.3133 68.376 61.0211 69.5592L60.7993 70.4981L63.0922 71.8222L61.7953 74.0684L59.5011 72.7443L58.7982 73.4057C57.9157 74.2423 56.8499 74.8609 55.6857 75.2123L54.7559 75.4872V78.1328H52.1621V75.4872L51.2348 75.2123C50.0707 74.8609 49.0048 74.2423 48.1223 73.4057L47.4194 72.7443L45.1253 74.0684L43.8284 71.8222L46.1213 70.4981L45.8995 69.5592C45.6073 68.376 45.6073 67.1396 45.8995 65.9565L46.1213 65.0175L43.8284 63.6934L45.1253 61.4472L47.4194 62.7713L48.1223 62.1099C49.0048 61.2733 50.0707 60.6547 51.2348 60.3034L52.1621 60.0284V57.3828H54.7559V60.0284L55.6831 60.3034C56.8473 60.6547 57.9131 61.2733 58.7956 62.1099L59.4985 62.7713L61.7927 61.4472L63.0896 63.6934L60.7993 65.0175L61.0211 65.9565Z" fill="#3D58B0"/>
<path d="M53.459 62.5703C52.433 62.5703 51.43 62.8746 50.577 63.4446C49.7239 64.0146 49.059 64.8248 48.6664 65.7726C48.2737 66.7205 48.171 67.7636 48.3712 68.7698C48.5713 69.7761 49.0654 70.7004 49.7909 71.4259C50.5164 72.1514 51.4407 72.6455 52.447 72.8456C53.4532 73.0458 54.4963 72.9431 55.4442 72.5504C56.3921 72.1578 57.2022 71.4929 57.7722 70.6398C58.3423 69.7868 58.6465 68.7838 58.6465 67.7578C58.6465 66.382 58.1 65.0625 57.1271 64.0897C56.1543 63.1169 54.8348 62.5703 53.459 62.5703ZM53.459 70.3516C52.946 70.3516 52.4445 70.1995 52.018 69.9144C51.5914 69.6294 51.259 69.2243 51.0627 68.7504C50.8664 68.2765 50.815 67.7549 50.9151 67.2518C51.0152 66.7487 51.2622 66.2865 51.6249 65.9238C51.9877 65.561 52.4498 65.314 52.953 65.2139C53.4561 65.1138 53.9776 65.1652 54.4516 65.3615C54.9255 65.5578 55.3306 65.8903 55.6156 66.3168C55.9006 66.7433 56.0527 67.2448 56.0527 67.7578C56.0527 68.4457 55.7795 69.1055 55.2931 69.5919C54.8066 70.0783 54.1469 70.3516 53.459 70.3516Z" fill="#3D58B0"/>
<path d="M49.5684 2.91406H34.0059V28.8516H49.5684V2.91406ZM46.9746 5.50781V21.0703H36.5996V5.50781H46.9746ZM41.7871 26.2578H36.5996V23.6641H46.9746V26.2578H41.7871Z" fill="#3D58B0"/>
<path d="M43.084 24.9609C43.0792 24.6175 42.9449 24.2887 42.7079 24.0401C42.5544 23.8903 42.3668 23.7801 42.1611 23.7191C41.9555 23.6581 41.7381 23.6481 41.5277 23.69C41.4465 23.7041 41.3678 23.7303 41.2943 23.7678C41.2113 23.7964 41.1324 23.8356 41.0596 23.8845C40.9923 23.9327 40.9278 23.9847 40.8663 24.0401C40.6288 24.2883 40.4944 24.6174 40.4902 24.9609C40.4902 25.3049 40.6269 25.6347 40.8701 25.8779C41.1133 26.1212 41.4432 26.2578 41.7871 26.2578C42.1311 26.2578 42.4609 26.1212 42.7041 25.8779C42.9474 25.6347 43.084 25.3049 43.084 24.9609Z" fill="#3D58B0"/>
<path d="M17.1465 31.4453H14.5527V39.2266H40.4902V44.4141H43.084V39.2266H69.0215V31.4453H66.4277V36.6328H43.084V31.4453H40.4902V36.6328H17.1465V31.4453Z" fill="#3D58B0"/>
<path d="M10.6621 26.2578H8.06836V28.8516H23.6309V26.2578H21.0371V23.6641H28.8184V2.91406H2.88086V23.6641H10.6621V26.2578ZM18.4434 26.2578H13.2559V23.6641H18.4434V26.2578ZM5.47461 5.50781H26.2246V15.8828H5.47461V5.50781ZM5.47461 21.0703V18.4766H26.2246V21.0703H5.47461Z" fill="#3D58B0"/>
<path d="M54.7559 28.8516H80.6934V2.91406H54.7559V28.8516ZM78.0996 26.2578H57.3496V13.2891H78.0996V26.2578ZM57.3496 5.50781H78.0996V10.6953H57.3496V5.50781Z" fill="#3D58B0"/>
<path d="M60.657 7.02519C60.5907 6.97404 60.5161 6.93456 60.4365 6.90847C60.3588 6.86905 60.2751 6.84276 60.1888 6.83066C59.9805 6.78894 59.765 6.79906 59.5615 6.86011C59.358 6.92117 59.1726 7.0313 59.0216 7.18082C58.9044 7.30481 58.8119 7.45007 58.7493 7.60879C58.6482 7.84465 58.6201 8.10538 58.6687 8.35735C58.7172 8.60931 58.8402 8.84095 59.0216 9.02238C59.1478 9.13683 59.2925 9.22894 59.4496 9.29472C59.6049 9.36318 59.7727 9.39853 59.9424 9.39853C60.1121 9.39853 60.2799 9.36318 60.4352 9.29472C60.5921 9.22862 60.7368 9.13655 60.8632 9.02238C60.984 8.90156 61.0795 8.75795 61.1443 8.59987C61.2091 8.4418 61.2418 8.27243 61.2406 8.1016C61.2358 7.75823 61.1015 7.42934 60.8645 7.18082C60.8007 7.12214 60.7312 7.07 60.657 7.02519Z" fill="#3D58B0"/>
<path d="M64.7547 7.18095C64.5039 6.94954 64.1751 6.82104 63.8339 6.82104C63.4926 6.82104 63.1639 6.94954 62.9131 7.18095C62.7959 7.30494 62.7034 7.4502 62.6408 7.60891C62.5743 7.76483 62.539 7.93225 62.537 8.10173C62.5325 8.27185 62.5681 8.44066 62.6408 8.59454C62.7069 8.75148 62.7989 8.89616 62.9131 9.02251C63.0945 9.20396 63.3262 9.32689 63.5781 9.37544C63.8301 9.42398 64.0908 9.39591 64.3267 9.29485C64.4836 9.22875 64.6283 9.13668 64.7547 9.02251C64.8688 8.89616 64.9609 8.75148 65.027 8.59454C65.0955 8.43926 65.1308 8.27142 65.1308 8.10173C65.1308 7.93203 65.0955 7.76419 65.027 7.60891C64.9612 7.45181 64.8691 7.30708 64.7547 7.18095Z" fill="#3D58B0"/>
<path d="M68.6453 7.18094C68.519 7.06677 68.3743 6.9747 68.2174 6.9086C67.981 6.80437 67.7179 6.77714 67.4652 6.83079C67.3839 6.8449 67.3052 6.87113 67.2317 6.9086C67.1488 6.93718 67.0699 6.97642 66.997 7.02532C66.9297 7.07352 66.8652 7.12548 66.8038 7.18094C66.6838 7.30275 66.5909 7.44861 66.5314 7.60891C66.463 7.76421 66.4277 7.93204 66.4277 8.10172C66.4277 8.27141 66.463 8.43924 66.5314 8.59453C66.5975 8.75147 66.6896 8.89615 66.8038 9.0225C66.9299 9.13696 67.0746 9.22906 67.2317 9.29485C67.3876 9.3613 67.5551 9.39655 67.7246 9.3986C68.0684 9.39604 68.398 9.26138 68.6453 9.0225C68.7595 8.89615 68.8516 8.75147 68.9177 8.59453C68.9861 8.43926 69.0215 8.27142 69.0215 8.10172C69.0215 7.93202 68.9861 7.76419 68.9177 7.60891C68.8582 7.44861 68.7653 7.30275 68.6453 7.18094Z" fill="#3D58B0"/>
</svg>
