<svg width="81" height="81" viewBox="0 0 81 81" fill="none" xmlns="http://www.w3.org/2000/svg">
<path d="M34.8663 42.0727C41.9209 42.0727 47.6604 36.3334 47.6604 29.2787C47.6604 22.224 41.921 16.4846 34.8663 16.4846C27.8116 16.4846 22.0723 22.224 22.0723 29.2787C22.0723 36.3334 27.8118 42.0727 34.8663 42.0727ZM34.8663 19.6096C40.1979 19.6096 44.5354 23.9471 44.5354 29.2787C44.5354 34.6102 40.1979 38.9477 34.8663 38.9477C29.5348 38.9477 25.1973 34.6102 25.1973 29.2787C25.1973 23.9471 29.5348 19.6096 34.8663 19.6096Z" fill="#3D58B0"/>
<path d="M32.0536 33.9225C32.5537 34.2113 33.1025 34.3556 33.6511 34.3556C34.1998 34.3556 34.7484 34.2113 35.2487 33.9225L38.4992 32.0459C39.4995 31.4684 40.0968 30.4339 40.0968 29.2789C40.0968 28.1239 39.4996 27.0894 38.4992 26.5119L35.2487 24.6353C34.2487 24.0578 33.0543 24.0577 32.0537 24.6353C31.0534 25.2128 30.4561 26.2474 30.4561 27.4025V31.1556C30.4559 32.3105 31.0532 33.345 32.0536 33.9225ZM33.5809 27.4022C33.5809 27.3813 33.5809 27.3616 33.6161 27.3414C33.6309 27.3328 33.6426 27.3297 33.6523 27.3297C33.6656 27.3297 33.6756 27.3355 33.6861 27.3414L36.9365 29.218C36.9545 29.2285 36.9717 29.2381 36.9717 29.2788C36.9717 29.3194 36.9546 29.3291 36.9365 29.3395L33.6861 31.2161C33.6679 31.2264 33.6509 31.2364 33.6161 31.2161C33.5809 31.1959 33.5809 31.1763 33.5809 31.1553V27.4022Z" fill="#3D58B0"/>
<path d="M52.416 47.3655H17.0713C16.2085 47.3655 15.5088 48.065 15.5088 48.928C15.5088 49.7909 16.2085 50.4905 17.0713 50.4905H52.416C53.2788 50.4905 53.9785 49.7909 53.9785 48.928C53.9785 48.065 53.2789 47.3655 52.416 47.3655Z" fill="#3D58B0"/>
<path d="M48.2188 54.553H17.0713C16.2085 54.553 15.5088 55.2525 15.5088 56.1155C15.5088 56.9784 16.2085 57.678 17.0713 57.678H48.2188C49.0816 57.678 49.7813 56.9784 49.7813 56.1155C49.7813 55.2525 49.0816 54.553 48.2188 54.553Z" fill="#3D58B0"/>
<path d="M48.2188 61.7405H17.0713C16.2085 61.7405 15.5088 62.44 15.5088 63.303C15.5088 64.1659 16.2085 64.8655 17.0713 64.8655H48.2188C49.0816 64.8655 49.7813 64.1659 49.7813 63.303C49.7813 62.44 49.0816 61.7405 48.2188 61.7405Z" fill="#3D58B0"/>
<path d="M48.2188 68.928H17.0713C16.2085 68.928 15.5088 69.6275 15.5088 70.4905C15.5088 71.3534 16.2085 72.053 17.0713 72.053H48.2188C49.0816 72.053 49.7813 71.3534 49.7813 70.4905C49.7813 69.6275 49.0816 68.928 48.2188 68.928Z" fill="#3D58B0"/>
<path d="M77.086 21.1875L73.5059 19.8539C72.3418 19.4203 71.0777 19.4659 69.9476 19.9825C68.8174 20.4992 67.956 21.4252 67.5224 22.5895L63.3034 33.9156V11.428C63.3034 8.84329 61.2006 6.74048 58.6159 6.74048H56.9902V5.17798C56.9902 2.59329 54.8874 0.490479 52.3027 0.490479H4.80273C2.21805 0.490479 0.115234 2.59329 0.115234 5.17798V69.553C0.115234 72.1377 2.21805 74.2405 4.80273 74.2405H6.42836V75.803C6.42836 78.3877 8.53117 80.4905 11.1159 80.4905H58.6159C61.2006 80.4905 63.3034 78.3877 63.3034 75.803V66.4634L65.9129 64.0352C66.0909 63.8694 66.2279 63.6645 66.3127 63.4367L79.8218 27.1713C80.7171 24.7674 79.4899 22.0831 77.086 21.1875ZM60.1782 75.803C60.1782 76.6645 59.4773 77.3655 58.6157 77.3655H11.1157C10.2541 77.3655 9.5532 76.6645 9.5532 75.803V50.6467C9.5532 49.7838 8.85352 49.0842 7.9907 49.0842C7.12789 49.0842 6.4282 49.7838 6.4282 50.6467V71.1155H4.80258C3.94102 71.1155 3.24008 70.4145 3.24008 69.553V5.17798C3.24008 4.31642 3.94102 3.61548 4.80258 3.61548H52.3026C53.1642 3.61548 53.8651 4.31642 53.8651 5.17798V6.74048H11.1157C8.53102 6.74048 6.4282 8.84329 6.4282 11.428V36.5842C6.4282 37.4472 7.12789 38.1467 7.9907 38.1467C8.85352 38.1467 9.5532 37.4472 9.5532 36.5842V11.428C9.5532 10.5664 10.2541 9.86548 11.1157 9.86548H58.6157C59.4773 9.86548 60.1782 10.5664 60.1782 11.428V42.305L54.0132 58.855C53.9284 59.0828 53.8979 59.3274 53.9241 59.5691L55.1287 70.6591C55.1924 71.2469 55.5826 71.7483 56.1365 71.9547C56.3141 72.0208 56.4985 72.053 56.6816 72.053C57.0701 72.053 57.4523 71.908 57.7463 71.6344L60.1781 69.3714V75.803H60.1782ZM57.8988 67.2238L57.3041 61.7484L61.9307 63.4719L57.8988 67.2238ZM76.8932 26.0803L63.9296 60.8814L57.4871 58.4816L70.4507 23.6803C70.5931 23.2981 70.8759 22.9942 71.2468 22.8245C71.6182 22.655 72.0331 22.6399 72.4151 22.7822L75.9951 24.1158C76.7841 24.41 77.1871 25.2913 76.8932 26.0803Z" fill="#3D58B0"/>
<path d="M7.99023 45.1783C8.85318 45.1783 9.55273 44.4788 9.55273 43.6158C9.55273 42.7529 8.85318 42.0533 7.99023 42.0533C7.12729 42.0533 6.42773 42.7529 6.42773 43.6158C6.42773 44.4788 7.12729 45.1783 7.99023 45.1783Z" fill="#3D58B0"/>
</svg>
