<svg width="81" height="81" viewBox="0 0 81 81" fill="none" xmlns="http://www.w3.org/2000/svg">
<g clip-path="url(#clip0)">
<path d="M79.8655 54.6137C79.5622 54.1237 79.0255 53.8237 78.4488 53.8237H1.78161C1.20489 53.8237 0.668321 54.127 0.364881 54.617C0.0615976 55.107 0.0315973 55.7203 0.291599 56.237C2.63162 60.9171 7.33493 63.8238 12.5684 63.8238H67.6621C72.8954 63.8238 77.5989 60.9171 79.9389 56.2338C80.1988 55.7205 80.1688 55.1037 79.8655 54.6137ZM67.6621 60.4905H12.5683C9.60495 60.4905 6.86493 59.2605 4.93148 57.1572H75.2987C73.3622 59.2605 70.6254 60.4905 67.6621 60.4905Z" fill="#3D58B0"/>
<path d="M40.1121 32.0473C40.0489 31.1273 39.2189 30.4373 38.3388 30.494C27.6755 31.2007 18.502 38.1573 14.9619 48.2241C14.6587 49.0941 15.1152 50.0441 15.982 50.3509C16.1652 50.4142 16.352 50.4442 16.5352 50.4442C17.222 50.4442 17.8685 50.0142 18.1085 49.3309C21.2053 40.5241 29.2353 34.4375 38.5587 33.8207C39.4787 33.7606 40.1721 32.9638 40.1121 32.0473Z" fill="#3D58B0"/>
<path d="M73.4027 55.4037C72.486 37.6936 57.8658 23.8235 40.1157 23.8235C22.3456 23.8235 7.72216 37.7136 6.82543 55.4437C6.77871 56.3637 7.48544 57.147 8.40544 57.1937C8.43544 57.1937 8.46216 57.1937 8.49216 57.1937C9.37217 57.1937 10.1089 56.5037 10.1555 55.6137C10.9622 39.6569 24.1223 27.1568 40.1157 27.1568C56.0891 27.1568 69.2492 39.6402 70.0727 55.5737C70.1194 56.4937 70.9027 57.1838 71.8227 57.1538C72.7427 57.1072 73.4492 56.3237 73.4027 55.4037Z" fill="#3D58B0"/>
<path d="M40.1153 17.157C37.3585 17.157 35.1152 19.4003 35.1152 22.157C35.1152 24.9137 37.3585 27.157 40.1153 27.157C42.872 27.157 45.1153 24.9137 45.1153 22.157C45.1153 19.4003 42.872 17.157 40.1153 17.157ZM40.1153 23.8236C39.1953 23.8236 38.4485 23.0769 38.4485 22.1569C38.4485 21.2369 39.1953 20.4901 40.1153 20.4901C41.0353 20.4901 41.782 21.2369 41.782 22.1569C41.782 23.0769 41.0353 23.8236 40.1153 23.8236Z" fill="#3D58B0"/>
</g>
<defs>
<clipPath id="clip0">
<rect width="80" height="80" fill="white" transform="translate(0.115234 0.490479)"/>
</clipPath>
</defs>
</svg>
