<svg width="81" height="81" viewBox="0 0 81 81" fill="none" xmlns="http://www.w3.org/2000/svg">
<path d="M4.73058 40.4034C4.55577 40.2285 4.33304 40.1095 4.09055 40.0613C3.84807 40.013 3.59673 40.0378 3.36832 40.1324C3.13991 40.227 2.94468 40.3872 2.80733 40.5928C2.66998 40.7984 2.59667 41.04 2.59668 41.2873V76.2873C2.59668 76.6188 2.72838 76.9367 2.9628 77.1711C3.19722 77.4056 3.51516 77.5373 3.84668 77.5373H38.8467C39.0939 77.5373 39.3356 77.464 39.5411 77.3266C39.7467 77.1893 39.9069 76.994 40.0016 76.7656C40.0962 76.5372 40.1209 76.2859 40.0727 76.0434C40.0244 75.8009 39.9054 75.5782 39.7306 75.4033L4.73058 40.4034ZM5.09668 75.0373V44.3049L35.829 75.0373H5.09668Z" fill="#3D58B0"/>
<path d="M11.3467 70.0373H21.3467C21.5939 70.0373 21.8356 69.964 22.0412 69.8266C22.2467 69.6893 22.4069 69.494 22.5016 69.2656C22.5962 69.0372 22.6209 68.7859 22.5727 68.5434C22.5245 68.3009 22.4054 68.0782 22.2306 67.9033L12.2306 57.9034C12.0558 57.7285 11.833 57.6095 11.5906 57.5613C11.3481 57.513 11.0967 57.5378 10.8683 57.6324C10.6399 57.727 10.4447 57.8872 10.3073 58.0928C10.17 58.2984 10.0967 58.54 10.0967 58.7873V68.7873C10.0967 69.1188 10.2284 69.4367 10.4628 69.6711C10.6972 69.9056 11.0152 70.0373 11.3467 70.0373ZM12.5967 61.8051L18.329 67.5373H12.5967V61.8051Z" fill="#3D58B0"/>
<path d="M16.3467 7.53735H18.8467V10.0374H16.3467V7.53735Z" fill="#3D58B0"/>
<path d="M21.3467 7.53735H23.8467V10.0374H21.3467V7.53735Z" fill="#3D58B0"/>
<path d="M26.3467 7.53735H28.8467V10.0374H26.3467V7.53735Z" fill="#3D58B0"/>
<path d="M28.3398 25.1467C28.1176 25.2428 27.9286 25.4022 27.7964 25.6051C27.6642 25.8079 27.5948 26.0452 27.5967 26.2873V40.0373C27.5967 40.2791 27.6668 40.5158 27.7986 40.7185C27.9303 40.9213 28.1181 41.0815 28.3391 41.1797L39.5891 46.1797C39.7489 46.2509 39.922 46.2876 40.097 46.2875C40.272 46.2873 40.445 46.2503 40.6047 46.1787V46.1797L51.8547 41.1797C52.0756 41.0814 52.2633 40.9212 52.395 40.7185C52.5267 40.5157 52.5968 40.2791 52.5967 40.0373V26.2873C52.5987 26.0452 52.5292 25.8079 52.397 25.6051C52.2649 25.4022 52.0759 25.2428 51.8536 25.1467V25.145L40.6036 20.145C40.4437 20.074 40.2707 20.0374 40.0958 20.0374C39.9209 20.0374 39.7479 20.074 39.588 20.145L28.338 25.145L28.3398 25.1467ZM38.8467 43.1139L30.0967 39.2248V28.2108L38.8467 32.0998V43.1139ZM50.0967 39.2248L41.3467 43.1139V32.0998L50.0967 28.2109V39.2248ZM40.0967 22.6552L48.2686 26.2873L40.0967 29.9194L31.9248 26.2873L40.0967 22.6552Z" fill="#3D58B0"/>
<path d="M38.8467 50.0374H41.3467V56.2874H38.8467V50.0374Z" fill="#3D58B0"/>
<path d="M38.8467 11.2874H41.3467V17.5374H38.8467V11.2874Z" fill="#3D58B0"/>
<path d="M18.2998 23.673L19.3773 21.418L24.6096 23.9181L23.5321 26.1731L18.2998 23.673Z" fill="#3D58B0"/>
<path d="M55.5537 23.9001L60.786 21.4L61.8635 23.655L56.6312 26.1551L55.5537 23.9001Z" fill="#3D58B0"/>
<path d="M18.2998 43.8958L23.5321 41.3956L24.6096 43.6506L19.3773 46.1507L18.2998 43.8958Z" fill="#3D58B0"/>
<path d="M76.3467 60.0374H68.8467V40.5552L76.1951 33.2067C76.6395 32.7623 76.992 32.2348 77.2325 31.6542C77.473 31.0736 77.5967 30.4513 77.5967 29.8228C77.5967 29.1944 77.4729 28.5721 77.2324 27.9915C76.9919 27.4109 76.6394 26.8834 76.195 26.439C75.7507 25.9946 75.2231 25.6421 74.6425 25.4016C74.0619 25.1612 73.4396 25.0374 72.8112 25.0374C72.1827 25.0374 71.5604 25.1612 70.9798 25.4017C70.3992 25.6422 69.8717 25.9947 69.4273 26.4391L68.8467 27.0197V16.2874C68.8467 16.1232 68.8144 15.9607 68.7515 15.809C68.6887 15.6573 68.5967 15.5195 68.4806 15.4034L55.9806 2.90345C55.8645 2.78738 55.7267 2.6953 55.575 2.63249C55.4234 2.56967 55.2608 2.53735 55.0967 2.53735H16.3467C15.0211 2.53884 13.7501 3.0661 12.8128 4.00346C11.8754 4.94082 11.3482 6.21173 11.3467 7.53735V43.7874H13.8467V7.53735C13.8475 6.87455 14.1111 6.23913 14.5798 5.77045C15.0485 5.30178 15.6839 5.03814 16.3467 5.03735H53.8467V12.5374C53.8482 13.863 54.3754 15.1339 55.3128 16.0712C56.2502 17.0086 57.5211 17.5359 58.8467 17.5374H66.3467V29.5195L46.7128 49.1534C46.5383 49.328 46.4194 49.5502 46.3709 49.7922L45.1209 56.0422C45.0805 56.244 45.0906 56.4526 45.1502 56.6496C45.2099 56.8466 45.3172 57.0258 45.4627 57.1713C45.6082 57.3168 45.7874 57.4242 45.9844 57.4838C46.1814 57.5434 46.39 57.5535 46.5918 57.5131L52.8418 56.2631C53.0838 56.2147 53.3061 56.0958 53.4806 55.9213L66.3467 43.0552V60.0374H41.3467C41.0152 60.0374 40.6972 60.169 40.4628 60.4035C40.2284 60.6379 40.0967 60.9558 40.0967 61.2874V65.0374H33.8467V67.5374H40.0967V71.2874C40.0967 71.6189 40.2284 71.9368 40.4628 72.1712C40.6972 72.4057 41.0152 72.5374 41.3467 72.5374H76.3467C76.6782 72.5374 76.9961 72.4057 77.2306 72.1712C77.465 71.9368 77.5967 71.6189 77.5967 71.2874V61.2874C77.5967 60.9558 77.465 60.6379 77.2306 60.4035C76.9961 60.169 76.6782 60.0374 76.3467 60.0374ZM56.3467 12.5374V6.80517L64.5789 15.0374H58.8467C58.1839 15.0366 57.5485 14.7729 57.0798 14.3043C56.6111 13.8356 56.3475 13.2002 56.3467 12.5374ZM49.3645 50.0374L68.8467 30.5552L72.0789 33.7874L52.5967 53.2695L49.3645 50.0374ZM72.8112 27.5374C73.2632 27.5374 73.7051 27.6715 74.0809 27.9226C74.4568 28.1738 74.7497 28.5307 74.9227 28.9483C75.0957 29.366 75.1409 29.8255 75.0528 30.2688C74.9646 30.7122 74.7469 31.1194 74.4273 31.4391L73.8467 32.0195L70.6145 28.7874L71.1951 28.2067C71.4068 27.9938 71.6587 27.825 71.9361 27.7101C72.2135 27.5952 72.511 27.5365 72.8112 27.5374ZM48.3643 52.5728L50.0612 54.2697L47.9404 54.6936L48.3643 52.5728ZM75.0967 70.0374H42.5967V62.5374H45.0967V65.0374H47.5967V62.5374H50.0967V65.0374H52.5967V62.5374H55.0967V65.0374H57.5967V62.5374H60.0967V65.0374H62.5967V62.5374H65.0967V65.0374H67.5967V62.5374H70.0967V65.0374H72.5967V62.5374H75.0967V70.0374Z" fill="#3D58B0"/>
</svg>
