<?xml version="1.0" encoding="utf-8"?><svg xmlns="http://www.w3.org/2000/svg" xmlns:xlink="http://www.w3.org/1999/xlink"><symbol viewBox="0 0 97 97" id="advantage-1" xmlns="http://www.w3.org/2000/svg"><g clip-path="url(#aclip0)"><path d="M55.316 89.612c19.438 0 35.197-15.758 35.197-35.197 0-19.44-15.759-35.197-35.198-35.197-19.438 0-35.197 15.758-35.197 35.197.022 19.43 15.768 35.175 35.198 35.197zM28.117 52.815H23.4c.834-16.385 13.93-29.482 30.316-30.316v4.718a1.6 1.6 0 003.2 0v-4.718c16.385.834 29.482 13.93 30.316 30.316h-6.318a1.6 1.6 0 000 3.2h6.317C86.398 72.4 73.302 85.497 56.915 86.33v-4.718a1.6 1.6 0 00-3.2 0v4.718C37.33 85.497 24.234 72.4 23.4 56.015h4.719a1.6 1.6 0 000-3.2z"/><path d="M91.337 33.644a41.568 41.568 0 00-1.515-2.427l3.95-3.95a1.6 1.6 0 000-2.263l-9.04-9.039a1.6 1.6 0 00-2.262 0l-3.956 3.944a41.349 41.349 0 00-21.598-7.05v-9.64h11.199a1.6 1.6 0 000-3.2H42.517a1.6 1.6 0 000 3.2h11.199v9.654a41.55 41.55 0 00-34.398 20.744H10.52a1.6 1.6 0 000 3.2h9.6c.04 0 .076-.022.118-.025a1.584 1.584 0 001.396-.8C31.813 17.39 55.145 10.56 73.75 20.738c18.602 10.18 25.43 33.512 15.253 52.116C78.822 91.457 55.49 98.287 36.886 88.108a38.397 38.397 0 01-15.254-15.254 1.584 1.584 0 00-1.393-.808c-.042 0-.079-.024-.122-.024h-9.6a1.6 1.6 0 000 3.2h8.8c11.481 19.887 36.91 26.701 56.798 15.22 19.888-11.481 26.702-36.91 15.221-56.798zM81.128 21.831l2.473-2.473 6.777 6.777-2.476 2.477a42.036 42.036 0 00-6.774-6.78z"/><path d="M16.919 54.415a1.6 1.6 0 00-1.6-1.6h-12.8a1.6 1.6 0 000 3.2h12.8a1.6 1.6 0 001.6-1.6zM5.72 46.416h11.2a1.6 1.6 0 000-3.2H5.72a1.6 1.6 0 000 3.2zm12.799 17.598a1.6 1.6 0 00-1.6-1.6H5.72a1.6 1.6 0 000 3.2h11.2a1.6 1.6 0 001.599-1.6zm32.466 1.131a1.6 1.6 0 002.262 0l22.239-22.238a1.6 1.6 0 00-2.263-2.262L52.117 61.752l-9.519-9.52a1.6 1.6 0 00-2.262 2.263l10.65 10.65z"/></g><defs><clipPath id="aclip0"><path transform="translate(.917 .019)" d="M0 0h96v96H0z"/></clipPath></defs></symbol><symbol viewBox="0 0 97 97" id="advantage-2" xmlns="http://www.w3.org/2000/svg"><g clip-path="url(#bclip0)"><path d="M87.342 63.334a10.017 10.017 0 002.527-6.658v-3.123c0-5.547-4.512-10.06-10.06-10.06-5.546 0-10.06 4.512-10.06 10.06v3.123c0 2.553.958 4.884 2.53 6.66-1.37.336-2.674.91-3.85 1.702a16.4 16.4 0 00-8.09-6.092 16.19 16.19 0 00-2.366-.616 13.546 13.546 0 003.895-7.406 6.01 6.01 0 001.746.26 6.018 6.018 0 006.012-6.012 6 6 0 00-2.27-4.703c.16-.379.25-.794.25-1.23v-3.864c0-6.587-5.358-11.946-11.945-11.946h-3.206c-.15 0-.299.008-.448.02a6.418 6.418 0 00-5.005-2.402h-1.72c.016-.311.027-.623.027-.937 0-10.23-8.323-18.552-18.553-18.552S8.204 9.88 8.204 20.11s8.323 18.553 18.552 18.553c.889 0 1.77-.065 2.637-.188v1.237c0 .298.042.588.12.862a6.001 6.001 0 00-2.139 4.598 6.018 6.018 0 006.012 6.012c.6 0 1.185-.09 1.746-.26a13.546 13.546 0 003.897 7.407c-.797.145-1.574.348-2.327.605-.079.02-.156.047-.233.082a16.445 16.445 0 00-7.893 6.03 11.964 11.964 0 00-3.853-1.714 10.016 10.016 0 002.527-6.658v-3.124c0-5.547-4.512-10.06-10.06-10.06-5.546 0-10.06 4.513-10.06 10.06v3.124c0 2.552.958 4.883 2.529 6.658C4.408 64.622.5 69.366.5 75.008v12.16a1.406 1.406 0 002.813 0v-12.16c0-5.078 4.13-9.208 9.208-9.208h.438c.308.143.625.27.949.383l-2.814 10.984a2.514 2.514 0 00.779 2.524l3.65 3.209a2.52 2.52 0 001.667.626 2.52 2.52 0 001.668-.626l3.65-3.21a2.514 2.514 0 00.779-2.523l-2.814-10.984c.324-.112.64-.24.949-.383h.438c1.972 0 3.8.624 5.3 1.684a16.183 16.183 0 00-1.54 6.797c-.006.777.62 1.41 1.396 1.416h.01c.772 0 1.401-.623 1.406-1.397.036-5.425 3.306-10.105 7.963-12.218L47.094 82.46v10.604a1.406 1.406 0 102.812 0V82.459l10.701-20.381c4.69 2.12 7.963 6.84 7.963 12.313v18.683a1.406 1.406 0 002.813 0V74.391c0-2.47-.553-4.814-1.54-6.915a9.214 9.214 0 015.297-1.677h.438c.308.144.625.272.95.384l-2.815 10.984a2.515 2.515 0 00.779 2.523l3.65 3.21a2.52 2.52 0 001.668.626 2.52 2.52 0 001.667-.627l3.65-3.209a2.514 2.514 0 00.78-2.523l-.45-1.754a1.406 1.406 0 10-2.725.698l.406 1.584-3.328 2.926-3.329-2.926 2.811-10.972a10.087 10.087 0 001.035 0l.715 2.789a1.407 1.407 0 002.724-.698l-.674-2.63c.327-.114.646-.242.956-.387l.063.003h.369c5.077 0 9.208 4.13 9.208 9.208v12.16a1.406 1.406 0 102.812 0v-12.16c0-5.642-3.908-10.386-9.158-11.674zM9.943 53.552c0-3.996 3.251-7.247 7.247-7.247s7.248 3.251 7.248 7.248v3.123c0 3.997-3.252 7.248-7.248 7.248-3.996 0-7.247-3.251-7.247-7.248v-3.123zM20.52 77.696l-3.33 2.924-3.33-2.926 2.812-10.972a10.092 10.092 0 001.035 0l2.81 10.972zM63.614 48.37a3.181 3.181 0 01-1.548-.4v-3.728c0-.56-.037-1.126-.108-1.692a45.202 45.202 0 002.82-.189c.097-.01.193-.023.287-.042a3.194 3.194 0 011.749 2.852c0 1.764-1.436 3.2-3.2 3.2zM55.66 26.24c5.037 0 9.134 4.098 9.134 9.134v3.863a.325.325 0 01-.294.325c-2.405.24-7.024.48-10.946-.588a5.296 5.296 0 01-1.686-.804 9.511 9.511 0 001.562-5.225v-5.47a6.44 6.44 0 00-.12-1.235h2.35zm-18.58 9.286a1.406 1.406 0 10-1.568-2.336 15.663 15.663 0 01-8.756 2.66c-8.68 0-15.74-7.062-15.74-15.74 0-8.68 7.061-15.74 15.74-15.74s15.74 7.06 15.74 15.74a15.67 15.67 0 01-2.585 8.642 1.406 1.406 0 102.35 1.547 18.444 18.444 0 002.664-6.44h2.077a3.62 3.62 0 013.615 3.616v5.47c0 3.003-1.992 5.642-4.844 6.418-4.954 1.349-10.937.92-13.28.672a.323.323 0 01-.288-.324v-1.864a18.447 18.447 0 004.874-2.321zm-6.893 9.645a3.19 3.19 0 011.236-2.524c.245.092.504.156.775.185.771.081 1.72.163 2.79.219a13.64 13.64 0 00-.054 1.19v3.728a3.172 3.172 0 01-1.548.401 3.203 3.203 0 01-3.2-3.199zm7.56 3.46v-4.39c0-.37.022-.745.062-1.122 2.729-.012 5.832-.26 8.703-1.042a9.268 9.268 0 003.474-1.803 8.124 8.124 0 002.83 1.415c2.063.561 4.271.8 6.302.867.089.565.135 1.131.135 1.686v4.39c0 5.929-4.824 10.753-10.753 10.753-5.93 0-10.753-4.824-10.753-10.754zM48.5 79.087l-4.31-8.21 3.194-8.729c.369.03.74.05 1.116.05.376 0 .747-.02 1.116-.05l3.195 8.729-4.311 8.21zm-6.561-18.205h.738a13.46 13.46 0 001.906.737l-2.159 5.897-3.323-6.33a13.431 13.431 0 012.838-.304zm12.636 6.634l-2.158-5.897a13.465 13.465 0 001.908-.738l.02.001h.716c.974 0 1.923.106 2.839.303l-3.325 6.33zm17.987-10.84v-3.124c0-3.996 3.252-7.247 7.248-7.247 3.996 0 7.247 3.251 7.247 7.247v3.124c0 3.996-3.251 7.247-7.247 7.247s-7.248-3.25-7.248-7.247z"/><path d="M27.023 79.689c-.776 0-1.406.63-1.406 1.406v11.979a1.406 1.406 0 002.813 0V81.095c0-.777-.63-1.406-1.407-1.406zm26.769 3.812h-.036a1.406 1.406 0 00-.004 2.813h.036a1.406 1.406 0 00.004-2.813zM38.488 13.43l-2.54-2.54a2.273 2.273 0 00-1.62-.671c-.61 0-1.185.238-1.617.67l-9.292 9.292-2.618-2.618a2.274 2.274 0 00-1.618-.67c-.611 0-1.186.238-1.618.67l-2.541 2.541a2.29 2.29 0 000 3.237l6.153 6.153a3.16 3.16 0 002.242.927 3.16 3.16 0 002.242-.927l12.827-12.827a2.291 2.291 0 000-3.237zM23.672 27.505a.359.359 0 01-.506 0l-5.783-5.783 1.8-1.8 3.242 3.242c.549.549 1.44.549 1.988 0l9.916-9.916 1.8 1.8-12.456 12.457z"/></g><defs><clipPath id="bclip0"><path transform="translate(.5 .019)" d="M0 0h96v96H0z"/></clipPath></defs></symbol><symbol viewBox="0 0 97 97" id="advantage-3" xmlns="http://www.w3.org/2000/svg"><g clip-path="url(#cclip0)"><path d="M68.527 96.019h-39.22a2.805 2.805 0 01-2.157-1.009 2.806 2.806 0 01-.61-2.303l2.108-11.685a1.407 1.407 0 012.768.5l-2.108 11.684h39.22L63.751 66.73H34.084l-1.62 8.974a1.406 1.406 0 01-2.767-.5l1.619-8.973a2.81 2.81 0 012.768-2.314h2.812c2.403 0 4.266-1.092 5.538-3.246 1.07-1.813 1.7-4.35 1.794-7.208-4.602-1.303-8.386-4.511-10.48-8.928h-3.724l1.664 6.833a1.406 1.406 0 01-2.733.666l-2.087-8.573c-1.897-7.787-5.193-10.733-9.01-14.144C13.701 25.6 8.99 21.389 6.25 10.137a3.611 3.611 0 01.673-3.105A3.611 3.611 0 019.78 5.644H23.9l-.524-2.147a2.795 2.795 0 01.521-2.403A2.795 2.795 0 0126.108.02h6.56a1.406 1.406 0 110 2.813h-6.56L35.26 40.41c1.585 6.51 7.074 10.884 13.658 10.884S60.99 46.92 62.576 40.41l2.081-8.547a1.407 1.407 0 012.733.666l-2.082 8.546c-.052.218-.11.434-.17.647h3.375c2.16-7.862 5.935-11.235 9.59-14.503 4.04-3.61 8.217-7.344 10.75-17.749a.806.806 0 00-.151-.7.808.808 0 00-.645-.313H73.251L68.77 26.864a1.407 1.407 0 01-2.733-.666l5.691-23.366H38.293a1.406 1.406 0 110-2.813h33.434c.87 0 1.675.392 2.212 1.075.537.683.727 1.559.521 2.403l-.523 2.147h14.12a3.61 3.61 0 012.856 1.388c.693.883.939 2.014.673 3.104-2.74 11.253-7.452 15.465-11.61 19.18-3.816 3.412-7.112 6.359-9.008 14.145l-2.088 8.573a1.407 1.407 0 01-2.733-.666l1.664-6.833h-3.725c-2.093 4.417-5.877 7.624-10.479 8.928.095 2.857.723 5.395 1.794 7.207 1.272 2.155 3.135 3.247 5.538 3.247h2.813a2.81 2.81 0 012.767 2.314l4.776 26.476a2.805 2.805 0 01-.61 2.303 2.804 2.804 0 01-2.158 1.009zM43.514 63.917h10.807a10.571 10.571 0 01-1.342-1.816c-1.53-2.59-2.04-5.648-2.164-8.097-1.245.135-2.55.135-3.794 0-.124 2.449-.635 5.507-2.165 8.097-.4.677-.849 1.283-1.342 1.816zM29.322 41.722h3.375c-.06-.213-.117-.43-.17-.647L24.583 8.457H9.78a.806.806 0 00-.645.313.807.807 0 00-.152.7c2.534 10.405 6.711 14.138 10.75 17.75 3.656 3.267 7.43 6.64 9.59 14.502zm25.992 45.633H42.52a1.406 1.406 0 110-2.813h12.793a1.406 1.406 0 110 2.813zm3.75-5.625h-4.521a1.406 1.406 0 110-2.813h4.52a1.406 1.406 0 110 2.813zm-10.146 0H38.77a1.406 1.406 0 110-2.813h10.147a1.406 1.406 0 110 2.813zm10.146-5.625H38.77a1.406 1.406 0 110-2.813h20.293a1.406 1.406 0 110 2.813zm-3.926-41.57c-1.164 0-2.673-.834-4.729-2.032-.489-.286-1.12-.654-1.491-.838-.372.184-1.003.552-1.492.837-2.815 1.642-4.605 2.6-5.888 1.668-1.284-.932-.925-2.93-.234-6.115.12-.553.275-1.268.335-1.678-.29-.296-.835-.783-1.257-1.16-2.43-2.17-3.895-3.576-3.405-5.085.49-1.508 2.502-1.785 5.743-2.112.564-.056 1.29-.13 1.7-.199.192-.367.486-1.036.714-1.555 1.313-2.982 2.197-4.81 3.784-4.81 1.586 0 2.47 1.828 3.783 4.81.228.519.523 1.188.715 1.555.409.07 1.136.142 1.699.2 3.242.326 5.254.603 5.744 2.111.49 1.509-.975 2.915-3.406 5.085-.422.377-.967.864-1.257 1.16.06.41.215 1.124.336 1.678.69 3.184 1.049 5.183-.234 6.115-.346.251-.73.365-1.16.365zm-6.22-5.757c.66 0 1.328.373 2.908 1.295.615.358 1.688.984 2.478 1.352-.107-.865-.37-2.078-.521-2.774-.388-1.787-.537-2.538-.333-3.166.204-.628.766-1.148 2.13-2.366.531-.474 1.458-1.3 2.052-1.938-.855-.166-2.09-.29-2.799-.362-1.82-.184-2.58-.274-3.114-.662-.535-.388-.855-1.083-1.592-2.758-.287-.65-.787-1.787-1.21-2.55-.422.763-.922 1.9-1.208 2.55-.738 1.675-1.058 2.37-1.592 2.758-.535.388-1.294.478-3.114.662-.709.071-1.944.196-2.8.362.595.637 1.521 1.464 2.052 1.938 1.365 1.218 1.926 1.738 2.13 2.366.205.628.055 1.379-.332 3.166-.151.696-.415 1.91-.521 2.774.79-.368 1.863-.994 2.478-1.352 1.58-.922 2.247-1.295 2.908-1.295z"/></g><defs><clipPath id="cclip0"><path transform="translate(.917 .019)" d="M0 0h96v96H0z"/></clipPath></defs></symbol><symbol viewBox="0 0 344.96 344.96" id="check" xmlns="http://www.w3.org/2000/svg"><g data-name="Слой 2"><path d="M321.85 86.24l-40-23.11-23.1-40H212.5L172.48 0l-40 23.11H86.24l-23.11 40-40 23.1v46.21L0 172.48l23.11 40v46.21l40 23.11 23.11 40h46.21l40 23.1 40-23.11h46.21l23.11-40 40-23.11V212.5l23.11-40-23.11-40V86.24zM156.91 243.07a16.79 16.79 0 01-23.34 0l-50.45-50.44a16.19 16.19 0 010-22.89l13.35-13.35a16.19 16.19 0 0122.89 0l25.87 25.87 80.34-80.35a16.19 16.19 0 0122.89 0l13.35 13.35a16.19 16.19 0 010 22.89z" data-name="Capa 1"/></g></symbol><symbol viewBox="0 0 110 19" id="difference" xmlns="http://www.w3.org/2000/svg"><path d="M1.316 11.778L6.4 16.862 21.703 1.558m0 10.22h88.05"/></symbol><symbol viewBox="0 0 16 17" id="email" xmlns="http://www.w3.org/2000/svg"><path d="M7.537 10.489a.897.897 0 00.472.132.897.897 0 00.473-.133L16 5.899V12a2.362 2.362 0 01-2.361 2.361H2.36A2.362 2.362 0 010 12V5.898l7.537 4.59z"/><path d="M2.361 2.574H13.64c1.114 0 2.059.793 2.285 1.85L7.991 9.262.076 4.425A2.347 2.347 0 012.36 2.574z"/></symbol><symbol viewBox="0 0 20 16" id="mail" xmlns="http://www.w3.org/2000/svg"><path d="M2 0h16c1.1 0 2 .9 2 2v12c0 1.1-.9 2-2 2H2c-1.1 0-2-.9-2-2V2C0 .9.9 0 2 0zm.4 4.25l6.54 4.09c.65.41 1.47.41 2.12 0l6.54-4.09a.85.85 0 10-.9-1.44L10 7 3.3 2.81a.85.85 0 10-.9 1.44z"/></symbol><symbol viewBox="0 0 16 16" id="phone" xmlns="http://www.w3.org/2000/svg"><path d="M15.565 11.742L13.332 9.51c-.798-.798-2.153-.479-2.472.558-.24.718-1.037 1.116-1.755.957-1.595-.399-3.748-2.472-4.147-4.147-.239-.718.24-1.515.957-1.754 1.037-.32 1.356-1.675.559-2.472L4.24.419c-.638-.559-1.595-.559-2.153 0L.573 1.934c-1.516 1.595.159 5.821 3.907 9.57 3.748 3.747 7.974 5.502 9.57 3.907l1.514-1.515c.559-.639.559-1.595 0-2.154z"/></symbol><symbol viewBox="0 0 473.806 473.806" id="phone-call" xmlns="http://www.w3.org/2000/svg"><path d="M374.456 293.506c-9.7-10.1-21.4-15.5-33.8-15.5-12.3 0-24.1 5.3-34.2 15.4l-31.6 31.5c-2.6-1.4-5.2-2.7-7.7-4-3.6-1.8-7-3.5-9.9-5.3-29.6-18.8-56.5-43.3-82.3-75-12.5-15.8-20.9-29.1-27-42.6 8.2-7.5 15.8-15.3 23.2-22.8 2.8-2.8 5.6-5.7 8.4-8.5 21-21 21-48.2 0-69.2l-27.3-27.3c-3.1-3.1-6.3-6.3-9.3-9.5-6-6.2-12.3-12.6-18.8-18.6-9.7-9.6-21.3-14.7-33.5-14.7s-24 5.1-34 14.7l-.2.2-34 34.3c-12.8 12.8-20.1 28.4-21.7 46.5-2.4 29.2 6.2 56.4 12.8 74.2 16.2 43.7 40.4 84.2 76.5 127.6 43.8 52.3 96.5 93.6 156.7 122.7 23 10.9 53.7 23.8 88 26 2.1.1 4.3.2 6.3.2 23.1 0 42.5-8.3 57.7-24.8.1-.2.3-.3.4-.5 5.2-6.3 11.2-12 17.5-18.1 4.3-4.1 8.7-8.4 13-12.9 9.9-10.3 15.1-22.3 15.1-34.6 0-12.4-5.3-24.3-15.4-34.3l-54.9-55.1zm35.8 105.3c-.1 0-.1.1 0 0-3.9 4.2-7.9 8-12.2 12.2-6.5 6.2-13.1 12.7-19.3 20-10.1 10.8-22 15.9-37.6 15.9-1.5 0-3.1 0-4.6-.1-29.7-1.9-57.3-13.5-78-23.4-56.6-27.4-106.3-66.3-147.6-115.6-34.1-41.1-56.9-79.1-72-119.9-9.3-24.9-12.7-44.3-11.2-62.6 1-11.7 5.5-21.4 13.8-29.7l34.1-34.1c4.9-4.6 10.1-7.1 15.2-7.1 6.3 0 11.4 3.8 14.6 7l.3.3c6.1 5.7 11.9 11.6 18 17.9 3.1 3.2 6.3 6.4 9.5 9.7l27.3 27.3c10.6 10.6 10.6 20.4 0 31-2.9 2.9-5.7 5.8-8.6 8.6-8.4 8.6-16.4 16.6-25.1 24.4-.2.2-.4.3-.5.5-8.6 8.6-7 17-5.2 22.7l.3.9c7.1 17.2 17.1 33.4 32.3 52.7l.1.1c27.6 34 56.7 60.5 88.8 80.8 4.1 2.6 8.3 4.7 12.3 6.7 3.6 1.8 7 3.5 9.9 5.3.4.2.8.5 1.2.7 3.4 1.7 6.6 2.5 9.9 2.5 8.3 0 13.5-5.2 15.2-6.9l34.2-34.2c3.4-3.4 8.8-7.5 15.1-7.5 6.2 0 11.3 3.9 14.4 7.3l.2.2 55.1 55.1c10.3 10.2 10.3 20.7.1 31.3zm-154.2-286.1c26.2 4.4 50 16.8 69 35.8s31.3 42.8 35.8 69c1.1 6.6 6.8 11.2 13.3 11.2.8 0 1.5-.1 2.3-.2 7.4-1.2 12.3-8.2 11.1-15.6-5.4-31.7-20.4-60.6-43.3-83.5s-51.8-37.9-83.5-43.3c-7.4-1.2-14.3 3.7-15.6 11s3.5 14.4 10.9 15.6zm217.2 96.3c-8.9-52.2-33.5-99.7-71.3-137.5s-85.3-62.4-137.5-71.3c-7.3-1.3-14.2 3.7-15.5 11-1.2 7.4 3.7 14.3 11.1 15.6 46.6 7.9 89.1 30 122.9 63.7 33.8 33.8 55.8 76.3 63.7 122.9 1.1 6.6 6.8 11.2 13.3 11.2.8 0 1.5-.1 2.3-.2 7.3-1.1 12.3-8.1 11-15.4z"/></symbol><symbol viewBox="0 0 57 57" id="register-1" xmlns="http://www.w3.org/2000/svg"><g clip-path="url(#jclip0)"><path d="M22.993 21.831h11.01v3.282h-11.01V21.83zm-14.29 6.563h39.594V48.3H8.703V28.394zM29.18 7.066H.5v3.28h56V.504H35.742L29.18 7.066zm20.758-3.282h3.28v3.282h-3.28V3.784zm-6.563 0h3.281v3.282h-3.281V3.784zm-3.281 0v3.282h-3.282V3.784h3.282z"/><path d="M27.82 3.784l3.282-3.28H.5v3.28h27.32zm9.468 18.047h11.01v3.282h-11.01V21.83z"/><path d="M.5 13.628v42.875h56V13.628H.5zm51.078 37.953H5.422V18.55h46.156v33.031z"/><path d="M8.703 21.831h11.01v3.282H8.704V21.83z"/></g><defs><clipPath id="jclip0"><path transform="translate(.5 .503)" d="M0 0h56v56H0z"/></clipPath></defs></symbol><symbol viewBox="0 0 57 57" id="register-2" xmlns="http://www.w3.org/2000/svg"><g clip-path="url(#kclip0)"><path d="M17.125 30.363a1.86 1.86 0 100-3.72 1.86 1.86 0 000 3.72z"/><path d="M51.578 12.863H37.797v6.89a4.927 4.927 0 01-4.922 4.922h-8.75a4.927 4.927 0 01-4.922-4.922v-6.89H5.422A4.927 4.927 0 00.5 17.784v28.438a4.927 4.927 0 004.922 4.922h46.156a4.928 4.928 0 004.922-4.922V17.784a4.928 4.928 0 00-4.922-4.921zM23.25 42.392H11a1.64 1.64 0 01-1.64-1.64c0-3.345.969-7.13 3.7-9.108a5.113 5.113 0 01-1.076-3.142 5.146 5.146 0 015.141-5.14 5.146 5.146 0 015.14 5.14 5.113 5.113 0 01-1.076 3.142c2.734 1.98 3.702 5.766 3.702 9.108a1.64 1.64 0 01-1.641 1.64zm22.75 0H30.25a1.64 1.64 0 010-3.28H46a1.64 1.64 0 010 3.28zm0-7.874H32.875a1.64 1.64 0 010-3.281H46a1.64 1.64 0 010 3.28z"/><path d="M17.124 33.644c-1.424 0-2.5.637-3.287 1.948-.559.93-.936 2.146-1.102 3.52h8.777c-.166-1.374-.543-2.59-1.101-3.52-.788-1.31-1.863-1.948-3.287-1.948zm5.36-13.891c0 .906.735 1.64 1.641 1.64h8.75a1.64 1.64 0 001.64-1.64V7.503a1.64 1.64 0 00-1.64-1.64h-8.75a1.64 1.64 0 00-1.64 1.64v12.25z"/></g><defs><clipPath id="kclip0"><path transform="translate(.5 .503)" d="M0 0h56v56H0z"/></clipPath></defs></symbol><symbol viewBox="0 0 57 56" id="register-3" xmlns="http://www.w3.org/2000/svg"><g clip-path="url(#lclip0)"><path d="M28.102 22.6a9.516 9.516 0 100-19.03 9.516 9.516 0 000 19.03zm19.25 0a6.016 6.016 0 100-12.03 6.016 6.016 0 000 12.03zm-38.5 0a6.016 6.016 0 100-12.03 6.016 6.016 0 000 12.03zm5.927 5.403c-2.368-1.94-4.513-1.684-7.25-1.684-4.096 0-7.427 3.312-7.427 7.382v11.945a3.214 3.214 0 003.216 3.204c7.66 0 6.737.139 6.737-.33 0-8.464-1.003-14.671 4.724-20.518z"/><path d="M30.707 26.363c-4.782-.4-8.939.004-12.524 2.964-6 4.806-4.846 11.277-4.846 19.193a3.837 3.837 0 003.83 3.83c23.088 0 24.006.745 25.375-2.287.45-1.025.326-.7.326-10.507 0-7.79-6.745-13.193-12.16-13.193zm17.967-.043c-2.753 0-4.885-.255-7.25 1.682 5.684 5.803 4.724 11.587 4.724 20.518 0 .472-.766.33 6.621.33a3.328 3.328 0 003.332-3.318V33.7c0-4.07-3.332-7.382-7.427-7.382z"/></g><defs><clipPath id="lclip0"><path transform="translate(.102)" d="M0 0h56v56H0z"/></clipPath></defs></symbol><symbol viewBox="0 0 57 56" id="register-4" xmlns="http://www.w3.org/2000/svg"><g clip-path="url(#mclip0)"><path d="M30.979 0C14.134 0 .5 13.632.5 30.48c0 .906.735 1.641 1.642 1.641H30.98c.907 0 1.642-.735 1.642-1.642V1.642A1.643 1.643 0 0030.98 0zM19.296 36.869a1.642 1.642 0 00-1.44-.853H8.144a1.642 1.642 0 00-1.567 2.134C9.67 48 18.592 55.325 29.337 56V43.691a13.32 13.32 0 01-10.04-6.822zM38.65 6.077a1.643 1.643 0 00-2.133 1.567v9.712c0 .6.327 1.152.853 1.44a13.321 13.321 0 016.822 10.041H56.5c-.676-10.769-8.022-19.674-17.85-22.76zm5.542 26.044c-.745 6.032-5.54 10.827-11.572 11.572v12.306c12.814-.806 23.07-11.047 23.878-23.878H44.192z"/></g><defs><clipPath id="mclip0"><path transform="translate(.5)" d="M0 0h56v56H0z"/></clipPath></defs></symbol><symbol viewBox="0 0 30 30" id="servise-1" xmlns="http://www.w3.org/2000/svg"><path d="M20.586 7.469A6.524 6.524 0 0014.059.94C6.293.941 0 7.225 0 15c0 7.766 6.283 14.059 14.059 14.059 3.195 0 6.234-1.087 8.67-2.995.038-2.08.169-4.157.346-6.114a2.765 2.765 0 01-2.494 1.577 2.765 2.765 0 01-2.762-2.761 2.765 2.765 0 012.762-2.762c1.291 0 2.379.892 2.679 2.092.254-2.342.557-4.432.816-6.032a4.767 4.767 0 01-3.49-4.595zM7.536 21.527a2.765 2.765 0 01-2.761-2.761 2.765 2.765 0 012.762-2.762 2.765 2.765 0 012.761 2.762 2.765 2.765 0 01-2.761 2.761zm0-7.53a2.765 2.765 0 01-2.761-2.763 2.765 2.765 0 012.762-2.761 2.765 2.765 0 012.761 2.761 2.765 2.765 0 01-2.761 2.762zm6.523 11.296a2.765 2.765 0 01-2.762-2.762 2.765 2.765 0 012.762-2.761 2.765 2.765 0 012.761 2.761 2.765 2.765 0 01-2.761 2.762zm0-15.063a2.765 2.765 0 01-2.762-2.761 2.765 2.765 0 012.762-2.762 2.765 2.765 0 012.761 2.762 2.765 2.765 0 01-2.761 2.761z"/><path d="M14.059 6.465a1.005 1.005 0 000 2.008 1.005 1.005 0 000-2.008zm0 15.062a1.005 1.005 0 000 2.008 1.005 1.005 0 000-2.008zM7.537 10.23a1.005 1.005 0 000 2.008 1.005 1.005 0 000-2.008zm13.043 9.54a1.004 1.004 0 100-2.008 1.004 1.004 0 000 2.008zM7.537 17.762a1.005 1.005 0 000 2.007 1.005 1.005 0 000-2.007zm19.701-5.774c-.464 0-.913-.07-1.335-.201-.563 3.368-1.426 9.502-1.426 15.451A2.765 2.765 0 0027.238 30 2.765 2.765 0 0030 27.238c0-5.95-.863-12.083-1.426-15.451-.422.13-.871.201-1.336.201zm0-1.758A2.765 2.765 0 0030 7.47C30 4.038 28.086.594 28.004.45a.879.879 0 00-1.532 0c-.081.144-1.995 3.588-1.995 7.02a2.765 2.765 0 002.761 2.761z"/></symbol><symbol viewBox="0 0 30 30" id="servise-2" xmlns="http://www.w3.org/2000/svg"><path d="M23.79 27.305h-2.883l-.586-1.758H9.679l-.586 1.758H6.211a.879.879 0 100 1.758h17.578a.879.879 0 100-1.758zm0-21.095a.88.88 0 100 1.76.88.88 0 000-1.76z"/><path d="M27.305.938H2.637A2.64 2.64 0 000 3.574v14.942h5.332v-2.637c0-.486.393-.879.879-.879h1.358a7.82 7.82 0 01.312-.753l-.96-.961a.879.879 0 010-1.243l2.485-2.486a.879.879 0 011.243 0l.962.962a7.7 7.7 0 01.752-.314V8.848a.88.88 0 01.88-.88h3.515a.88.88 0 01.879.88v1.358c.255.09.506.195.753.313l.96-.962a.879.879 0 011.244 0l2.485 2.486c.344.343.344.9 0 1.243l-.96.961c.117.247.221.497.312.753h1.358c.486 0 .879.393.879.879v2.637H30V3.574C30 2.12 28.759.938 27.305.938zm-3.516 8.789a2.64 2.64 0 01-2.637-2.637 2.64 2.64 0 012.637-2.637 2.64 2.64 0 012.637 2.637 2.64 2.64 0 01-2.637 2.637z"/><path d="M12.363 17.637c0 .303.07.596.17.879h4.933c.1-.283.17-.576.17-.88A2.64 2.64 0 0015 15a2.64 2.64 0 00-2.637 2.637z"/><path d="M9.069 16.099a.88.88 0 01-.851.659H7.09v1.758h3.631c-.059-.29-.116-.58-.116-.88A4.4 4.4 0 0115 13.243a4.4 4.4 0 014.395 4.395c0 .298-.057.59-.116.879h3.631v-1.758h-1.128a.88.88 0 01-.851-.66 6.044 6.044 0 00-.65-1.566.88.88 0 01.135-1.068l.8-.8-1.244-1.242-.8.8a.875.875 0 01-1.068.134 6.04 6.04 0 00-1.566-.65.88.88 0 01-.66-.852V9.727h-1.757v1.127a.88.88 0 01-.66.852 6.04 6.04 0 00-1.565.65.876.876 0 01-1.068-.134l-.8-.8-1.243 1.242.8.8a.88.88 0 01.135 1.068 6.042 6.042 0 00-.651 1.567zM0 21.152a2.64 2.64 0 002.637 2.637h24.668c1.454 0 2.695-1.183 2.695-2.637v-.879H0v.88z"/></symbol><symbol viewBox="0 0 30 22" id="servise-3" xmlns="http://www.w3.org/2000/svg"><path d="M11.143 10.9a14.47 14.47 0 002.972.256v-4.02H6.39v3.893c1.013-.34 2.568-.567 4.754-.13zm.692-2.731c.496 0 .863.405.884.885.022.477-.421.884-.884.884-.496 0-.864-.405-.885-.884-.021-.478.422-.885.885-.885zm-1.039 4.465c-2.453-.49-3.84.01-4.407.313v1.916h7.726v-1.937a16.152 16.152 0 01-3.319-.292z"/><path d="M0 .738v20.524h30V.738H0zm4.62 15.894V5.368h11.265v11.264H4.62zm20.7-6.722v1.77h-6.664V9.91h6.664zm-6.664-2.33V5.81h4.423v1.77h-4.423zm4.423 6.429v1.77h-4.423v-1.77h4.423z"/></symbol><symbol viewBox="0 0 30 30" id="servise-4" xmlns="http://www.w3.org/2000/svg"><path d="M22.5 5.357h3.214V7.5H22.5V5.357zM1.071 7.5H15v2.143H1.07V7.5z"/><path d="M28.928 11.786V3.214H12.857V6.43h2.679c.295 0 .535.24.535.535v4.822h12.857zm-7.5-6.964c0-.296.24-.536.536-.536h4.286c.296 0 .535.24.535.536v3.214c0 .296-.24.536-.535.536h-4.286a.536.536 0 01-.536-.536V4.822zm0 4.82h5.357v1.072h-5.357V9.643zM1.071 22.5H15V10.714H1.07V22.5zm4.286-9.643h7.5v1.072h-7.5v-1.072zm-2.143 0h1.072v1.072H3.214v-1.072zm0 3.215h9.643v1.07H3.214v-1.07z"/><path d="M26.786 18.214H16.07v4.822c0 .296-.24.535-.535.535h-3.75v6.43h15V18.213zm-6.429 5.893h-2.143v-1.071h2.143v1.071zm3.214 0h-2.143v-1.071h2.143v1.071zM12.857 0h16.071v2.143H12.857V0zm3.214 15h10.715v2.143H16.07V15z"/></symbol><symbol viewBox="0 0 30 30" id="servise-5" xmlns="http://www.w3.org/2000/svg"><path d="M18.75 25h-7.5v2.5h-2.5V30h12.5v-2.5h-2.5V25zM0 22.5a1.25 1.25 0 001.25 1.25h27.5A1.25 1.25 0 0030 22.5v-1.25H0v1.25zM28.75 0H1.25A1.25 1.25 0 000 1.25V20h30V1.25A1.25 1.25 0 0028.75 0zM7.5 18.125H5a.625.625 0 01-.625-.625V15h1.25v1.875H7.5v1.25zm0-13.75H5.625V6.25h-1.25v-2.5A.625.625 0 015 3.125h2.5v1.25zm6.875 12.96l-4.934-2.467a1.25 1.25 0 01-.691-1.118V7.574l5.625 2.812v6.949zM9.312 6.458l.029-.02c.018-.012.038-.02.057-.032.014-.008.027-.017.041-.024l5-2.5a1.25 1.25 0 011.118 0l5 2.5c.015.007.027.017.041.025.015.007.039.018.057.03l.028.02h.002L15 9.301 9.312 6.458zM21.25 13.75a1.25 1.25 0 01-.69 1.118l-4.935 2.467v-6.949l5.625-2.812v6.176zm4.375 3.75a.624.624 0 01-.625.625h-2.5v-1.25h1.875V15h1.25v2.5zm0-11.25h-1.25V4.375H22.5v-1.25H25a.625.625 0 01.625.625v2.5z"/></symbol><symbol viewBox="0 0 41 41" id="servise-6" xmlns="http://www.w3.org/2000/svg"><path d="M26.47 8.257H2.847A2.85 2.85 0 000 11.104v18.737a2.85 2.85 0 002.847 2.847H26.47a2.85 2.85 0 002.848-2.847V11.104a2.85 2.85 0 00-2.848-2.847zm4.745 16.115L41 29.714V11.292l-9.785 5.342v7.738z"/></symbol><symbol viewBox="0 0 30 30" id="servise-7" xmlns="http://www.w3.org/2000/svg"><path d="M22.031 0H7.97a2.64 2.64 0 00-2.637 2.637v24.726A2.64 2.64 0 007.969 30H22.03a2.64 2.64 0 002.637-2.637V2.637A2.64 2.64 0 0022.031 0zM15 26.484a.88.88 0 110-1.758.88.88 0 010 1.758zm1.758-21.21h-3.516a.88.88 0 010-1.758h3.516a.88.88 0 010 1.757z"/></symbol><symbol viewBox="0 0 23 30" id="servise-8" xmlns="http://www.w3.org/2000/svg"><path d="M7.998 0h6.758v3.867H7.998V0zm0 21.758v6.484h-5.37V30h17.5v-1.758h-5.372v-6.484H7.998zM0 5.625V20h22.754V5.625H0zm18.252 9.941H4.502V13.81h13.75v1.757zm-2.292-3.75H6.794V10.06h9.166v1.757z"/></symbol><symbol viewBox="0 0 30 30" id="servise-9" xmlns="http://www.w3.org/2000/svg"><path d="M12.22 25.031v4.54l2.78-1.06 2.779 1.06v-4.54a4.982 4.982 0 01-2.78.844 4.982 4.982 0 01-2.778-.844zM0 .43v22.335h10.364a4.985 4.985 0 01-.376-1.902A5.017 5.017 0 0115 15.85a5.017 5.017 0 015.012 5.012c0 .673-.135 1.315-.377 1.902H30V.43H0zm8.127 2.847h13.746v1.758H8.127V3.277zm13.746 9.727H8.127v-1.758h13.746v1.758zm3.506-3.985H4.62V7.261h20.76V9.02z"/><path d="M15 24.116a3.254 3.254 0 100-6.508 3.254 3.254 0 000 6.508z"/></symbol><symbol viewBox="0 0 20 20" id="web" xmlns="http://www.w3.org/2000/svg"><path d="M5.64 12c-.08-.66-.14-1.32-.14-2 0-.68.06-1.34.14-2H2.26C2.1 8.64 2 9.31 2 10s.1 1.36.26 2h3.38zm1.77 5.56A15.65 15.65 0 016.03 14H3.08a8.03 8.03 0 004.33 3.56zM7.66 12h4.68c.1-.66.16-1.32.16-2 0-.68-.06-1.35-.16-2H7.66c-.09.65-.16 1.32-.16 2 0 .68.07 1.34.16 2zM10 17.96c.83-1.2 1.5-2.53 1.91-3.96H8.09c.41 1.43 1.08 2.76 1.91 3.96zM14 6h2.92a7.923 7.923 0 00-4.32-3.56C13.2 3.55 13.65 4.75 14 6zm2.92 8H14c-.35 1.25-.8 2.45-1.4 3.56A8.008 8.008 0 0016.92 14zm.82-2c.16-.64.26-1.31.26-2s-.1-1.36-.26-2h-3.38c.08.66.14 1.32.14 2 0 .68-.06 1.34-.14 2h3.38zM10 2.03C9.17 3.23 8.5 4.57 8.09 6h3.82C11.5 4.57 10.83 3.23 10 2.03zM3.08 6h2.95a15.65 15.65 0 011.38-3.56C5.57 3.07 4.04 4.34 3.08 6zM10 0c5.53 0 10 4.5 10 10A10 10 0 1110 0z"/></symbol></svg>