<?xml version="1.0" encoding="utf-8"?><svg xmlns="http://www.w3.org/2000/svg" xmlns:xlink="http://www.w3.org/1999/xlink"><symbol viewBox="0 0 344.96 344.96" id="check" xmlns="http://www.w3.org/2000/svg"><g data-name="Слой 2"><path d="M321.85 86.24l-40-23.11-23.1-40H212.5L172.48 0l-40 23.11H86.24l-23.11 40-40 23.1v46.21L0 172.48l23.11 40v46.21l40 23.11 23.11 40h46.21l40 23.1 40-23.11h46.21l23.11-40 40-23.11V212.5l23.11-40-23.11-40V86.24zM156.91 243.07a16.79 16.79 0 01-23.34 0l-50.45-50.44a16.19 16.19 0 010-22.89l13.35-13.35a16.19 16.19 0 0122.89 0l25.87 25.87 80.34-80.35a16.19 16.19 0 0122.89 0l13.35 13.35a16.19 16.19 0 010 22.89z" data-name="Capa 1"/></g></symbol><symbol viewBox="0 0 20 16" id="mail" xmlns="http://www.w3.org/2000/svg"><path d="M2 0h16c1.1 0 2 .9 2 2v12c0 1.1-.9 2-2 2H2c-1.1 0-2-.9-2-2V2C0 .9.9 0 2 0zm.4 4.25l6.54 4.09c.65.41 1.47.41 2.12 0l6.54-4.09a.85.85 0 10-.9-1.44L10 7 3.3 2.81a.85.85 0 10-.9 1.44z"/></symbol><symbol viewBox="0 0 473.806 473.806" id="phone-call" xmlns="http://www.w3.org/2000/svg"><path d="M374.456 293.506c-9.7-10.1-21.4-15.5-33.8-15.5-12.3 0-24.1 5.3-34.2 15.4l-31.6 31.5c-2.6-1.4-5.2-2.7-7.7-4-3.6-1.8-7-3.5-9.9-5.3-29.6-18.8-56.5-43.3-82.3-75-12.5-15.8-20.9-29.1-27-42.6 8.2-7.5 15.8-15.3 23.2-22.8 2.8-2.8 5.6-5.7 8.4-8.5 21-21 21-48.2 0-69.2l-27.3-27.3c-3.1-3.1-6.3-6.3-9.3-9.5-6-6.2-12.3-12.6-18.8-18.6-9.7-9.6-21.3-14.7-33.5-14.7s-24 5.1-34 14.7l-.2.2-34 34.3c-12.8 12.8-20.1 28.4-21.7 46.5-2.4 29.2 6.2 56.4 12.8 74.2 16.2 43.7 40.4 84.2 76.5 127.6 43.8 52.3 96.5 93.6 156.7 122.7 23 10.9 53.7 23.8 88 26 2.1.1 4.3.2 6.3.2 23.1 0 42.5-8.3 57.7-24.8.1-.2.3-.3.4-.5 5.2-6.3 11.2-12 17.5-18.1 4.3-4.1 8.7-8.4 13-12.9 9.9-10.3 15.1-22.3 15.1-34.6 0-12.4-5.3-24.3-15.4-34.3l-54.9-55.1zm35.8 105.3c-.1 0-.1.1 0 0-3.9 4.2-7.9 8-12.2 12.2-6.5 6.2-13.1 12.7-19.3 20-10.1 10.8-22 15.9-37.6 15.9-1.5 0-3.1 0-4.6-.1-29.7-1.9-57.3-13.5-78-23.4-56.6-27.4-106.3-66.3-147.6-115.6-34.1-41.1-56.9-79.1-72-119.9-9.3-24.9-12.7-44.3-11.2-62.6 1-11.7 5.5-21.4 13.8-29.7l34.1-34.1c4.9-4.6 10.1-7.1 15.2-7.1 6.3 0 11.4 3.8 14.6 7l.3.3c6.1 5.7 11.9 11.6 18 17.9 3.1 3.2 6.3 6.4 9.5 9.7l27.3 27.3c10.6 10.6 10.6 20.4 0 31-2.9 2.9-5.7 5.8-8.6 8.6-8.4 8.6-16.4 16.6-25.1 24.4-.2.2-.4.3-.5.5-8.6 8.6-7 17-5.2 22.7l.3.9c7.1 17.2 17.1 33.4 32.3 52.7l.1.1c27.6 34 56.7 60.5 88.8 80.8 4.1 2.6 8.3 4.7 12.3 6.7 3.6 1.8 7 3.5 9.9 5.3.4.2.8.5 1.2.7 3.4 1.7 6.6 2.5 9.9 2.5 8.3 0 13.5-5.2 15.2-6.9l34.2-34.2c3.4-3.4 8.8-7.5 15.1-7.5 6.2 0 11.3 3.9 14.4 7.3l.2.2 55.1 55.1c10.3 10.2 10.3 20.7.1 31.3zm-154.2-286.1c26.2 4.4 50 16.8 69 35.8s31.3 42.8 35.8 69c1.1 6.6 6.8 11.2 13.3 11.2.8 0 1.5-.1 2.3-.2 7.4-1.2 12.3-8.2 11.1-15.6-5.4-31.7-20.4-60.6-43.3-83.5s-51.8-37.9-83.5-43.3c-7.4-1.2-14.3 3.7-15.6 11s3.5 14.4 10.9 15.6zm217.2 96.3c-8.9-52.2-33.5-99.7-71.3-137.5s-85.3-62.4-137.5-71.3c-7.3-1.3-14.2 3.7-15.5 11-1.2 7.4 3.7 14.3 11.1 15.6 46.6 7.9 89.1 30 122.9 63.7 33.8 33.8 55.8 76.3 63.7 122.9 1.1 6.6 6.8 11.2 13.3 11.2.8 0 1.5-.1 2.3-.2 7.3-1.1 12.3-8.1 11-15.4z"/></symbol><symbol viewBox="0 0 30 30" id="servise-1" xmlns="http://www.w3.org/2000/svg"><path d="M20.586 7.469A6.524 6.524 0 0014.059.94C6.293.941 0 7.225 0 15c0 7.766 6.283 14.059 14.059 14.059 3.195 0 6.234-1.087 8.67-2.995.038-2.08.169-4.157.346-6.114a2.765 2.765 0 01-2.494 1.577 2.765 2.765 0 01-2.762-2.761 2.765 2.765 0 012.762-2.762c1.291 0 2.379.892 2.679 2.092.254-2.342.557-4.432.816-6.032a4.767 4.767 0 01-3.49-4.595zM7.536 21.527a2.765 2.765 0 01-2.761-2.761 2.765 2.765 0 012.762-2.762 2.765 2.765 0 012.761 2.762 2.765 2.765 0 01-2.761 2.761zm0-7.53a2.765 2.765 0 01-2.761-2.763 2.765 2.765 0 012.762-2.761 2.765 2.765 0 012.761 2.761 2.765 2.765 0 01-2.761 2.762zm6.523 11.296a2.765 2.765 0 01-2.762-2.762 2.765 2.765 0 012.762-2.761 2.765 2.765 0 012.761 2.761 2.765 2.765 0 01-2.761 2.762zm0-15.063a2.765 2.765 0 01-2.762-2.761 2.765 2.765 0 012.762-2.762 2.765 2.765 0 012.761 2.762 2.765 2.765 0 01-2.761 2.761z"/><path d="M14.059 6.465a1.005 1.005 0 000 2.008 1.005 1.005 0 000-2.008zm0 15.062a1.005 1.005 0 000 2.008 1.005 1.005 0 000-2.008zM7.537 10.23a1.005 1.005 0 000 2.008 1.005 1.005 0 000-2.008zm13.043 9.54a1.004 1.004 0 100-2.008 1.004 1.004 0 000 2.008zM7.537 17.762a1.005 1.005 0 000 2.007 1.005 1.005 0 000-2.007zm19.701-5.774c-.464 0-.913-.07-1.335-.201-.563 3.368-1.426 9.502-1.426 15.451A2.765 2.765 0 0027.238 30 2.765 2.765 0 0030 27.238c0-5.95-.863-12.083-1.426-15.451-.422.13-.871.201-1.336.201zm0-1.758A2.765 2.765 0 0030 7.47C30 4.038 28.086.594 28.004.45a.879.879 0 00-1.532 0c-.081.144-1.995 3.588-1.995 7.02a2.765 2.765 0 002.761 2.761z"/></symbol><symbol viewBox="0 0 30 30" id="servise-2" xmlns="http://www.w3.org/2000/svg"><path d="M23.79 27.305h-2.883l-.586-1.758H9.679l-.586 1.758H6.211a.879.879 0 100 1.758h17.578a.879.879 0 100-1.758zm0-21.095a.88.88 0 100 1.76.88.88 0 000-1.76z"/><path d="M27.305.938H2.637A2.64 2.64 0 000 3.574v14.942h5.332v-2.637c0-.486.393-.879.879-.879h1.358a7.82 7.82 0 01.312-.753l-.96-.961a.879.879 0 010-1.243l2.485-2.486a.879.879 0 011.243 0l.962.962a7.7 7.7 0 01.752-.314V8.848a.88.88 0 01.88-.88h3.515a.88.88 0 01.879.88v1.358c.255.09.506.195.753.313l.96-.962a.879.879 0 011.244 0l2.485 2.486c.344.343.344.9 0 1.243l-.96.961c.117.247.221.497.312.753h1.358c.486 0 .879.393.879.879v2.637H30V3.574C30 2.12 28.759.938 27.305.938zm-3.516 8.789a2.64 2.64 0 01-2.637-2.637 2.64 2.64 0 012.637-2.637 2.64 2.64 0 012.637 2.637 2.64 2.64 0 01-2.637 2.637z"/><path d="M12.363 17.637c0 .303.07.596.17.879h4.933c.1-.283.17-.576.17-.88A2.64 2.64 0 0015 15a2.64 2.64 0 00-2.637 2.637z"/><path d="M9.069 16.099a.88.88 0 01-.851.659H7.09v1.758h3.631c-.059-.29-.116-.58-.116-.88A4.4 4.4 0 0115 13.243a4.4 4.4 0 014.395 4.395c0 .298-.057.59-.116.879h3.631v-1.758h-1.128a.88.88 0 01-.851-.66 6.044 6.044 0 00-.65-1.566.88.88 0 01.135-1.068l.8-.8-1.244-1.242-.8.8a.875.875 0 01-1.068.134 6.04 6.04 0 00-1.566-.65.88.88 0 01-.66-.852V9.727h-1.757v1.127a.88.88 0 01-.66.852 6.04 6.04 0 00-1.565.65.876.876 0 01-1.068-.134l-.8-.8-1.243 1.242.8.8a.88.88 0 01.135 1.068 6.042 6.042 0 00-.651 1.567zM0 21.152a2.64 2.64 0 002.637 2.637h24.668c1.454 0 2.695-1.183 2.695-2.637v-.879H0v.88z"/></symbol><symbol viewBox="0 0 30 22" id="servise-3" xmlns="http://www.w3.org/2000/svg"><path d="M11.143 10.9a14.47 14.47 0 002.972.256v-4.02H6.39v3.893c1.013-.34 2.568-.567 4.754-.13zm.692-2.731c.496 0 .863.405.884.885.022.477-.421.884-.884.884-.496 0-.864-.405-.885-.884-.021-.478.422-.885.885-.885zm-1.039 4.465c-2.453-.49-3.84.01-4.407.313v1.916h7.726v-1.937a16.152 16.152 0 01-3.319-.292z"/><path d="M0 .738v20.524h30V.738H0zm4.62 15.894V5.368h11.265v11.264H4.62zm20.7-6.722v1.77h-6.664V9.91h6.664zm-6.664-2.33V5.81h4.423v1.77h-4.423zm4.423 6.429v1.77h-4.423v-1.77h4.423z"/></symbol><symbol viewBox="0 0 30 30" id="servise-4" xmlns="http://www.w3.org/2000/svg"><path d="M22.5 5.357h3.214V7.5H22.5V5.357zM1.071 7.5H15v2.143H1.07V7.5z"/><path d="M28.928 11.786V3.214H12.857V6.43h2.679c.295 0 .535.24.535.535v4.822h12.857zm-7.5-6.964c0-.296.24-.536.536-.536h4.286c.296 0 .535.24.535.536v3.214c0 .296-.24.536-.535.536h-4.286a.536.536 0 01-.536-.536V4.822zm0 4.82h5.357v1.072h-5.357V9.643zM1.071 22.5H15V10.714H1.07V22.5zm4.286-9.643h7.5v1.072h-7.5v-1.072zm-2.143 0h1.072v1.072H3.214v-1.072zm0 3.215h9.643v1.07H3.214v-1.07z"/><path d="M26.786 18.214H16.07v4.822c0 .296-.24.535-.535.535h-3.75v6.43h15V18.213zm-6.429 5.893h-2.143v-1.071h2.143v1.071zm3.214 0h-2.143v-1.071h2.143v1.071zM12.857 0h16.071v2.143H12.857V0zm3.214 15h10.715v2.143H16.07V15z"/></symbol><symbol viewBox="0 0 30 30" id="servise-5" xmlns="http://www.w3.org/2000/svg"><path d="M18.75 25h-7.5v2.5h-2.5V30h12.5v-2.5h-2.5V25zM0 22.5a1.25 1.25 0 001.25 1.25h27.5A1.25 1.25 0 0030 22.5v-1.25H0v1.25zM28.75 0H1.25A1.25 1.25 0 000 1.25V20h30V1.25A1.25 1.25 0 0028.75 0zM7.5 18.125H5a.625.625 0 01-.625-.625V15h1.25v1.875H7.5v1.25zm0-13.75H5.625V6.25h-1.25v-2.5A.625.625 0 015 3.125h2.5v1.25zm6.875 12.96l-4.934-2.467a1.25 1.25 0 01-.691-1.118V7.574l5.625 2.812v6.949zM9.312 6.458l.029-.02c.018-.012.038-.02.057-.032.014-.008.027-.017.041-.024l5-2.5a1.25 1.25 0 011.118 0l5 2.5c.015.007.027.017.041.025.015.007.039.018.057.03l.028.02h.002L15 9.301 9.312 6.458zM21.25 13.75a1.25 1.25 0 01-.69 1.118l-4.935 2.467v-6.949l5.625-2.812v6.176zm4.375 3.75a.624.624 0 01-.625.625h-2.5v-1.25h1.875V15h1.25v2.5zm0-11.25h-1.25V4.375H22.5v-1.25H25a.625.625 0 01.625.625v2.5z"/></symbol><symbol viewBox="0 0 41 41" id="servise-6" xmlns="http://www.w3.org/2000/svg"><path d="M26.47 8.257H2.847A2.85 2.85 0 000 11.104v18.737a2.85 2.85 0 002.847 2.847H26.47a2.85 2.85 0 002.848-2.847V11.104a2.85 2.85 0 00-2.848-2.847zm4.745 16.115L41 29.714V11.292l-9.785 5.342v7.738z"/></symbol><symbol viewBox="0 0 30 30" id="servise-7" xmlns="http://www.w3.org/2000/svg"><path d="M22.031 0H7.97a2.64 2.64 0 00-2.637 2.637v24.726A2.64 2.64 0 007.969 30H22.03a2.64 2.64 0 002.637-2.637V2.637A2.64 2.64 0 0022.031 0zM15 26.484a.88.88 0 110-1.758.88.88 0 010 1.758zm1.758-21.21h-3.516a.88.88 0 010-1.758h3.516a.88.88 0 010 1.757z"/></symbol><symbol viewBox="0 0 23 30" id="servise-8" xmlns="http://www.w3.org/2000/svg"><path d="M7.998 0h6.758v3.867H7.998V0zm0 21.758v6.484h-5.37V30h17.5v-1.758h-5.372v-6.484H7.998zM0 5.625V20h22.754V5.625H0zm18.252 9.941H4.502V13.81h13.75v1.757zm-2.292-3.75H6.794V10.06h9.166v1.757z"/></symbol><symbol viewBox="0 0 30 30" id="servise-9" xmlns="http://www.w3.org/2000/svg"><path d="M12.22 25.031v4.54l2.78-1.06 2.779 1.06v-4.54a4.982 4.982 0 01-2.78.844 4.982 4.982 0 01-2.778-.844zM0 .43v22.335h10.364a4.985 4.985 0 01-.376-1.902A5.017 5.017 0 0115 15.85a5.017 5.017 0 015.012 5.012c0 .673-.135 1.315-.377 1.902H30V.43H0zm8.127 2.847h13.746v1.758H8.127V3.277zm13.746 9.727H8.127v-1.758h13.746v1.758zm3.506-3.985H4.62V7.261h20.76V9.02z"/><path d="M15 24.116a3.254 3.254 0 100-6.508 3.254 3.254 0 000 6.508z"/></symbol><symbol viewBox="0 0 20 20" id="web" xmlns="http://www.w3.org/2000/svg"><path d="M5.64 12c-.08-.66-.14-1.32-.14-2 0-.68.06-1.34.14-2H2.26C2.1 8.64 2 9.31 2 10s.1 1.36.26 2h3.38zm1.77 5.56A15.65 15.65 0 016.03 14H3.08a8.03 8.03 0 004.33 3.56zM7.66 12h4.68c.1-.66.16-1.32.16-2 0-.68-.06-1.35-.16-2H7.66c-.09.65-.16 1.32-.16 2 0 .68.07 1.34.16 2zM10 17.96c.83-1.2 1.5-2.53 1.91-3.96H8.09c.41 1.43 1.08 2.76 1.91 3.96zM14 6h2.92a7.923 7.923 0 00-4.32-3.56C13.2 3.55 13.65 4.75 14 6zm2.92 8H14c-.35 1.25-.8 2.45-1.4 3.56A8.008 8.008 0 0016.92 14zm.82-2c.16-.64.26-1.31.26-2s-.1-1.36-.26-2h-3.38c.08.66.14 1.32.14 2 0 .68-.06 1.34-.14 2h3.38zM10 2.03C9.17 3.23 8.5 4.57 8.09 6h3.82C11.5 4.57 10.83 3.23 10 2.03zM3.08 6h2.95a15.65 15.65 0 011.38-3.56C5.57 3.07 4.04 4.34 3.08 6zM10 0c5.53 0 10 4.5 10 10A10 10 0 1110 0z"/></symbol></svg>