<svg width="21" height="20" viewBox="0 0 21 20" fill="none" xmlns="http://www.w3.org/2000/svg">
<g clip-path="url(#clip0)">
<path d="M17.8305 2.87417C15.9305 1.0375 13.4305 0 10.768 0C3.1263 0 -1.67203 8.27917 2.1438 14.865L0.730469 20L6.00964 18.6233C8.30964 19.8658 10.1938 19.7558 10.773 19.8292C19.6338 19.8292 24.0446 9.10917 17.818 2.90667L17.8305 2.87417Z" fill="#ECEFF1"/>
<path d="M10.7867 18.1259L10.7817 18.1251H10.7684C8.11669 18.1251 6.42253 16.8693 6.25586 16.7968L3.13086 17.6093L3.96836 14.5718L3.76919 14.2593C2.94419 12.9459 2.50586 11.4334 2.50586 9.87592C2.50586 2.54842 11.46 -1.11575 16.6417 4.06342C21.8109 9.18842 18.1817 18.1259 10.7867 18.1259Z" fill="#4CAF50"/>
<path d="M15.3197 11.9226L15.3122 11.9851C15.0614 11.8601 13.8398 11.2626 13.6123 11.1801C13.1014 10.9909 13.2456 11.1501 12.2648 12.2734C12.1189 12.4359 11.9739 12.4484 11.7264 12.3359C11.4764 12.2109 10.6739 11.9484 9.72392 11.0984C8.98392 10.4359 8.48725 9.62342 8.34058 9.37342C8.09642 8.95176 8.60725 8.89176 9.07225 8.01176C9.15558 7.83676 9.11308 7.69926 9.05142 7.57509C8.98892 7.45009 8.49142 6.22509 8.28308 5.73676C8.08308 5.25009 7.87725 5.31176 7.72308 5.31176C7.24308 5.27009 6.89225 5.27676 6.58308 5.59842C5.23808 7.07676 5.57725 8.60176 6.72808 10.2234C8.98975 13.1834 10.1948 13.7284 12.3981 14.4851C12.9931 14.6743 13.5356 14.6476 13.9648 14.5859C14.4431 14.5101 15.4373 13.9851 15.6447 13.3976C15.8573 12.8101 15.8573 12.3226 15.7948 12.2101C15.7331 12.0976 15.5698 12.0351 15.3197 11.9226Z" fill="#FAFAFA"/>
</g>
<defs>
<clipPath id="clip0">
<rect x="0.730469" width="20" height="20" fill="white"/>
</clipPath>
</defs>
</svg>
