<svg width="97" height="97" viewBox="0 0 97 97" fill="none" xmlns="http://www.w3.org/2000/svg">
<g clip-path="url(#clip0)">
<path d="M87.3418 63.3344C88.9128 61.5591 89.8694 59.2279 89.8694 56.6764V53.5525C89.8694 48.0057 85.3567 43.4927 79.8097 43.4927C74.2627 43.4927 69.7499 48.0055 69.7499 53.5525V56.6764C69.7499 59.2287 70.7069 61.5604 72.2789 63.3359C70.9087 63.6719 69.6046 64.2469 68.4292 65.038C66.4923 62.2782 63.7237 60.1431 60.4902 58.9994C60.4402 58.9786 60.3896 58.9604 60.3384 58.9457C59.5736 58.6838 58.7836 58.4768 57.9727 58.3302C59.9765 56.3725 61.3764 53.8017 61.8684 50.9237C62.429 51.0936 63.0148 51.184 63.6142 51.184C66.929 51.184 69.6258 48.4872 69.6258 45.1724C69.6258 43.3071 68.7682 41.5909 67.3558 40.4687C67.5163 40.0902 67.6068 39.6751 67.6068 39.2386V35.3751C67.6068 28.7879 62.2477 23.4289 55.6606 23.4289H52.4555C52.3059 23.4289 52.1562 23.4366 52.0072 23.4482C50.8278 21.9856 49.0229 21.0473 47.0021 21.0473H45.2827C45.2983 20.7359 45.3089 20.4237 45.3089 20.1102C45.3089 9.88018 36.9862 1.55762 26.7564 1.55762C16.5266 1.55762 8.20381 9.88037 8.20381 20.1102C8.20381 30.34 16.5266 38.6627 26.7564 38.6627C27.6446 38.6627 28.5251 38.5984 29.3934 38.4749V39.7118C29.3934 40.0105 29.4352 40.2998 29.513 40.5741C28.1714 41.7031 27.3744 43.3746 27.3744 45.1722C27.3744 48.487 30.0712 51.1838 33.386 51.1838C33.9856 51.1838 34.5714 51.0931 35.1318 50.9234C35.6238 53.8021 37.0244 56.3734 39.029 58.3315C38.2321 58.4762 37.4549 58.6793 36.7019 58.936C36.6232 58.9561 36.5456 58.9834 36.4692 59.0179C33.2585 60.1681 30.5054 62.2992 28.5757 65.0476C27.4182 64.264 26.1179 63.6771 24.7226 63.3342C26.2938 61.5589 27.2502 59.2277 27.2502 56.6761V53.5521C27.2502 48.0053 22.7375 43.4924 17.1905 43.4924C11.6437 43.4924 7.13094 48.0051 7.13094 53.5521V56.6761C7.13094 59.2276 8.08756 61.5587 9.65862 63.334C4.40788 64.6221 0.5 69.3661 0.5 75.0079V87.1681C0.5 87.9447 1.12962 88.5743 1.90625 88.5743C2.68288 88.5743 3.3125 87.9447 3.3125 87.1681V75.0079C3.3125 69.9304 7.44331 65.7996 12.5208 65.7996H12.959C13.2673 65.9431 13.5838 66.0709 13.9079 66.1832L11.0938 77.1672C10.8566 78.0929 11.1551 79.0598 11.8726 79.6906L15.5231 82.8996C15.9984 83.3174 16.5942 83.5262 17.1903 83.5262C17.7864 83.5262 18.3824 83.3174 18.8577 82.8996L22.5082 79.6906C23.2257 79.0596 23.5241 78.0927 23.2869 77.1672L20.4727 66.1832C20.7969 66.0709 21.1134 65.9431 21.4216 65.7996H21.8596C23.8319 65.7996 25.6604 66.4244 27.1604 67.4843C26.1875 69.5528 25.6357 71.8553 25.6196 74.2814C25.6145 75.058 26.2398 75.6917 27.0164 75.697H27.026C27.7983 75.697 28.427 75.0736 28.4321 74.3001C28.4681 68.8748 31.7375 64.1948 36.395 62.0822L47.0938 82.4592V93.063C47.0938 93.8397 47.7234 94.4693 48.5 94.4693C49.2766 94.4693 49.9062 93.8397 49.9062 93.063V82.4592L60.6071 62.0779C65.297 64.1987 68.5704 68.9183 68.5704 74.3912V93.0741C68.5704 93.8507 69.2 94.4804 69.9766 94.4804C70.7533 94.4804 71.3829 93.8507 71.3829 93.0741V74.3912C71.3829 71.9206 70.8299 69.577 69.8431 67.4759C71.3868 66.3902 73.2376 65.7994 75.1402 65.7994H75.5782C75.8864 65.9429 76.2031 66.0709 76.5271 66.1831L73.7127 77.1668C73.4756 78.0923 73.7741 79.0592 74.4918 79.6904L78.1423 82.8994C78.6176 83.3172 79.2134 83.5261 79.8095 83.5261C80.4056 83.5261 81.0016 83.3172 81.4769 82.8994L85.1272 79.6904C85.8449 79.0594 86.1434 78.0925 85.9062 77.167L85.4568 75.4127C85.2643 74.6605 84.4987 74.2073 83.7457 74.3995C82.9932 74.5922 82.5397 75.3584 82.7324 76.1108L83.1382 77.6946L79.8097 80.6207L76.4812 77.6946L79.2924 66.7229C79.4638 66.7317 79.6362 66.736 79.8097 66.736C79.9831 66.736 80.1558 66.7315 80.3272 66.7229L81.0417 69.5116C81.2045 70.1468 81.776 70.5692 82.403 70.5692C82.5185 70.5692 82.6361 70.5548 82.7531 70.5248C83.5055 70.3321 83.9591 69.5659 83.7663 68.8137L83.0924 66.1834C83.4189 66.0704 83.738 65.9416 84.0483 65.7966C84.0693 65.7976 84.0899 65.7998 84.1113 65.7998H84.4796C89.5571 65.7998 93.6879 69.9306 93.6879 75.0081V87.1682C93.6879 87.9449 94.3175 88.5745 95.0941 88.5745C95.8708 88.5745 96.5004 87.9449 96.5004 87.1682V75.0081C96.5 69.3661 92.5921 64.6221 87.3418 63.3344ZM9.94306 53.5525C9.94306 49.5563 13.1941 46.3052 17.1903 46.3052C21.1865 46.3052 24.4376 49.5563 24.4376 53.5525V56.6764C24.4376 60.6726 21.1865 63.9237 17.1903 63.9237C13.1941 63.9237 9.94325 60.6726 9.94325 56.6764V53.5525H9.94306ZM20.5188 77.6946L17.1905 80.6207L13.8618 77.6946L16.6728 66.7229C16.8442 66.7317 17.0167 66.736 17.1903 66.736C17.3638 66.736 17.5363 66.7315 17.7076 66.7229L20.5188 77.6946ZM63.6142 48.3713C63.0652 48.3713 62.5374 48.232 62.0658 47.9701V44.2426C62.0658 43.6838 62.0294 43.117 61.9584 42.5509C63.0519 42.5119 64.0194 42.4377 64.778 42.3625C64.8753 42.3529 64.9709 42.3385 65.0652 42.3203C66.1342 42.8639 66.8135 43.9596 66.8135 45.1722C66.8133 46.9364 65.3782 48.3713 63.6142 48.3713ZM55.6604 26.2412C60.6969 26.2412 64.7941 30.3387 64.7941 35.3749V39.2384C64.7941 39.4071 64.6678 39.547 64.5001 39.5635C62.0953 39.8022 57.4758 40.0431 53.5537 38.9755C52.949 38.8109 52.3777 38.5358 51.8677 38.1711C52.8605 36.6587 53.4303 34.8541 53.4303 32.9459V27.4756C53.4303 27.0533 53.3881 26.6408 53.3101 26.2411H55.6604V26.2412ZM37.0792 35.527C37.7242 35.0942 37.8963 34.2207 37.4636 33.5757C37.0308 32.9307 36.1572 32.7587 35.5122 33.1913C32.9191 34.9307 29.8914 35.8502 26.756 35.8502C18.0768 35.8502 11.0159 28.7892 11.0159 20.1102C11.0159 11.4312 18.077 4.37012 26.756 4.37012C35.435 4.37012 42.4961 11.4312 42.4961 20.1102C42.4961 23.1968 41.6022 26.1856 39.9114 28.7534C39.4842 29.4019 39.6639 30.274 40.3124 30.7011C40.9608 31.1282 41.8331 30.9488 42.2602 30.3001C43.5586 28.3285 44.4554 26.1462 44.9253 23.8596H47.0015C48.9954 23.8596 50.6174 25.4817 50.6174 27.4756V32.9459C50.6174 35.9485 48.6252 38.5879 45.7726 39.3644C40.8192 40.7129 34.8356 40.2831 32.4928 40.036C32.3287 40.0187 32.2051 39.8792 32.2051 39.7116V37.8481C33.9243 37.321 35.5646 36.5431 37.0792 35.527ZM30.1867 45.1722C30.1867 44.1732 30.6502 43.2482 31.4227 42.6477C31.6676 42.7396 31.9265 42.8044 32.198 42.8331C32.969 42.9145 33.9183 42.9964 34.9889 43.0519C34.9535 43.4507 34.9342 43.8486 34.9342 44.2426V47.9701C34.4626 48.2322 33.9352 48.3713 33.3858 48.3713C31.6218 48.3713 30.1867 46.9364 30.1867 45.1722ZM37.7467 48.6321V44.2426C37.7467 43.8722 37.769 43.4965 37.8089 43.12C40.538 43.1084 43.6411 42.8597 46.5117 42.0784C47.8128 41.7242 48.9879 41.0991 49.9856 40.2745C50.8265 40.9249 51.7895 41.4104 52.8151 41.6896C54.8786 42.2513 57.0875 42.4894 59.1177 42.5575C59.2068 43.1217 59.2533 43.6883 59.2533 44.2429V48.6325C59.2533 54.562 54.4293 59.3858 48.5 59.3858C42.5707 59.3858 37.7467 54.5616 37.7467 48.6321ZM48.5 79.0874L44.1892 70.8769L47.3844 62.1484C47.7526 62.1786 48.1241 62.1981 48.5 62.1981C48.8759 62.1981 49.2472 62.1786 49.6156 62.1484L52.8108 70.8769L48.5 79.0874ZM41.9386 60.8822H42.677C43.2886 61.1742 43.9256 61.4204 44.5831 61.6191L42.4244 67.5158L39.1014 61.1866C40.0173 60.9889 40.9659 60.8822 41.9386 60.8822ZM54.5754 67.5158L52.4169 61.6191C53.0752 61.4202 53.7131 61.1736 54.3252 60.8813C54.332 60.8813 54.3386 60.8822 54.3453 60.8822H55.0614C56.0349 60.8822 56.9838 60.9882 57.8996 61.1847L54.5754 67.5158ZM72.5624 56.6762V53.5523C72.5624 49.5561 75.8135 46.3051 79.8097 46.3051C83.8059 46.3051 87.0569 49.5561 87.0569 53.5523V56.6762C87.0569 60.6724 83.8059 63.9235 79.8097 63.9235C75.8135 63.9235 72.5624 60.6724 72.5624 56.6762Z" fill="#3D58B0"/>
<path d="M27.0234 79.6887C26.2468 79.6887 25.6172 80.3183 25.6172 81.095V93.074C25.6172 93.8506 26.2468 94.4802 27.0234 94.4802C27.8001 94.4802 28.4297 93.8506 28.4297 93.074V81.095C28.4297 80.3183 27.8001 79.6887 27.0234 79.6887Z" fill="#3D58B0"/>
<path d="M53.7922 83.5015H53.76C53.7585 83.5015 53.7572 83.5015 53.7559 83.5015C52.9811 83.5015 52.3519 84.1285 52.3496 84.9038C52.3474 85.6804 52.9751 86.3117 53.7519 86.314H53.7844H53.7883C54.5631 86.314 55.1923 85.687 55.1946 84.9117C55.1966 84.135 54.5689 83.5035 53.7922 83.5015Z" fill="#3D58B0"/>
<path d="M38.4882 13.4305L35.9472 10.8895C35.5149 10.4571 34.9402 10.219 34.3289 10.219C33.7177 10.219 33.143 10.4571 32.7108 10.8893L23.419 20.1809L20.8014 17.5632C20.3692 17.131 19.7945 16.8929 19.1832 16.8929C18.572 16.8929 17.9973 17.131 17.5651 17.5632L15.0237 20.1044C14.1314 20.9967 14.1314 22.4483 15.0237 23.3406L21.1771 29.494C21.7953 30.1122 22.607 30.4212 23.419 30.4212C24.2309 30.4212 25.043 30.1122 25.6612 29.494L38.4884 16.6667C39.3805 15.7746 39.3805 14.323 38.4882 13.4305ZM23.6725 27.5052C23.5327 27.6449 23.3056 27.6449 23.1659 27.5052L17.3832 21.7223L19.1834 19.9221L22.4249 23.1636C22.9739 23.7128 23.8644 23.7128 24.4135 23.1636L34.3291 13.2484L36.1293 15.0484L23.6725 27.5052Z" fill="#3D58B0"/>
</g>
<defs>
<clipPath id="clip0">
<rect width="96" height="96" fill="white" transform="translate(0.5 0.019043)"/>
</clipPath>
</defs>
</svg>
