<svg width="97" height="97" viewBox="0 0 97 97" fill="none" xmlns="http://www.w3.org/2000/svg">
<g clip-path="url(#clip0)">
<path d="M55.3155 89.6122C74.7545 89.6122 90.5129 73.8538 90.5129 54.4149C90.5129 34.9759 74.7545 19.2175 55.3155 19.2175C35.8766 19.2175 20.1182 34.9759 20.1182 54.4149C20.1402 73.8446 35.8856 89.5902 55.3155 89.6122ZM28.1176 52.815H23.3995C24.2335 36.4296 37.3303 23.3328 53.7156 22.4989V27.2169C53.7156 28.1005 54.432 28.8168 55.3155 28.8168C56.1991 28.8168 56.9154 28.1005 56.9154 27.2169V22.4989C73.3008 23.3328 86.3976 36.4296 87.2315 52.815H80.9136C80.0301 52.815 79.3137 53.5313 79.3137 54.4149C79.3137 55.2984 80.0301 56.0148 80.9136 56.0148H87.2315C86.3976 72.3999 73.3008 85.4969 56.9154 86.3309V81.6128C56.9154 80.7293 56.1991 80.013 55.3155 80.013C54.432 80.013 53.7156 80.7293 53.7156 81.6128V86.3309C37.3305 85.4969 24.2335 72.4001 23.3995 56.0148H28.1176C29.0011 56.0148 29.7174 55.2984 29.7174 54.4149C29.7174 53.5313 29.0011 52.815 28.1176 52.815Z" fill="#3D58B0"/>
<path d="M91.337 33.6441C90.86 32.8178 90.3546 32.0082 89.8219 31.2167L93.772 27.2666C94.3965 26.6418 94.3965 25.6291 93.772 25.0044L84.7327 15.965C84.1079 15.3405 83.0952 15.3405 82.4704 15.965L78.5139 19.9088C72.114 15.5879 64.6322 13.1455 56.9155 12.8581V3.2188H68.1147C68.9982 3.2188 69.7146 2.50246 69.7146 1.61892C69.7146 0.735389 68.9982 0.019043 68.1147 0.019043H42.5166C41.6331 0.019043 40.9167 0.735389 40.9167 1.61892C40.9167 2.50246 41.6331 3.2188 42.5166 3.2188H53.7158V12.8725C39.4473 13.4172 26.4578 21.2507 19.3184 33.6165H10.519C9.63549 33.6165 8.91915 34.3329 8.91915 35.2164C8.91915 36.0999 9.63549 36.8163 10.519 36.8163H20.1183C20.1599 36.8163 20.1951 36.7955 20.2367 36.7923C20.8133 36.7997 21.348 36.4933 21.6334 35.9923C31.8124 17.3889 55.1451 10.5595 73.7487 20.7383C92.3523 30.9171 99.1814 54.2502 89.0025 72.8536C78.8235 91.457 55.4908 98.2865 36.8872 88.1076C30.4493 84.5851 25.1557 79.2915 21.6332 72.8536C21.3506 72.3506 20.8167 72.041 20.2397 72.0456C20.1981 72.0456 20.1613 72.0216 20.1181 72.0216H10.5188C9.63529 72.0216 8.91895 72.738 8.91895 73.6215C8.91895 74.5051 9.63529 75.2214 10.5188 75.2214H19.3182C30.7995 95.1087 56.2288 101.923 76.1161 90.4421C96.0036 78.9607 102.818 53.5314 91.337 33.6441ZM81.1283 21.8314L83.6013 19.3584L90.3784 26.1355L87.9018 28.6121C85.91 26.1011 83.6373 23.8261 81.1283 21.8314Z" fill="#3D58B0"/>
<path d="M16.9187 54.4151C16.9187 53.5315 16.2024 52.8152 15.3188 52.8152H2.5198C1.63627 52.8152 0.919922 53.5315 0.919922 54.4151C0.919922 55.2986 1.63627 56.0149 2.5198 56.0149H15.3188C16.2024 56.0149 16.9187 55.2986 16.9187 54.4151Z" fill="#3D58B0"/>
<path d="M5.72 46.4156H16.9192C17.8027 46.4156 18.519 45.6992 18.519 44.8157C18.519 43.9322 17.8027 43.2158 16.9192 43.2158H5.72C4.83646 43.2158 4.12012 43.9322 4.12012 44.8157C4.12012 45.6992 4.83626 46.4156 5.72 46.4156Z" fill="#3D58B0"/>
<path d="M18.519 64.0142C18.519 63.1307 17.8027 62.4143 16.9192 62.4143H5.72C4.83646 62.4143 4.12012 63.1307 4.12012 64.0142C4.12012 64.8977 4.83646 65.6141 5.72 65.6141H16.9192C17.8027 65.6141 18.519 64.8977 18.519 64.0142Z" fill="#3D58B0"/>
<path d="M50.9852 65.1454C51.61 65.77 52.6227 65.77 53.2474 65.1454L75.4858 42.9071C76.0997 42.2715 76.0821 41.2588 75.4466 40.6449C74.8266 40.0461 73.8437 40.0461 73.2235 40.6449L52.1163 61.7521L42.597 52.2328C41.9615 51.6191 40.9486 51.6364 40.3348 52.272C39.7361 52.892 39.7361 53.8749 40.3348 54.495L50.9852 65.1454Z" fill="#3D58B0"/>
</g>
<defs>
<clipPath id="clip0">
<rect width="96" height="96" fill="white" transform="translate(0.916992 0.019043)"/>
</clipPath>
</defs>
</svg>
