<svg width="97" height="97" viewBox="0 0 97 97" fill="none" xmlns="http://www.w3.org/2000/svg">
<g clip-path="url(#clip0)">
<path d="M68.5273 96.019H29.3079C28.4722 96.019 27.6858 95.6514 27.1498 95.0101C26.6141 94.3689 26.3917 93.5296 26.54 92.7072L28.6477 81.0219C28.7855 80.2576 29.5183 79.7504 30.2812 79.8877C31.0455 80.0255 31.5534 80.7569 31.4156 81.5212L29.3079 93.2065H68.5273L63.7518 66.7297H34.0837L32.4648 75.7038C32.327 76.4682 31.595 76.9758 30.8313 76.838C30.0669 76.7002 29.5591 75.9687 29.697 75.2045L31.3158 66.2305C31.5573 64.8903 32.7213 63.9174 34.0837 63.9174H36.8962C39.2988 63.9174 41.1624 62.825 42.4344 60.6708C43.5048 58.8582 44.1333 56.3206 44.2278 53.4629C39.6256 52.1596 35.8415 48.952 33.7488 44.5351H30.0238L31.688 51.3684C31.8718 52.123 31.409 52.8837 30.6543 53.0675C29.8998 53.251 29.1391 52.7885 28.9552 52.034L26.8676 43.4613C24.9712 35.6744 21.6751 32.728 17.8582 29.3165C13.7013 25.6008 8.98983 21.3894 6.24914 10.1362C5.98364 9.04604 6.22908 7.91467 6.92226 7.03248C7.61564 6.15011 8.65645 5.64404 9.77864 5.64404H23.8981L23.3752 3.49717C23.1695 2.65323 23.3595 1.77723 23.8963 1.09417C24.4329 0.410918 25.239 0.019043 26.1078 0.019043H32.6685C33.4453 0.019043 34.0747 0.648668 34.0747 1.42529C34.0747 2.20192 33.4453 2.83154 32.6685 2.83154H26.1078L35.2599 40.4099C36.8452 46.9197 42.3341 51.2935 48.9178 51.2935C55.5015 51.2935 60.9903 46.9197 62.5756 40.4099L64.6573 31.8631C64.841 31.1086 65.6024 30.6462 66.3564 30.8296C67.1109 31.0134 67.5738 31.774 67.3901 32.5287L65.3084 41.0755C65.2556 41.2929 65.1988 41.5089 65.1386 41.7222H68.5132C70.6736 33.8602 74.4478 30.4867 78.1029 27.2195C82.1426 23.6086 86.3197 19.8747 88.8538 9.47036C88.9359 9.13361 88.7938 8.88686 88.7017 8.76986C88.6096 8.65286 88.4034 8.45654 88.0565 8.45654H73.2521L68.7691 26.864C68.5854 27.6185 67.8238 28.0809 67.07 27.8975C66.3155 27.7137 65.8526 26.953 66.0363 26.1984L71.7273 2.83154H38.2934C37.5166 2.83154 36.8872 2.20192 36.8872 1.42529C36.8872 0.648668 37.5166 0.019043 38.2934 0.019043H71.7273C72.5962 0.019043 73.4023 0.410918 73.9389 1.09398C74.4757 1.77723 74.6656 2.65304 74.46 3.49698L73.9372 5.64404H88.0567C89.1787 5.64404 90.2197 6.15011 90.9129 7.03229C91.6061 7.91467 91.8515 9.04586 91.586 10.136C88.8453 21.3894 84.1338 25.6008 79.9769 29.3165C76.1602 32.7282 72.864 35.6746 70.9676 43.4613L68.8798 52.0336C68.696 52.7881 67.9342 53.2505 67.1806 53.0671C66.4261 52.8834 65.9632 52.1227 66.1469 51.368L67.8112 44.5347H64.0861C61.9934 48.9517 58.2093 52.1592 53.6071 53.4625C53.7018 56.3204 54.3301 58.858 55.4006 60.6704C56.6726 62.8248 58.5361 63.917 60.9388 63.917H63.7516C65.114 63.917 66.278 64.8899 66.5195 66.2305L71.295 92.7072C71.4433 93.5294 71.2211 94.3687 70.6852 95.0099C70.1495 95.6514 69.3629 96.019 68.5273 96.019ZM43.5142 63.9172H54.3211C53.8276 63.3845 53.3793 62.7783 52.9792 62.1007C51.4498 59.5109 50.9381 56.4528 50.8149 54.004C49.5697 54.1392 48.2656 54.1392 47.0206 54.004C46.8974 56.4528 46.3858 59.5109 44.8563 62.1007C44.456 62.7781 44.0075 63.3843 43.5142 63.9172ZM29.3223 41.7222H32.697C32.6368 41.5089 32.58 41.2929 32.5271 41.0755L24.5831 8.45654H9.77864C9.43176 8.45654 9.22589 8.65286 9.13401 8.76986C9.04214 8.88686 8.90001 9.13342 8.98195 9.47036C11.516 19.8745 15.6931 23.6084 19.7328 27.2195C23.3878 30.4867 27.162 33.8602 29.3223 41.7222ZM55.3139 87.3547H42.521C41.7442 87.3547 41.1148 86.725 41.1148 85.9484C41.1148 85.1718 41.7442 84.5422 42.521 84.5422H55.3139C56.0908 84.5422 56.7202 85.1718 56.7202 85.9484C56.7202 86.725 56.0908 87.3547 55.3139 87.3547ZM59.0639 81.7297H54.5426C53.7658 81.7297 53.1363 81.1 53.1363 80.3234C53.1363 79.5468 53.7658 78.9172 54.5426 78.9172H59.0639C59.8408 78.9172 60.4702 79.5468 60.4702 80.3234C60.4702 81.1 59.8408 81.7297 59.0639 81.7297ZM48.9176 81.7297H38.7712C37.9944 81.7297 37.365 81.1 37.365 80.3234C37.365 79.5468 37.9944 78.9172 38.7712 78.9172H48.9176C49.6944 78.9172 50.3238 79.5468 50.3238 80.3234C50.3238 81.1 49.6944 81.7297 48.9176 81.7297ZM59.0639 76.1047H38.7712C37.9944 76.1047 37.365 75.475 37.365 74.6984C37.365 73.9218 37.9944 73.2922 38.7712 73.2922H59.0641C59.8409 73.2922 60.4704 73.9218 60.4704 74.6984C60.4704 75.475 59.8408 76.1047 59.0639 76.1047ZM55.1383 34.5354C53.9739 34.5354 52.4649 33.701 50.4091 32.5025C49.9201 32.2173 49.2888 31.8494 48.9176 31.6653C48.5463 31.8492 47.915 32.2173 47.426 32.5025C44.6113 34.1437 42.8212 35.1022 41.5376 34.1701C40.2543 33.2379 40.6126 31.2391 41.3038 28.055C41.424 27.5015 41.579 26.7873 41.6392 26.3772C41.3493 26.081 40.8043 25.5942 40.3818 25.2172C37.9513 23.0474 36.4865 21.6408 36.9766 20.1324C37.4666 18.6239 39.4785 18.3472 42.7203 18.0204C43.2838 17.9635 44.0109 17.8904 44.4194 17.821C44.6116 17.4539 44.9062 16.7849 45.1342 16.2663C46.4465 13.2843 47.3315 11.4565 48.9176 11.4565C50.5036 11.4565 51.3886 13.2843 52.7011 16.2661C52.9293 16.7845 53.2237 17.4535 53.4159 17.8209C53.8245 17.8902 54.5516 17.9635 55.115 18.0202C58.3569 18.347 60.3688 18.6237 60.8587 20.1324C61.3488 21.6406 59.8841 23.047 57.4535 25.217C57.0311 25.594 56.486 26.0808 56.1961 26.377C56.2563 26.7871 56.4114 27.5013 56.5316 28.0548C57.2227 31.2389 57.581 33.2377 56.2978 34.1699C55.9516 34.4214 55.5682 34.5354 55.1383 34.5354ZM48.9176 28.7776C49.5781 28.7776 50.2458 29.1515 51.8259 30.0729C52.4407 30.4314 53.5136 31.0569 54.3037 31.4255C54.1974 30.5602 53.9338 29.3469 53.783 28.6514C53.3951 26.8636 53.2458 26.1132 53.45 25.4849C53.6542 24.8566 54.216 24.3372 55.5806 23.119C56.1114 22.6452 57.0376 21.8182 57.6324 21.1809C56.7766 21.0147 55.5412 20.8902 54.833 20.8188C53.013 20.6352 52.253 20.5454 51.7188 20.1571C51.1843 19.7688 50.8638 19.0739 50.127 17.3994C49.8403 16.7482 49.3402 15.6117 48.9178 14.8492C48.4953 15.6117 47.9953 16.7482 47.7086 17.3994C46.9715 19.0739 46.6511 19.7688 46.1167 20.1571C45.5823 20.5454 44.8226 20.6352 43.0025 20.8188C42.2945 20.89 41.0591 21.0145 40.2031 21.1809C40.7979 21.8184 41.7241 22.6452 42.255 23.119C43.6196 24.3372 44.1813 24.8566 44.3855 25.4849C44.5897 26.1132 44.4404 26.8638 44.0525 28.6514C43.9016 29.3469 43.6381 30.5602 43.5318 31.4255C44.322 31.0569 45.3948 30.4312 46.0096 30.0729C47.5893 29.1515 48.257 28.7776 48.9176 28.7776Z" fill="#3D58B0"/>
</g>
<defs>
<clipPath id="clip0">
<rect width="96" height="96" fill="white" transform="translate(0.916992 0.019043)"/>
</clipPath>
</defs>
</svg>
