<svg width="20" height="16" viewBox="0 0 20 16" fill="none" xmlns="http://www.w3.org/2000/svg">
<path d="M2 0H18C19.1 0 20 0.9 20 2V14C20 15.1 19.1 16 18 16H2C0.9 16 0 15.1 0 14V2C0 0.9 0.9 0 2 0ZM2.4 4.25L8.94 8.34C9.59 8.75 10.41 8.75 11.06 8.34L17.6 4.25C17.7003 4.19371 17.7881 4.11766 17.8581 4.02645C17.9281 3.93525 17.9789 3.83078 18.0074 3.71937C18.0359 3.60796 18.0415 3.49194 18.0238 3.37831C18.0062 3.26468 17.9657 3.15581 17.9047 3.0583C17.8438 2.96079 17.7637 2.87666 17.6693 2.811C17.5749 2.74533 17.4681 2.69951 17.3555 2.6763C17.2429 2.65309 17.1267 2.65297 17.014 2.67595C16.9014 2.69893 16.7945 2.74453 16.7 2.81L10 7L3.3 2.81C3.20546 2.74453 3.09863 2.69893 2.98595 2.67595C2.87328 2.65297 2.75712 2.65309 2.6445 2.6763C2.53187 2.69951 2.42513 2.74533 2.33073 2.811C2.23632 2.87666 2.15623 2.96079 2.09528 3.0583C2.03434 3.15581 1.99381 3.26468 1.97616 3.37831C1.9585 3.49194 1.96409 3.60796 1.99257 3.71937C2.02106 3.83078 2.07186 3.93525 2.14189 4.02645C2.21192 4.11766 2.29973 4.19371 2.4 4.25Z" fill="#FFFDFD"/>
</svg>
