<svg width="16" height="16" viewBox="0 0 16 16" fill="none" xmlns="http://www.w3.org/2000/svg">
<path d="M15.5645 11.7424L13.3317 9.50954C12.5342 8.71209 11.1786 9.0311 10.8596 10.0678C10.6204 10.7855 9.82292 11.1842 9.10521 11.0247C7.51032 10.626 5.35722 8.5526 4.9585 6.87797C4.71926 6.16024 5.19773 5.36279 5.91543 5.12359C6.95211 4.80461 7.27109 3.44895 6.47364 2.65151L4.2408 0.418659C3.60284 -0.139553 2.6459 -0.139553 2.08769 0.418659L0.572545 1.93381C-0.942601 3.5287 0.732035 7.75516 4.48003 11.5032C8.22802 15.2511 12.4545 17.0056 14.0494 15.4106L15.5645 13.8955C16.1228 13.2575 16.1228 12.3006 15.5645 11.7424Z" fill="white"/>
</svg>
