<svg width="57" height="57" viewBox="0 0 57 57" fill="none" xmlns="http://www.w3.org/2000/svg">
<g clip-path="url(#clip0)">
<path d="M17.125 30.3625C18.1519 30.3625 18.9844 29.5301 18.9844 28.5032C18.9844 27.4763 18.1519 26.6438 17.125 26.6438C16.0981 26.6438 15.2656 27.4763 15.2656 28.5032C15.2656 29.5301 16.0981 30.3625 17.125 30.3625Z" fill="#3D58B0"/>
<path d="M51.5781 12.8625H37.7969V19.7532C37.7969 22.4671 35.5889 24.675 32.875 24.675H24.125C21.4111 24.675 19.2031 22.4671 19.2031 19.7532V12.8625H5.42188C2.70795 12.8625 0.5 15.0705 0.5 17.7844V46.2219C0.5 48.9358 2.70795 51.1438 5.42188 51.1438H51.5781C54.292 51.1438 56.5 48.9358 56.5 46.2219V17.7844C56.5 15.0705 54.292 12.8625 51.5781 12.8625ZM23.25 42.3938H11C10.0939 42.3938 9.35938 41.6592 9.35938 40.7532C9.35938 37.4082 10.3288 33.6233 13.0608 31.6454C12.387 30.7759 11.9844 29.686 11.9844 28.5032C11.9844 25.6686 14.2904 23.3625 17.125 23.3625C19.9596 23.3625 22.2656 25.6686 22.2656 28.5032C22.2656 29.686 21.863 30.7759 21.1892 31.6454C23.9227 33.6243 24.8906 37.4108 24.8906 40.7532C24.8906 41.6592 24.1561 42.3938 23.25 42.3938ZM46 42.3938H30.25C29.3439 42.3938 28.6094 41.6592 28.6094 40.7532C28.6094 39.8471 29.3439 39.1125 30.25 39.1125H46C46.9061 39.1125 47.6406 39.8471 47.6406 40.7532C47.6406 41.6592 46.9061 42.3938 46 42.3938ZM46 34.5188H32.875C31.9689 34.5188 31.2344 33.7842 31.2344 32.8782C31.2344 31.9721 31.9689 31.2375 32.875 31.2375H46C46.9061 31.2375 47.6406 31.9721 47.6406 32.8782C47.6406 33.7842 46.9061 34.5188 46 34.5188Z" fill="#3D58B0"/>
<path d="M17.1237 33.6438C15.6995 33.6438 14.6242 34.2811 13.8365 35.5921C13.2782 36.5215 12.9012 37.7376 12.7354 39.1125H21.512C21.3461 37.7377 20.9692 36.5216 20.4109 35.5921C19.6233 34.2811 18.5479 33.6438 17.1237 33.6438Z" fill="#3D58B0"/>
<path d="M22.4844 19.7532C22.4844 20.6592 23.2189 21.3938 24.125 21.3938H32.875C33.7811 21.3938 34.5156 20.6592 34.5156 19.7532C34.5156 17.1351 34.5156 9.78189 34.5156 7.50317C34.5156 6.59711 33.7811 5.86255 32.875 5.86255H24.125C23.2189 5.86255 22.4844 6.59711 22.4844 7.50317V19.7532Z" fill="#3D58B0"/>
</g>
<defs>
<clipPath id="clip0">
<rect width="56" height="56" fill="white" transform="translate(0.5 0.503174)"/>
</clipPath>
</defs>
</svg>
