<svg width="57" height="56" viewBox="0 0 57 56" fill="none" xmlns="http://www.w3.org/2000/svg">
<g clip-path="url(#clip0)">
<path d="M28.1016 22.6005C33.3569 22.6005 37.6172 18.3402 37.6172 13.0848C37.6172 7.8295 33.3569 3.56921 28.1016 3.56921C22.8462 3.56921 18.5859 7.8295 18.5859 13.0848C18.5859 18.3402 22.8462 22.6005 28.1016 22.6005Z" fill="#3D58B0"/>
<path d="M47.3516 22.6004C50.6739 22.6004 53.3672 19.9071 53.3672 16.5847C53.3672 13.2624 50.6739 10.5691 47.3516 10.5691C44.0292 10.5691 41.3359 13.2624 41.3359 16.5847C41.3359 19.9071 44.0292 22.6004 47.3516 22.6004Z" fill="#3D58B0"/>
<path d="M8.85156 22.6004C12.1739 22.6004 14.8672 19.9071 14.8672 16.5847C14.8672 13.2624 12.1739 10.5691 8.85156 10.5691C5.52922 10.5691 2.83594 13.2624 2.83594 16.5847C2.83594 19.9071 5.52922 22.6004 8.85156 22.6004Z" fill="#3D58B0"/>
<path d="M14.7786 28.0025C12.4106 26.0624 10.2661 26.3192 7.52813 26.3192C3.43313 26.3192 0.101562 29.6311 0.101562 33.701V45.6458C0.101562 47.4133 1.54422 48.8505 3.31828 48.8505C10.9774 48.8505 10.0547 48.989 10.0547 48.5202C10.0547 40.0561 9.05216 33.8489 14.7786 28.0025Z" fill="#3D58B0"/>
<path d="M30.7071 26.3628C25.9248 25.9639 21.768 26.3674 18.1825 29.3269C12.1826 34.1328 13.3372 40.6038 13.3372 48.52C13.3372 50.6144 15.0413 52.3503 17.1675 52.3503C40.2546 52.3503 41.1735 53.095 42.5425 50.0633C42.9915 49.038 42.8685 49.3638 42.8685 39.5556C42.8685 31.7653 36.123 26.3628 30.7071 26.3628Z" fill="#3D58B0"/>
<path d="M48.6743 26.3191C45.9213 26.3191 43.7886 26.0649 41.4238 28.0024C47.1075 33.8054 46.1477 39.589 46.1477 48.52C46.1477 48.9918 45.3818 48.8503 52.7693 48.8503C54.6068 48.8503 56.1009 47.3617 56.1009 45.5319V33.7008C56.1009 29.631 52.7693 26.3191 48.6743 26.3191Z" fill="#3D58B0"/>
</g>
<defs>
<clipPath id="clip0">
<rect width="56" height="56" fill="white" transform="translate(0.101562 0.00012207)"/>
</clipPath>
</defs>
</svg>
