<svg width="57" height="57" viewBox="0 0 57 57" fill="none" xmlns="http://www.w3.org/2000/svg">
<g clip-path="url(#clip0)">
<path d="M22.9932 21.8313H34.0035V25.1125H22.9932V21.8313Z" fill="#3D58B0"/>
<path d="M8.70312 28.3938H48.2969V48.3H8.70312V28.3938Z" fill="#3D58B0"/>
<path d="M29.1795 7.06567H0.5V10.3469H56.5V0.503174H35.7421L29.1795 7.06567ZM49.9375 3.78442H53.2188V7.06567H49.9375V3.78442ZM43.375 3.78442H46.6562V7.06567H43.375V3.78442ZM40.0938 3.78442V7.06567H36.8125V3.78442H40.0938Z" fill="#3D58B0"/>
<path d="M27.8205 3.78442L31.1017 0.503174H0.5V3.78442H27.8205Z" fill="#3D58B0"/>
<path d="M37.2881 21.8313H48.2985V25.1125H37.2881V21.8313Z" fill="#3D58B0"/>
<path d="M0.5 13.6282V56.5032H56.5V13.6282H0.5ZM51.5781 51.5813H5.42188V18.55H51.5781V51.5813Z" fill="#3D58B0"/>
<path d="M8.70312 21.8313H19.7136V25.1125H8.70312V21.8313Z" fill="#3D58B0"/>
</g>
<defs>
<clipPath id="clip0">
<rect width="56" height="56" fill="white" transform="translate(0.5 0.503174)"/>
</clipPath>
</defs>
</svg>
