<svg width="57" height="56" viewBox="0 0 57 56" fill="none" xmlns="http://www.w3.org/2000/svg">
<g clip-path="url(#clip0)">
<path d="M30.979 0.00012207C14.1343 0.00012207 0.5 13.6321 0.5 30.4792C0.5 31.3861 1.23522 32.1213 2.14216 32.1213H30.979C31.886 32.1213 32.6212 31.3861 32.6212 30.4792V1.64228C32.6212 0.735342 31.886 0.00012207 30.979 0.00012207Z" fill="#3D58B0"/>
<path d="M19.2961 36.869C19.008 36.3429 18.4557 36.0159 17.8559 36.0159H8.14404C7.62133 36.0159 7.12969 36.2647 6.82038 36.6862C6.51095 37.1078 6.42083 37.6511 6.57734 38.1499C9.67037 48.0012 18.5917 55.3254 29.3373 56.0001V43.6911C25.1226 43.168 21.3698 40.6549 19.2961 36.869Z" fill="#3D58B0"/>
<path d="M38.6506 6.07737C38.152 5.92096 37.6083 6.0112 37.187 6.3204C36.7654 6.62982 36.5166 7.12136 36.5166 7.64417V17.3559C36.5166 17.9556 36.8437 18.5078 37.3697 18.796C41.1554 20.8699 43.6686 24.6226 44.1917 28.8372H56.5009C55.8245 18.0683 48.4786 9.16317 38.6506 6.07737Z" fill="#3D58B0"/>
<path d="M44.1918 32.1213C43.4468 38.1532 38.6519 42.9481 32.6201 43.693V55.999C45.4338 55.1925 55.6901 44.9525 56.4977 32.1213H44.1918Z" fill="#3D58B0"/>
</g>
<defs>
<clipPath id="clip0">
<rect width="56" height="56" fill="white" transform="translate(0.5 0.00012207)"/>
</clipPath>
</defs>
</svg>
