<svg width="30" height="30" viewBox="0 0 30 30" fill="none" xmlns="http://www.w3.org/2000/svg">
<path d="M20.5859 7.46875C20.5859 3.86412 17.6698 0.941406 14.0586 0.941406C6.29279 0.941406 0 7.22471 0 15C0 22.7658 6.2833 29.0586 14.0586 29.0586C17.2536 29.0586 20.2934 27.972 22.7295 26.0645C22.7665 23.9845 22.8976 21.9068 23.075 19.95C22.6307 20.8817 21.6798 21.5273 20.5807 21.5273C19.0579 21.5273 17.819 20.2884 17.819 18.7656C17.819 17.2428 19.0579 16.0039 20.5807 16.0039C21.8725 16.0039 22.9597 16.8956 23.2598 18.0958C23.514 15.7542 23.8172 13.664 24.0762 12.0636C22.0638 11.5052 20.5859 9.66326 20.5859 7.46875ZM7.53656 21.5273C6.01371 21.5273 4.7748 20.2884 4.7748 18.7656C4.7748 17.2428 6.01371 16.0039 7.53656 16.0039C9.05935 16.0039 10.2983 17.2428 10.2983 18.7656C10.2983 20.2884 9.05935 21.5273 7.53656 21.5273ZM7.53656 13.9961C6.01371 13.9961 4.7748 12.7572 4.7748 11.2344C4.7748 9.7116 6.01371 8.47269 7.53656 8.47269C9.05935 8.47269 10.2983 9.7116 10.2983 11.2344C10.2983 12.7572 9.05935 13.9961 7.53656 13.9961ZM14.0586 25.293C12.5358 25.293 11.2969 24.0541 11.2969 22.5313C11.2969 21.0085 12.5358 19.7696 14.0586 19.7696C15.5814 19.7696 16.8203 21.0085 16.8203 22.5313C16.8203 24.0541 15.5814 25.293 14.0586 25.293ZM14.0586 10.2304C12.5358 10.2304 11.2969 8.99154 11.2969 7.46875C11.2969 5.94596 12.5358 4.70705 14.0586 4.70705C15.5814 4.70705 16.8203 5.94596 16.8203 7.46875C16.8203 8.99154 15.5814 10.2304 14.0586 10.2304Z" fill="white"/>
<path d="M14.0586 6.46484C13.505 6.46484 13.0547 6.9152 13.0547 7.46873C13.0547 8.02227 13.505 8.47262 14.0586 8.47262C14.6122 8.47262 15.0625 8.02227 15.0625 7.46873C15.0625 6.9152 14.6122 6.46484 14.0586 6.46484Z" fill="white"/>
<path d="M14.0586 21.5273C13.505 21.5273 13.0547 21.9776 13.0547 22.5312C13.0547 23.0847 13.505 23.5351 14.0586 23.5351C14.6122 23.5351 15.0625 23.0847 15.0625 22.5312C15.0625 21.9776 14.6122 21.5273 14.0586 21.5273Z" fill="white"/>
<path d="M7.53666 10.2305C6.98307 10.2305 6.53271 10.6808 6.53271 11.2344C6.53271 11.7879 6.98307 12.2382 7.53666 12.2382C8.0902 12.2382 8.54055 11.7879 8.54055 11.2344C8.54055 10.6808 8.0902 10.2305 7.53666 10.2305Z" fill="white"/>
<path d="M20.5805 19.7696C21.135 19.7696 21.5844 19.3201 21.5844 18.7657C21.5844 18.2112 21.135 17.7618 20.5805 17.7618C20.0261 17.7618 19.5767 18.2112 19.5767 18.7657C19.5767 19.3201 20.0261 19.7696 20.5805 19.7696Z" fill="white"/>
<path d="M7.53666 17.7617C6.98307 17.7617 6.53271 18.212 6.53271 18.7655C6.53271 19.3191 6.98307 19.7694 7.53666 19.7694C8.0902 19.7694 8.54055 19.3191 8.54055 18.7655C8.54055 18.212 8.0902 17.7617 7.53666 17.7617Z" fill="white"/>
<path d="M27.2383 11.9882C26.7736 11.9882 26.3251 11.9176 25.9027 11.7867C25.3396 15.1554 24.4766 21.2887 24.4766 27.2383C24.4766 28.7611 25.7155 30 27.2383 30C28.7611 30 30 28.7611 30 27.2383C30 21.2887 29.137 15.1554 28.5739 11.7867C28.1516 11.9176 27.703 11.9882 27.2383 11.9882Z" fill="white"/>
<path d="M27.2383 10.2305C28.7611 10.2305 30 8.99156 30 7.46877C30 4.03682 28.0859 0.593086 28.0044 0.448184C27.8488 0.171328 27.5559 0 27.2383 0C26.9208 0 26.6279 0.171328 26.4722 0.448125C26.3907 0.593027 24.4766 4.03682 24.4766 7.46871C24.4766 8.99156 25.7155 10.2305 27.2383 10.2305Z" fill="white"/>
</svg>
