<svg width="30" height="30" viewBox="0 0 30 30" fill="none" xmlns="http://www.w3.org/2000/svg">
<path d="M22.0312 0H7.96875C6.51504 0 5.33203 1.18301 5.33203 2.63672V27.3633C5.33203 28.817 6.51504 30 7.96875 30H22.0312C23.485 30 24.668 28.817 24.668 27.3633V2.63672C24.668 1.18301 23.485 0 22.0312 0ZM15 26.4844C14.5148 26.4844 14.1211 26.0906 14.1211 25.6055C14.1211 25.1203 14.5148 24.7266 15 24.7266C15.4852 24.7266 15.8789 25.1203 15.8789 25.6055C15.8789 26.0906 15.4852 26.4844 15 26.4844ZM16.7578 5.27344H13.2422C12.757 5.27344 12.3633 4.87969 12.3633 4.39453C12.3633 3.90937 12.757 3.51562 13.2422 3.51562H16.7578C17.243 3.51562 17.6367 3.90937 17.6367 4.39453C17.6367 4.87969 17.243 5.27344 16.7578 5.27344Z" fill="white"/>
</svg>
