<svg width="30" height="30" viewBox="0 0 30 30" fill="none" xmlns="http://www.w3.org/2000/svg">
<path d="M18.75 25H11.25V27.5H8.75V30H21.25V27.5H18.75V25Z" fill="white"/>
<path d="M0 22.5C0 22.8315 0.131696 23.1495 0.366117 23.3839C0.600537 23.6183 0.918479 23.75 1.25 23.75H28.75C29.0815 23.75 29.3995 23.6183 29.6339 23.3839C29.8683 23.1495 30 22.8315 30 22.5V21.25H0V22.5Z" fill="white"/>
<path d="M28.75 0H1.25C0.918479 0 0.600537 0.131696 0.366117 0.366117C0.131696 0.600537 0 0.918479 0 1.25L0 20H30V1.25C30 0.918479 29.8683 0.600537 29.6339 0.366117C29.3995 0.131696 29.0815 0 28.75 0V0ZM7.5 18.125H5C4.83424 18.125 4.67527 18.0592 4.55806 17.9419C4.44085 17.8247 4.375 17.6658 4.375 17.5V15H5.625V16.875H7.5V18.125ZM7.5 4.375H5.625V6.25H4.375V3.75C4.375 3.58424 4.44085 3.42527 4.55806 3.30806C4.67527 3.19085 4.83424 3.125 5 3.125H7.5V4.375ZM14.375 17.335L9.44094 14.8681C9.2333 14.7643 9.05868 14.6047 8.93664 14.4072C8.81461 14.2097 8.74998 13.9822 8.75 13.75V7.57375L14.375 10.3862V17.335ZM9.3125 6.45781C9.3225 6.45125 9.33094 6.44375 9.34094 6.4375C9.35938 6.42625 9.37906 6.4175 9.39812 6.40625C9.41187 6.39844 9.42469 6.38906 9.43906 6.38188L14.4391 3.88188C14.6126 3.79508 14.8041 3.74989 14.9981 3.74989C15.1922 3.74989 15.3836 3.79508 15.5572 3.88188L20.5572 6.38188C20.5716 6.38906 20.5844 6.39875 20.5984 6.40656C20.6125 6.41437 20.6369 6.42531 20.6553 6.43781C20.665 6.44375 20.6734 6.45125 20.6828 6.4575H20.685L15 9.30125L9.3125 6.45781ZM21.25 13.75C21.25 13.9822 21.1854 14.2097 21.0634 14.4072C20.9413 14.6047 20.7667 14.7643 20.5591 14.8681L15.625 17.335V10.3862L21.25 7.57375V13.75ZM25.625 17.5C25.625 17.6658 25.5592 17.8247 25.4419 17.9419C25.3247 18.0592 25.1658 18.125 25 18.125H22.5V16.875H24.375V15H25.625V17.5ZM25.625 6.25H24.375V4.375H22.5V3.125H25C25.1658 3.125 25.3247 3.19085 25.4419 3.30806C25.5592 3.42527 25.625 3.58424 25.625 3.75V6.25Z" fill="white"/>
</svg>
