<svg width="30" height="30" viewBox="0 0 30 30" fill="none" xmlns="http://www.w3.org/2000/svg">
<path d="M22.5 5.35718H25.7143V7.50004H22.5V5.35718Z" fill="white"/>
<path d="M1.07129 7.5H14.9999V9.64286H1.07129V7.5Z" fill="white"/>
<path d="M28.9284 11.7858V3.21436H12.8569V6.42864H15.5355C15.8314 6.42864 16.0712 6.66851 16.0712 6.96436V11.7858H28.9284ZM21.4284 4.8215C21.4284 4.52565 21.6682 4.28578 21.9641 4.28578H26.2498C26.5456 4.28578 26.7855 4.52565 26.7855 4.8215V8.03578C26.7855 8.33163 26.5456 8.5715 26.2498 8.5715H21.9641C21.6682 8.5715 21.4284 8.33163 21.4284 8.03578V4.8215ZM21.4284 9.64293H26.7855V10.7144H21.4284V9.64293Z" fill="white"/>
<path d="M1.07129 22.5001H14.9999V10.7144H1.07129V22.5001ZM5.357 12.8572H12.857V13.9286H5.357V12.8572ZM3.21415 12.8572H4.28557V13.9286H3.21415V12.8572ZM3.21415 16.0715H12.857V17.1429H3.21415V16.0715Z" fill="white"/>
<path d="M26.7856 18.2144H16.0714V23.0358C16.0714 23.3316 15.8315 23.5715 15.5356 23.5715H11.7856V30.0001H26.7856V18.2144ZM20.3571 24.1072H18.2142V23.0358H20.3571V24.1072ZM23.5714 24.1072H21.4285V23.0358H23.5714V24.1072Z" fill="white"/>
<path d="M12.8569 0H28.9284V2.14286H12.8569V0Z" fill="white"/>
<path d="M16.0713 15H26.7856V17.1429H16.0713V15Z" fill="white"/>
</svg>
