<svg width="30" height="22" viewBox="0 0 30 22" fill="none" xmlns="http://www.w3.org/2000/svg">
<path d="M11.1431 10.8991C12.3105 11.1323 13.409 11.1669 14.1152 11.1559V7.13684H6.38916V11.0294C7.40169 10.6896 8.95693 10.4624 11.1431 10.8991ZM11.8347 8.16895C12.3307 8.16895 12.6979 8.5743 12.7194 9.05361C12.7408 9.53139 12.2975 9.93828 11.8347 9.93828C11.3388 9.93828 10.9715 9.53293 10.9501 9.05361C10.9287 8.5759 11.372 8.16895 11.8347 8.16895Z" fill="white"/>
<path d="M10.7964 12.6342C8.34262 12.1439 6.95576 12.6443 6.38916 12.9473V14.863H14.1152V12.9256C13.3117 12.9368 12.0975 12.8941 10.7964 12.6342Z" fill="white"/>
<path d="M0 0.737793V21.262H30V0.737793H0ZM4.6199 16.6323V5.36754H15.8846V16.6323H4.6199ZM25.3211 9.90882V11.6782H18.6566V9.90882H25.3211ZM18.6566 7.5792V5.80987H23.0799V7.5792H18.6566ZM23.0799 14.0078V15.7771H18.6566V14.0078H23.0799Z" fill="white"/>
</svg>
