<svg width="30" height="30" viewBox="0 0 30 30" fill="none" xmlns="http://www.w3.org/2000/svg">
<path d="M23.7891 27.3047H20.9065L20.3206 25.5469H9.67941L9.09348 27.3047H6.21094C5.72525 27.3047 5.33203 27.6979 5.33203 28.1836C5.33203 28.6693 5.72525 29.0625 6.21094 29.0625H23.7891C24.2747 29.0625 24.668 28.6693 24.668 28.1836C24.668 27.6979 24.2747 27.3047 23.7891 27.3047Z" fill="white"/>
<path d="M23.7891 6.21094C23.3041 6.21094 22.9102 6.60484 22.9102 7.08984C22.9102 7.57484 23.3041 7.96875 23.7891 7.96875C24.2741 7.96875 24.668 7.57484 24.668 7.08984C24.668 6.60484 24.2741 6.21094 23.7891 6.21094Z" fill="white"/>
<path d="M27.3047 0.9375H2.63672C1.18286 0.9375 0 2.12036 0 3.57422V18.5156H5.33203V15.8789C5.33203 15.3932 5.72525 15 6.21094 15H7.56889C7.65976 14.7443 7.76367 14.4935 7.88132 14.2472L6.9207 13.2859C6.57738 12.9426 6.57738 12.3864 6.9207 12.0431L9.40636 9.55742C9.74968 9.2141 10.3059 9.2141 10.6492 9.55742L11.6105 10.5187C11.8568 10.4011 12.1074 10.2965 12.3633 10.2054V8.84766C12.3633 8.36197 12.7565 7.96875 13.2422 7.96875H16.7578C17.2435 7.96875 17.6367 8.36197 17.6367 8.84766V10.2056C17.8924 10.2965 18.1432 10.4013 18.3895 10.5187L19.3508 9.55742C19.6941 9.21432 20.2503 9.21432 20.5936 9.55742L23.0793 12.0431C23.4226 12.3864 23.4226 12.9428 23.0793 13.2859L22.1187 14.2472C22.2363 14.4937 22.3402 14.7443 22.4311 15H23.7891C24.2747 15 24.668 15.3932 24.668 15.8789V18.5156H30V3.57422C30 2.12036 28.7585 0.9375 27.3047 0.9375ZM23.7891 9.72656C22.3352 9.72656 21.1523 8.5437 21.1523 7.08984C21.1523 5.63599 22.3352 4.45312 23.7891 4.45312C25.2429 4.45312 26.4258 5.63599 26.4258 7.08984C26.4258 8.5437 25.2429 9.72656 23.7891 9.72656Z" fill="white"/>
<path d="M12.3633 17.6367C12.3633 17.9404 12.4333 18.2334 12.5338 18.5156H17.4662C17.5667 18.2334 17.6367 17.9404 17.6367 17.6367C17.6367 16.1829 16.4539 15 15 15C13.5459 15 12.3633 16.1829 12.3633 17.6367Z" fill="white"/>
<path d="M9.06898 16.0986C8.96873 16.4866 8.61855 16.7578 8.21754 16.7578H7.08984V18.5156H10.7211C10.662 18.2261 10.6055 17.9352 10.6055 17.6367C10.6055 15.2138 12.5771 13.2422 15 13.2422C17.4229 13.2422 19.3945 15.2138 19.3945 17.6367C19.3945 17.9352 19.338 18.2261 19.2789 18.5156H22.9102V16.7578H21.7825C21.3815 16.7578 21.0313 16.4866 20.931 16.0986C20.7909 15.5537 20.5721 15.0266 20.2803 14.5322C20.0768 14.1872 20.1327 13.7478 20.4158 13.4644L21.2151 12.6645L19.9722 11.4217L19.1723 12.2216C18.8889 12.5059 18.4486 12.5624 18.1036 12.3564C17.6102 12.0655 17.084 11.8458 16.5381 11.7057C16.1501 11.6055 15.8789 11.2553 15.8789 10.8543V9.72656H14.1211V10.8543C14.1211 11.2553 13.8499 11.6055 13.4619 11.7057C12.916 11.8458 12.3898 12.0655 11.8964 12.3564C11.553 12.5624 11.1118 12.5059 10.8277 12.2216L10.0278 11.4217L8.78494 12.6645L9.5842 13.4644C9.86732 13.7478 9.92317 14.1872 9.7197 14.5322C9.42787 15.0266 9.20906 15.5537 9.06898 16.0986Z" fill="white"/>
<path d="M0 21.1523C0 22.6062 1.18286 23.7891 2.63672 23.7891H27.3047C28.7585 23.7891 30 22.6062 30 21.1523V20.2734H0V21.1523Z" fill="white"/>
</svg>
