<svg width="30" height="30" viewBox="0 0 30 30" fill="none" xmlns="http://www.w3.org/2000/svg">
<path d="M12.2207 25.0312V29.5713L14.9997 28.5111L17.7788 29.5713V25.0312C16.9829 25.5636 16.0271 25.8748 14.9997 25.8748C13.9724 25.8748 13.0166 25.5636 12.2207 25.0312Z" fill="white"/>
<path d="M0 0.429199V22.7654H10.3645C10.1227 22.1783 9.9883 21.536 9.9883 20.8627C9.9883 18.0992 12.2365 15.851 15 15.851C17.7635 15.851 20.0117 18.0992 20.0117 20.8627C20.0117 21.536 19.8773 22.1783 19.6355 22.7654H30V0.429199H0ZM8.12654 3.27674H21.8734V5.03455H8.12654V3.27674ZM21.8735 13.0035H8.12654V11.2457H21.8734V13.0035H21.8735ZM25.3789 9.01898H4.62105V7.26117H25.3789V9.01898Z" fill="white"/>
<path d="M15 24.1162C16.7971 24.1162 18.2539 22.6594 18.2539 20.8623C18.2539 19.0652 16.7971 17.6084 15 17.6084C13.2029 17.6084 11.7461 19.0652 11.7461 20.8623C11.7461 22.6594 13.2029 24.1162 15 24.1162Z" fill="white"/>
</svg>
