<svg width="20" height="20" viewBox="0 0 20 20" fill="none" xmlns="http://www.w3.org/2000/svg">
<path d="M5.64 12C5.56 11.34 5.5 10.68 5.5 10C5.5 9.32 5.56 8.66 5.64 8H2.26C2.1 8.64 2 9.31 2 10C2 10.69 2.1 11.36 2.26 12H5.64ZM7.41 17.56C6.81 16.45 6.35 15.25 6.03 14H3.08C4.04883 15.6683 5.58588 16.932 7.41 17.56ZM7.66 12H12.34C12.44 11.34 12.5 10.68 12.5 10C12.5 9.32 12.44 8.65 12.34 8H7.66C7.57 8.65 7.5 9.32 7.5 10C7.5 10.68 7.57 11.34 7.66 12ZM10 17.96C10.83 16.76 11.5 15.43 11.91 14H8.09C8.5 15.43 9.17 16.76 10 17.96ZM14 6H16.92C15.9611 4.32722 14.4252 3.06149 12.6 2.44C13.2 3.55 13.65 4.75 14 6ZM16.92 14H14C13.65 15.25 13.2 16.45 12.6 17.56C14.4214 16.9317 15.9552 15.6677 16.92 14ZM17.74 12C17.9 11.36 18 10.69 18 10C18 9.31 17.9 8.64 17.74 8H14.36C14.44 8.66 14.5 9.32 14.5 10C14.5 10.68 14.44 11.34 14.36 12H17.74ZM10 2.03C9.17 3.23 8.5 4.57 8.09 6H11.91C11.5 4.57 10.83 3.23 10 2.03ZM3.08 6H6.03C6.34298 4.76146 6.80643 3.5659 7.41 2.44C5.57 3.07 4.04 4.34 3.08 6ZM10 0C15.53 0 20 4.5 20 10C20 12.6522 18.9464 15.1957 17.0711 17.0711C16.1425 17.9997 15.0401 18.7363 13.8268 19.2388C12.6136 19.7413 11.3132 20 10 20C7.34783 20 4.80429 18.9464 2.92893 17.0711C1.05357 15.1957 -1.90735e-06 12.6522 -1.90735e-06 10C-1.90735e-06 8.68678 0.258654 7.38642 0.761202 6.17317C1.26375 4.95991 2.00034 3.85752 2.92893 2.92893C3.85752 2.00035 4.95991 1.26375 6.17316 0.761205C7.38642 0.258658 8.68678 0 10 0Z" fill="white"/>
</svg>
