<?xml version="1.0" encoding="UTF-8"?>
<svg width="125px" height="36px" viewBox="0 0 125 36" version="1.1" xmlns="http://www.w3.org/2000/svg" xmlns:xlink="http://www.w3.org/1999/xlink">
    <!-- Generator: Sketch 49.1 (51147) - http://www.bohemiancoding.com/sketch -->
    <title>Ресурс 2</title>
    <desc>Created with Sketch.</desc>
    <defs>
        <linearGradient x1="23.3940804%" y1="22.519033%" x2="104.510792%" y2="106.34433%" id="linearGradient-1">
            <stop stop-color="#3F9A7E" offset="0%"></stop>
            <stop stop-color="#61B74B" offset="100%"></stop>
        </linearGradient>
    </defs>
    <g id="Page-1" stroke="none" stroke-width="1" fill="none" fill-rule="evenodd">
        <g id="event" transform="translate(-222.000000, -4457.000000)" fill-rule="nonzero">
            <g id="Group-3" transform="translate(0.000000, 4379.000000)">
                <g id="Ресурс-2" transform="translate(222.000000, 78.000000)">
                    <path d="M51.0892552,13.8273425 C49.676839,13.7052791 48.270412,14.1183333 47.1598732,14.9813646 C46.3664956,15.695404 45.9215073,16.706573 45.9364065,17.7615086 C45.8862759,18.6920452 46.2397703,19.6000554 46.9098216,20.2618898 C47.6252765,20.9134518 48.4539574,21.4345481 49.3567549,21.8005859 C50.383034,22.2367768 51.4358498,22.6105053 52.5091909,22.9196376 C53.5854259,23.2326337 54.6243064,23.6576179 55.6080445,24.1873133 C56.5503444,24.6833375 57.3750448,25.368547 58.0281866,26.1981093 C58.7158715,27.1641456 59.0552315,28.3269251 58.9926712,29.5028089 C59.0002966,30.4038471 58.8178836,31.2967299 58.4568464,32.1255863 C58.1010136,32.9219662 57.5633055,33.6278197 56.8850936,34.1888378 C56.1247155,34.7990235 55.2471414,35.2538502 54.3042041,35.5264543 C53.1657005,35.8578548 51.9821664,36.0170575 50.7945515,35.9985543 C49.7119068,36.0082024 48.6312599,35.9056341 47.5706722,35.6925636 C46.5450943,35.4897506 45.553269,35.1484415 44.6236357,34.678423 C44.1235938,34.4319679 43.6680855,34.1071196 43.2751433,33.7167379 C42.9544242,33.431628 42.9079997,32.9544227 43.1679783,32.6151714 C43.2498522,32.436227 43.4112044,32.3040575 43.6055686,32.2567251 C43.7975125,32.2255412 43.9944363,32.2436145 44.177115,32.3091807 C44.4009364,32.3836259 44.6163885,32.480298 44.8201048,32.5976862 L45.4898858,32.9561325 C46.3359427,33.394512 47.2364915,33.7236459 48.1690099,33.9353027 C49.08274,34.1414127 50.0176313,34.2440826 50.955299,34.2412934 C52.4770206,34.3133724 53.9849682,33.9290638 55.2776192,33.1397269 C56.3688032,32.3891806 56.9840905,31.1381527 56.9029545,29.8350273 C56.9571293,28.8690358 56.6091584,27.9227788 55.9384698,27.2122499 C55.2402356,26.5342287 54.4196574,25.9888011 53.5183277,25.6036131 C52.4931974,25.1547889 51.4403181,24.7693581 50.3658917,24.449591 C49.2756422,24.1283296 48.2222145,23.6976562 47.2223861,23.1644301 C46.279526,22.6654264 45.4548449,21.9772539 44.802244,21.1448915 C44.1095536,20.1841177 43.7667356,19.0233453 43.8288289,17.8489346 C43.8267053,17.0749767 43.9815131,16.3083024 44.28428,15.593346 C44.5853615,14.883947 45.0463459,14.250349 45.6327725,13.7399166 C46.3001408,13.1707213 47.0819987,12.7448295 47.9278888,12.489726 C48.9664372,12.161484 50.0515132,11.9962444 51.1428377,12.0001409 C52.2190837,11.9950055 53.2912327,12.130248 54.3309953,12.4023001 C55.2553452,12.6368162 56.1398288,13.0020178 56.9565369,13.4863815 C57.3476746,13.7178203 57.6951008,14.0135762 57.9835345,14.3606406 C58.247864,14.6391089 58.247864,15.0700851 57.9835345,15.3485534 C57.8905678,15.4904196 57.7419494,15.588469 57.5727355,15.6195738 C57.3955742,15.6510503 57.2140719,15.6510503 57.0369107,15.6195738 C56.8265283,15.5699764 56.6227408,15.4966302 56.4296425,15.401009 L55.8045136,15.0775331 C55.0951445,14.7071996 54.3464805,14.4140323 53.5719102,14.203274 C52.7536979,13.9873964 51.90987,13.8786242 51.0624639,13.8797981" id="Shape" fill="#373D47"></path>
                    <path d="M72.517949,13.8012343 L72.517949,33.9361966 C72.5230289,34.2087311 72.4305837,34.4742562 72.2569794,34.6857651 C72.0574561,34.8867804 71.7847749,35 71.5001675,35 C71.2155601,35 70.9428789,34.8867804 70.7433557,34.6857651 C70.5728723,34.4730715 70.4835477,34.2076625 70.4910851,33.9361966 L70.4910851,13.8012343 L62.9142677,13.8012343 C62.6681026,13.8144959 62.4278164,13.7236853 62.2531447,13.5513781 C62.0814698,13.3804337 61.989971,13.1460637 62.000874,12.9051983 C61.9924194,12.6672849 62.0837321,12.43651 62.2531447,12.2676342 C62.424775,12.0890047 62.6654572,11.9917713 62.9142677,12.0005466 L80.0947664,12.0005466 C80.3405804,11.9942457 80.5776042,12.0912779 80.7471904,12.2676342 C80.9166029,12.43651 81.0079157,12.6672849 80.999461,12.9051983 C80.999461,13.3810319 80.6099941,13.7667713 80.1295623,13.7667713 L72.517949,13.8012343 Z" id="Shape" fill="#373D47"></path>
                    <path d="M86.2112777,34.997962 C85.8780244,35.017574 85.5526421,34.8948898 85.3211149,34.6623293 C85.1084917,34.4473377 84.9931774,34.1593371 85.0006563,33.8619746 L85.0006563,13.1043868 C84.9909558,12.8195656 85.089074,12.5411075 85.2766067,12.3212439 C85.4870304,12.0974007 85.7924899,11.9799102 86.1044581,12.0028232 L98.6824586,12.0028232 C98.9339988,11.9965295 99.1765441,12.0934517 99.3500807,12.2696082 C99.5211603,12.4362137 99.6144131,12.6631568 99.6082279,12.8978436 C99.6082279,13.3731379 99.2096885,13.7584401 98.7180651,13.7584401 L87.1459486,13.7584401 L87.1459486,22.0631964 L96.6973956,22.0631964 C96.952002,22.0544311 97.1982909,22.1515543 97.3739193,22.3299814 C97.5429574,22.5013593 97.6356548,22.7300409 97.6320665,22.9668228 C97.6320665,23.4421171 97.233527,23.8274193 96.7419037,23.8274193 L87.0747356,23.8274193 L87.0747356,33.1993153 L99.0652286,33.1993153 C99.3198351,33.1905499 99.5661239,33.2876731 99.7417524,33.4661002 C99.9107905,33.6374781 100.003488,33.8661598 99.9998996,34.1029416 C99.9998996,34.5782359 99.6013601,34.9635381 99.1097368,34.9635381 L86.2112777,34.997962 Z" id="Shape" fill="#373D47"></path>
                    <path d="M122.883109,12.7769752 C123.014136,12.5821392 123.167975,12.4029045 123.341509,12.2429053 C123.537904,12.0808071 123.789988,11.9976722 124.04674,12.0103265 C124.319715,11.9972302 124.583468,12.1085944 124.760787,12.3118176 C124.927213,12.5333967 125.011188,12.8038798 124.998802,13.0784663 L124.998802,33.933035 C125.00644,34.2044474 124.915921,34.469804 124.743156,34.6824557 C124.540963,34.8834314 124.264633,34.9966286 123.976217,34.9966286 C123.687801,34.9966286 123.411471,34.8834314 123.209278,34.6824557 C123.036514,34.469804 122.945994,34.2044474 122.953632,33.933035 L122.953632,15.9469386 L115.513444,27.5241961 C115.321115,27.923294 114.915659,28.1829847 114.464412,28.1960905 C114.008371,28.177352 113.597735,27.920811 113.388935,27.5241961 L105.913485,16.0158508 L105.913485,33.933035 C105.921335,34.1991299 105.844319,34.4610262 105.6931,34.6824557 C105.504349,34.8847341 105.237156,35 104.957015,35 C104.676874,35 104.409682,34.8847341 104.22093,34.6824557 C104.069712,34.4610262 103.992695,34.1991299 104.000546,33.933035 L104.000546,13.0698523 C103.994161,12.8013713 104.077741,12.5382067 104.238561,12.3204316 C104.406713,12.1037765 104.674924,11.9840584 104.952608,12.0017125 C105.203755,11.9888734 105.451158,12.0653774 105.649023,12.2170632 C105.854202,12.3985601 106.032252,12.6073395 106.177947,12.8372734 L114.579012,25.6807935 L122.883109,12.7769752 Z" id="Shape" fill="#373D47"></path>
                    <path d="M2.0338001,15.9699454 C2.0338001,25.3415301 10.1776919,32.9744163 20.1815548,32.9744163 L33.9661999,32.9744163 L33.9661999,19.0648286 C33.9661999,9.68455042 25.8223081,2.06035768 15.8184452,2.06035768 L2.0338001,2.06035768 L2.0338001,15.9699454 Z M20.1728634,35 C9.04780299,35 0,26.4629906 0,15.9699454 L0,1.0171386 C-6.87784162e-17,0.455388462 0.45528166,1.03191826e-16 1.01690005,0 L15.7923708,0 C26.9435056,0 36,8.53700944 36,19.0387481 L36,33.9915549 C35.9952287,34.5499071 35.5413416,35.0000204 34.9831,35 L20.1728634,35 Z" id="Shape" fill="url(#linearGradient-1)"></path>
                </g>
            </g>
        </g>
    </g>
</svg>