<?xml version="1.0" encoding="UTF-8"?> <svg xmlns="http://www.w3.org/2000/svg" xmlns:xlink="http://www.w3.org/1999/xlink" viewBox="0 0 342.78 363.57"> <defs> <style>.cls-1{fill:url(#Безымянный_градиент_79);}.cls-1,.cls-2{filter:url(#luminosity-invert);}.cls-2{fill:url(#Безымянный_градиент_73);}.cls-3{fill:url(#Безымянный_градиент_17);}.cls-4{fill:#4ab2bb;}.cls-5{mask:url(#mask);}.cls-6{mask:url(#mask-2);}.cls-7{fill:#fff;}</style> <linearGradient id="Безымянный_градиент_79" y1="53.5" x2="200.21" y2="53.5" gradientUnits="userSpaceOnUse"> <stop offset="0" stop-opacity="0"></stop> <stop offset="1"></stop> </linearGradient> <linearGradient id="Безымянный_градиент_73" x1="345.38" y1="93.6" x2="258.44" y2="89.35" xlink:href="#Безымянный_градиент_79"></linearGradient> <linearGradient id="Безымянный_градиент_17" x1="257.08" y1="142.39" x2="257.08" y2="142.39" gradientUnits="userSpaceOnUse"> <stop offset="0" stop-color="#4ab2bb" stop-opacity="0"></stop> <stop offset="1" stop-color="#4ab2bb"></stop> </linearGradient> <filter id="luminosity-invert" filterUnits="userSpaceOnUse" color-interpolation-filters="sRGB"> <feColorMatrix values="-1 0 0 0 1 0 -1 0 0 1 0 0 -1 0 1 0 0 0 1 0"></feColorMatrix> </filter> <mask id="mask" x="0" y="22.36" width="200.21" height="62.28" maskUnits="userSpaceOnUse"> <polygon class="cls-1" points="199.63 81.23 0 84.64 0 22.36 200.21 74.09 199.63 81.23"></polygon> </mask> <mask id="mask-2" x="255.68" y="75.09" width="87.1" height="36.77" maskUnits="userSpaceOnUse"> <polygon class="cls-2" points="342.77 111.86 342.77 75.09 255.68 78.99 255.8 86.29 342.77 111.86"></polygon> </mask> </defs> <title>Ресурс 1</title> <g id="Слой_2" data-name="Слой 2"> <g id="Слой_1-2" data-name="Слой 1"> <path class="cls-3" d="M257.08,142.38h0Z"></path> <rect class="cls-4" x="219.03" y="70.08" width="17.83" height="17.83" rx="3.65" ry="3.65" transform="translate(10.91 184.32) rotate(-45)"></rect> <g class="cls-5"> <polygon class="cls-4" points="199.63 81.23 0 84.64 0 22.36 200.21 74.09 199.63 81.23"></polygon> </g> <g class="cls-6"> <polygon class="cls-4" points="342.77 111.86 342.77 75.09 255.68 78.99 255.8 86.29 342.77 111.86"></polygon> </g> <path class="cls-4" d="M300.86,271.15c-90.06,114.26-176.17,58.1-176.17,58.1s5.33,13.67-28.44,34.32h236V322.4C295,309.89,300.86,271.15,300.86,271.15Z"></path> <path class="cls-4" d="M273.56,286.07q.22-12.74.15-25.48a6,6,0,0,0-.17-1.69,4.7,4.7,0,0,0-2.7-2.67c-1.18-.55-2.47-.87-3.61-1.5a3.06,3.06,0,0,1-1.07-.88,3.88,3.88,0,0,1-.42-2.41q.55-12.7.63-25.41c0-2.42-.67-3.79-1.48-5.93-.64-1.69-.41-3.77-.48-5.59l-.86-22.34L263,178h2l-.46-24.61h-3.94l-.41-9c8.76-2.77,14.22-6.65,14.22-11a5.17,5.17,0,0,0-.15-1.15l-.81-24.61-.41-.35c-5.55-4.75-12.66-8.17-20.49-10.4l-1-38.65-1.74-4.13S239.9,39.2,231.63,36.8l-1.47-.33,0-3.26c1.18-.23,2-.63,2.07-1.11l0,0,2.22-8h-.12c0-1-2.08-1.8-4.86-2V18.4a1.47,1.47,0,0,1,1.45-1.47l19-.35a1.47,1.47,0,0,0,1.16-2.35l-3.74-5.09a1.48,1.48,0,0,1,0-1.75l3.71-5A1.47,1.47,0,0,0,249.91,0H228a1.47,1.47,0,0,0-1.47,1.47V22.09c-2.79.22-4.87,1-4.88,2h-.16l2.3,7.77a.51.51,0,0,0,0,.14c0,.51.85,1,2.1,1.2l0,3.26-1.42.33c-8.26,2.4-18.13,17.33-18.13,17.33l-1.84,4.13-1.22,38.83c-8.08,2.33-15,5.79-19.67,10.27l-.34.33-1.71,25.83s.16-.12.16-.1c0,4.31,5.46,8.19,14.23,11l-.41,9h-.8l-2.8.52-.8,24.1h2l-1.6,41.41-2,1.42-.46,17.58-.66,25.45a59.79,59.79,0,0,1-.19,7.44c-.17,1.08-.36,3.28-1.09,4.13s-1.91.66-2.81,1.12c-2.47,1.27-3.27,3.53-3.39,6.17-.17,3.78-.08,7.58-.51,11.34-.23,2.06-.28,5.87-1.92,7.41-1.9,1.78-5.94,1.42-8.32,2.88a36.77,36.77,0,0,0-6.61,5.77q-5.26,5.31-11,10.13c-3.71,3.13-8.06,5.75-11.59,9a6.54,6.54,0,0,0,2.49,1.07,116,116,0,0,0,29.14,4.92,125.66,125.66,0,0,0,49.93-7.72,129.61,129.61,0,0,0,28.45-15,148.52,148.52,0,0,0,14.34-11.39,64.09,64.09,0,0,1,5.25-4.09c2.34-1.7,2.8-3.69,2.87-6.5Q273.52,288.33,273.56,286.07ZM271,108.83l.64,19.43c-3.35-3.05-9.6-5.65-17.65-7.44l-.86-.27-.55-21A51.06,51.06,0,0,1,271,108.83Zm-10.69,22.72c.83.3,1.66.62,2.48,1l-.45.09c2.79,1.44,4.37,3.08,4.37,4.82,0,2.16-2.44,4.17-6.61,5.83l-.34-7.58-.93-2.27.09-.12-1.89.38,0,32,.16,5.36a2.48,2.48,0,0,0-.15-.45l-.72,50.66-2.65-53.74-.13-3.13L252.66,135l-.56-2.7c-4.14-2.93-12.43-5.37-24.47-5C227.63,127.28,244.26,125.69,260.29,131.55Zm-11.42-75.4a26,26,0,0,0-15.38-4.52c11.88-1.23,0-12.78,0-12.78C245.46,45.87,248.87,56.15,248.87,56.15ZM206.1,59.77c2.83,3,11.41,5.23,21.56,5.23,10.75,0,19.74-2.47,22-5.78l.91,37.17a94.8,94.8,0,0,0-45.41.17Zm-1,39.44A93.77,93.77,0,0,1,250.63,99l.24,9.73c-11.62-7.62-40.87-4.5-46-.86Zm-19.44,9.59c4.2-3.88,10.35-6.94,17.54-9.06l-.65,20.6q-2.74.78-5.33,1.73c-5.76,1.69-10.23,3.84-12.86,6.28Zm4.06,28.61c0-2.1,2.3-4,6.24-5.68l1.32,1.67-.93,2.27-.34,7.45C192,141.48,189.7,139.53,189.7,137.42Z"></path> </g> <g id="Слой_3" data-name="Слой 3"> <path class="cls-7" d="M317.64,314.76V110.67h-2.37V312.8Q316.4,313.8,317.64,314.76Z"></path> <path class="cls-7" d="M117.51,346.8h-91V91.25H24.18V349.17h91.09Q116.49,348,117.51,346.8Z"></path> <path class="cls-7" d="M78,145.27v6.48H75v-3.69H60.19V130h3v15.27H72V130h3v15.27Z"></path> <path class="cls-7" d="M89.42,132.78v4.67h8.51v2.79H89.42v5H98.6v2.79H86.4V130H98.6v2.79Z"></path> <path class="cls-7" d="M122.83,130v18.06h-3v-7.9h-9.58v7.9h-3V130h3v7.38h9.58V130Z"></path> <path class="cls-7" d="M145.57,132.78h-5.71v15.28h-3V132.78h-5.68V130h14.41Z"></path> <path class="cls-7" d="M168.15,135.93c0,3.54-2.48,6-6.57,6h-4.64v6.12h-3V130h7.66C165.67,130,168.15,132.37,168.15,135.93Zm-3.07,0c0-1.83-1.15-3.17-3.6-3.17h-4.54v6.37h4.54C163.94,139.15,165.08,137.79,165.08,136Z"></path> <path class="cls-7" d="M74.42,184.61c0,3.54-2.48,6-6.57,6H63.21v6.12h-3V178.67h7.66C71.93,178.67,74.42,181,74.42,184.61Zm-3.07,0c0-1.83-1.15-3.17-3.6-3.17H63.21v6.37h4.54C70.2,187.83,71.35,186.46,71.35,184.63Z"></path> <path class="cls-7" d="M92.49,191.88H84.37l-1.9,4.85h-3.2l7.23-18.06h3.84l7.23,18.06h-3.2Zm-1.09-2.76-3-7.56-3,7.56Z"></path> <path class="cls-7" d="M119,191.6c0,3.35-2.78,5.44-7,5.44-4,0-7.21-1.86-7.63-5.7h3c.45,2.12,2.11,2.92,4.54,2.92,2.7,0,4-1.13,4-2.92,0-1.52-.91-2.58-3.66-2.58h-2.83v-2.58h2.27c2.38,0,3.6-.72,3.6-2.3s-1.28-2.74-3.71-2.74c-2.13,0-3.47.67-4,2.68h-3c.53-3.77,3.36-5.47,7.1-5.47,3.95,0,6.7,2.14,6.7,5.16a3.94,3.94,0,0,1-2.51,3.72A4.41,4.41,0,0,1,119,191.6Z"></path> <path class="cls-7" d="M141.81,191.62c0,3.17-2.27,5.11-6.19,5.11h-8.06V178.67h8c3.63,0,5.68,1.68,5.68,4.64a3.77,3.77,0,0,1-2.48,3.77A4.32,4.32,0,0,1,141.81,191.62Zm-6.67-10.17h-4.56v4.64h4.59c2.19,0,3-.85,3-2.32S137.3,181.46,135.14,181.46Zm3.63,9.93c0-1.65-.8-2.61-3.26-2.61h-4.94v5.16h5C138,193.95,138.77,192.94,138.77,191.39Z"></path> <path class="cls-7" d="M165.94,178.67v18.06h-3v-7.56l.29-6.4-9.37,14H150.3V178.67h3v7.56L153,192.6l9.34-13.93Z"></path> <path class="cls-7" d="M188.57,181.46h-5.71v15.28h-3V181.46h-5.68v-2.79h14.41Z"></path> <path class="cls-7" d="M212.43,178.67v18.06h-3v-7.56l.29-6.4-9.37,14h-3.55V178.67h3v7.56l-.27,6.37,9.34-13.93Z"></path> <path class="cls-7" d="M235.6,178.67v18.06h-3V190.2h-3.12l-5.1,6.53h-3.71L226,190a5.38,5.38,0,0,1-4.48-5.57c0-3.46,2.27-5.75,6.35-5.75Zm-3,8.88v-6.09h-4.38c-2.48,0-3.63,1.26-3.63,3s1.15,3,3.63,3Z"></path> <path class="cls-7" d="M71.11,245.41l-7.9-8.62v8.62h-3V227.35h3v8.26l7.55-8.26h3.79l-8.06,8.8,8.43,9.26Z"></path> <path class="cls-7" d="M88.3,245.41H84.93l3.6-6.4-6.62-11.66h3.39l4.91,8.51,4.86-8.51h3.36Z"></path> <path class="cls-7" d="M119.82,227.35v18.06h-3V230.13h-6.11l-1.63,9.75c-.72,4.23-2.32,5.83-4.83,5.83a11.62,11.62,0,0,1-1.65-.15v-2.63c.29,0,.77.08,1.07.08,1.39,0,2-.75,2.46-3.38l2.05-12.28Z"></path> <path class="cls-7" d="M143.49,239.86c0,3.43-2.29,5.55-6.38,5.55H129.4V227.35h3v7h4.78C141.33,234.34,143.49,236.4,143.49,239.86Zm-3.07,0c0-1.73-1-2.76-3.34-2.76h-4.67v5.55H137C139.33,242.62,140.42,241.54,140.42,239.84Z"></path> <path class="cls-7" d="M162.12,230.13h-5.71v15.28h-3V230.13h-5.68v-2.79h14.41Z"></path> <path class="cls-7" d="M176.19,245.41h-3.36l3.6-6.4-6.62-11.66h3.39l4.91,8.51,4.86-8.51h3.36Z"></path> <path class="cls-7" d="M208.78,233.28c0,3.54-2.48,6-6.57,6h-4.64v6.12h-3V227.35h7.66C206.3,227.35,208.78,229.72,208.78,233.28Zm-3.07,0c0-1.83-1.15-3.17-3.6-3.17h-4.54v6.37h4.54C204.56,236.51,205.71,235.14,205.71,233.31Z"></path> <path class="cls-7" d="M233.15,227.35v18.06h-3v-7.9h-9.58v7.9h-3V227.35h3v7.38h9.58v-7.38Z"></path> <path class="cls-7" d="M256.79,239.86c0,3.43-2.29,5.55-6.38,5.55H242.7V227.35h3v7h4.78C254.63,234.34,256.79,236.4,256.79,239.86Zm-3.07,0c0-1.73-1-2.76-3.34-2.76h-4.67v5.55h4.59C252.63,242.62,253.72,241.54,253.72,239.84Zm8.46-12.49v18.06h-3V227.35Z"></path> <path class="cls-7" d="M282.31,245.41l-4.4-6.86-4.35,6.86H270l6.08-9.31-5.82-8.75h3.6L278,233.8l4.14-6.45h3.58l-5.87,8.93,6.06,9.13Z"></path> <path class="cls-7" d="M75.7,276v18.06h-3v-7.56l.29-6.4-9.37,14H60.06V276h3v7.56L62.81,290,72.15,276Z"></path> <path class="cls-7" d="M100.89,276v18.06h-3v-7.9H88.3v7.9h-3V276h3v7.38h9.58V276Z"></path> <path class="cls-7" d="M126.09,276v18.06h-3v-7.56l.29-6.4-9.37,14h-3.55V276h3v7.56L113.2,290,122.54,276Z"></path> <path class="cls-7" d="M153.53,291.3v6.48h-3v-3.69H135.67V276h3V291.3h8.81V276h3V291.3Z"></path> <path class="cls-7" d="M177.39,276v18.06h-3v-7.56l.29-6.4-9.37,14h-3.55V276h3v7.56L164.5,290,173.84,276Z"></path> <path class="cls-7" d="M198.82,289.23h-8.11l-1.9,4.85h-3.2L192.84,276h3.84l7.23,18.06h-3.2Zm-1.09-2.76-3-7.56-3,7.56Z"></path> <path class="cls-7" d="M222.76,278.81h-5.71v15.28h-3V278.81h-5.68V276h14.41Z"></path> <path class="cls-7" d="M246.62,276v18.06h-3v-7.56l.29-6.4-9.37,14H231V276h3v7.56l-.27,6.37L243.07,276Z"></path> <path class="cls-7" d="M270.46,289c0,3.17-2.27,5.11-6.19,5.11h-8.06V276h8c3.63,0,5.68,1.68,5.68,4.64a3.77,3.77,0,0,1-2.48,3.77A4.32,4.32,0,0,1,270.46,289Zm-6.67-10.17h-4.56v4.64h4.59c2.19,0,3-.85,3-2.32S265.95,278.81,263.79,278.81Zm3.63,9.93c0-1.65-.8-2.61-3.26-2.61h-4.94v5.16h5C266.64,291.3,267.42,290.29,267.42,288.74Z"></path> </g> </g> </svg> 